<?xml version="1.0" encoding="UTF-8" standalone="no"?>
<!DOCTYPE svg PUBLIC "-//W3C//DTD SVG 1.1//EN"
 "http://www.w3.org/Graphics/SVG/1.1/DTD/svg11.dtd">
<!-- Generated by graphviz version 2.43.0 (0)
 -->
<!-- Title: snakemake_dag Pages: 1 -->
<svg width="1421pt" height="620pt"
 viewBox="0.00 0.00 1420.50 620.00" xmlns="http://www.w3.org/2000/svg" xmlns:xlink="http://www.w3.org/1999/xlink">
<g id="graph0" class="graph" transform="scale(1 1) rotate(0) translate(4 616)">
<title>snakemake_dag</title>
<polygon fill="white" stroke="transparent" points="-4,4 -4,-616 1416.5,-616 1416.5,4 -4,4"/>
<!-- 0 -->
<g id="node1" class="node">
<title>0</title>
<path fill="none" stroke="#56d0d8" stroke-width="2" d="M632.5,-396C632.5,-396 507.5,-396 507.5,-396 501.5,-396 495.5,-390 495.5,-384 495.5,-384 495.5,-372 495.5,-372 495.5,-366 501.5,-360 507.5,-360 507.5,-360 632.5,-360 632.5,-360 638.5,-360 644.5,-366 644.5,-372 644.5,-372 644.5,-384 644.5,-384 644.5,-390 638.5,-396 632.5,-396"/>
<text text-anchor="middle" x="570" y="-375.5" font-family="sans" font-size="10.00">split_h5n1_final_by_segment</text>
</g>
<!-- 6 -->
<g id="node7" class="node">
<title>6</title>
<path fill="none" stroke="#bed856" stroke-width="2" d="M625,-324C625,-324 515,-324 515,-324 509,-324 503,-318 503,-312 503,-312 503,-300 503,-300 503,-294 509,-288 515,-288 515,-288 625,-288 625,-288 631,-288 637,-294 637,-300 637,-300 637,-312 637,-312 637,-318 631,-324 625,-324"/>
<text text-anchor="middle" x="570" y="-303.5" font-family="sans" font-size="10.00">mafft_align_per_segment</text>
</g>
<!-- 0&#45;&gt;6 -->
<g id="edge8" class="edge">
<title>0&#45;&gt;6</title>
<path fill="none" stroke="grey" stroke-width="2" d="M570,-359.7C570,-351.98 570,-342.71 570,-334.11"/>
<polygon fill="grey" stroke="grey" stroke-width="2" points="573.5,-334.1 570,-324.1 566.5,-334.1 573.5,-334.1"/>
</g>
<!-- 1 -->
<g id="node2" class="node">
<title>1</title>
<path fill="none" stroke="#d8ac56" stroke-width="2" d="M617.5,-468C617.5,-468 522.5,-468 522.5,-468 516.5,-468 510.5,-462 510.5,-456 510.5,-456 510.5,-444 510.5,-444 510.5,-438 516.5,-432 522.5,-432 522.5,-432 617.5,-432 617.5,-432 623.5,-432 629.5,-438 629.5,-444 629.5,-444 629.5,-456 629.5,-456 629.5,-462 623.5,-468 617.5,-468"/>
<text text-anchor="middle" x="570" y="-447.5" font-family="sans" font-size="10.00">build_h5n1_final_fasta</text>
</g>
<!-- 1&#45;&gt;0 -->
<g id="edge1" class="edge">
<title>1&#45;&gt;0</title>
<path fill="none" stroke="grey" stroke-width="2" d="M570,-431.7C570,-423.98 570,-414.71 570,-406.11"/>
<polygon fill="grey" stroke="grey" stroke-width="2" points="573.5,-406.1 570,-396.1 566.5,-406.1 573.5,-406.1"/>
</g>
<!-- 2 -->
<g id="node3" class="node">
<title>2</title>
<path fill="none" stroke="#d89c56" stroke-width="2" d="M613,-540C613,-540 527,-540 527,-540 521,-540 515,-534 515,-528 515,-528 515,-516 515,-516 515,-510 521,-504 527,-504 527,-504 613,-504 613,-504 619,-504 625,-510 625,-516 625,-516 625,-528 625,-528 625,-534 619,-540 613,-540"/>
<text text-anchor="middle" x="570" y="-519.5" font-family="sans" font-size="10.00">build_h5n1_ec_fasta</text>
</g>
<!-- 2&#45;&gt;1 -->
<g id="edge2" class="edge">
<title>2&#45;&gt;1</title>
<path fill="none" stroke="grey" stroke-width="2" d="M570,-503.7C570,-495.98 570,-486.71 570,-478.11"/>
<polygon fill="grey" stroke="grey" stroke-width="2" points="573.5,-478.1 570,-468.1 566.5,-478.1 573.5,-478.1"/>
</g>
<!-- 3 -->
<g id="node4" class="node">
<title>3</title>
<path fill="none" stroke="#d87556" stroke-width="2" d="M646,-612C646,-612 494,-612 494,-612 488,-612 482,-606 482,-600 482,-600 482,-588 482,-588 482,-582 488,-576 494,-576 494,-576 646,-576 646,-576 652,-576 658,-582 658,-588 658,-588 658,-600 658,-600 658,-606 652,-612 646,-612"/>
<text text-anchor="middle" x="570" y="-591.5" font-family="sans" font-size="10.00">build_ecuador_intermediate_input</text>
</g>
<!-- 3&#45;&gt;2 -->
<g id="edge3" class="edge">
<title>3&#45;&gt;2</title>
<path fill="none" stroke="grey" stroke-width="2" d="M570,-575.7C570,-567.98 570,-558.71 570,-550.11"/>
<polygon fill="grey" stroke="grey" stroke-width="2" points="573.5,-550.1 570,-540.1 566.5,-550.1 573.5,-550.1"/>
</g>
<!-- 4 -->
<g id="node5" class="node">
<title>4</title>
<path fill="none" stroke="#56a9d8" stroke-width="2" d="M256.5,-36C256.5,-36 73.5,-36 73.5,-36 67.5,-36 61.5,-30 61.5,-24 61.5,-24 61.5,-12 61.5,-12 61.5,-6 67.5,0 73.5,0 73.5,0 256.5,0 256.5,0 262.5,0 268.5,-6 268.5,-12 268.5,-12 268.5,-24 268.5,-24 268.5,-30 262.5,-36 256.5,-36"/>
<text text-anchor="middle" x="165" y="-15.5" font-family="sans" font-size="10.00">summarize_segment_codon_rf_instability</text>
</g>
<!-- 5 -->
<g id="node6" class="node">
<title>5</title>
<path fill="none" stroke="#56d86b" stroke-width="2" d="M188,-180C188,-180 12,-180 12,-180 6,-180 0,-174 0,-168 0,-168 0,-156 0,-156 0,-150 6,-144 12,-144 12,-144 188,-144 188,-144 194,-144 200,-150 200,-156 200,-156 200,-168 200,-168 200,-174 194,-180 188,-180"/>
<text text-anchor="middle" x="100" y="-159.5" font-family="sans" font-size="10.00">raxml_ng_tree_segment_codon_rf_base</text>
</g>
<!-- 5&#45;&gt;4 -->
<g id="edge4" class="edge">
<title>5&#45;&gt;4</title>
<path fill="none" stroke="grey" stroke-width="2" d="M101.69,-143.81C104.04,-125.27 109.39,-95.3 121,-72 126.01,-61.94 133.27,-52.13 140.46,-43.73"/>
<polygon fill="grey" stroke="grey" stroke-width="2" points="143.18,-45.94 147.24,-36.16 137.96,-41.27 143.18,-45.94"/>
</g>
<!-- 8 -->
<g id="node9" class="node">
<title>8</title>
<path fill="none" stroke="#56d87b" stroke-width="2" d="M312,-108C312,-108 142,-108 142,-108 136,-108 130,-102 130,-96 130,-96 130,-84 130,-84 130,-78 136,-72 142,-72 142,-72 312,-72 312,-72 318,-72 324,-78 324,-84 324,-84 324,-96 324,-96 324,-102 318,-108 312,-108"/>
<text text-anchor="middle" x="227" y="-87.5" font-family="sans" font-size="10.00">raxml_ng_tree_segment_codon_rf_rep</text>
</g>
<!-- 5&#45;&gt;8 -->
<g id="edge10" class="edge">
<title>5&#45;&gt;8</title>
<path fill="none" stroke="grey" stroke-width="2" d="M131.07,-143.88C147.83,-134.64 168.71,-123.13 186.7,-113.21"/>
<polygon fill="grey" stroke="grey" stroke-width="2" points="188.74,-116.08 195.81,-108.19 185.37,-109.95 188.74,-116.08"/>
</g>
<!-- 6&#45;&gt;5 -->
<g id="edge7" class="edge">
<title>6&#45;&gt;5</title>
<path fill="none" stroke="grey" stroke-width="2" d="M502.95,-305.08C429.25,-302.92 308.75,-292.66 214,-252 178.86,-236.92 145.18,-208.28 123.67,-187.56"/>
<polygon fill="grey" stroke="grey" stroke-width="2" points="125.89,-184.84 116.31,-180.32 120.98,-189.83 125.89,-184.84"/>
</g>
<!-- 7 -->
<g id="node8" class="node">
<title>7</title>
<path fill="none" stroke="#d8bc56" stroke-width="2" d="M410.5,-252C410.5,-252 267.5,-252 267.5,-252 261.5,-252 255.5,-246 255.5,-240 255.5,-240 255.5,-228 255.5,-228 255.5,-222 261.5,-216 267.5,-216 267.5,-216 410.5,-216 410.5,-216 416.5,-216 422.5,-222 422.5,-228 422.5,-228 422.5,-240 422.5,-240 422.5,-246 416.5,-252 410.5,-252"/>
<text text-anchor="middle" x="339" y="-231.5" font-family="sans" font-size="10.00">build_segment_codon_partitions</text>
</g>
<!-- 6&#45;&gt;7 -->
<g id="edge9" class="edge">
<title>6&#45;&gt;7</title>
<path fill="none" stroke="grey" stroke-width="2" d="M513.79,-287.97C481.09,-278.06 439.7,-265.51 405.4,-255.12"/>
<polygon fill="grey" stroke="grey" stroke-width="2" points="406.05,-251.66 395.47,-252.11 404.02,-258.36 406.05,-251.66"/>
</g>
<!-- 6&#45;&gt;8 -->
<g id="edge12" class="edge">
<title>6&#45;&gt;8</title>
<path fill="none" stroke="grey" stroke-width="2" d="M502.84,-303.23C418.43,-299.51 280.37,-287.94 246,-252 211.89,-216.33 215.59,-153.98 221.31,-118.24"/>
<polygon fill="grey" stroke="grey" stroke-width="2" points="224.82,-118.52 223.11,-108.07 217.93,-117.3 224.82,-118.52"/>
</g>
<!-- 9 -->
<g id="node10" class="node">
<title>9</title>
<path fill="none" stroke="#d8d356" stroke-width="2" d="M662,-108C662,-108 478,-108 478,-108 472,-108 466,-102 466,-96 466,-96 466,-84 466,-84 466,-78 472,-72 478,-72 478,-72 662,-72 662,-72 668,-72 674,-78 674,-84 674,-84 674,-96 674,-96 674,-102 668,-108 662,-108"/>
<text text-anchor="middle" x="570" y="-87.5" font-family="sans" font-size="10.00">concat_aligned_segments_with_partitions</text>
</g>
<!-- 6&#45;&gt;9 -->
<g id="edge14" class="edge">
<title>6&#45;&gt;9</title>
<path fill="none" stroke="grey" stroke-width="2" d="M627.25,-287.96C644.33,-279.91 661.11,-268.35 671,-252 679.28,-238.31 676.33,-231.09 671,-216 656.65,-175.41 622.91,-138.34 598.36,-115.29"/>
<polygon fill="grey" stroke="grey" stroke-width="2" points="600.49,-112.49 590.75,-108.31 595.76,-117.65 600.49,-112.49"/>
</g>
<!-- 10 -->
<g id="node11" class="node">
<title>10</title>
<path fill="none" stroke="#78d856" stroke-width="2" d="M529,-180C529,-180 371,-180 371,-180 365,-180 359,-174 359,-168 359,-168 359,-156 359,-156 359,-150 365,-144 371,-144 371,-144 529,-144 529,-144 535,-144 541,-150 541,-156 541,-156 541,-168 541,-168 541,-174 535,-180 529,-180"/>
<text text-anchor="middle" x="450" y="-159.5" font-family="sans" font-size="10.00">raxml_ng_tree_per_segment_codon</text>
</g>
<!-- 6&#45;&gt;10 -->
<g id="edge17" class="edge">
<title>6&#45;&gt;10</title>
<path fill="none" stroke="grey" stroke-width="2" d="M517.31,-287.89C499.54,-279.66 481.15,-268.01 469,-252 455.61,-234.34 451.19,-209.32 449.93,-190.3"/>
<polygon fill="grey" stroke="grey" stroke-width="2" points="453.42,-190.02 449.51,-180.17 446.42,-190.3 453.42,-190.02"/>
</g>
<!-- 11 -->
<g id="node12" class="node">
<title>11</title>
<path fill="none" stroke="#59d856" stroke-width="2" d="M650,-252C650,-252 490,-252 490,-252 484,-252 478,-246 478,-240 478,-240 478,-228 478,-228 478,-222 484,-216 490,-216 490,-216 650,-216 650,-216 656,-216 662,-222 662,-228 662,-228 662,-240 662,-240 662,-246 656,-252 650,-252"/>
<text text-anchor="middle" x="570" y="-231.5" font-family="sans" font-size="10.00">raxml_ng_tree_per_segment_simple</text>
</g>
<!-- 6&#45;&gt;11 -->
<g id="edge18" class="edge">
<title>6&#45;&gt;11</title>
<path fill="none" stroke="grey" stroke-width="2" d="M570,-287.7C570,-279.98 570,-270.71 570,-262.11"/>
<polygon fill="grey" stroke="grey" stroke-width="2" points="573.5,-262.1 570,-252.1 566.5,-262.1 573.5,-262.1"/>
</g>
<!-- 13 -->
<g id="node14" class="node">
<title>13</title>
<path fill="none" stroke="#56d88a" stroke-width="2" d="M908,-252C908,-252 730,-252 730,-252 724,-252 718,-246 718,-240 718,-240 718,-228 718,-228 718,-222 724,-216 730,-216 730,-216 908,-216 908,-216 914,-216 920,-222 920,-228 920,-228 920,-240 920,-240 920,-246 914,-252 908,-252"/>
<text text-anchor="middle" x="819" y="-231.5" font-family="sans" font-size="10.00">raxml_ng_tree_segment_simple_rf_base</text>
</g>
<!-- 6&#45;&gt;13 -->
<g id="edge21" class="edge">
<title>6&#45;&gt;13</title>
<path fill="none" stroke="grey" stroke-width="2" d="M630.59,-287.97C666.14,-277.97 711.22,-265.3 748.38,-254.85"/>
<polygon fill="grey" stroke="grey" stroke-width="2" points="749.45,-258.19 758.13,-252.11 747.56,-251.45 749.45,-258.19"/>
</g>
<!-- 14 -->
<g id="node15" class="node">
<title>14</title>
<path fill="none" stroke="#56d89a" stroke-width="2" d="M985,-180C985,-180 813,-180 813,-180 807,-180 801,-174 801,-168 801,-168 801,-156 801,-156 801,-150 807,-144 813,-144 813,-144 985,-144 985,-144 991,-144 997,-150 997,-156 997,-156 997,-168 997,-168 997,-174 991,-180 985,-180"/>
<text text-anchor="middle" x="899" y="-159.5" font-family="sans" font-size="10.00">raxml_ng_tree_segment_simple_rf_rep</text>
</g>
<!-- 6&#45;&gt;14 -->
<g id="edge23" class="edge">
<title>6&#45;&gt;14</title>
<path fill="none" stroke="grey" stroke-width="2" d="M637.12,-305.1C730.42,-303.64 892.05,-294.8 929,-252 944.43,-234.12 932.8,-207.99 919.79,-188.66"/>
<polygon fill="grey" stroke="grey" stroke-width="2" points="922.48,-186.41 913.81,-180.32 916.79,-190.48 922.48,-186.41"/>
</g>
<!-- 18 -->
<g id="node19" class="node">
<title>18</title>
<path fill="none" stroke="#ced856" stroke-width="2" d="M1225.5,-252C1225.5,-252 1048.5,-252 1048.5,-252 1042.5,-252 1036.5,-246 1036.5,-240 1036.5,-240 1036.5,-228 1036.5,-228 1036.5,-222 1042.5,-216 1048.5,-216 1048.5,-216 1225.5,-216 1225.5,-216 1231.5,-216 1237.5,-222 1237.5,-228 1237.5,-228 1237.5,-240 1237.5,-240 1237.5,-246 1231.5,-252 1225.5,-252"/>
<text text-anchor="middle" x="1137" y="-231.5" font-family="sans" font-size="10.00">concat_codon_validation_with_partitions</text>
</g>
<!-- 6&#45;&gt;18 -->
<g id="edge28" class="edge">
<title>6&#45;&gt;18</title>
<path fill="none" stroke="grey" stroke-width="2" d="M637.27,-296.7C733.33,-284.84 910.92,-262.91 1026.47,-248.65"/>
<polygon fill="grey" stroke="grey" stroke-width="2" points="1026.92,-252.12 1036.41,-247.42 1026.06,-245.17 1026.92,-252.12"/>
</g>
<!-- 7&#45;&gt;5 -->
<g id="edge6" class="edge">
<title>7&#45;&gt;5</title>
<path fill="none" stroke="grey" stroke-width="2" d="M280.84,-215.97C246.87,-206.01 203.82,-193.41 168.24,-182.99"/>
<polygon fill="grey" stroke="grey" stroke-width="2" points="169,-179.56 158.42,-180.11 167.03,-186.28 169,-179.56"/>
</g>
<!-- 7&#45;&gt;8 -->
<g id="edge11" class="edge">
<title>7&#45;&gt;8</title>
<path fill="none" stroke="grey" stroke-width="2" d="M325.49,-215.87C305.9,-191.03 269.47,-144.85 246.83,-116.14"/>
<polygon fill="grey" stroke="grey" stroke-width="2" points="249.5,-113.87 240.56,-108.19 244,-118.21 249.5,-113.87"/>
</g>
<!-- 7&#45;&gt;10 -->
<g id="edge16" class="edge">
<title>7&#45;&gt;10</title>
<path fill="none" stroke="grey" stroke-width="2" d="M366.15,-215.88C380.53,-206.81 398.38,-195.55 413.91,-185.76"/>
<polygon fill="grey" stroke="grey" stroke-width="2" points="416.15,-188.48 422.74,-180.19 412.42,-182.56 416.15,-188.48"/>
</g>
<!-- 8&#45;&gt;4 -->
<g id="edge5" class="edge">
<title>8&#45;&gt;4</title>
<path fill="none" stroke="grey" stroke-width="2" d="M211.67,-71.7C204.24,-63.3 195.18,-53.07 187.02,-43.86"/>
<polygon fill="grey" stroke="grey" stroke-width="2" points="189.4,-41.27 180.15,-36.1 184.16,-45.91 189.4,-41.27"/>
</g>
<!-- 15 -->
<g id="node16" class="node">
<title>15</title>
<path fill="none" stroke="#afd856" stroke-width="2" d="M626,-36C626,-36 514,-36 514,-36 508,-36 502,-30 502,-24 502,-24 502,-12 502,-12 502,-6 508,0 514,0 514,0 626,0 626,0 632,0 638,-6 638,-12 638,-12 638,-24 638,-24 638,-30 632,-36 626,-36"/>
<text text-anchor="middle" x="570" y="-15.5" font-family="sans" font-size="10.00">raxml_ng_tree_full_concat</text>
</g>
<!-- 9&#45;&gt;15 -->
<g id="edge24" class="edge">
<title>9&#45;&gt;15</title>
<path fill="none" stroke="grey" stroke-width="2" d="M570,-71.7C570,-63.98 570,-54.71 570,-46.11"/>
<polygon fill="grey" stroke="grey" stroke-width="2" points="573.5,-46.1 570,-36.1 566.5,-46.1 573.5,-46.1"/>
</g>
<!-- 10&#45;&gt;9 -->
<g id="edge15" class="edge">
<title>10&#45;&gt;9</title>
<path fill="none" stroke="grey" stroke-width="2" d="M479.36,-143.88C495.05,-134.72 514.56,-123.34 531.45,-113.48"/>
<polygon fill="grey" stroke="grey" stroke-width="2" points="533.66,-116.25 540.53,-108.19 530.13,-110.21 533.66,-116.25"/>
</g>
<!-- 11&#45;&gt;9 -->
<g id="edge13" class="edge">
<title>11&#45;&gt;9</title>
<path fill="none" stroke="grey" stroke-width="2" d="M570,-215.87C570,-191.67 570,-147.21 570,-118.39"/>
<polygon fill="grey" stroke="grey" stroke-width="2" points="573.5,-118.19 570,-108.19 566.5,-118.19 573.5,-118.19"/>
</g>
<!-- 12 -->
<g id="node13" class="node">
<title>12</title>
<path fill="none" stroke="#569ad8" stroke-width="2" d="M963.5,-108C963.5,-108 778.5,-108 778.5,-108 772.5,-108 766.5,-102 766.5,-96 766.5,-96 766.5,-84 766.5,-84 766.5,-78 772.5,-72 778.5,-72 778.5,-72 963.5,-72 963.5,-72 969.5,-72 975.5,-78 975.5,-84 975.5,-84 975.5,-96 975.5,-96 975.5,-102 969.5,-108 963.5,-108"/>
<text text-anchor="middle" x="871" y="-87.5" font-family="sans" font-size="10.00">summarize_segment_simple_rf_instability</text>
</g>
<!-- 13&#45;&gt;12 -->
<g id="edge20" class="edge">
<title>13&#45;&gt;12</title>
<path fill="none" stroke="grey" stroke-width="2" d="M806.22,-215.83C794.12,-197.32 779.54,-167.37 792,-144 798.69,-131.45 809.82,-121.35 821.64,-113.47"/>
<polygon fill="grey" stroke="grey" stroke-width="2" points="823.64,-116.34 830.32,-108.12 819.97,-110.39 823.64,-116.34"/>
</g>
<!-- 13&#45;&gt;14 -->
<g id="edge22" class="edge">
<title>13&#45;&gt;14</title>
<path fill="none" stroke="grey" stroke-width="2" d="M838.78,-215.7C848.75,-206.97 861.01,-196.24 871.86,-186.75"/>
<polygon fill="grey" stroke="grey" stroke-width="2" points="874.23,-189.32 879.45,-180.1 869.62,-184.06 874.23,-189.32"/>
</g>
<!-- 14&#45;&gt;12 -->
<g id="edge19" class="edge">
<title>14&#45;&gt;12</title>
<path fill="none" stroke="grey" stroke-width="2" d="M892.08,-143.7C888.93,-135.81 885.12,-126.3 881.62,-117.55"/>
<polygon fill="grey" stroke="grey" stroke-width="2" points="884.81,-116.09 877.84,-108.1 878.31,-118.69 884.81,-116.09"/>
</g>
<!-- 16 -->
<g id="node17" class="node">
<title>16</title>
<path fill="none" stroke="#56c1d8" stroke-width="2" d="M1329.5,-36C1329.5,-36 1090.5,-36 1090.5,-36 1084.5,-36 1078.5,-30 1078.5,-24 1078.5,-24 1078.5,-12 1078.5,-12 1078.5,-6 1084.5,0 1090.5,0 1090.5,0 1329.5,0 1329.5,0 1335.5,0 1341.5,-6 1341.5,-12 1341.5,-12 1341.5,-24 1341.5,-24 1341.5,-30 1335.5,-36 1329.5,-36"/>
<text text-anchor="middle" x="1210" y="-15.5" font-family="sans" font-size="10.00">summarize_full_concat_codon_validation_rf_instability</text>
</g>
<!-- 17 -->
<g id="node18" class="node">
<title>17</title>
<path fill="none" stroke="#9fd856" stroke-width="2" d="M1247,-180C1247,-180 1027,-180 1027,-180 1021,-180 1015,-174 1015,-168 1015,-168 1015,-156 1015,-156 1015,-150 1021,-144 1027,-144 1027,-144 1247,-144 1247,-144 1253,-144 1259,-150 1259,-156 1259,-156 1259,-168 1259,-168 1259,-174 1253,-180 1247,-180"/>
<text text-anchor="middle" x="1137" y="-159.5" font-family="sans" font-size="10.00">raxml_ng_tree_full_concat_codon_validation_base</text>
</g>
<!-- 17&#45;&gt;16 -->
<g id="edge25" class="edge">
<title>17&#45;&gt;16</title>
<path fill="none" stroke="grey" stroke-width="2" d="M1136.65,-143.86C1136.98,-125.11 1139.63,-94.71 1152,-72 1158.07,-60.86 1167.37,-50.83 1176.77,-42.56"/>
<polygon fill="grey" stroke="grey" stroke-width="2" points="1179.16,-45.12 1184.62,-36.04 1174.69,-39.74 1179.16,-45.12"/>
</g>
<!-- 19 -->
<g id="node20" class="node">
<title>19</title>
<path fill="none" stroke="#88d856" stroke-width="2" d="M1400.5,-108C1400.5,-108 1173.5,-108 1173.5,-108 1167.5,-108 1161.5,-102 1161.5,-96 1161.5,-96 1161.5,-84 1161.5,-84 1161.5,-78 1167.5,-72 1173.5,-72 1173.5,-72 1400.5,-72 1400.5,-72 1406.5,-72 1412.5,-78 1412.5,-84 1412.5,-84 1412.5,-96 1412.5,-96 1412.5,-102 1406.5,-108 1400.5,-108"/>
<text text-anchor="middle" x="1287" y="-87.5" font-family="sans" font-size="10.00">raxml_ng_tree_full_concat_codon_validation_rf_rep</text>
</g>
<!-- 17&#45;&gt;19 -->
<g id="edge29" class="edge">
<title>17&#45;&gt;19</title>
<path fill="none" stroke="grey" stroke-width="2" d="M1173.69,-143.88C1194.02,-134.39 1219.47,-122.51 1241.1,-112.42"/>
<polygon fill="grey" stroke="grey" stroke-width="2" points="1242.84,-115.47 1250.43,-108.07 1239.88,-109.13 1242.84,-115.47"/>
</g>
<!-- 18&#45;&gt;17 -->
<g id="edge27" class="edge">
<title>18&#45;&gt;17</title>
<path fill="none" stroke="grey" stroke-width="2" d="M1137,-215.7C1137,-207.98 1137,-198.71 1137,-190.11"/>
<polygon fill="grey" stroke="grey" stroke-width="2" points="1140.5,-190.1 1137,-180.1 1133.5,-190.1 1140.5,-190.1"/>
</g>
<!-- 18&#45;&gt;19 -->
<g id="edge30" class="edge">
<title>18&#45;&gt;19</title>
<path fill="none" stroke="grey" stroke-width="2" d="M1213.93,-215.98C1234.08,-208.1 1254.04,-196.63 1268,-180 1282.33,-162.93 1286.64,-137.64 1287.62,-118.38"/>
<polygon fill="grey" stroke="grey" stroke-width="2" points="1291.12,-118.19 1287.86,-108.11 1284.12,-118.03 1291.12,-118.19"/>
</g>
<!-- 19&#45;&gt;16 -->
<g id="edge26" class="edge">
<title>19&#45;&gt;16</title>
<path fill="none" stroke="grey" stroke-width="2" d="M1267.97,-71.7C1258.46,-63.05 1246.79,-52.45 1236.43,-43.03"/>
<polygon fill="grey" stroke="grey" stroke-width="2" points="1238.57,-40.24 1228.81,-36.1 1233.86,-45.42 1238.57,-40.24"/>
</g>
</g>
</svg>
