<?xml version="1.0" encoding="UTF-8" standalone="no"?>
<!DOCTYPE svg PUBLIC "-//W3C//DTD SVG 1.1//EN"
 "http://www.w3.org/Graphics/SVG/1.1/DTD/svg11.dtd">
<!-- Generated by graphviz version 2.43.0 (0)
 -->
<!-- Title: snakemake_dag Pages: 1 -->
<svg width="1602pt" height="1556pt"
 viewBox="0.00 0.00 1601.54 1556.00" xmlns="http://www.w3.org/2000/svg" xmlns:xlink="http://www.w3.org/1999/xlink">
<g id="graph0" class="graph" transform="scale(1 1) rotate(0) translate(4 1552)">
<title>snakemake_dag</title>
<polygon fill="white" stroke="transparent" points="-4,4 -4,-1552 1597.54,-1552 1597.54,4 -4,4"/>
<!-- 0 -->
<g id="node1" class="node">
<title>0</title>
<path fill="none" stroke="#d8b456" stroke-width="2" d="M1108,-1404C1108,-1404 1022,-1404 1022,-1404 1016,-1404 1010,-1398 1010,-1392 1010,-1392 1010,-1380 1010,-1380 1010,-1374 1016,-1368 1022,-1368 1022,-1368 1108,-1368 1108,-1368 1114,-1368 1120,-1374 1120,-1380 1120,-1380 1120,-1392 1120,-1392 1120,-1398 1114,-1404 1108,-1404"/>
<text text-anchor="middle" x="1065" y="-1383.5" font-family="sans" font-size="10.00">build_gisaid_outputs</text>
</g>
<!-- 1 -->
<g id="node2" class="node">
<title>1</title>
<path fill="none" stroke="#d89c56" stroke-width="2" d="M1353,-1548C1353,-1548 1201,-1548 1201,-1548 1195,-1548 1189,-1542 1189,-1536 1189,-1536 1189,-1524 1189,-1524 1189,-1518 1195,-1512 1201,-1512 1201,-1512 1353,-1512 1353,-1512 1359,-1512 1365,-1518 1365,-1524 1365,-1524 1365,-1536 1365,-1536 1365,-1542 1359,-1548 1353,-1548"/>
<text text-anchor="middle" x="1277" y="-1527.5" font-family="sans" font-size="10.00">build_ecuador_intermediate_input</text>
</g>
<!-- 1&#45;&gt;0 -->
<g id="edge2" class="edge">
<title>1&#45;&gt;0</title>
<path fill="none" stroke="grey" stroke-width="2" d="M1237.93,-1511.87C1217.65,-1502.34 1192.83,-1489.67 1172,-1476 1142.26,-1456.49 1111.35,-1429.99 1090.44,-1410.99"/>
<polygon fill="grey" stroke="grey" stroke-width="2" points="1092.67,-1408.29 1082.94,-1404.11 1087.94,-1413.45 1092.67,-1408.29"/>
</g>
<!-- 2 -->
<g id="node3" class="node">
<title>2</title>
<path fill="none" stroke="#d8c356" stroke-width="2" d="M1279,-1476C1279,-1476 1193,-1476 1193,-1476 1187,-1476 1181,-1470 1181,-1464 1181,-1464 1181,-1452 1181,-1452 1181,-1446 1187,-1440 1193,-1440 1193,-1440 1279,-1440 1279,-1440 1285,-1440 1291,-1446 1291,-1452 1291,-1452 1291,-1464 1291,-1464 1291,-1470 1285,-1476 1279,-1476"/>
<text text-anchor="middle" x="1236" y="-1455.5" font-family="sans" font-size="10.00">build_h5n1_ec_fasta</text>
</g>
<!-- 1&#45;&gt;2 -->
<g id="edge3" class="edge">
<title>1&#45;&gt;2</title>
<path fill="none" stroke="grey" stroke-width="2" d="M1266.87,-1511.7C1262.15,-1503.64 1256.44,-1493.89 1251.22,-1484.98"/>
<polygon fill="grey" stroke="grey" stroke-width="2" points="1254.09,-1482.96 1246.02,-1476.1 1248.05,-1486.5 1254.09,-1482.96"/>
</g>
<!-- 7 -->
<g id="node8" class="node">
<title>7</title>
<path fill="none" stroke="#61d856" stroke-width="2" d="M1221,-828C1221,-828 1075,-828 1075,-828 1069,-828 1063,-822 1063,-816 1063,-816 1063,-804 1063,-804 1063,-798 1069,-792 1075,-792 1075,-792 1221,-792 1221,-792 1227,-792 1233,-798 1233,-804 1233,-804 1233,-816 1233,-816 1233,-822 1227,-828 1221,-828"/>
<text text-anchor="middle" x="1148" y="-807.5" font-family="sans" font-size="10.00">observe_beast_subset_source_qc</text>
</g>
<!-- 1&#45;&gt;7 -->
<g id="edge20" class="edge">
<title>1&#45;&gt;7</title>
<path fill="none" stroke="grey" stroke-width="2" d="M1301.55,-1511.85C1329.85,-1490.4 1374.81,-1450.77 1393,-1404 1398.8,-1389.09 1393.86,-1383.98 1393,-1368 1384.77,-1215.78 1356,-1179.45 1356,-1027 1356,-1027 1356,-1027 1356,-953 1356,-888.59 1287.14,-851.29 1228.66,-831.23"/>
<polygon fill="grey" stroke="grey" stroke-width="2" points="1229.59,-827.85 1219,-828.04 1227.4,-834.5 1229.59,-827.85"/>
</g>
<!-- 31 -->
<g id="node32" class="node">
<title>31</title>
<path fill="none" stroke="#d8ac56" stroke-width="2" d="M1372,-1404C1372,-1404 1326,-1404 1326,-1404 1320,-1404 1314,-1398 1314,-1392 1314,-1392 1314,-1380 1314,-1380 1314,-1374 1320,-1368 1326,-1368 1326,-1368 1372,-1368 1372,-1368 1378,-1368 1384,-1374 1384,-1380 1384,-1380 1384,-1392 1384,-1392 1384,-1398 1378,-1404 1372,-1404"/>
<text text-anchor="middle" x="1349" y="-1383.5" font-family="sans" font-size="10.00">build_gisaid</text>
</g>
<!-- 1&#45;&gt;31 -->
<g id="edge63" class="edge">
<title>1&#45;&gt;31</title>
<path fill="none" stroke="grey" stroke-width="2" d="M1285.68,-1511.87C1298.12,-1487.35 1321.1,-1442.03 1335.69,-1413.26"/>
<polygon fill="grey" stroke="grey" stroke-width="2" points="1338.88,-1414.69 1340.28,-1404.19 1332.64,-1411.53 1338.88,-1414.69"/>
</g>
<!-- 2&#45;&gt;0 -->
<g id="edge1" class="edge">
<title>2&#45;&gt;0</title>
<path fill="none" stroke="grey" stroke-width="2" d="M1194.17,-1439.88C1170.58,-1430.22 1140.94,-1418.09 1116,-1407.88"/>
<polygon fill="grey" stroke="grey" stroke-width="2" points="1117.28,-1404.62 1106.7,-1404.07 1114.62,-1411.1 1117.28,-1404.62"/>
</g>
<!-- 5 -->
<g id="node6" class="node">
<title>5</title>
<path fill="none" stroke="#d8d356" stroke-width="2" d="M1283.5,-1404C1283.5,-1404 1188.5,-1404 1188.5,-1404 1182.5,-1404 1176.5,-1398 1176.5,-1392 1176.5,-1392 1176.5,-1380 1176.5,-1380 1176.5,-1374 1182.5,-1368 1188.5,-1368 1188.5,-1368 1283.5,-1368 1283.5,-1368 1289.5,-1368 1295.5,-1374 1295.5,-1380 1295.5,-1380 1295.5,-1392 1295.5,-1392 1295.5,-1398 1289.5,-1404 1283.5,-1404"/>
<text text-anchor="middle" x="1236" y="-1383.5" font-family="sans" font-size="10.00">build_h5n1_final_fasta</text>
</g>
<!-- 2&#45;&gt;5 -->
<g id="edge5" class="edge">
<title>2&#45;&gt;5</title>
<path fill="none" stroke="grey" stroke-width="2" d="M1236,-1439.7C1236,-1431.98 1236,-1422.71 1236,-1414.11"/>
<polygon fill="grey" stroke="grey" stroke-width="2" points="1239.5,-1414.1 1236,-1404.1 1232.5,-1414.1 1239.5,-1414.1"/>
</g>
<!-- 2&#45;&gt;7 -->
<g id="edge21" class="edge">
<title>2&#45;&gt;7</title>
<path fill="none" stroke="grey" stroke-width="2" d="M1204.7,-1439.85C1191.14,-1430.88 1176.27,-1418.69 1167,-1404 1145.41,-1369.8 1148,-1355.45 1148,-1315 1148,-1315 1148,-1315 1148,-953 1148,-913 1148,-866.65 1148,-838.08"/>
<polygon fill="grey" stroke="grey" stroke-width="2" points="1151.5,-838.05 1148,-828.05 1144.5,-838.05 1151.5,-838.05"/>
</g>
<!-- 2&#45;&gt;31 -->
<g id="edge62" class="edge">
<title>2&#45;&gt;31</title>
<path fill="none" stroke="grey" stroke-width="2" d="M1263.64,-1439.88C1278.42,-1430.72 1296.79,-1419.34 1312.7,-1409.48"/>
<polygon fill="grey" stroke="grey" stroke-width="2" points="1314.59,-1412.43 1321.25,-1404.19 1310.91,-1406.48 1314.59,-1412.43"/>
</g>
<!-- 3 -->
<g id="node4" class="node">
<title>3</title>
<path fill="none" stroke="#56d863" stroke-width="2" d="M1452.5,-1548C1452.5,-1548 1395.5,-1548 1395.5,-1548 1389.5,-1548 1383.5,-1542 1383.5,-1536 1383.5,-1536 1383.5,-1524 1383.5,-1524 1383.5,-1518 1389.5,-1512 1395.5,-1512 1395.5,-1512 1452.5,-1512 1452.5,-1512 1458.5,-1512 1464.5,-1518 1464.5,-1524 1464.5,-1524 1464.5,-1536 1464.5,-1536 1464.5,-1542 1458.5,-1548 1452.5,-1548"/>
<text text-anchor="middle" x="1424" y="-1527.5" font-family="sans" font-size="10.00">paper_figures</text>
</g>
<!-- 4 -->
<g id="node5" class="node">
<title>4</title>
<path fill="none" stroke="#ced856" stroke-width="2" d="M1277.5,-1332C1277.5,-1332 1188.5,-1332 1188.5,-1332 1182.5,-1332 1176.5,-1326 1176.5,-1320 1176.5,-1320 1176.5,-1308 1176.5,-1308 1176.5,-1302 1182.5,-1296 1188.5,-1296 1188.5,-1296 1277.5,-1296 1277.5,-1296 1283.5,-1296 1289.5,-1302 1289.5,-1308 1289.5,-1308 1289.5,-1320 1289.5,-1320 1289.5,-1326 1283.5,-1332 1277.5,-1332"/>
<text text-anchor="middle" x="1233" y="-1311.5" font-family="sans" font-size="10.00">build_inputs_outputs</text>
</g>
<!-- 5&#45;&gt;4 -->
<g id="edge4" class="edge">
<title>5&#45;&gt;4</title>
<path fill="none" stroke="grey" stroke-width="2" d="M1235.26,-1367.7C1234.93,-1359.98 1234.53,-1350.71 1234.16,-1342.11"/>
<polygon fill="grey" stroke="grey" stroke-width="2" points="1237.66,-1341.95 1233.73,-1332.1 1230.66,-1342.25 1237.66,-1341.95"/>
</g>
<!-- 5&#45;&gt;7 -->
<g id="edge18" class="edge">
<title>5&#45;&gt;7</title>
<path fill="none" stroke="grey" stroke-width="2" d="M1263.94,-1367.77C1276.49,-1358.64 1290.39,-1346.34 1299,-1332 1319.82,-1297.33 1318,-1283.45 1318,-1243 1318,-1243 1318,-1243 1318,-953 1318,-893.39 1255.67,-853.91 1206.5,-832.03"/>
<polygon fill="grey" stroke="grey" stroke-width="2" points="1207.74,-828.76 1197.17,-828.02 1204.97,-835.19 1207.74,-828.76"/>
</g>
<!-- 12 -->
<g id="node13" class="node">
<title>12</title>
<path fill="none" stroke="#56b9d8" stroke-width="2" d="M596.5,-1332C596.5,-1332 471.5,-1332 471.5,-1332 465.5,-1332 459.5,-1326 459.5,-1320 459.5,-1320 459.5,-1308 459.5,-1308 459.5,-1302 465.5,-1296 471.5,-1296 471.5,-1296 596.5,-1296 596.5,-1296 602.5,-1296 608.5,-1302 608.5,-1308 608.5,-1308 608.5,-1320 608.5,-1320 608.5,-1326 602.5,-1332 596.5,-1332"/>
<text text-anchor="middle" x="534" y="-1311.5" font-family="sans" font-size="10.00">split_h5n1_final_by_segment</text>
</g>
<!-- 5&#45;&gt;12 -->
<g id="edge28" class="edge">
<title>5&#45;&gt;12</title>
<path fill="none" stroke="grey" stroke-width="2" d="M1176.4,-1374.79C1160.99,-1372.35 1144.4,-1369.91 1129,-1368 947.92,-1345.58 734.7,-1328.94 619.05,-1320.73"/>
<polygon fill="grey" stroke="grey" stroke-width="2" points="619.07,-1317.22 608.85,-1320.01 618.58,-1324.2 619.07,-1317.22"/>
</g>
<!-- 33 -->
<g id="node34" class="node">
<title>33</title>
<path fill="none" stroke="#d87556" stroke-width="2" d="M672,-36C672,-36 580,-36 580,-36 574,-36 568,-30 568,-24 568,-24 568,-12 568,-12 568,-6 574,0 580,0 580,0 672,0 672,0 678,0 684,-6 684,-12 684,-12 684,-24 684,-24 684,-30 678,-36 672,-36"/>
<text text-anchor="middle" x="626" y="-15.5" font-family="sans" font-size="10.00">all_validation_outputs</text>
</g>
<!-- 5&#45;&gt;33 -->
<g id="edge79" class="edge">
<title>5&#45;&gt;33</title>
<path fill="none" stroke="grey" stroke-width="2" d="M1274.31,-1367.81C1290.26,-1359.04 1307.86,-1347.02 1320,-1332 1410.79,-1219.71 1432,-1171.41 1432,-1027 1432,-1027 1432,-1027 1432,-521 1432,-314.55 1692.74,-222.1 1551,-72 1521.66,-40.93 903.46,-24.92 694.4,-20.38"/>
<polygon fill="grey" stroke="grey" stroke-width="2" points="694.24,-16.87 684.16,-20.16 694.09,-23.87 694.24,-16.87"/>
</g>
<!-- 6 -->
<g id="node7" class="node">
<title>6</title>
<path fill="none" stroke="#56d873" stroke-width="2" d="M836.5,-180C836.5,-180 757.5,-180 757.5,-180 751.5,-180 745.5,-174 745.5,-168 745.5,-168 745.5,-156 745.5,-156 745.5,-150 751.5,-144 757.5,-144 757.5,-144 836.5,-144 836.5,-144 842.5,-144 848.5,-150 848.5,-156 848.5,-156 848.5,-168 848.5,-168 848.5,-174 842.5,-180 836.5,-180"/>
<text text-anchor="middle" x="797" y="-159.5" font-family="sans" font-size="10.00">pre_beast_outputs</text>
</g>
<!-- 7&#45;&gt;6 -->
<g id="edge6" class="edge">
<title>7&#45;&gt;6</title>
<path fill="none" stroke="grey" stroke-width="2" d="M1146.02,-791.98C1143.11,-765.36 1138,-712.23 1138,-667 1138,-667 1138,-667 1138,-449 1138,-408.46 1141.1,-393.32 1118,-360 1101.36,-335.99 1086.43,-341.45 1063,-324 1033.15,-301.77 967.04,-234.94 935,-216 911.2,-201.94 883,-190.33 858.32,-181.59"/>
<polygon fill="grey" stroke="grey" stroke-width="2" points="859.29,-178.22 848.69,-178.27 857,-184.84 859.29,-178.22"/>
</g>
<!-- 17 -->
<g id="node18" class="node">
<title>17</title>
<path fill="none" stroke="#97d856" stroke-width="2" d="M966,-756C966,-756 860,-756 860,-756 854,-756 848,-750 848,-744 848,-744 848,-732 848,-732 848,-726 854,-720 860,-720 860,-720 966,-720 966,-720 972,-720 978,-726 978,-732 978,-732 978,-744 978,-744 978,-750 972,-756 966,-756"/>
<text text-anchor="middle" x="913" y="-735.5" font-family="sans" font-size="10.00">filter_beast_panel_by_qc</text>
</g>
<!-- 7&#45;&gt;17 -->
<g id="edge36" class="edge">
<title>7&#45;&gt;17</title>
<path fill="none" stroke="grey" stroke-width="2" d="M1090.81,-791.97C1057.41,-782.01 1015.08,-769.41 980.1,-758.99"/>
<polygon fill="grey" stroke="grey" stroke-width="2" points="981.03,-755.61 970.44,-756.11 979.03,-762.32 981.03,-755.61"/>
</g>
<!-- 7&#45;&gt;33 -->
<g id="edge87" class="edge">
<title>7&#45;&gt;33</title>
<path fill="none" stroke="grey" stroke-width="2" d="M1219,-791.96C1279.26,-772.78 1356,-734.99 1356,-667 1356,-667 1356,-667 1356,-161 1356,-104.11 1315.81,-95.5 1264,-72 1163.89,-26.59 837.6,-19.71 694.41,-18.93"/>
<polygon fill="grey" stroke="grey" stroke-width="2" points="694.03,-15.43 684.01,-18.88 693.99,-22.43 694.03,-15.43"/>
</g>
<!-- 8 -->
<g id="node9" class="node">
<title>8</title>
<path fill="none" stroke="#d88d56" stroke-width="2" d="M434,-900C434,-900 354,-900 354,-900 348,-900 342,-894 342,-888 342,-888 342,-876 342,-876 342,-870 348,-864 354,-864 354,-864 434,-864 434,-864 440,-864 446,-870 446,-876 446,-876 446,-888 446,-888 446,-894 440,-900 434,-900"/>
<text text-anchor="middle" x="394" y="-879.5" font-family="sans" font-size="10.00">build_beast_panels</text>
</g>
<!-- 8&#45;&gt;7 -->
<g id="edge19" class="edge">
<title>8&#45;&gt;7</title>
<path fill="none" stroke="grey" stroke-width="2" d="M446.09,-865.76C449.09,-865.11 452.08,-864.51 455,-864 666.23,-826.86 918.22,-815.74 1052.54,-812.42"/>
<polygon fill="grey" stroke="grey" stroke-width="2" points="1052.88,-815.91 1062.79,-812.17 1052.71,-808.91 1052.88,-815.91"/>
</g>
<!-- 8&#45;&gt;17 -->
<g id="edge37" class="edge">
<title>8&#45;&gt;17</title>
<path fill="none" stroke="grey" stroke-width="2" d="M446.24,-866.42C449.2,-865.6 452.14,-864.79 455,-864 590.94,-826.51 749.74,-783.3 840.13,-758.76"/>
<polygon fill="grey" stroke="grey" stroke-width="2" points="841.27,-762.08 850,-756.08 839.43,-755.32 841.27,-762.08"/>
</g>
<!-- 9 -->
<g id="node10" class="node">
<title>9</title>
<path fill="none" stroke="#56d89a" stroke-width="2" d="M380,-972C380,-972 268,-972 268,-972 262,-972 256,-966 256,-960 256,-960 256,-948 256,-948 256,-942 262,-936 268,-936 268,-936 380,-936 380,-936 386,-936 392,-942 392,-948 392,-948 392,-960 392,-960 392,-966 386,-972 380,-972"/>
<text text-anchor="middle" x="324" y="-951.5" font-family="sans" font-size="10.00">raxml_ng_tree_full_concat</text>
</g>
<!-- 9&#45;&gt;8 -->
<g id="edge22" class="edge">
<title>9&#45;&gt;8</title>
<path fill="none" stroke="grey" stroke-width="2" d="M341.3,-935.7C349.86,-927.14 360.34,-916.66 369.7,-907.3"/>
<polygon fill="grey" stroke="grey" stroke-width="2" points="372.3,-909.65 376.9,-900.1 367.35,-904.7 372.3,-909.65"/>
</g>
<!-- 16 -->
<g id="node17" class="node">
<title>16</title>
<path fill="none" stroke="#56a9d8" stroke-width="2" d="M801,-684C801,-684 545,-684 545,-684 539,-684 533,-678 533,-672 533,-672 533,-660 533,-660 533,-654 539,-648 545,-648 545,-648 801,-648 801,-648 807,-648 813,-654 813,-660 813,-660 813,-672 813,-672 813,-678 807,-684 801,-684"/>
<text text-anchor="middle" x="673" y="-663.5" font-family="sans" font-size="10.00">subset_filtered_panel_concat_alignment_and_prune_tree</text>
</g>
<!-- 9&#45;&gt;16 -->
<g id="edge33" class="edge">
<title>9&#45;&gt;16</title>
<path fill="none" stroke="grey" stroke-width="2" d="M321.37,-935.77C319.38,-916.65 319.02,-885.66 333,-864 394.77,-768.3 520.59,-713.64 600.64,-687.19"/>
<polygon fill="grey" stroke="grey" stroke-width="2" points="601.73,-690.51 610.17,-684.1 599.58,-683.85 601.73,-690.51"/>
</g>
<!-- 32 -->
<g id="node33" class="node">
<title>32</title>
<path fill="none" stroke="#70d856" stroke-width="2" d="M544,-900C544,-900 476,-900 476,-900 470,-900 464,-894 464,-888 464,-888 464,-876 464,-876 464,-870 470,-864 476,-864 476,-864 544,-864 544,-864 550,-864 556,-870 556,-876 556,-876 556,-888 556,-888 556,-894 550,-900 544,-900"/>
<text text-anchor="middle" x="510" y="-879.5" font-family="sans" font-size="10.00">main_phylogeny</text>
</g>
<!-- 9&#45;&gt;32 -->
<g id="edge67" class="edge">
<title>9&#45;&gt;32</title>
<path fill="none" stroke="grey" stroke-width="2" d="M369.5,-935.88C395.38,-926.14 427.97,-913.87 455.24,-903.61"/>
<polygon fill="grey" stroke="grey" stroke-width="2" points="456.52,-906.87 464.65,-900.07 454.06,-900.31 456.52,-906.87"/>
</g>
<!-- 9&#45;&gt;33 -->
<g id="edge82" class="edge">
<title>9&#45;&gt;33</title>
<path fill="none" stroke="grey" stroke-width="2" d="M303.65,-935.87C266.16,-902.27 190,-823.6 190,-739 190,-739 190,-739 190,-593 190,-496.4 152,-475.6 152,-379 152,-379 152,-379 152,-161 152,-114.03 169.3,-97.1 209,-72 265.49,-36.29 454.59,-24.55 557.64,-20.76"/>
<polygon fill="grey" stroke="grey" stroke-width="2" points="557.77,-24.25 567.64,-20.4 557.52,-17.26 557.77,-24.25"/>
</g>
<!-- 10 -->
<g id="node11" class="node">
<title>10</title>
<path fill="none" stroke="#a7d856" stroke-width="2" d="M416,-1044C416,-1044 232,-1044 232,-1044 226,-1044 220,-1038 220,-1032 220,-1032 220,-1020 220,-1020 220,-1014 226,-1008 232,-1008 232,-1008 416,-1008 416,-1008 422,-1008 428,-1014 428,-1020 428,-1020 428,-1032 428,-1032 428,-1038 422,-1044 416,-1044"/>
<text text-anchor="middle" x="324" y="-1023.5" font-family="sans" font-size="10.00">concat_aligned_segments_with_partitions</text>
</g>
<!-- 10&#45;&gt;9 -->
<g id="edge23" class="edge">
<title>10&#45;&gt;9</title>
<path fill="none" stroke="grey" stroke-width="2" d="M324,-1007.7C324,-999.98 324,-990.71 324,-982.11"/>
<polygon fill="grey" stroke="grey" stroke-width="2" points="327.5,-982.1 324,-972.1 320.5,-982.1 327.5,-982.1"/>
</g>
<!-- 10&#45;&gt;16 -->
<g id="edge34" class="edge">
<title>10&#45;&gt;16</title>
<path fill="none" stroke="grey" stroke-width="2" d="M287.91,-1007.9C273.1,-999.15 257.1,-987.11 247,-972 224.53,-938.37 228,-923.45 228,-883 228,-883 228,-883 228,-809 228,-745.23 395.96,-706.22 525.51,-685.61"/>
<polygon fill="grey" stroke="grey" stroke-width="2" points="526.21,-689.05 535.55,-684.04 525.13,-682.13 526.21,-689.05"/>
</g>
<!-- 10&#45;&gt;32 -->
<g id="edge64" class="edge">
<title>10&#45;&gt;32</title>
<path fill="none" stroke="grey" stroke-width="2" d="M350.1,-1007.93C365.21,-997.82 384.46,-984.57 401,-972 420.84,-956.92 424.73,-951.8 444,-936 455.89,-926.25 469.08,-915.62 480.53,-906.46"/>
<polygon fill="grey" stroke="grey" stroke-width="2" points="482.88,-909.05 488.51,-900.08 478.51,-903.59 482.88,-909.05"/>
</g>
<!-- 10&#45;&gt;33 -->
<g id="edge69" class="edge">
<title>10&#45;&gt;33</title>
<path fill="none" stroke="grey" stroke-width="2" d="M273.79,-1007.96C223.02,-987.17 152,-946.7 152,-883 152,-883 152,-883 152,-737 152,-608.77 114,-579.23 114,-451 114,-451 114,-451 114,-161 114,-115.85 125.5,-97.15 163,-72 225.96,-29.78 444.85,-20.97 557.64,-19.28"/>
<polygon fill="grey" stroke="grey" stroke-width="2" points="557.93,-22.78 567.89,-19.14 557.84,-15.78 557.93,-22.78"/>
</g>
<!-- 11 -->
<g id="node12" class="node">
<title>11</title>
<path fill="none" stroke="#80d856" stroke-width="2" d="M381,-1260C381,-1260 271,-1260 271,-1260 265,-1260 259,-1254 259,-1248 259,-1248 259,-1236 259,-1236 259,-1230 265,-1224 271,-1224 271,-1224 381,-1224 381,-1224 387,-1224 393,-1230 393,-1236 393,-1236 393,-1248 393,-1248 393,-1254 387,-1260 381,-1260"/>
<text text-anchor="middle" x="326" y="-1239.5" font-family="sans" font-size="10.00">mafft_align_per_segment</text>
</g>
<!-- 11&#45;&gt;10 -->
<g id="edge24" class="edge">
<title>11&#45;&gt;10</title>
<path fill="none" stroke="grey" stroke-width="2" d="M358.91,-1223.97C409.56,-1195.46 496.98,-1135.72 459,-1080 449.6,-1066.22 436.03,-1056.02 421.07,-1048.47"/>
<polygon fill="grey" stroke="grey" stroke-width="2" points="422.15,-1045.11 411.6,-1044.11 419.22,-1051.47 422.15,-1045.11"/>
</g>
<!-- 13 -->
<g id="node14" class="node">
<title>13</title>
<path fill="none" stroke="#56d8a9" stroke-width="2" d="M236,-1116C236,-1116 78,-1116 78,-1116 72,-1116 66,-1110 66,-1104 66,-1104 66,-1092 66,-1092 66,-1086 72,-1080 78,-1080 78,-1080 236,-1080 236,-1080 242,-1080 248,-1086 248,-1092 248,-1092 248,-1104 248,-1104 248,-1110 242,-1116 236,-1116"/>
<text text-anchor="middle" x="157" y="-1095.5" font-family="sans" font-size="10.00">raxml_ng_tree_per_segment_codon</text>
</g>
<!-- 11&#45;&gt;13 -->
<g id="edge30" class="edge">
<title>11&#45;&gt;13</title>
<path fill="none" stroke="grey" stroke-width="2" d="M315.62,-1223.86C303.28,-1204.54 281.15,-1173.1 256,-1152 241.38,-1139.74 223.47,-1129.1 206.92,-1120.65"/>
<polygon fill="grey" stroke="grey" stroke-width="2" points="208.41,-1117.48 197.89,-1116.18 205.3,-1123.75 208.41,-1117.48"/>
</g>
<!-- 14 -->
<g id="node15" class="node">
<title>14</title>
<path fill="none" stroke="#c6d856" stroke-width="2" d="M235.5,-1188C235.5,-1188 92.5,-1188 92.5,-1188 86.5,-1188 80.5,-1182 80.5,-1176 80.5,-1176 80.5,-1164 80.5,-1164 80.5,-1158 86.5,-1152 92.5,-1152 92.5,-1152 235.5,-1152 235.5,-1152 241.5,-1152 247.5,-1158 247.5,-1164 247.5,-1164 247.5,-1176 247.5,-1176 247.5,-1182 241.5,-1188 235.5,-1188"/>
<text text-anchor="middle" x="164" y="-1167.5" font-family="sans" font-size="10.00">build_segment_codon_partitions</text>
</g>
<!-- 11&#45;&gt;14 -->
<g id="edge31" class="edge">
<title>11&#45;&gt;14</title>
<path fill="none" stroke="grey" stroke-width="2" d="M286.37,-1223.88C264.22,-1214.31 236.44,-1202.3 212.94,-1192.15"/>
<polygon fill="grey" stroke="grey" stroke-width="2" points="214.07,-1188.82 203.5,-1188.07 211.29,-1195.25 214.07,-1188.82"/>
</g>
<!-- 15 -->
<g id="node16" class="node">
<title>15</title>
<path fill="none" stroke="#56d8b9" stroke-width="2" d="M438,-1116C438,-1116 278,-1116 278,-1116 272,-1116 266,-1110 266,-1104 266,-1104 266,-1092 266,-1092 266,-1086 272,-1080 278,-1080 278,-1080 438,-1080 438,-1080 444,-1080 450,-1086 450,-1092 450,-1092 450,-1104 450,-1104 450,-1110 444,-1116 438,-1116"/>
<text text-anchor="middle" x="358" y="-1095.5" font-family="sans" font-size="10.00">raxml_ng_tree_per_segment_simple</text>
</g>
<!-- 11&#45;&gt;15 -->
<g id="edge32" class="edge">
<title>11&#45;&gt;15</title>
<path fill="none" stroke="grey" stroke-width="2" d="M329.86,-1223.87C335.34,-1199.56 345.42,-1154.82 351.91,-1126.01"/>
<polygon fill="grey" stroke="grey" stroke-width="2" points="355.34,-1126.71 354.13,-1116.19 348.51,-1125.18 355.34,-1126.71"/>
</g>
<!-- 23 -->
<g id="node24" class="node">
<title>23</title>
<path fill="none" stroke="#568ad8" stroke-width="2" d="M586,-396C586,-396 428,-396 428,-396 422,-396 416,-390 416,-384 416,-384 416,-372 416,-372 416,-366 422,-360 428,-360 428,-360 586,-360 586,-360 592,-360 598,-366 598,-372 598,-372 598,-384 598,-384 598,-390 592,-396 586,-396"/>
<text text-anchor="middle" x="507" y="-375.5" font-family="sans" font-size="10.00">subset_filtered_segment_alignment</text>
</g>
<!-- 11&#45;&gt;23 -->
<g id="edge49" class="edge">
<title>11&#45;&gt;23</title>
<path fill="none" stroke="grey" stroke-width="2" d="M258.73,-1234.4C192.92,-1226.67 98.68,-1211.81 71,-1188 39.02,-1160.49 38,-1141.19 38,-1099 38,-1099 38,-1099 38,-953 38,-682.05 355.25,-468.52 467.9,-401.23"/>
<polygon fill="grey" stroke="grey" stroke-width="2" points="469.76,-404.2 476.59,-396.09 466.2,-398.17 469.76,-404.2"/>
</g>
<!-- 12&#45;&gt;11 -->
<g id="edge27" class="edge">
<title>12&#45;&gt;11</title>
<path fill="none" stroke="grey" stroke-width="2" d="M483.38,-1295.97C454.19,-1286.14 417.31,-1273.73 386.58,-1263.39"/>
<polygon fill="grey" stroke="grey" stroke-width="2" points="387.44,-1259.98 376.84,-1260.11 385.2,-1266.62 387.44,-1259.98"/>
</g>
<!-- 20 -->
<g id="node21" class="node">
<title>20</title>
<path fill="none" stroke="#569ad8" stroke-width="2" d="M385.5,-396C385.5,-396 230.5,-396 230.5,-396 224.5,-396 218.5,-390 218.5,-384 218.5,-384 218.5,-372 218.5,-372 218.5,-366 224.5,-360 230.5,-360 230.5,-360 385.5,-360 385.5,-360 391.5,-360 397.5,-366 397.5,-372 397.5,-372 397.5,-384 397.5,-384 397.5,-390 391.5,-396 385.5,-396"/>
<text text-anchor="middle" x="308" y="-375.5" font-family="sans" font-size="10.00">subset_filtered_raw_segment_fasta</text>
</g>
<!-- 12&#45;&gt;20 -->
<g id="edge42" class="edge">
<title>12&#45;&gt;20</title>
<path fill="none" stroke="grey" stroke-width="2" d="M459.47,-1308.73C312.62,-1298.26 0,-1264.95 0,-1171 0,-1171 0,-1171 0,-665 0,-528.06 165.51,-438.2 253.87,-399.99"/>
<polygon fill="grey" stroke="grey" stroke-width="2" points="255.38,-403.15 263.21,-396.01 252.64,-396.71 255.38,-403.15"/>
</g>
<!-- 12&#45;&gt;32 -->
<g id="edge66" class="edge">
<title>12&#45;&gt;32</title>
<path fill="none" stroke="grey" stroke-width="2" d="M534,-1295.95C534,-1269.29 534,-1216.11 534,-1171 534,-1171 534,-1171 534,-1025 534,-984.65 524.46,-938.74 517.41,-910.32"/>
<polygon fill="grey" stroke="grey" stroke-width="2" points="520.73,-909.15 514.86,-900.33 513.94,-910.88 520.73,-909.15"/>
</g>
<!-- 12&#45;&gt;33 -->
<g id="edge81" class="edge">
<title>12&#45;&gt;33</title>
<path fill="none" stroke="grey" stroke-width="2" d="M608.81,-1304.43C818.05,-1278.41 1394,-1191.82 1394,-1027 1394,-1027 1394,-1027 1394,-161 1394,-107.21 1360.39,-95.48 1312,-72 1257.41,-45.52 857.41,-27.69 694.63,-21.46"/>
<polygon fill="grey" stroke="grey" stroke-width="2" points="694.38,-17.94 684.25,-21.06 694.11,-24.94 694.38,-17.94"/>
</g>
<!-- 13&#45;&gt;10 -->
<g id="edge26" class="edge">
<title>13&#45;&gt;10</title>
<path fill="none" stroke="grey" stroke-width="2" d="M197.85,-1079.88C220.78,-1070.26 249.58,-1058.19 273.87,-1048.01"/>
<polygon fill="grey" stroke="grey" stroke-width="2" points="275.41,-1051.16 283.28,-1044.07 272.7,-1044.71 275.41,-1051.16"/>
</g>
<!-- 13&#45;&gt;32 -->
<g id="edge68" class="edge">
<title>13&#45;&gt;32</title>
<path fill="none" stroke="grey" stroke-width="2" d="M248.14,-1080.77C328.4,-1066.32 433.18,-1047 437,-1044 479.72,-1010.43 498.26,-946.3 505.64,-909.93"/>
<polygon fill="grey" stroke="grey" stroke-width="2" points="509.09,-910.5 507.51,-900.02 502.22,-909.2 509.09,-910.5"/>
</g>
<!-- 13&#45;&gt;33 -->
<g id="edge86" class="edge">
<title>13&#45;&gt;33</title>
<path fill="none" stroke="grey" stroke-width="2" d="M146.85,-1079.8C118.08,-1029.33 38,-876.54 38,-739 38,-739 38,-739 38,-161 38,-116.68 46.42,-97.03 83,-72 121.37,-45.75 420.28,-28.59 557.52,-22.02"/>
<polygon fill="grey" stroke="grey" stroke-width="2" points="557.69,-25.51 567.51,-21.54 557.36,-18.52 557.69,-25.51"/>
</g>
<!-- 14&#45;&gt;13 -->
<g id="edge29" class="edge">
<title>14&#45;&gt;13</title>
<path fill="none" stroke="grey" stroke-width="2" d="M162.27,-1151.7C161.5,-1143.98 160.57,-1134.71 159.71,-1126.11"/>
<polygon fill="grey" stroke="grey" stroke-width="2" points="163.19,-1125.71 158.71,-1116.1 156.22,-1126.4 163.19,-1125.71"/>
</g>
<!-- 15&#45;&gt;10 -->
<g id="edge25" class="edge">
<title>15&#45;&gt;10</title>
<path fill="none" stroke="grey" stroke-width="2" d="M349.6,-1079.7C345.73,-1071.73 341.05,-1062.1 336.76,-1053.26"/>
<polygon fill="grey" stroke="grey" stroke-width="2" points="339.83,-1051.57 332.31,-1044.1 333.53,-1054.63 339.83,-1051.57"/>
</g>
<!-- 15&#45;&gt;32 -->
<g id="edge65" class="edge">
<title>15&#45;&gt;32</title>
<path fill="none" stroke="grey" stroke-width="2" d="M420.12,-1079.93C439.22,-1071.88 458.7,-1060.33 472,-1044 503.43,-1005.43 509.72,-945.32 510.51,-910.5"/>
<polygon fill="grey" stroke="grey" stroke-width="2" points="514.01,-910.17 510.59,-900.14 507.01,-910.11 514.01,-910.17"/>
</g>
<!-- 15&#45;&gt;33 -->
<g id="edge71" class="edge">
<title>15&#45;&gt;33</title>
<path fill="none" stroke="grey" stroke-width="2" d="M265.75,-1081.59C196.66,-1064.15 114,-1028.03 114,-955 114,-955 114,-955 114,-737 114,-608.77 76,-579.23 76,-451 76,-451 76,-451 76,-161 76,-116.47 85.23,-97.11 122,-72 191.18,-24.74 436.37,-18.47 557.4,-18.35"/>
<polygon fill="grey" stroke="grey" stroke-width="2" points="557.65,-21.85 567.65,-18.35 557.66,-14.85 557.65,-21.85"/>
</g>
<!-- 16&#45;&gt;6 -->
<g id="edge9" class="edge">
<title>16&#45;&gt;6</title>
<path fill="none" stroke="grey" stroke-width="2" d="M731.23,-647.99C751.29,-639.78 772.56,-628.11 788,-612 841.5,-556.16 854,-528.33 854,-451 854,-451 854,-451 854,-305 854,-261.8 831,-216.19 814.22,-188.66"/>
<polygon fill="grey" stroke="grey" stroke-width="2" points="817.09,-186.65 808.81,-180.04 811.17,-190.37 817.09,-186.65"/>
</g>
<!-- 18 -->
<g id="node19" class="node">
<title>18</title>
<path fill="none" stroke="#b6d856" stroke-width="2" d="M767,-612C767,-612 677,-612 677,-612 671,-612 665,-606 665,-600 665,-600 665,-588 665,-588 665,-582 671,-576 677,-576 677,-576 767,-576 767,-576 773,-576 779,-582 779,-588 779,-588 779,-600 779,-600 779,-606 773,-612 767,-612"/>
<text text-anchor="middle" x="722" y="-591.5" font-family="sans" font-size="10.00">build_treetime_dates</text>
</g>
<!-- 16&#45;&gt;18 -->
<g id="edge38" class="edge">
<title>16&#45;&gt;18</title>
<path fill="none" stroke="grey" stroke-width="2" d="M685.11,-647.7C690.87,-639.47 697.86,-629.48 704.21,-620.42"/>
<polygon fill="grey" stroke="grey" stroke-width="2" points="707.16,-622.3 710.03,-612.1 701.42,-618.29 707.16,-622.3"/>
</g>
<!-- 22 -->
<g id="node23" class="node">
<title>22</title>
<path fill="none" stroke="#56c1d8" stroke-width="2" d="M669,-540C669,-540 605,-540 605,-540 599,-540 593,-534 593,-528 593,-528 593,-516 593,-516 593,-510 599,-504 605,-504 605,-504 669,-504 669,-504 675,-504 681,-510 681,-516 681,-516 681,-528 681,-528 681,-534 675,-540 669,-540"/>
<text text-anchor="middle" x="637" y="-519.5" font-family="sans" font-size="10.00">run_root_to_tip</text>
</g>
<!-- 16&#45;&gt;22 -->
<g id="edge48" class="edge">
<title>16&#45;&gt;22</title>
<path fill="none" stroke="grey" stroke-width="2" d="M667.05,-647.94C663.57,-637.62 659.23,-624.14 656,-612 650.54,-591.52 645.59,-568.06 642.11,-550.37"/>
<polygon fill="grey" stroke="grey" stroke-width="2" points="645.47,-549.34 640.14,-540.18 638.6,-550.66 645.47,-549.34"/>
</g>
<!-- 24 -->
<g id="node25" class="node">
<title>24</title>
<path fill="none" stroke="#56d88a" stroke-width="2" d="M1097.5,-396C1097.5,-396 932.5,-396 932.5,-396 926.5,-396 920.5,-390 920.5,-384 920.5,-384 920.5,-372 920.5,-372 920.5,-366 926.5,-360 932.5,-360 932.5,-360 1097.5,-360 1097.5,-360 1103.5,-360 1109.5,-366 1109.5,-372 1109.5,-372 1109.5,-384 1109.5,-384 1109.5,-390 1103.5,-396 1097.5,-396"/>
<text text-anchor="middle" x="1015" y="-375.5" font-family="sans" font-size="10.00">publish_final_panel_concat_alignment</text>
</g>
<!-- 16&#45;&gt;24 -->
<g id="edge52" class="edge">
<title>16&#45;&gt;24</title>
<path fill="none" stroke="grey" stroke-width="2" d="M775.77,-647.87C802.93,-640.01 831.04,-628.58 854,-612 930.45,-556.79 982.71,-453.53 1004.12,-405.2"/>
<polygon fill="grey" stroke="grey" stroke-width="2" points="1007.33,-406.6 1008.11,-396.03 1000.91,-403.81 1007.33,-406.6"/>
</g>
<!-- 16&#45;&gt;33 -->
<g id="edge75" class="edge">
<title>16&#45;&gt;33</title>
<path fill="none" stroke="grey" stroke-width="2" d="M613.14,-647.88C512.79,-615.92 311.56,-537.29 209,-396 185.24,-363.27 190,-347.45 190,-307 190,-307 190,-307 190,-161 190,-106.3 226.46,-97.22 275,-72 322.94,-47.1 469.82,-31.45 557.65,-24.05"/>
<polygon fill="grey" stroke="grey" stroke-width="2" points="558.12,-27.53 567.8,-23.22 557.55,-20.55 558.12,-27.53"/>
</g>
<!-- 17&#45;&gt;6 -->
<g id="edge7" class="edge">
<title>17&#45;&gt;6</title>
<path fill="none" stroke="grey" stroke-width="2" d="M929.06,-719.69C950.82,-694.36 987,-644.76 987,-595 987,-595 987,-595 987,-521 987,-455.98 938.34,-454.99 911,-396 875.54,-319.49 895.67,-287.53 851,-216 844.43,-205.49 835.37,-195.52 826.55,-187.13"/>
<polygon fill="grey" stroke="grey" stroke-width="2" points="828.67,-184.33 818.92,-180.19 823.96,-189.51 828.67,-184.33"/>
</g>
<!-- 17&#45;&gt;16 -->
<g id="edge35" class="edge">
<title>17&#45;&gt;16</title>
<path fill="none" stroke="grey" stroke-width="2" d="M854.6,-719.97C820.48,-710.01 777.25,-697.41 741.53,-686.99"/>
<polygon fill="grey" stroke="grey" stroke-width="2" points="742.25,-683.55 731.67,-684.11 740.29,-690.27 742.25,-683.55"/>
</g>
<!-- 21 -->
<g id="node22" class="node">
<title>21</title>
<path fill="none" stroke="#8fd856" stroke-width="2" d="M775.5,-468C775.5,-468 628.5,-468 628.5,-468 622.5,-468 616.5,-462 616.5,-456 616.5,-456 616.5,-444 616.5,-444 616.5,-438 622.5,-432 628.5,-432 628.5,-432 775.5,-432 775.5,-432 781.5,-432 787.5,-438 787.5,-444 787.5,-444 787.5,-456 787.5,-456 787.5,-462 781.5,-468 775.5,-468"/>
<text text-anchor="middle" x="702" y="-447.5" font-family="sans" font-size="10.00">filter_beast_panel_by_rtt_outliers</text>
</g>
<!-- 17&#45;&gt;21 -->
<g id="edge46" class="edge">
<title>17&#45;&gt;21</title>
<path fill="none" stroke="grey" stroke-width="2" d="M900.43,-719.97C864.82,-671.7 763.09,-533.8 720.79,-476.47"/>
<polygon fill="grey" stroke="grey" stroke-width="2" points="723.52,-474.28 714.77,-468.31 717.89,-478.43 723.52,-474.28"/>
</g>
<!-- 17&#45;&gt;33 -->
<g id="edge70" class="edge">
<title>17&#45;&gt;33</title>
<path fill="none" stroke="grey" stroke-width="2" d="M978.07,-727.95C1092.55,-710.18 1318,-666.16 1318,-595 1318,-595 1318,-595 1318,-161 1318,-34.52 868.76,-19.67 694.2,-18.67"/>
<polygon fill="grey" stroke="grey" stroke-width="2" points="694.12,-15.17 684.11,-18.63 694.09,-22.17 694.12,-15.17"/>
</g>
<!-- 18&#45;&gt;6 -->
<g id="edge14" class="edge">
<title>18&#45;&gt;6</title>
<path fill="none" stroke="grey" stroke-width="2" d="M735.47,-575.82C761.46,-540.88 816,-458.13 816,-379 816,-379 816,-379 816,-305 816,-264.86 808.45,-218.9 802.87,-190.4"/>
<polygon fill="grey" stroke="grey" stroke-width="2" points="806.26,-189.5 800.84,-180.39 799.39,-190.88 806.26,-189.5"/>
</g>
<!-- 18&#45;&gt;21 -->
<g id="edge44" class="edge">
<title>18&#45;&gt;21</title>
<path fill="none" stroke="grey" stroke-width="2" d="M719.59,-575.87C716.18,-551.67 709.92,-507.21 705.86,-478.39"/>
<polygon fill="grey" stroke="grey" stroke-width="2" points="709.28,-477.6 704.42,-468.19 702.35,-478.58 709.28,-477.6"/>
</g>
<!-- 18&#45;&gt;22 -->
<g id="edge47" class="edge">
<title>18&#45;&gt;22</title>
<path fill="none" stroke="grey" stroke-width="2" d="M700.99,-575.7C690.28,-566.88 677.11,-556.03 665.5,-546.47"/>
<polygon fill="grey" stroke="grey" stroke-width="2" points="667.71,-543.76 657.77,-540.1 663.26,-549.16 667.71,-543.76"/>
</g>
<!-- 18&#45;&gt;33 -->
<g id="edge72" class="edge">
<title>18&#45;&gt;33</title>
<path fill="none" stroke="grey" stroke-width="2" d="M779.11,-576.11C944.72,-524.18 1404.53,-357.34 1261,-144 1198.19,-50.65 845.02,-26.86 694.24,-20.92"/>
<polygon fill="grey" stroke="grey" stroke-width="2" points="694.3,-17.42 684.17,-20.54 694.03,-24.42 694.3,-17.42"/>
</g>
<!-- 19 -->
<g id="node20" class="node">
<title>19</title>
<path fill="none" stroke="#59d856" stroke-width="2" d="M586.5,-324C586.5,-324 443.5,-324 443.5,-324 437.5,-324 431.5,-318 431.5,-312 431.5,-312 431.5,-300 431.5,-300 431.5,-294 437.5,-288 443.5,-288 443.5,-288 586.5,-288 586.5,-288 592.5,-288 598.5,-294 598.5,-300 598.5,-300 598.5,-312 598.5,-312 598.5,-318 592.5,-324 586.5,-324"/>
<text text-anchor="middle" x="515" y="-303.5" font-family="sans" font-size="10.00">observe_segment_alignment_qc</text>
</g>
<!-- 19&#45;&gt;6 -->
<g id="edge12" class="edge">
<title>19&#45;&gt;6</title>
<path fill="none" stroke="grey" stroke-width="2" d="M547.73,-287.88C582.44,-269.8 638.91,-240.56 688,-216 708.96,-205.52 732.31,-194.12 752,-184.6"/>
<polygon fill="grey" stroke="grey" stroke-width="2" points="753.58,-187.72 761.06,-180.22 750.54,-181.42 753.58,-187.72"/>
</g>
<!-- 25 -->
<g id="node26" class="node">
<title>25</title>
<path fill="none" stroke="#5673d8" stroke-width="2" d="M510,-252C510,-252 382,-252 382,-252 376,-252 370,-246 370,-240 370,-240 370,-228 370,-228 370,-222 376,-216 382,-216 382,-216 510,-216 510,-216 516,-216 522,-222 522,-228 522,-228 522,-240 522,-240 522,-246 516,-252 510,-252"/>
<text text-anchor="middle" x="446" y="-231.5" font-family="sans" font-size="10.00">summarize_final_segment_qc</text>
</g>
<!-- 19&#45;&gt;25 -->
<g id="edge53" class="edge">
<title>19&#45;&gt;25</title>
<path fill="none" stroke="grey" stroke-width="2" d="M497.94,-287.7C489.5,-279.14 479.18,-268.66 469.96,-259.3"/>
<polygon fill="grey" stroke="grey" stroke-width="2" points="472.37,-256.77 462.86,-252.1 467.39,-261.68 472.37,-256.77"/>
</g>
<!-- 19&#45;&gt;33 -->
<g id="edge77" class="edge">
<title>19&#45;&gt;33</title>
<path fill="none" stroke="grey" stroke-width="2" d="M431.43,-295.59C404.51,-288.14 377.42,-275.02 361,-252 351.71,-238.97 353.94,-230.36 361,-216 404.46,-127.69 508.81,-69.23 572.84,-40.29"/>
<polygon fill="grey" stroke="grey" stroke-width="2" points="574.64,-43.32 582.37,-36.07 571.81,-36.92 574.64,-43.32"/>
</g>
<!-- 20&#45;&gt;6 -->
<g id="edge13" class="edge">
<title>20&#45;&gt;6</title>
<path fill="none" stroke="grey" stroke-width="2" d="M325.96,-359.73C347.33,-340 384.8,-307.89 422,-288 466.99,-263.95 483.17,-269.77 531,-252 570.23,-237.43 578.55,-229.96 618,-216 656.51,-202.37 700.5,-189.31 735.23,-179.57"/>
<polygon fill="grey" stroke="grey" stroke-width="2" points="736.54,-182.84 745.23,-176.78 734.66,-176.1 736.54,-182.84"/>
</g>
<!-- 20&#45;&gt;19 -->
<g id="edge41" class="edge">
<title>20&#45;&gt;19</title>
<path fill="none" stroke="grey" stroke-width="2" d="M358.37,-359.97C387.42,-350.14 424.13,-337.73 454.71,-327.39"/>
<polygon fill="grey" stroke="grey" stroke-width="2" points="456.05,-330.63 464.4,-324.11 453.81,-324 456.05,-330.63"/>
</g>
<!-- 20&#45;&gt;33 -->
<g id="edge80" class="edge">
<title>20&#45;&gt;33</title>
<path fill="none" stroke="grey" stroke-width="2" d="M299.5,-359.99C287.23,-333.82 266,-281.79 266,-235 266,-235 266,-235 266,-161 266,-115.19 280.35,-98.1 318,-72 355.82,-45.78 478.76,-31.04 557.4,-24.07"/>
<polygon fill="grey" stroke="grey" stroke-width="2" points="558.05,-27.53 567.71,-23.18 557.45,-20.56 558.05,-27.53"/>
</g>
<!-- 21&#45;&gt;6 -->
<g id="edge10" class="edge">
<title>21&#45;&gt;6</title>
<path fill="none" stroke="grey" stroke-width="2" d="M724.13,-431.88C734.8,-422.44 746.81,-409.84 754,-396 789.3,-328.05 796,-235.72 797.03,-190.4"/>
<polygon fill="grey" stroke="grey" stroke-width="2" points="800.53,-190.23 797.18,-180.18 793.53,-190.13 800.53,-190.23"/>
</g>
<!-- 21&#45;&gt;19 -->
<g id="edge40" class="edge">
<title>21&#45;&gt;19</title>
<path fill="none" stroke="grey" stroke-width="2" d="M685.88,-431.67C667.77,-412.76 636.96,-382.2 607,-360 591.77,-348.72 573.94,-337.95 558.04,-329.1"/>
<polygon fill="grey" stroke="grey" stroke-width="2" points="559.4,-325.85 548.94,-324.12 556.04,-331.99 559.4,-325.85"/>
</g>
<!-- 21&#45;&gt;20 -->
<g id="edge43" class="edge">
<title>21&#45;&gt;20</title>
<path fill="none" stroke="grey" stroke-width="2" d="M616.02,-433.72C554.66,-422.82 471.96,-408.13 407.7,-396.71"/>
<polygon fill="grey" stroke="grey" stroke-width="2" points="408.01,-393.21 397.55,-394.91 406.79,-400.11 408.01,-393.21"/>
</g>
<!-- 21&#45;&gt;23 -->
<g id="edge50" class="edge">
<title>21&#45;&gt;23</title>
<path fill="none" stroke="grey" stroke-width="2" d="M654.3,-431.88C627.05,-422.09 592.7,-409.77 564.03,-399.47"/>
<polygon fill="grey" stroke="grey" stroke-width="2" points="565.14,-396.15 554.55,-396.07 562.78,-402.74 565.14,-396.15"/>
</g>
<!-- 21&#45;&gt;24 -->
<g id="edge51" class="edge">
<title>21&#45;&gt;24</title>
<path fill="none" stroke="grey" stroke-width="2" d="M778.17,-431.97C823.7,-421.78 881.67,-408.82 928.86,-398.26"/>
<polygon fill="grey" stroke="grey" stroke-width="2" points="929.77,-401.65 938.76,-396.05 928.24,-394.82 929.77,-401.65"/>
</g>
<!-- 26 -->
<g id="node27" class="node">
<title>26</title>
<path fill="none" stroke="#56d882" stroke-width="2" d="M1185.5,-324C1185.5,-324 1084.5,-324 1084.5,-324 1078.5,-324 1072.5,-318 1072.5,-312 1072.5,-312 1072.5,-300 1072.5,-300 1072.5,-294 1078.5,-288 1084.5,-288 1084.5,-288 1185.5,-288 1185.5,-288 1191.5,-288 1197.5,-294 1197.5,-300 1197.5,-300 1197.5,-312 1197.5,-312 1197.5,-318 1191.5,-324 1185.5,-324"/>
<text text-anchor="middle" x="1135" y="-303.5" font-family="sans" font-size="10.00">prepare_beast_run_xml</text>
</g>
<!-- 21&#45;&gt;26 -->
<g id="edge55" class="edge">
<title>21&#45;&gt;26</title>
<path fill="none" stroke="grey" stroke-width="2" d="M787.75,-443.42C902.49,-435.14 1094.39,-418.19 1118,-396 1134.52,-380.48 1137.83,-354.23 1137.56,-334.25"/>
<polygon fill="grey" stroke="grey" stroke-width="2" points="1141.06,-334.02 1137.13,-324.18 1134.06,-334.32 1141.06,-334.02"/>
</g>
<!-- 21&#45;&gt;33 -->
<g id="edge74" class="edge">
<title>21&#45;&gt;33</title>
<path fill="none" stroke="grey" stroke-width="2" d="M699.79,-431.98C692.73,-378.61 669.47,-209.84 640,-72 638.18,-63.49 635.88,-54.3 633.66,-46"/>
<polygon fill="grey" stroke="grey" stroke-width="2" points="636.97,-44.81 630.96,-36.09 630.21,-46.66 636.97,-44.81"/>
</g>
<!-- 22&#45;&gt;6 -->
<g id="edge16" class="edge">
<title>22&#45;&gt;6</title>
<path fill="none" stroke="grey" stroke-width="2" d="M623.96,-503.77C611.98,-485.72 597.42,-456.62 607,-432 614.87,-411.77 626.56,-413.05 640,-396 696.52,-324.29 754.32,-232.88 781.32,-188.91"/>
<polygon fill="grey" stroke="grey" stroke-width="2" points="784.37,-190.63 786.6,-180.27 778.4,-186.98 784.37,-190.63"/>
</g>
<!-- 22&#45;&gt;21 -->
<g id="edge45" class="edge">
<title>22&#45;&gt;21</title>
<path fill="none" stroke="grey" stroke-width="2" d="M653.07,-503.7C660.94,-495.22 670.56,-484.86 679.17,-475.58"/>
<polygon fill="grey" stroke="grey" stroke-width="2" points="681.88,-477.81 686.12,-468.1 676.75,-473.05 681.88,-477.81"/>
</g>
<!-- 22&#45;&gt;33 -->
<g id="edge85" class="edge">
<title>22&#45;&gt;33</title>
<path fill="none" stroke="grey" stroke-width="2" d="M620.96,-503.85C612.99,-494.12 604.17,-481.27 600,-468 595.2,-452.74 598.36,-447.92 600,-432 602.9,-403.78 626,-335.37 626,-307 626,-307 626,-307 626,-161 626,-121 626,-74.65 626,-46.08"/>
<polygon fill="grey" stroke="grey" stroke-width="2" points="629.5,-46.05 626,-36.05 622.5,-46.05 629.5,-46.05"/>
</g>
<!-- 23&#45;&gt;6 -->
<g id="edge15" class="edge">
<title>23&#45;&gt;6</title>
<path fill="none" stroke="grey" stroke-width="2" d="M544.39,-359.96C563.75,-350.46 587.38,-337.78 607,-324 665.45,-282.96 670.87,-261.41 726,-216 738.35,-205.83 752.38,-195.17 764.69,-186.11"/>
<polygon fill="grey" stroke="grey" stroke-width="2" points="766.89,-188.84 772.9,-180.11 762.76,-183.19 766.89,-188.84"/>
</g>
<!-- 23&#45;&gt;19 -->
<g id="edge39" class="edge">
<title>23&#45;&gt;19</title>
<path fill="none" stroke="grey" stroke-width="2" d="M508.98,-359.7C509.86,-351.98 510.92,-342.71 511.9,-334.11"/>
<polygon fill="grey" stroke="grey" stroke-width="2" points="515.39,-334.44 513.05,-324.1 508.43,-333.64 515.39,-334.44"/>
</g>
<!-- 23&#45;&gt;33 -->
<g id="edge83" class="edge">
<title>23&#45;&gt;33</title>
<path fill="none" stroke="grey" stroke-width="2" d="M439.12,-359.92C380.11,-340.51 304,-302.42 304,-235 304,-235 304,-235 304,-161 304,-51.06 463.09,-25.52 557.62,-20.04"/>
<polygon fill="grey" stroke="grey" stroke-width="2" points="557.88,-23.53 567.69,-19.52 557.52,-16.54 557.88,-23.53"/>
</g>
<!-- 24&#45;&gt;6 -->
<g id="edge11" class="edge">
<title>24&#45;&gt;6</title>
<path fill="none" stroke="grey" stroke-width="2" d="M1000.48,-359.72C992.14,-349.54 981.64,-336.29 973,-324 940.52,-277.79 947.94,-253.84 906,-216 891.57,-202.98 873.35,-192.45 855.97,-184.32"/>
<polygon fill="grey" stroke="grey" stroke-width="2" points="856.98,-180.93 846.43,-180.04 854.12,-187.32 856.98,-180.93"/>
</g>
<!-- 24&#45;&gt;26 -->
<g id="edge54" class="edge">
<title>24&#45;&gt;26</title>
<path fill="none" stroke="grey" stroke-width="2" d="M1044.36,-359.88C1060.05,-350.72 1079.56,-339.34 1096.45,-329.48"/>
<polygon fill="grey" stroke="grey" stroke-width="2" points="1098.66,-332.25 1105.53,-324.19 1095.13,-326.21 1098.66,-332.25"/>
</g>
<!-- 24&#45;&gt;33 -->
<g id="edge76" class="edge">
<title>24&#45;&gt;33</title>
<path fill="none" stroke="grey" stroke-width="2" d="M1020.87,-359.74C1029.34,-333.25 1044,-280.79 1044,-235 1044,-235 1044,-235 1044,-161 1044,-88.02 812.66,-45.03 694.18,-27.81"/>
<polygon fill="grey" stroke="grey" stroke-width="2" points="694.52,-24.32 684.12,-26.37 693.52,-31.25 694.52,-24.32"/>
</g>
<!-- 25&#45;&gt;6 -->
<g id="edge8" class="edge">
<title>25&#45;&gt;6</title>
<path fill="none" stroke="grey" stroke-width="2" d="M522.16,-217.81C586.01,-205.08 676.02,-187.13 735.4,-175.28"/>
<polygon fill="grey" stroke="grey" stroke-width="2" points="736.27,-178.68 745.39,-173.29 734.9,-171.82 736.27,-178.68"/>
</g>
<!-- 25&#45;&gt;33 -->
<g id="edge78" class="edge">
<title>25&#45;&gt;33</title>
<path fill="none" stroke="grey" stroke-width="2" d="M460.43,-215.85C492.09,-178.21 567.79,-88.2 604.85,-44.15"/>
<polygon fill="grey" stroke="grey" stroke-width="2" points="607.75,-46.14 611.51,-36.23 602.39,-41.63 607.75,-46.14"/>
</g>
<!-- 26&#45;&gt;6 -->
<g id="edge17" class="edge">
<title>26&#45;&gt;6</title>
<path fill="none" stroke="grey" stroke-width="2" d="M1110.03,-287.86C1080.54,-268.25 1029.49,-236.24 982,-216 942.25,-199.06 895.44,-185.7 858.85,-176.64"/>
<polygon fill="grey" stroke="grey" stroke-width="2" points="859.36,-173.16 848.82,-174.2 857.71,-179.96 859.36,-173.16"/>
</g>
<!-- 29 -->
<g id="node30" class="node">
<title>29</title>
<path fill="none" stroke="#56d0d8" stroke-width="2" d="M1221.5,-180C1221.5,-180 1138.5,-180 1138.5,-180 1132.5,-180 1126.5,-174 1126.5,-168 1126.5,-168 1126.5,-156 1126.5,-156 1126.5,-150 1132.5,-144 1138.5,-144 1138.5,-144 1221.5,-144 1221.5,-144 1227.5,-144 1233.5,-150 1233.5,-156 1233.5,-156 1233.5,-168 1233.5,-168 1233.5,-174 1227.5,-180 1221.5,-180"/>
<text text-anchor="middle" x="1180" y="-159.5" font-family="sans" font-size="10.00">run_beast_replicate</text>
</g>
<!-- 26&#45;&gt;29 -->
<g id="edge59" class="edge">
<title>26&#45;&gt;29</title>
<path fill="none" stroke="grey" stroke-width="2" d="M1132.76,-287.67C1131.07,-269.28 1130.32,-239.67 1139,-216 1142.67,-206.01 1148.95,-196.39 1155.51,-188.15"/>
<polygon fill="grey" stroke="grey" stroke-width="2" points="1158.28,-190.3 1162.08,-180.41 1152.94,-185.77 1158.28,-190.3"/>
</g>
<!-- 30 -->
<g id="node31" class="node">
<title>30</title>
<path fill="none" stroke="#5663d8" stroke-width="2" d="M1240,-252C1240,-252 1160,-252 1160,-252 1154,-252 1148,-246 1148,-240 1148,-240 1148,-228 1148,-228 1148,-222 1154,-216 1160,-216 1160,-216 1240,-216 1240,-216 1246,-216 1252,-222 1252,-228 1252,-228 1252,-240 1252,-240 1252,-246 1246,-252 1240,-252"/>
<text text-anchor="middle" x="1200" y="-231.5" font-family="sans" font-size="10.00">validate_beast_xml</text>
</g>
<!-- 26&#45;&gt;30 -->
<g id="edge61" class="edge">
<title>26&#45;&gt;30</title>
<path fill="none" stroke="grey" stroke-width="2" d="M1151.07,-287.7C1158.94,-279.22 1168.56,-268.86 1177.17,-259.58"/>
<polygon fill="grey" stroke="grey" stroke-width="2" points="1179.88,-261.81 1184.12,-252.1 1174.75,-257.05 1179.88,-261.81"/>
</g>
<!-- 26&#45;&gt;33 -->
<g id="edge84" class="edge">
<title>26&#45;&gt;33</title>
<path fill="none" stroke="grey" stroke-width="2" d="M1131.79,-287.88C1122.24,-238.98 1092.59,-100.37 1058,-72 1003.87,-27.61 801.82,-19.71 694.31,-18.74"/>
<polygon fill="grey" stroke="grey" stroke-width="2" points="694.23,-15.24 684.21,-18.66 694.18,-22.24 694.23,-15.24"/>
</g>
<!-- 27 -->
<g id="node28" class="node">
<title>27</title>
<path fill="none" stroke="#d87d56" stroke-width="2" d="M1504,-36C1504,-36 1460,-36 1460,-36 1454,-36 1448,-30 1448,-24 1448,-24 1448,-12 1448,-12 1448,-6 1454,0 1460,0 1460,0 1504,0 1504,0 1510,0 1516,-6 1516,-12 1516,-12 1516,-24 1516,-24 1516,-30 1510,-36 1504,-36"/>
<text text-anchor="middle" x="1482" y="-15.5" font-family="sans" font-size="10.00">beast_runs</text>
</g>
<!-- 28 -->
<g id="node29" class="node">
<title>28</title>
<path fill="none" stroke="#5682d8" stroke-width="2" d="M1529.5,-108C1529.5,-108 1434.5,-108 1434.5,-108 1428.5,-108 1422.5,-102 1422.5,-96 1422.5,-96 1422.5,-84 1422.5,-84 1422.5,-78 1428.5,-72 1434.5,-72 1434.5,-72 1529.5,-72 1529.5,-72 1535.5,-72 1541.5,-78 1541.5,-84 1541.5,-84 1541.5,-96 1541.5,-96 1541.5,-102 1535.5,-108 1529.5,-108"/>
<text text-anchor="middle" x="1482" y="-87.5" font-family="sans" font-size="10.00">summarize_beast_run</text>
</g>
<!-- 28&#45;&gt;27 -->
<g id="edge56" class="edge">
<title>28&#45;&gt;27</title>
<path fill="none" stroke="grey" stroke-width="2" d="M1482,-71.7C1482,-63.98 1482,-54.71 1482,-46.11"/>
<polygon fill="grey" stroke="grey" stroke-width="2" points="1485.5,-46.1 1482,-36.1 1478.5,-46.1 1485.5,-46.1"/>
</g>
<!-- 28&#45;&gt;33 -->
<g id="edge73" class="edge">
<title>28&#45;&gt;33</title>
<path fill="none" stroke="grey" stroke-width="2" d="M1422.38,-74.45C1417.53,-73.53 1412.69,-72.69 1408,-72 1146.27,-33.31 831.01,-22.82 694.52,-20.01"/>
<polygon fill="grey" stroke="grey" stroke-width="2" points="694.28,-16.5 684.22,-19.8 694.14,-23.5 694.28,-16.5"/>
</g>
<!-- 29&#45;&gt;28 -->
<g id="edge57" class="edge">
<title>29&#45;&gt;28</title>
<path fill="none" stroke="grey" stroke-width="2" d="M1233.64,-148.57C1283.51,-137.01 1358.06,-119.73 1412.48,-107.12"/>
<polygon fill="grey" stroke="grey" stroke-width="2" points="1413.44,-110.48 1422.39,-104.82 1411.86,-103.67 1413.44,-110.48"/>
</g>
<!-- 29&#45;&gt;29 -->
<g id="edge60" class="edge">
<title>29&#45;&gt;29</title>
<path fill="none" stroke="grey" stroke-width="2" d="M1233.63,-174.9C1244.08,-173.4 1251.5,-169.1 1251.5,-162 1251.5,-157.45 1248.46,-154.05 1243.52,-151.8"/>
<polygon fill="grey" stroke="grey" stroke-width="2" points="1244.2,-148.36 1233.63,-149.1 1242.36,-155.11 1244.2,-148.36"/>
</g>
<!-- 30&#45;&gt;29 -->
<g id="edge58" class="edge">
<title>30&#45;&gt;29</title>
<path fill="none" stroke="grey" stroke-width="2" d="M1195.06,-215.7C1192.83,-207.9 1190.15,-198.51 1187.67,-189.83"/>
<polygon fill="grey" stroke="grey" stroke-width="2" points="1191,-188.76 1184.89,-180.1 1184.27,-190.68 1191,-188.76"/>
</g>
</g>
</svg>
