<?xml version="1.0" encoding="UTF-8" standalone="no"?>
<!DOCTYPE svg PUBLIC "-//W3C//DTD SVG 1.1//EN"
 "http://www.w3.org/Graphics/SVG/1.1/DTD/svg11.dtd">
<!-- Generated by graphviz version 2.43.0 (0)
 -->
<!-- Title: snakemake_dag Pages: 1 -->
<svg width="475pt" height="332pt"
 viewBox="0.00 0.00 474.50 332.00" xmlns="http://www.w3.org/2000/svg" xmlns:xlink="http://www.w3.org/1999/xlink">
<g id="graph0" class="graph" transform="scale(1 1) rotate(0) translate(4 328)">
<title>snakemake_dag</title>
<polygon fill="white" stroke="transparent" points="-4,4 -4,-328 470.5,-328 470.5,4 -4,4"/>
<!-- 0 -->
<g id="node1" class="node">
<title>0</title>
<path fill="none" stroke="#d88d56" stroke-width="2" d="M138,-36C138,-36 108,-36 108,-36 102,-36 96,-30 96,-24 96,-24 96,-12 96,-12 96,-6 102,0 108,0 108,0 138,0 138,0 144,0 150,-6 150,-12 150,-12 150,-24 150,-24 150,-30 144,-36 138,-36"/>
<text text-anchor="middle" x="123" y="-15.5" font-family="sans" font-size="10.00">all</text>
</g>
<!-- 1 -->
<g id="node2" class="node">
<title>1</title>
<path fill="none" stroke="#d8cb56" stroke-width="2" d="M164,-324C164,-324 12,-324 12,-324 6,-324 0,-318 0,-312 0,-312 0,-300 0,-300 0,-294 6,-288 12,-288 12,-288 164,-288 164,-288 170,-288 176,-294 176,-300 176,-300 176,-312 176,-312 176,-318 170,-324 164,-324"/>
<text text-anchor="middle" x="88" y="-303.5" font-family="sans" font-size="10.00">build_ecuador_intermediate_input</text>
</g>
<!-- 1&#45;&gt;0 -->
<g id="edge3" class="edge">
<title>1&#45;&gt;0</title>
<path fill="none" stroke="grey" stroke-width="2" d="M78.87,-287.88C73.99,-277.76 68.49,-264.51 66,-252 62.87,-236.31 64.25,-231.9 66,-216 73.15,-150.83 76.77,-134.03 98,-72 101.03,-63.14 105.11,-53.81 109.1,-45.48"/>
<polygon fill="grey" stroke="grey" stroke-width="2" points="112.36,-46.77 113.66,-36.26 106.09,-43.67 112.36,-46.77"/>
</g>
<!-- 2 -->
<g id="node3" class="node">
<title>2</title>
<path fill="none" stroke="#afd856" stroke-width="2" d="M173,-252C173,-252 87,-252 87,-252 81,-252 75,-246 75,-240 75,-240 75,-228 75,-228 75,-222 81,-216 87,-216 87,-216 173,-216 173,-216 179,-216 185,-222 185,-228 185,-228 185,-240 185,-240 185,-246 179,-252 173,-252"/>
<text text-anchor="middle" x="130" y="-231.5" font-family="sans" font-size="10.00">build_h5n1_ec_fasta</text>
</g>
<!-- 1&#45;&gt;2 -->
<g id="edge6" class="edge">
<title>1&#45;&gt;2</title>
<path fill="none" stroke="grey" stroke-width="2" d="M98.38,-287.7C103.26,-279.56 109.19,-269.69 114.58,-260.7"/>
<polygon fill="grey" stroke="grey" stroke-width="2" points="117.59,-262.48 119.74,-252.1 111.59,-258.88 117.59,-262.48"/>
</g>
<!-- 2&#45;&gt;0 -->
<g id="edge5" class="edge">
<title>2&#45;&gt;0</title>
<path fill="none" stroke="grey" stroke-width="2" d="M118.95,-215.61C113.26,-205.62 106.92,-192.58 104,-180 93.21,-133.49 105.06,-77.92 114.29,-45.73"/>
<polygon fill="grey" stroke="grey" stroke-width="2" points="117.64,-46.72 117.16,-36.13 110.94,-44.71 117.64,-46.72"/>
</g>
<!-- 3 -->
<g id="node4" class="node">
<title>3</title>
<path fill="none" stroke="#70d856" stroke-width="2" d="M220.5,-180C220.5,-180 125.5,-180 125.5,-180 119.5,-180 113.5,-174 113.5,-168 113.5,-168 113.5,-156 113.5,-156 113.5,-150 119.5,-144 125.5,-144 125.5,-144 220.5,-144 220.5,-144 226.5,-144 232.5,-150 232.5,-156 232.5,-156 232.5,-168 232.5,-168 232.5,-174 226.5,-180 220.5,-180"/>
<text text-anchor="middle" x="173" y="-159.5" font-family="sans" font-size="10.00">build_h5n1_final_fasta</text>
</g>
<!-- 2&#45;&gt;3 -->
<g id="edge7" class="edge">
<title>2&#45;&gt;3</title>
<path fill="none" stroke="grey" stroke-width="2" d="M140.63,-215.7C145.63,-207.56 151.69,-197.69 157.21,-188.7"/>
<polygon fill="grey" stroke="grey" stroke-width="2" points="160.24,-190.46 162.49,-180.1 154.28,-186.79 160.24,-190.46"/>
</g>
<!-- 3&#45;&gt;0 -->
<g id="edge1" class="edge">
<title>3&#45;&gt;0</title>
<path fill="none" stroke="grey" stroke-width="2" d="M160.89,-143.57C154.44,-133.56 146.85,-120.52 142,-108 134.26,-88.02 129.38,-64.23 126.52,-46.28"/>
<polygon fill="grey" stroke="grey" stroke-width="2" points="129.95,-45.57 125.02,-36.2 123.03,-46.6 129.95,-45.57"/>
</g>
<!-- 4 -->
<g id="node5" class="node">
<title>4</title>
<path fill="none" stroke="#5692d8" stroke-width="2" d="M287.5,-108C287.5,-108 162.5,-108 162.5,-108 156.5,-108 150.5,-102 150.5,-96 150.5,-96 150.5,-84 150.5,-84 150.5,-78 156.5,-72 162.5,-72 162.5,-72 287.5,-72 287.5,-72 293.5,-72 299.5,-78 299.5,-84 299.5,-84 299.5,-96 299.5,-96 299.5,-102 293.5,-108 287.5,-108"/>
<text text-anchor="middle" x="225" y="-87.5" font-family="sans" font-size="10.00">split_h5n1_final_by_segment</text>
</g>
<!-- 3&#45;&gt;4 -->
<g id="edge8" class="edge">
<title>3&#45;&gt;4</title>
<path fill="none" stroke="grey" stroke-width="2" d="M185.85,-143.7C192.03,-135.39 199.54,-125.28 206.32,-116.14"/>
<polygon fill="grey" stroke="grey" stroke-width="2" points="209.14,-118.22 212.29,-108.1 203.52,-114.04 209.14,-118.22"/>
</g>
<!-- 4&#45;&gt;0 -->
<g id="edge4" class="edge">
<title>4&#45;&gt;0</title>
<path fill="none" stroke="grey" stroke-width="2" d="M200.05,-71.88C186.96,-62.89 170.74,-51.76 156.56,-42.03"/>
<polygon fill="grey" stroke="grey" stroke-width="2" points="158.27,-38.96 148.05,-36.19 154.31,-44.73 158.27,-38.96"/>
</g>
<!-- 5 -->
<g id="node6" class="node">
<title>5</title>
<path fill="none" stroke="#56d8a9" stroke-width="2" d="M454.5,-108C454.5,-108 329.5,-108 329.5,-108 323.5,-108 317.5,-102 317.5,-96 317.5,-96 317.5,-84 317.5,-84 317.5,-78 323.5,-72 329.5,-72 329.5,-72 454.5,-72 454.5,-72 460.5,-72 466.5,-78 466.5,-84 466.5,-84 466.5,-96 466.5,-96 466.5,-102 460.5,-108 454.5,-108"/>
<text text-anchor="middle" x="392" y="-87.5" font-family="sans" font-size="10.00">raxml_ng_tree_per_segment</text>
</g>
<!-- 5&#45;&gt;0 -->
<g id="edge2" class="edge">
<title>5&#45;&gt;0</title>
<path fill="none" stroke="grey" stroke-width="2" d="M326.54,-71.97C274.28,-58.37 202.93,-39.8 160.07,-28.65"/>
<polygon fill="grey" stroke="grey" stroke-width="2" points="160.9,-25.25 150.34,-26.11 159.13,-32.02 160.9,-25.25"/>
</g>
<!-- 6 -->
<g id="node7" class="node">
<title>6</title>
<path fill="none" stroke="#56d873" stroke-width="2" d="M447,-180C447,-180 337,-180 337,-180 331,-180 325,-174 325,-168 325,-168 325,-156 325,-156 325,-150 331,-144 337,-144 337,-144 447,-144 447,-144 453,-144 459,-150 459,-156 459,-156 459,-168 459,-168 459,-174 453,-180 447,-180"/>
<text text-anchor="middle" x="392" y="-159.5" font-family="sans" font-size="10.00">mafft_align_per_segment</text>
</g>
<!-- 6&#45;&gt;5 -->
<g id="edge9" class="edge">
<title>6&#45;&gt;5</title>
<path fill="none" stroke="grey" stroke-width="2" d="M392,-143.7C392,-135.98 392,-126.71 392,-118.11"/>
<polygon fill="grey" stroke="grey" stroke-width="2" points="395.5,-118.1 392,-108.1 388.5,-118.1 395.5,-118.1"/>
</g>
</g>
</svg>
