<?xml version="1.0" encoding="UTF-8" standalone="no"?>
<!DOCTYPE svg PUBLIC "-//W3C//DTD SVG 1.1//EN"
 "http://www.w3.org/Graphics/SVG/1.1/DTD/svg11.dtd">
<!-- Generated by graphviz version 2.43.0 (0)
 -->
<!-- Title: snakemake_dag Pages: 1 -->
<svg width="1444pt" height="764pt"
 viewBox="0.00 0.00 1444.00 764.00" xmlns="http://www.w3.org/2000/svg" xmlns:xlink="http://www.w3.org/1999/xlink">
<g id="graph0" class="graph" transform="scale(1 1) rotate(0) translate(4 760)">
<title>snakemake_dag</title>
<polygon fill="white" stroke="transparent" points="-4,4 -4,-760 1440,-760 1440,4 -4,4"/>
<!-- 0 -->
<g id="node1" class="node">
<title>0</title>
<path fill="none" stroke="#d87556" stroke-width="2" d="M689,-36C689,-36 659,-36 659,-36 653,-36 647,-30 647,-24 647,-24 647,-12 647,-12 647,-6 653,0 659,0 659,0 689,0 689,0 695,0 701,-6 701,-12 701,-12 701,-24 701,-24 701,-30 695,-36 689,-36"/>
<text text-anchor="middle" x="674" y="-15.5" font-family="sans" font-size="10.00">all</text>
</g>
<!-- 1 -->
<g id="node2" class="node">
<title>1</title>
<path fill="none" stroke="#d8ac56" stroke-width="2" stroke-dasharray="5,2" d="M480,-756C480,-756 328,-756 328,-756 322,-756 316,-750 316,-744 316,-744 316,-732 316,-732 316,-726 322,-720 328,-720 328,-720 480,-720 480,-720 486,-720 492,-726 492,-732 492,-732 492,-744 492,-744 492,-750 486,-756 480,-756"/>
<text text-anchor="middle" x="404" y="-735.5" font-family="sans" font-size="10.00">build_ecuador_intermediate_input</text>
</g>
<!-- 1&#45;&gt;0 -->
<g id="edge1" class="edge">
<title>1&#45;&gt;0</title>
<path fill="none" stroke="grey" stroke-width="2" d="M315.84,-724.16C196.97,-704.33 0,-661.45 0,-595 0,-595 0,-595 0,-161 0,-108.7 30.44,-95.83 77,-72 175.47,-21.6 522.16,-18.36 636.85,-18.71"/>
<polygon fill="grey" stroke="grey" stroke-width="2" points="636.89,-22.21 646.9,-18.75 636.92,-15.21 636.89,-22.21"/>
</g>
<!-- 2 -->
<g id="node3" class="node">
<title>2</title>
<path fill="none" stroke="#d8c356" stroke-width="2" stroke-dasharray="5,2" d="M852,-684C852,-684 766,-684 766,-684 760,-684 754,-678 754,-672 754,-672 754,-660 754,-660 754,-654 760,-648 766,-648 766,-648 852,-648 852,-648 858,-648 864,-654 864,-660 864,-660 864,-672 864,-672 864,-678 858,-684 852,-684"/>
<text text-anchor="middle" x="809" y="-663.5" font-family="sans" font-size="10.00">build_h5n1_ec_fasta</text>
</g>
<!-- 1&#45;&gt;2 -->
<g id="edge20" class="edge">
<title>1&#45;&gt;2</title>
<path fill="none" stroke="grey" stroke-width="2" d="M492.13,-721.77C567.82,-708.68 675.25,-690.12 743.52,-678.32"/>
<polygon fill="grey" stroke="grey" stroke-width="2" points="744.46,-681.71 753.72,-676.55 743.27,-674.81 744.46,-681.71"/>
</g>
<!-- 2&#45;&gt;0 -->
<g id="edge2" class="edge">
<title>2&#45;&gt;0</title>
<path fill="none" stroke="grey" stroke-width="2" d="M864.09,-664.21C1017.09,-660.52 1436,-639.77 1436,-523 1436,-523 1436,-523 1436,-161 1436,-108.7 1405.7,-95.57 1359,-72 1301,-42.73 845.66,-24.9 711.24,-20.23"/>
<polygon fill="grey" stroke="grey" stroke-width="2" points="711.15,-16.73 701.04,-19.88 710.91,-23.72 711.15,-16.73"/>
</g>
<!-- 3 -->
<g id="node4" class="node">
<title>3</title>
<path fill="none" stroke="#b6d856" stroke-width="2" stroke-dasharray="5,2" d="M856.5,-612C856.5,-612 761.5,-612 761.5,-612 755.5,-612 749.5,-606 749.5,-600 749.5,-600 749.5,-588 749.5,-588 749.5,-582 755.5,-576 761.5,-576 761.5,-576 856.5,-576 856.5,-576 862.5,-576 868.5,-582 868.5,-588 868.5,-588 868.5,-600 868.5,-600 868.5,-606 862.5,-612 856.5,-612"/>
<text text-anchor="middle" x="809" y="-591.5" font-family="sans" font-size="10.00">build_h5n1_final_fasta</text>
</g>
<!-- 2&#45;&gt;3 -->
<g id="edge21" class="edge">
<title>2&#45;&gt;3</title>
<path fill="none" stroke="grey" stroke-width="2" d="M809,-647.7C809,-639.98 809,-630.71 809,-622.11"/>
<polygon fill="grey" stroke="grey" stroke-width="2" points="812.5,-622.1 809,-612.1 805.5,-622.1 812.5,-622.1"/>
</g>
<!-- 3&#45;&gt;0 -->
<g id="edge3" class="edge">
<title>3&#45;&gt;0</title>
<path fill="none" stroke="grey" stroke-width="2" d="M868.72,-591.22C1018.46,-585.14 1398,-559.08 1398,-451 1398,-451 1398,-451 1398,-161 1398,-106.61 1363.01,-95.58 1314,-72 1206.48,-20.27 831.36,-17.99 711.28,-18.64"/>
<polygon fill="grey" stroke="grey" stroke-width="2" points="711.1,-15.14 701.12,-18.7 711.14,-22.14 711.1,-15.14"/>
</g>
<!-- 4 -->
<g id="node5" class="node">
<title>4</title>
<path fill="none" stroke="#ced856" stroke-width="2" stroke-dasharray="5,2" d="M202.5,-324C202.5,-324 77.5,-324 77.5,-324 71.5,-324 65.5,-318 65.5,-312 65.5,-312 65.5,-300 65.5,-300 65.5,-294 71.5,-288 77.5,-288 77.5,-288 202.5,-288 202.5,-288 208.5,-288 214.5,-294 214.5,-300 214.5,-300 214.5,-312 214.5,-312 214.5,-318 208.5,-324 202.5,-324"/>
<text text-anchor="middle" x="140" y="-303.5" font-family="sans" font-size="10.00">build_h5n1_final_beast_fasta</text>
</g>
<!-- 3&#45;&gt;4 -->
<g id="edge22" class="edge">
<title>3&#45;&gt;4</title>
<path fill="none" stroke="grey" stroke-width="2" d="M749.3,-591.12C598.38,-585.02 207.69,-560.45 125,-468 91.99,-431.09 111.6,-368.59 126.98,-333.3"/>
<polygon fill="grey" stroke="grey" stroke-width="2" points="130.2,-334.67 131.16,-324.12 123.83,-331.77 130.2,-334.67"/>
</g>
<!-- 7 -->
<g id="node8" class="node">
<title>7</title>
<path fill="none" stroke="#56a9d8" stroke-width="2" stroke-dasharray="5,2" d="M871.5,-540C871.5,-540 746.5,-540 746.5,-540 740.5,-540 734.5,-534 734.5,-528 734.5,-528 734.5,-516 734.5,-516 734.5,-510 740.5,-504 746.5,-504 746.5,-504 871.5,-504 871.5,-504 877.5,-504 883.5,-510 883.5,-516 883.5,-516 883.5,-528 883.5,-528 883.5,-534 877.5,-540 871.5,-540"/>
<text text-anchor="middle" x="809" y="-519.5" font-family="sans" font-size="10.00">split_h5n1_final_by_segment</text>
</g>
<!-- 3&#45;&gt;7 -->
<g id="edge32" class="edge">
<title>3&#45;&gt;7</title>
<path fill="none" stroke="grey" stroke-width="2" d="M809,-575.7C809,-567.98 809,-558.71 809,-550.11"/>
<polygon fill="grey" stroke="grey" stroke-width="2" points="812.5,-550.1 809,-540.1 805.5,-550.1 812.5,-550.1"/>
</g>
<!-- 4&#45;&gt;0 -->
<g id="edge4" class="edge">
<title>4&#45;&gt;0</title>
<path fill="none" stroke="grey" stroke-width="2" d="M144.79,-287.92C158.14,-243.73 200.32,-125.39 282,-72 340.08,-34.04 550.71,-22.98 636.87,-20.01"/>
<polygon fill="grey" stroke="grey" stroke-width="2" points="637.11,-23.51 646.99,-19.68 636.88,-16.51 637.11,-23.51"/>
</g>
<!-- 19 -->
<g id="node20" class="node">
<title>19</title>
<path fill="none" stroke="#d88d56" stroke-width="2" d="M605,-252C605,-252 525,-252 525,-252 519,-252 513,-246 513,-240 513,-240 513,-228 513,-228 513,-222 519,-216 525,-216 525,-216 605,-216 605,-216 611,-216 617,-222 617,-228 617,-228 617,-240 617,-240 617,-246 611,-252 605,-252"/>
<text text-anchor="middle" x="565" y="-231.5" font-family="sans" font-size="10.00">build_beast_panels</text>
</g>
<!-- 4&#45;&gt;19 -->
<g id="edge50" class="edge">
<title>4&#45;&gt;19</title>
<path fill="none" stroke="grey" stroke-width="2" d="M214.62,-289.71C217.79,-289.12 220.92,-288.55 224,-288 321.05,-270.65 434.23,-253.7 502.7,-243.81"/>
<polygon fill="grey" stroke="grey" stroke-width="2" points="503.48,-247.24 512.88,-242.35 502.49,-240.31 503.48,-247.24"/>
</g>
<!-- 5 -->
<g id="node6" class="node">
<title>5</title>
<path fill="none" stroke="#97d856" stroke-width="2" d="M849,-396C849,-396 665,-396 665,-396 659,-396 653,-390 653,-384 653,-384 653,-372 653,-372 653,-366 659,-360 665,-360 665,-360 849,-360 849,-360 855,-360 861,-366 861,-372 861,-372 861,-384 861,-384 861,-390 855,-396 849,-396"/>
<text text-anchor="middle" x="757" y="-375.5" font-family="sans" font-size="10.00">concat_aligned_segments_with_partitions</text>
</g>
<!-- 5&#45;&gt;0 -->
<g id="edge5" class="edge">
<title>5&#45;&gt;0</title>
<path fill="none" stroke="grey" stroke-width="2" d="M652.62,-364.6C575.91,-348.98 485,-313.84 485,-235 485,-235 485,-235 485,-161 485,-117.07 495.4,-101.44 528,-72 558.61,-44.36 604.76,-30.83 636.95,-24.41"/>
<polygon fill="grey" stroke="grey" stroke-width="2" points="637.68,-27.84 646.88,-22.57 636.41,-20.96 637.68,-27.84"/>
</g>
<!-- 15 -->
<g id="node16" class="node">
<title>15</title>
<path fill="none" stroke="#61d856" stroke-width="2" d="M828,-324C828,-324 686,-324 686,-324 680,-324 674,-318 674,-312 674,-312 674,-300 674,-300 674,-294 680,-288 686,-288 686,-288 828,-288 828,-288 834,-288 840,-294 840,-300 840,-300 840,-312 840,-312 840,-318 834,-324 828,-324"/>
<text text-anchor="middle" x="757" y="-303.5" font-family="sans" font-size="10.00">raxml_ng_tree_full_concat_beast</text>
</g>
<!-- 5&#45;&gt;15 -->
<g id="edge40" class="edge">
<title>5&#45;&gt;15</title>
<path fill="none" stroke="grey" stroke-width="2" d="M757,-359.7C757,-351.98 757,-342.71 757,-334.11"/>
<polygon fill="grey" stroke="grey" stroke-width="2" points="760.5,-334.1 757,-324.1 753.5,-334.1 760.5,-334.1"/>
</g>
<!-- 17 -->
<g id="node18" class="node">
<title>17</title>
<path fill="none" stroke="#56d863" stroke-width="2" d="M988.5,-252C988.5,-252 837.5,-252 837.5,-252 831.5,-252 825.5,-246 825.5,-240 825.5,-240 825.5,-228 825.5,-228 825.5,-222 831.5,-216 837.5,-216 837.5,-216 988.5,-216 988.5,-216 994.5,-216 1000.5,-222 1000.5,-228 1000.5,-228 1000.5,-240 1000.5,-240 1000.5,-246 994.5,-252 988.5,-252"/>
<text text-anchor="middle" x="913" y="-231.5" font-family="sans" font-size="10.00">raxml_ng_tree_full_concat_rf_rep1</text>
</g>
<!-- 5&#45;&gt;17 -->
<g id="edge44" class="edge">
<title>5&#45;&gt;17</title>
<path fill="none" stroke="grey" stroke-width="2" d="M794.77,-359.88C812.41,-350.78 833,-338.46 849,-324 869.26,-305.68 886.92,-279.93 898.53,-260.84"/>
<polygon fill="grey" stroke="grey" stroke-width="2" points="901.64,-262.45 903.72,-252.06 895.62,-258.89 901.64,-262.45"/>
</g>
<!-- 18 -->
<g id="node19" class="node">
<title>18</title>
<path fill="none" stroke="#56d882" stroke-width="2" d="M1022.5,-180C1022.5,-180 871.5,-180 871.5,-180 865.5,-180 859.5,-174 859.5,-168 859.5,-168 859.5,-156 859.5,-156 859.5,-150 865.5,-144 871.5,-144 871.5,-144 1022.5,-144 1022.5,-144 1028.5,-144 1034.5,-150 1034.5,-156 1034.5,-156 1034.5,-168 1034.5,-168 1034.5,-174 1028.5,-180 1022.5,-180"/>
<text text-anchor="middle" x="947" y="-159.5" font-family="sans" font-size="10.00">raxml_ng_tree_full_concat_rf_rep2</text>
</g>
<!-- 5&#45;&gt;18 -->
<g id="edge46" class="edge">
<title>5&#45;&gt;18</title>
<path fill="none" stroke="grey" stroke-width="2" d="M842.89,-359.92C901.48,-343.24 974.64,-311.35 1010,-252 1018.19,-238.25 1016.75,-230.51 1010,-216 1004.57,-204.34 995.18,-194.34 985.28,-186.26"/>
<polygon fill="grey" stroke="grey" stroke-width="2" points="987.38,-183.45 977.3,-180.2 983.15,-189.03 987.38,-183.45"/>
</g>
<!-- 20 -->
<g id="node21" class="node">
<title>20</title>
<path fill="none" stroke="#568ad8" stroke-width="2" d="M715.5,-180C715.5,-180 562.5,-180 562.5,-180 556.5,-180 550.5,-174 550.5,-168 550.5,-168 550.5,-156 550.5,-156 550.5,-150 556.5,-144 562.5,-144 562.5,-144 715.5,-144 715.5,-144 721.5,-144 727.5,-150 727.5,-156 727.5,-156 727.5,-168 727.5,-168 727.5,-174 721.5,-180 715.5,-180"/>
<text text-anchor="middle" x="639" y="-159.5" font-family="sans" font-size="10.00">subset_alignment_and_prune_tree</text>
</g>
<!-- 5&#45;&gt;20 -->
<g id="edge51" class="edge">
<title>5&#45;&gt;20</title>
<path fill="none" stroke="grey" stroke-width="2" d="M709.73,-359.82C693.12,-351.48 675.89,-339.78 665,-324 637.28,-283.84 635.1,-224.78 636.63,-190.47"/>
<polygon fill="grey" stroke="grey" stroke-width="2" points="640.14,-190.45 637.24,-180.26 633.15,-190.04 640.14,-190.45"/>
</g>
<!-- 6 -->
<g id="node7" class="node">
<title>6</title>
<path fill="none" stroke="#80d856" stroke-width="2" d="M408,-468C408,-468 298,-468 298,-468 292,-468 286,-462 286,-456 286,-456 286,-444 286,-444 286,-438 292,-432 298,-432 298,-432 408,-432 408,-432 414,-432 420,-438 420,-444 420,-444 420,-456 420,-456 420,-462 414,-468 408,-468"/>
<text text-anchor="middle" x="353" y="-453" font-family="sans" font-size="10.00">mafft_align_per_segment</text>
<text text-anchor="middle" x="353" y="-442" font-family="sans" font-size="10.00">segment: PB2</text>
</g>
<!-- 6&#45;&gt;5 -->
<g id="edge23" class="edge">
<title>6&#45;&gt;5</title>
<path fill="none" stroke="grey" stroke-width="2" d="M420.09,-433.76C423.1,-433.15 426.08,-432.56 429,-432 499.84,-418.37 579.74,-405.41 642.95,-395.71"/>
<polygon fill="grey" stroke="grey" stroke-width="2" points="643.59,-399.16 652.94,-394.19 642.53,-392.24 643.59,-399.16"/>
</g>
<!-- 22 -->
<g id="node23" class="node">
<title>22</title>
<path fill="none" stroke="#56d89a" stroke-width="2" d="M369.5,-324C369.5,-324 244.5,-324 244.5,-324 238.5,-324 232.5,-318 232.5,-312 232.5,-312 232.5,-300 232.5,-300 232.5,-294 238.5,-288 244.5,-288 244.5,-288 369.5,-288 369.5,-288 375.5,-288 381.5,-294 381.5,-300 381.5,-300 381.5,-312 381.5,-312 381.5,-318 375.5,-324 369.5,-324"/>
<text text-anchor="middle" x="307" y="-303.5" font-family="sans" font-size="10.00">raxml_ng_tree_per_segment</text>
</g>
<!-- 6&#45;&gt;22 -->
<g id="edge55" class="edge">
<title>6&#45;&gt;22</title>
<path fill="none" stroke="grey" stroke-width="2" d="M347.45,-431.87C339.58,-407.56 325.08,-362.82 315.75,-334.01"/>
<polygon fill="grey" stroke="grey" stroke-width="2" points="318.98,-332.62 312.57,-324.19 312.32,-334.78 318.98,-332.62"/>
</g>
<!-- 7&#45;&gt;0 -->
<g id="edge6" class="edge">
<title>7&#45;&gt;0</title>
<path fill="none" stroke="grey" stroke-width="2" d="M883.74,-518.38C1022.2,-512.82 1307.62,-497.86 1341,-468 1371.14,-441.03 1360,-419.45 1360,-379 1360,-379 1360,-379 1360,-161 1360,-102.49 1316.52,-95.65 1263,-72 1163.5,-28.03 825.12,-20.54 711.53,-19.26"/>
<polygon fill="grey" stroke="grey" stroke-width="2" points="711.29,-15.76 701.26,-19.16 711.22,-22.76 711.29,-15.76"/>
</g>
<!-- 7&#45;&gt;6 -->
<g id="edge31" class="edge">
<title>7&#45;&gt;6</title>
<path fill="none" stroke="grey" stroke-width="2" d="M734.44,-512.42C659.87,-503.43 541.7,-488.06 430.16,-468.13"/>
<polygon fill="grey" stroke="grey" stroke-width="2" points="430.54,-464.64 420.08,-466.32 429.3,-471.53 430.54,-464.64"/>
</g>
<!-- 8 -->
<g id="node9" class="node">
<title>8</title>
<path fill="none" stroke="#80d856" stroke-width="2" d="M560,-468C560,-468 450,-468 450,-468 444,-468 438,-462 438,-456 438,-456 438,-444 438,-444 438,-438 444,-432 450,-432 450,-432 560,-432 560,-432 566,-432 572,-438 572,-444 572,-444 572,-456 572,-456 572,-462 566,-468 560,-468"/>
<text text-anchor="middle" x="505" y="-453" font-family="sans" font-size="10.00">mafft_align_per_segment</text>
<text text-anchor="middle" x="505" y="-442" font-family="sans" font-size="10.00">segment: PB1</text>
</g>
<!-- 7&#45;&gt;8 -->
<g id="edge33" class="edge">
<title>7&#45;&gt;8</title>
<path fill="none" stroke="grey" stroke-width="2" d="M735.02,-503.97C688.59,-493.27 628.82,-479.51 581.85,-468.7"/>
<polygon fill="grey" stroke="grey" stroke-width="2" points="582.56,-465.27 572.03,-466.44 580.99,-472.09 582.56,-465.27"/>
</g>
<!-- 9 -->
<g id="node10" class="node">
<title>9</title>
<path fill="none" stroke="#80d856" stroke-width="2" d="M712,-468C712,-468 602,-468 602,-468 596,-468 590,-462 590,-456 590,-456 590,-444 590,-444 590,-438 596,-432 602,-432 602,-432 712,-432 712,-432 718,-432 724,-438 724,-444 724,-444 724,-456 724,-456 724,-462 718,-468 712,-468"/>
<text text-anchor="middle" x="657" y="-453" font-family="sans" font-size="10.00">mafft_align_per_segment</text>
<text text-anchor="middle" x="657" y="-442" font-family="sans" font-size="10.00">segment: PA</text>
</g>
<!-- 7&#45;&gt;9 -->
<g id="edge34" class="edge">
<title>7&#45;&gt;9</title>
<path fill="none" stroke="grey" stroke-width="2" d="M771.82,-503.88C751.13,-494.35 725.2,-482.41 703.22,-472.28"/>
<polygon fill="grey" stroke="grey" stroke-width="2" points="704.61,-469.07 694.06,-468.07 701.68,-475.43 704.61,-469.07"/>
</g>
<!-- 10 -->
<g id="node11" class="node">
<title>10</title>
<path fill="none" stroke="#80d856" stroke-width="2" d="M864,-468C864,-468 754,-468 754,-468 748,-468 742,-462 742,-456 742,-456 742,-444 742,-444 742,-438 748,-432 754,-432 754,-432 864,-432 864,-432 870,-432 876,-438 876,-444 876,-444 876,-456 876,-456 876,-462 870,-468 864,-468"/>
<text text-anchor="middle" x="809" y="-453" font-family="sans" font-size="10.00">mafft_align_per_segment</text>
<text text-anchor="middle" x="809" y="-442" font-family="sans" font-size="10.00">segment: HA</text>
</g>
<!-- 7&#45;&gt;10 -->
<g id="edge35" class="edge">
<title>7&#45;&gt;10</title>
<path fill="none" stroke="grey" stroke-width="2" d="M809,-503.7C809,-495.98 809,-486.71 809,-478.11"/>
<polygon fill="grey" stroke="grey" stroke-width="2" points="812.5,-478.1 809,-468.1 805.5,-478.1 812.5,-478.1"/>
</g>
<!-- 11 -->
<g id="node12" class="node">
<title>11</title>
<path fill="none" stroke="#80d856" stroke-width="2" d="M1016,-468C1016,-468 906,-468 906,-468 900,-468 894,-462 894,-456 894,-456 894,-444 894,-444 894,-438 900,-432 906,-432 906,-432 1016,-432 1016,-432 1022,-432 1028,-438 1028,-444 1028,-444 1028,-456 1028,-456 1028,-462 1022,-468 1016,-468"/>
<text text-anchor="middle" x="961" y="-453" font-family="sans" font-size="10.00">mafft_align_per_segment</text>
<text text-anchor="middle" x="961" y="-442" font-family="sans" font-size="10.00">segment: NP</text>
</g>
<!-- 7&#45;&gt;11 -->
<g id="edge36" class="edge">
<title>7&#45;&gt;11</title>
<path fill="none" stroke="grey" stroke-width="2" d="M846.18,-503.88C866.87,-494.35 892.8,-482.41 914.78,-472.28"/>
<polygon fill="grey" stroke="grey" stroke-width="2" points="916.32,-475.43 923.94,-468.07 913.39,-469.07 916.32,-475.43"/>
</g>
<!-- 12 -->
<g id="node13" class="node">
<title>12</title>
<path fill="none" stroke="#80d856" stroke-width="2" d="M1168,-468C1168,-468 1058,-468 1058,-468 1052,-468 1046,-462 1046,-456 1046,-456 1046,-444 1046,-444 1046,-438 1052,-432 1058,-432 1058,-432 1168,-432 1168,-432 1174,-432 1180,-438 1180,-444 1180,-444 1180,-456 1180,-456 1180,-462 1174,-468 1168,-468"/>
<text text-anchor="middle" x="1113" y="-453" font-family="sans" font-size="10.00">mafft_align_per_segment</text>
<text text-anchor="middle" x="1113" y="-442" font-family="sans" font-size="10.00">segment: NA</text>
</g>
<!-- 7&#45;&gt;12 -->
<g id="edge37" class="edge">
<title>7&#45;&gt;12</title>
<path fill="none" stroke="grey" stroke-width="2" d="M882.98,-503.97C929.41,-493.27 989.18,-479.51 1036.15,-468.7"/>
<polygon fill="grey" stroke="grey" stroke-width="2" points="1037.01,-472.09 1045.97,-466.44 1035.44,-465.27 1037.01,-472.09"/>
</g>
<!-- 13 -->
<g id="node14" class="node">
<title>13</title>
<path fill="none" stroke="#80d856" stroke-width="2" d="M1320,-468C1320,-468 1210,-468 1210,-468 1204,-468 1198,-462 1198,-456 1198,-456 1198,-444 1198,-444 1198,-438 1204,-432 1210,-432 1210,-432 1320,-432 1320,-432 1326,-432 1332,-438 1332,-444 1332,-444 1332,-456 1332,-456 1332,-462 1326,-468 1320,-468"/>
<text text-anchor="middle" x="1265" y="-453" font-family="sans" font-size="10.00">mafft_align_per_segment</text>
<text text-anchor="middle" x="1265" y="-442" font-family="sans" font-size="10.00">segment: MP</text>
</g>
<!-- 7&#45;&gt;13 -->
<g id="edge38" class="edge">
<title>7&#45;&gt;13</title>
<path fill="none" stroke="grey" stroke-width="2" d="M883.56,-512.42C958.13,-503.43 1076.3,-488.06 1187.84,-468.13"/>
<polygon fill="grey" stroke="grey" stroke-width="2" points="1188.7,-471.53 1197.92,-466.32 1187.46,-464.64 1188.7,-471.53"/>
</g>
<!-- 14 -->
<g id="node15" class="node">
<title>14</title>
<path fill="none" stroke="#80d856" stroke-width="2" d="M256,-468C256,-468 146,-468 146,-468 140,-468 134,-462 134,-456 134,-456 134,-444 134,-444 134,-438 140,-432 146,-432 146,-432 256,-432 256,-432 262,-432 268,-438 268,-444 268,-444 268,-456 268,-456 268,-462 262,-468 256,-468"/>
<text text-anchor="middle" x="201" y="-453" font-family="sans" font-size="10.00">mafft_align_per_segment</text>
<text text-anchor="middle" x="201" y="-442" font-family="sans" font-size="10.00">segment: NS</text>
</g>
<!-- 7&#45;&gt;14 -->
<g id="edge39" class="edge">
<title>7&#45;&gt;14</title>
<path fill="none" stroke="grey" stroke-width="2" d="M734.18,-516.41C632.9,-509.55 446.43,-494.68 278.09,-468.06"/>
<polygon fill="grey" stroke="grey" stroke-width="2" points="278.48,-464.58 268.05,-466.46 277.37,-471.49 278.48,-464.58"/>
</g>
<!-- 8&#45;&gt;5 -->
<g id="edge24" class="edge">
<title>8&#45;&gt;5</title>
<path fill="none" stroke="grey" stroke-width="2" d="M566.32,-431.97C602.3,-421.97 647.93,-409.3 685.53,-398.85"/>
<polygon fill="grey" stroke="grey" stroke-width="2" points="686.7,-402.16 695.4,-396.11 684.83,-395.42 686.7,-402.16"/>
</g>
<!-- 23 -->
<g id="node24" class="node">
<title>23</title>
<path fill="none" stroke="#56d89a" stroke-width="2" d="M407.5,-252C407.5,-252 282.5,-252 282.5,-252 276.5,-252 270.5,-246 270.5,-240 270.5,-240 270.5,-228 270.5,-228 270.5,-222 276.5,-216 282.5,-216 282.5,-216 407.5,-216 407.5,-216 413.5,-216 419.5,-222 419.5,-228 419.5,-228 419.5,-240 419.5,-240 419.5,-246 413.5,-252 407.5,-252"/>
<text text-anchor="middle" x="345" y="-231.5" font-family="sans" font-size="10.00">raxml_ng_tree_per_segment</text>
</g>
<!-- 8&#45;&gt;23 -->
<g id="edge56" class="edge">
<title>8&#45;&gt;23</title>
<path fill="none" stroke="grey" stroke-width="2" d="M474.14,-431.84C460.03,-422.73 444.04,-410.42 433,-396 401.69,-355.11 417.6,-332.1 391,-288 385.09,-278.2 377.32,-268.45 369.85,-260.04"/>
<polygon fill="grey" stroke="grey" stroke-width="2" points="372.2,-257.42 362.85,-252.42 367.04,-262.16 372.2,-257.42"/>
</g>
<!-- 9&#45;&gt;5 -->
<g id="edge25" class="edge">
<title>9&#45;&gt;5</title>
<path fill="none" stroke="grey" stroke-width="2" d="M681.46,-431.88C694.3,-422.89 710.2,-411.76 724.09,-402.03"/>
<polygon fill="grey" stroke="grey" stroke-width="2" points="726.26,-404.79 732.44,-396.19 722.24,-399.06 726.26,-404.79"/>
</g>
<!-- 24 -->
<g id="node25" class="node">
<title>24</title>
<path fill="none" stroke="#56d89a" stroke-width="2" d="M445.5,-180C445.5,-180 320.5,-180 320.5,-180 314.5,-180 308.5,-174 308.5,-168 308.5,-168 308.5,-156 308.5,-156 308.5,-150 314.5,-144 320.5,-144 320.5,-144 445.5,-144 445.5,-144 451.5,-144 457.5,-150 457.5,-156 457.5,-156 457.5,-168 457.5,-168 457.5,-174 451.5,-180 445.5,-180"/>
<text text-anchor="middle" x="383" y="-159.5" font-family="sans" font-size="10.00">raxml_ng_tree_per_segment</text>
</g>
<!-- 9&#45;&gt;24 -->
<g id="edge57" class="edge">
<title>9&#45;&gt;24</title>
<path fill="none" stroke="grey" stroke-width="2" d="M618.41,-431.84C576.79,-411.56 511.11,-374.12 471,-324 438.82,-283.79 455.6,-260.1 429,-216 423.09,-206.2 415.32,-196.45 407.85,-188.04"/>
<polygon fill="grey" stroke="grey" stroke-width="2" points="410.2,-185.42 400.85,-180.42 405.04,-190.16 410.2,-185.42"/>
</g>
<!-- 10&#45;&gt;5 -->
<g id="edge26" class="edge">
<title>10&#45;&gt;5</title>
<path fill="none" stroke="grey" stroke-width="2" d="M796.15,-431.7C789.97,-423.39 782.46,-413.28 775.68,-404.14"/>
<polygon fill="grey" stroke="grey" stroke-width="2" points="778.48,-402.04 769.71,-396.1 772.86,-406.22 778.48,-402.04"/>
</g>
<!-- 25 -->
<g id="node26" class="node">
<title>25</title>
<path fill="none" stroke="#56d89a" stroke-width="2" d="M1077.5,-108C1077.5,-108 952.5,-108 952.5,-108 946.5,-108 940.5,-102 940.5,-96 940.5,-96 940.5,-84 940.5,-84 940.5,-78 946.5,-72 952.5,-72 952.5,-72 1077.5,-72 1077.5,-72 1083.5,-72 1089.5,-78 1089.5,-84 1089.5,-84 1089.5,-96 1089.5,-96 1089.5,-102 1083.5,-108 1077.5,-108"/>
<text text-anchor="middle" x="1015" y="-87.5" font-family="sans" font-size="10.00">raxml_ng_tree_per_segment</text>
</g>
<!-- 10&#45;&gt;25 -->
<g id="edge58" class="edge">
<title>10&#45;&gt;25</title>
<path fill="none" stroke="grey" stroke-width="2" d="M839.43,-431.91C888.59,-402.43 984.21,-336.92 1026,-252 1047.49,-208.34 1056.05,-191.15 1044,-144 1041.62,-134.7 1037.24,-125.27 1032.58,-117"/>
<polygon fill="grey" stroke="grey" stroke-width="2" points="1035.46,-114.99 1027.31,-108.22 1029.46,-118.59 1035.46,-114.99"/>
</g>
<!-- 11&#45;&gt;5 -->
<g id="edge27" class="edge">
<title>11&#45;&gt;5</title>
<path fill="none" stroke="grey" stroke-width="2" d="M911.36,-431.97C882.73,-422.14 846.55,-409.73 816.42,-399.39"/>
<polygon fill="grey" stroke="grey" stroke-width="2" points="817.46,-396.05 806.87,-396.11 815.19,-402.67 817.46,-396.05"/>
</g>
<!-- 26 -->
<g id="node27" class="node">
<title>26</title>
<path fill="none" stroke="#56d89a" stroke-width="2" d="M1179.5,-324C1179.5,-324 1054.5,-324 1054.5,-324 1048.5,-324 1042.5,-318 1042.5,-312 1042.5,-312 1042.5,-300 1042.5,-300 1042.5,-294 1048.5,-288 1054.5,-288 1054.5,-288 1179.5,-288 1179.5,-288 1185.5,-288 1191.5,-294 1191.5,-300 1191.5,-300 1191.5,-312 1191.5,-312 1191.5,-318 1185.5,-324 1179.5,-324"/>
<text text-anchor="middle" x="1117" y="-303.5" font-family="sans" font-size="10.00">raxml_ng_tree_per_segment</text>
</g>
<!-- 11&#45;&gt;26 -->
<g id="edge59" class="edge">
<title>11&#45;&gt;26</title>
<path fill="none" stroke="grey" stroke-width="2" d="M984.57,-431.81C997.94,-421.77 1014.79,-408.63 1029,-396 1052.31,-375.29 1077.14,-349.83 1094.46,-331.46"/>
<polygon fill="grey" stroke="grey" stroke-width="2" points="1097.11,-333.74 1101.39,-324.05 1092,-328.96 1097.11,-333.74"/>
</g>
<!-- 12&#45;&gt;5 -->
<g id="edge28" class="edge">
<title>12&#45;&gt;5</title>
<path fill="none" stroke="grey" stroke-width="2" d="M1045.89,-433.86C1042.89,-433.22 1039.91,-432.6 1037,-432 978.96,-420.02 913.94,-407.65 861.17,-397.87"/>
<polygon fill="grey" stroke="grey" stroke-width="2" points="861.59,-394.39 851.12,-396.02 860.32,-401.28 861.59,-394.39"/>
</g>
<!-- 27 -->
<g id="node28" class="node">
<title>27</title>
<path fill="none" stroke="#56d89a" stroke-width="2" d="M1281.5,-252C1281.5,-252 1156.5,-252 1156.5,-252 1150.5,-252 1144.5,-246 1144.5,-240 1144.5,-240 1144.5,-228 1144.5,-228 1144.5,-222 1150.5,-216 1156.5,-216 1156.5,-216 1281.5,-216 1281.5,-216 1287.5,-216 1293.5,-222 1293.5,-228 1293.5,-228 1293.5,-240 1293.5,-240 1293.5,-246 1287.5,-252 1281.5,-252"/>
<text text-anchor="middle" x="1219" y="-231.5" font-family="sans" font-size="10.00">raxml_ng_tree_per_segment</text>
</g>
<!-- 12&#45;&gt;27 -->
<g id="edge60" class="edge">
<title>12&#45;&gt;27</title>
<path fill="none" stroke="grey" stroke-width="2" d="M1124.8,-431.88C1137.21,-413.91 1157.35,-384.88 1175,-360 1186.42,-343.9 1193.09,-342.08 1201,-324 1209.62,-304.29 1214.17,-280.31 1216.53,-262.21"/>
<polygon fill="grey" stroke="grey" stroke-width="2" points="1220.04,-262.38 1217.71,-252.04 1213.08,-261.57 1220.04,-262.38"/>
</g>
<!-- 13&#45;&gt;5 -->
<g id="edge29" class="edge">
<title>13&#45;&gt;5</title>
<path fill="none" stroke="grey" stroke-width="2" d="M1197.93,-433.62C1194.92,-433.05 1191.93,-432.51 1189,-432 1081.92,-413.5 958.83,-399.06 871.5,-389.96"/>
<polygon fill="grey" stroke="grey" stroke-width="2" points="871.6,-386.45 861.29,-388.9 870.88,-393.41 871.6,-386.45"/>
</g>
<!-- 28 -->
<g id="node29" class="node">
<title>28</title>
<path fill="none" stroke="#56d89a" stroke-width="2" d="M1320.5,-396C1320.5,-396 1195.5,-396 1195.5,-396 1189.5,-396 1183.5,-390 1183.5,-384 1183.5,-384 1183.5,-372 1183.5,-372 1183.5,-366 1189.5,-360 1195.5,-360 1195.5,-360 1320.5,-360 1320.5,-360 1326.5,-360 1332.5,-366 1332.5,-372 1332.5,-372 1332.5,-384 1332.5,-384 1332.5,-390 1326.5,-396 1320.5,-396"/>
<text text-anchor="middle" x="1258" y="-375.5" font-family="sans" font-size="10.00">raxml_ng_tree_per_segment</text>
</g>
<!-- 13&#45;&gt;28 -->
<g id="edge61" class="edge">
<title>13&#45;&gt;28</title>
<path fill="none" stroke="grey" stroke-width="2" d="M1263.27,-431.7C1262.5,-423.98 1261.57,-414.71 1260.71,-406.11"/>
<polygon fill="grey" stroke="grey" stroke-width="2" points="1264.19,-405.71 1259.71,-396.1 1257.22,-406.4 1264.19,-405.71"/>
</g>
<!-- 14&#45;&gt;5 -->
<g id="edge30" class="edge">
<title>14&#45;&gt;5</title>
<path fill="none" stroke="grey" stroke-width="2" d="M268.06,-433.58C271.07,-433.02 274.07,-432.49 277,-432 401.2,-411.32 544.88,-396.66 642.43,-388.08"/>
<polygon fill="grey" stroke="grey" stroke-width="2" points="642.95,-391.55 652.61,-387.19 642.35,-384.57 642.95,-391.55"/>
</g>
<!-- 29 -->
<g id="node30" class="node">
<title>29</title>
<path fill="none" stroke="#56d89a" stroke-width="2" d="M265.5,-396C265.5,-396 140.5,-396 140.5,-396 134.5,-396 128.5,-390 128.5,-384 128.5,-384 128.5,-372 128.5,-372 128.5,-366 134.5,-360 140.5,-360 140.5,-360 265.5,-360 265.5,-360 271.5,-360 277.5,-366 277.5,-372 277.5,-372 277.5,-384 277.5,-384 277.5,-390 271.5,-396 265.5,-396"/>
<text text-anchor="middle" x="203" y="-375.5" font-family="sans" font-size="10.00">raxml_ng_tree_per_segment</text>
</g>
<!-- 14&#45;&gt;29 -->
<g id="edge62" class="edge">
<title>14&#45;&gt;29</title>
<path fill="none" stroke="grey" stroke-width="2" d="M201.49,-431.7C201.71,-423.98 201.98,-414.71 202.23,-406.11"/>
<polygon fill="grey" stroke="grey" stroke-width="2" points="205.72,-406.2 202.51,-396.1 198.73,-406 205.72,-406.2"/>
</g>
<!-- 15&#45;&gt;0 -->
<g id="edge7" class="edge">
<title>15&#45;&gt;0</title>
<path fill="none" stroke="grey" stroke-width="2" d="M756.78,-287.68C755.97,-257.74 752.41,-194.66 737,-144 725.97,-107.71 704.97,-69.22 690.26,-44.69"/>
<polygon fill="grey" stroke="grey" stroke-width="2" points="693.16,-42.72 684.97,-36 687.19,-46.36 693.16,-42.72"/>
</g>
<!-- 16 -->
<g id="node17" class="node">
<title>16</title>
<path fill="none" stroke="#5673d8" stroke-width="2" d="M910,-108C910,-108 752,-108 752,-108 746,-108 740,-102 740,-96 740,-96 740,-84 740,-84 740,-78 746,-72 752,-72 752,-72 910,-72 910,-72 916,-72 922,-78 922,-84 922,-84 922,-96 922,-96 922,-102 916,-108 910,-108"/>
<text text-anchor="middle" x="831" y="-87.5" font-family="sans" font-size="10.00">summarize_full_concat_rf_instability</text>
</g>
<!-- 15&#45;&gt;16 -->
<g id="edge41" class="edge">
<title>15&#45;&gt;16</title>
<path fill="none" stroke="grey" stroke-width="2" d="M761.29,-287.78C765.92,-269.74 773.73,-240.65 782,-216 793.59,-181.47 809.28,-142.52 819.76,-117.41"/>
<polygon fill="grey" stroke="grey" stroke-width="2" points="822.99,-118.77 823.63,-108.19 816.53,-116.06 822.99,-118.77"/>
</g>
<!-- 15&#45;&gt;17 -->
<g id="edge45" class="edge">
<title>15&#45;&gt;17</title>
<path fill="none" stroke="grey" stroke-width="2" d="M795.16,-287.88C816.39,-278.35 843.01,-266.41 865.57,-256.28"/>
<polygon fill="grey" stroke="grey" stroke-width="2" points="867.27,-259.36 874.96,-252.07 864.41,-252.97 867.27,-259.36"/>
</g>
<!-- 15&#45;&gt;18 -->
<g id="edge47" class="edge">
<title>15&#45;&gt;18</title>
<path fill="none" stroke="grey" stroke-width="2" d="M764.78,-287.68C774.46,-267.9 792.7,-235.74 817,-216 833.9,-202.27 854.84,-191.66 874.94,-183.68"/>
<polygon fill="grey" stroke="grey" stroke-width="2" points="876.3,-186.9 884.41,-180.08 873.82,-180.36 876.3,-186.9"/>
</g>
<!-- 15&#45;&gt;19 -->
<g id="edge49" class="edge">
<title>15&#45;&gt;19</title>
<path fill="none" stroke="grey" stroke-width="2" d="M710.03,-287.88C683.32,-278.14 649.68,-265.87 621.53,-255.61"/>
<polygon fill="grey" stroke="grey" stroke-width="2" points="622.41,-252.21 611.82,-252.07 620.01,-258.78 622.41,-252.21"/>
</g>
<!-- 15&#45;&gt;20 -->
<g id="edge52" class="edge">
<title>15&#45;&gt;20</title>
<path fill="none" stroke="grey" stroke-width="2" d="M739.86,-287.75C729.98,-277.59 717.48,-264.34 707,-252 689.36,-231.24 670.67,-206.55 657.35,-188.45"/>
<polygon fill="grey" stroke="grey" stroke-width="2" points="660,-186.15 651.28,-180.14 654.35,-190.28 660,-186.15"/>
</g>
<!-- 16&#45;&gt;0 -->
<g id="edge8" class="edge">
<title>16&#45;&gt;0</title>
<path fill="none" stroke="grey" stroke-width="2" d="M792.59,-71.88C767.59,-60.73 735.17,-46.27 710.54,-35.29"/>
<polygon fill="grey" stroke="grey" stroke-width="2" points="711.74,-32 701.18,-31.12 708.89,-38.39 711.74,-32"/>
</g>
<!-- 17&#45;&gt;16 -->
<g id="edge42" class="edge">
<title>17&#45;&gt;16</title>
<path fill="none" stroke="grey" stroke-width="2" d="M885.89,-215.88C873.47,-206.69 859.62,-194.31 851,-180 839.73,-161.29 834.8,-136.91 832.64,-118.39"/>
<polygon fill="grey" stroke="grey" stroke-width="2" points="836.11,-117.88 831.67,-108.26 829.14,-118.55 836.11,-117.88"/>
</g>
<!-- 17&#45;&gt;18 -->
<g id="edge48" class="edge">
<title>17&#45;&gt;18</title>
<path fill="none" stroke="grey" stroke-width="2" d="M921.4,-215.7C925.27,-207.73 929.95,-198.1 934.24,-189.26"/>
<polygon fill="grey" stroke="grey" stroke-width="2" points="937.47,-190.63 938.69,-180.1 931.17,-187.57 937.47,-190.63"/>
</g>
<!-- 18&#45;&gt;16 -->
<g id="edge43" class="edge">
<title>18&#45;&gt;16</title>
<path fill="none" stroke="grey" stroke-width="2" d="M918.62,-143.88C903.46,-134.72 884.59,-123.34 868.26,-113.48"/>
<polygon fill="grey" stroke="grey" stroke-width="2" points="869.86,-110.36 859.49,-108.19 866.24,-116.35 869.86,-110.36"/>
</g>
<!-- 19&#45;&gt;0 -->
<g id="edge9" class="edge">
<title>19&#45;&gt;0</title>
<path fill="none" stroke="grey" stroke-width="2" d="M555.46,-215.93C550.36,-205.82 544.61,-192.57 542,-180 532.22,-132.9 520.53,-110.77 549,-72 569.56,-43.99 607.89,-30.67 636.7,-24.4"/>
<polygon fill="grey" stroke="grey" stroke-width="2" points="637.7,-27.77 646.84,-22.4 636.35,-20.9 637.7,-27.77"/>
</g>
<!-- 19&#45;&gt;20 -->
<g id="edge53" class="edge">
<title>19&#45;&gt;20</title>
<path fill="none" stroke="grey" stroke-width="2" d="M583.29,-215.7C592.43,-207.05 603.64,-196.45 613.6,-187.03"/>
<polygon fill="grey" stroke="grey" stroke-width="2" points="616.06,-189.52 620.92,-180.1 611.25,-184.43 616.06,-189.52"/>
</g>
<!-- 20&#45;&gt;0 -->
<g id="edge10" class="edge">
<title>20&#45;&gt;0</title>
<path fill="none" stroke="grey" stroke-width="2" d="M644.55,-143.92C647.81,-133.58 651.89,-120.1 655,-108 660.28,-87.47 665.24,-64.02 668.77,-46.34"/>
<polygon fill="grey" stroke="grey" stroke-width="2" points="672.28,-46.65 670.78,-36.16 665.41,-45.3 672.28,-46.65"/>
</g>
<!-- 21 -->
<g id="node22" class="node">
<title>21</title>
<path fill="none" stroke="#56c1d8" stroke-width="2" d="M634,-108C634,-108 570,-108 570,-108 564,-108 558,-102 558,-96 558,-96 558,-84 558,-84 558,-78 564,-72 570,-72 570,-72 634,-72 634,-72 640,-72 646,-78 646,-84 646,-84 646,-96 646,-96 646,-102 640,-108 634,-108"/>
<text text-anchor="middle" x="602" y="-87.5" font-family="sans" font-size="10.00">run_root_to_tip</text>
</g>
<!-- 20&#45;&gt;21 -->
<g id="edge54" class="edge">
<title>20&#45;&gt;21</title>
<path fill="none" stroke="grey" stroke-width="2" d="M629.85,-143.7C625.6,-135.64 620.44,-125.89 615.73,-116.98"/>
<polygon fill="grey" stroke="grey" stroke-width="2" points="618.81,-115.31 611.04,-108.1 612.62,-118.58 618.81,-115.31"/>
</g>
<!-- 21&#45;&gt;0 -->
<g id="edge11" class="edge">
<title>21&#45;&gt;0</title>
<path fill="none" stroke="grey" stroke-width="2" d="M619.8,-71.7C628.6,-63.14 639.38,-52.66 649,-43.3"/>
<polygon fill="grey" stroke="grey" stroke-width="2" points="651.68,-45.58 656.41,-36.1 646.8,-40.57 651.68,-45.58"/>
</g>
<!-- 22&#45;&gt;0 -->
<g id="edge12" class="edge">
<title>22&#45;&gt;0</title>
<path fill="none" stroke="grey" stroke-width="2" d="M286.62,-287.53C277.19,-278.09 266.99,-265.6 262,-252 232.68,-172.16 258.24,-122.07 327,-72 375.92,-36.38 557.75,-24.13 636.85,-20.43"/>
<polygon fill="grey" stroke="grey" stroke-width="2" points="637.03,-23.92 646.86,-19.98 636.71,-16.93 637.03,-23.92"/>
</g>
<!-- 23&#45;&gt;0 -->
<g id="edge13" class="edge">
<title>23&#45;&gt;0</title>
<path fill="none" stroke="grey" stroke-width="2" d="M325.92,-215.98C308.01,-197.85 285.92,-168.46 300,-144 331.8,-88.77 364.53,-94.9 424,-72 496.67,-44.02 587.21,-29.5 636.96,-23.13"/>
<polygon fill="grey" stroke="grey" stroke-width="2" points="637.44,-26.59 646.93,-21.89 636.58,-19.65 637.44,-26.59"/>
</g>
<!-- 24&#45;&gt;0 -->
<g id="edge14" class="edge">
<title>24&#45;&gt;0</title>
<path fill="none" stroke="grey" stroke-width="2" d="M395.29,-143.87C410.7,-123.65 439,-90.46 471,-72 523.79,-41.55 594.29,-28.26 636.8,-22.71"/>
<polygon fill="grey" stroke="grey" stroke-width="2" points="637.48,-26.15 646.98,-21.46 636.63,-19.21 637.48,-26.15"/>
</g>
<!-- 25&#45;&gt;0 -->
<g id="edge15" class="edge">
<title>25&#45;&gt;0</title>
<path fill="none" stroke="grey" stroke-width="2" d="M940.17,-73.64C869.26,-59.08 765.7,-37.83 711.02,-26.6"/>
<polygon fill="grey" stroke="grey" stroke-width="2" points="711.57,-23.14 701.07,-24.56 710.16,-30 711.57,-23.14"/>
</g>
<!-- 26&#45;&gt;0 -->
<g id="edge16" class="edge">
<title>26&#45;&gt;0</title>
<path fill="none" stroke="grey" stroke-width="2" d="M1122.06,-287.79C1133.53,-244.84 1156.27,-132.03 1099,-72 1072.38,-44.1 809.84,-26.62 711.2,-20.99"/>
<polygon fill="grey" stroke="grey" stroke-width="2" points="711.27,-17.48 701.09,-20.42 710.88,-24.47 711.27,-17.48"/>
</g>
<!-- 27&#45;&gt;0 -->
<g id="edge17" class="edge">
<title>27&#45;&gt;0</title>
<path fill="none" stroke="grey" stroke-width="2" d="M1215.17,-215.85C1206.61,-181.96 1182.51,-106.71 1131,-72 1062.69,-25.96 807.77,-19.71 711.31,-19.01"/>
<polygon fill="grey" stroke="grey" stroke-width="2" points="711.16,-15.51 701.14,-18.95 711.12,-22.51 711.16,-15.51"/>
</g>
<!-- 28&#45;&gt;0 -->
<g id="edge18" class="edge">
<title>28&#45;&gt;0</title>
<path fill="none" stroke="grey" stroke-width="2" d="M1271.36,-359.72C1289.85,-334.03 1321,-283.55 1321,-235 1321,-235 1321,-235 1321,-161 1321,-35.33 849.43,-20.74 711.48,-19.16"/>
<polygon fill="grey" stroke="grey" stroke-width="2" points="711.42,-15.66 701.39,-19.06 711.35,-22.66 711.42,-15.66"/>
</g>
<!-- 29&#45;&gt;0 -->
<g id="edge19" class="edge">
<title>29&#45;&gt;0</title>
<path fill="none" stroke="grey" stroke-width="2" d="M128.43,-365.28C102.44,-357.62 75.24,-344.95 57,-324 30.44,-293.5 38,-275.45 38,-235 38,-235 38,-235 38,-161 38,-37.63 499.6,-21.4 636.3,-19.3"/>
<polygon fill="grey" stroke="grey" stroke-width="2" points="636.72,-22.8 646.67,-19.16 636.63,-15.8 636.72,-22.8"/>
</g>
</g>
</svg>
