<?xml version="1.0" encoding="UTF-8" standalone="no"?>
<!DOCTYPE svg PUBLIC "-//W3C//DTD SVG 1.1//EN"
 "http://www.w3.org/Graphics/SVG/1.1/DTD/svg11.dtd">
<!-- Generated by graphviz version 2.43.0 (0)
 -->
<!-- Title: snakemake_dag Pages: 1 -->
<svg width="937pt" height="1618pt"
 viewBox="0.00 0.00 937.00 1618.00" xmlns="http://www.w3.org/2000/svg" xmlns:xlink="http://www.w3.org/1999/xlink">
<g id="graph0" class="graph" transform="scale(1 1) rotate(0) translate(4 1614)">
<title>snakemake_dag</title>
<polygon fill="white" stroke="transparent" points="-4,4 -4,-1614 933,-1614 933,4 -4,4"/>
<!-- 0 -->
<g id="node1" class="node">
<title>0</title>
<text text-anchor="start" x="156" y="-431.6" font-family="sans" font-weight="bold" font-size="18.00">all</text>
<text text-anchor="start" x="7.5" y="-407.8" font-family="sans" font-size="10.00"> </text>
<text text-anchor="start" x="10.5" y="-407.8" font-family="sans" font-weight="bold" font-size="14.00">↪ input</text>
<text text-anchor="start" x="65.5" y="-407.8" font-family="sans" font-size="10.00"> </text>
<text text-anchor="start" x="7.5" y="-388" font-family="monospace" font-size="10.00">data/all_amended_fasta</text>
<text text-anchor="start" x="7.5" y="-370" font-family="monospace" font-size="10.00">data/assembled/ecuador_intermediate_audit.csv</text>
<text text-anchor="start" x="7.5" y="-352" font-family="monospace" font-size="10.00">data/assembled/ecuador_intermediate_issues.csv</text>
<text text-anchor="start" x="7.5" y="-334" font-family="monospace" font-size="10.00">data/assembled/ecuador_intermediate_per_sample</text>
<text text-anchor="start" x="7.5" y="-316" font-family="monospace" font-size="10.00">data/assembled/ecuador_intermediate_sequences.fasta</text>
<text text-anchor="start" x="7.5" y="-298" font-family="monospace" font-size="10.00">data/assembled/ecuador_intermediate_summary.csv</text>
<text text-anchor="start" x="7.5" y="-280" font-family="monospace" font-size="10.00">data/exports/H5N1_EC.fasta</text>
<text text-anchor="start" x="7.5" y="-262" font-family="monospace" font-size="10.00">data/exports/H5N1_EC_summary.csv</text>
<text text-anchor="start" x="7.5" y="-244" font-family="monospace" font-size="10.00">data/exports/H5N1_context.fasta</text>
<text text-anchor="start" x="7.5" y="-226" font-family="monospace" font-size="10.00">data/exports/H5N1_context_summary.csv</text>
<text text-anchor="start" x="7.5" y="-208" font-family="monospace" font-size="10.00">data/final/H5N1_final.fasta</text>
<text text-anchor="start" x="7.5" y="-190" font-family="monospace" font-size="10.00">data/phylogeny/by_segment</text>
<text text-anchor="start" x="7.5" y="-172" font-family="monospace" font-size="10.00">data/phylogeny/by_segment_summary.csv</text>
<text text-anchor="start" x="7.5" y="-154" font-family="monospace" font-size="10.00">results/phylogeny/raxml/HA/H5N1_HA.raxml.supportFBP</text>
<text text-anchor="start" x="7.5" y="-136" font-family="monospace" font-size="10.00">results/phylogeny/raxml/MP/H5N1_MP.raxml.supportFBP</text>
<text text-anchor="start" x="7.5" y="-118" font-family="monospace" font-size="10.00">results/phylogeny/raxml/NA/H5N1_NA.raxml.supportFBP</text>
<text text-anchor="start" x="7.5" y="-100" font-family="monospace" font-size="10.00">results/phylogeny/raxml/NP/H5N1_NP.raxml.supportFBP</text>
<text text-anchor="start" x="7.5" y="-82" font-family="monospace" font-size="10.00">results/phylogeny/raxml/NS/H5N1_NS.raxml.supportFBP</text>
<text text-anchor="start" x="7.5" y="-64" font-family="monospace" font-size="10.00">results/phylogeny/raxml/PA/H5N1_PA.raxml.supportFBP</text>
<text text-anchor="start" x="7.5" y="-46" font-family="monospace" font-size="10.00">results/phylogeny/raxml/PB1/H5N1_PB1.raxml.supportFBP</text>
<text text-anchor="start" x="7.5" y="-28" font-family="monospace" font-size="10.00">results/phylogeny/raxml/PB2/H5N1_PB2.raxml.supportFBP</text>
<text text-anchor="start" x="321.5" y="-10" font-family="sans" font-size="10.00"> &#160;</text>
<polygon fill="#d99157" stroke="#d99157" points="1.5,-422 1.5,-422 333.5,-422 333.5,-422 1.5,-422"/>
<polygon fill="#d99157" stroke="#d99157" points="1.5,-22 1.5,-22 333.5,-22 333.5,-22 1.5,-22"/>
<polygon fill="none" stroke="#d99157" stroke-width="2" points="1,-1 1,-451 332,-451 332,-1 1,-1"/>
</g>
<!-- 1 -->
<g id="node2" class="node">
<title>1</title>
<text text-anchor="start" x="24" y="-1589.6" font-family="sans" font-weight="bold" font-size="18.00">build_ecuador_intermediate_input</text>
<text text-anchor="start" x="8.5" y="-1565.8" font-family="sans" font-size="10.00"> </text>
<text text-anchor="start" x="11.5" y="-1565.8" font-family="sans" font-weight="bold" font-size="14.00">↪ input</text>
<text text-anchor="start" x="66.5" y="-1565.8" font-family="sans" font-size="10.00"> </text>
<text text-anchor="start" x="8.5" y="-1546" font-family="monospace" font-size="10.00">../run1/amended_consensus.fasta</text>
<text text-anchor="start" x="8.5" y="-1528" font-family="monospace" font-size="10.00">../run10/amended_consensus.fasta</text>
<text text-anchor="start" x="8.5" y="-1510" font-family="monospace" font-size="10.00">../run12/amended_consensus.fasta</text>
<text text-anchor="start" x="8.5" y="-1492" font-family="monospace" font-size="10.00">../run17/amended_consensus.fasta</text>
<text text-anchor="start" x="8.5" y="-1474" font-family="monospace" font-size="10.00">../run2/amended_consensus.fasta</text>
<text text-anchor="start" x="8.5" y="-1456" font-family="monospace" font-size="10.00">../run20/amended_consensus.fasta</text>
<text text-anchor="start" x="8.5" y="-1438" font-family="monospace" font-size="10.00">../run21/amended_consensus.fasta</text>
<text text-anchor="start" x="8.5" y="-1420" font-family="monospace" font-size="10.00">../run22/amended_consensus.fasta</text>
<text text-anchor="start" x="8.5" y="-1402" font-family="monospace" font-size="10.00">../run23/amended_consensus.fasta</text>
<text text-anchor="start" x="8.5" y="-1384" font-family="monospace" font-size="10.00">../run24/amended_consensus.fasta</text>
<text text-anchor="start" x="8.5" y="-1366" font-family="monospace" font-size="10.00">../run25/amended_consensus.fasta</text>
<text text-anchor="start" x="8.5" y="-1348" font-family="monospace" font-size="10.00">../run26/amended_consensus.fasta</text>
<text text-anchor="start" x="8.5" y="-1330" font-family="monospace" font-size="10.00">../run3/amended_consensus.fasta</text>
<text text-anchor="start" x="8.5" y="-1312" font-family="monospace" font-size="10.00">../run8/amended_consensus.fasta</text>
<text text-anchor="start" x="8.5" y="-1294" font-family="monospace" font-size="10.00">../run9/amended_consensus.fasta</text>
<text text-anchor="start" x="8.5" y="-1276" font-family="monospace" font-size="10.00">../run_agro/amended_consensus.fasta</text>
<text text-anchor="start" x="8.5" y="-1258" font-family="monospace" font-size="10.00">config/flu_filtrado.csv</text>
<text text-anchor="start" x="275.5" y="-1237.8" font-family="sans" font-size="10.00"> </text>
<text text-anchor="start" x="278.5" y="-1237.8" font-family="sans" font-weight="bold" font-size="14.00">output →</text>
<text text-anchor="start" x="342.5" y="-1237.8" font-family="sans" font-size="10.00"> </text>
<text text-anchor="start" x="8.5" y="-1218" font-family="monospace" font-size="10.00">data/all_amended_fasta</text>
<text text-anchor="start" x="8.5" y="-1200" font-family="monospace" font-size="10.00">data/assembled/ecuador_intermediate_audit.csv</text>
<text text-anchor="start" x="8.5" y="-1182" font-family="monospace" font-size="10.00">data/assembled/ecuador_intermediate_expected_lengths.csv</text>
<text text-anchor="start" x="8.5" y="-1164" font-family="monospace" font-size="10.00">data/assembled/ecuador_intermediate_issues.csv</text>
<text text-anchor="start" x="8.5" y="-1146" font-family="monospace" font-size="10.00">data/assembled/ecuador_intermediate_per_sample</text>
<text text-anchor="start" x="8.5" y="-1128" font-family="monospace" font-size="10.00">data/assembled/ecuador_intermediate_raw_segments.csv</text>
<text text-anchor="start" x="8.5" y="-1110" font-family="monospace" font-size="10.00">data/assembled/ecuador_intermediate_sequences.fasta</text>
<text text-anchor="start" x="8.5" y="-1092" font-family="monospace" font-size="10.00">data/assembled/ecuador_intermediate_summary.csv</text>
<polygon fill="#d9ca57" stroke="#d9ca57" points="2.5,-1580 2.5,-1580 352.5,-1580 352.5,-1580 2.5,-1580"/>
<polygon fill="#d9ca57" stroke="#d9ca57" points="2.5,-1252 2.5,-1252 352.5,-1252 352.5,-1252 2.5,-1252"/>
<polygon fill="none" stroke="#d9ca57" stroke-width="2" points="2,-1083 2,-1609 351,-1609 351,-1083 2,-1083"/>
</g>
<!-- 1&#45;&gt;0 -->
<g id="edge3" class="edge">
<title>1&#45;&gt;0</title>
<path fill="none" stroke="grey" stroke-width="2" d="M114.4,-1081.78C112.54,-1069.72 110.89,-1057.75 109.5,-1046 80.41,-799.7 75.64,-734.33 104.5,-488 105.5,-479.43 106.69,-470.73 108.02,-461.97"/>
<polygon fill="grey" stroke="grey" stroke-width="2" points="111.48,-462.48 109.58,-452.06 104.57,-461.39 111.48,-462.48"/>
</g>
<!-- 2 -->
<g id="node3" class="node">
<title>2</title>
<text text-anchor="start" x="175.5" y="-1025.6" font-family="sans" font-weight="bold" font-size="18.00">build_h5n1_ec_fasta</text>
<text text-anchor="start" x="125.5" y="-1001.8" font-family="sans" font-size="10.00"> </text>
<text text-anchor="start" x="128.5" y="-1001.8" font-family="sans" font-weight="bold" font-size="14.00">↪ input</text>
<text text-anchor="start" x="183.5" y="-1001.8" font-family="sans" font-size="10.00"> </text>
<text text-anchor="start" x="125.5" y="-982" font-family="monospace" font-size="10.00">config/flu_filtrado.csv</text>
<text text-anchor="start" x="125.5" y="-964" font-family="monospace" font-size="10.00">data/assembled/ecuador_intermediate_audit.csv</text>
<text text-anchor="start" x="125.5" y="-946" font-family="monospace" font-size="10.00">data/assembled/ecuador_intermediate_per_sample</text>
<text text-anchor="start" x="332.5" y="-925.8" font-family="sans" font-size="10.00"> </text>
<text text-anchor="start" x="335.5" y="-925.8" font-family="sans" font-weight="bold" font-size="14.00">output →</text>
<text text-anchor="start" x="399.5" y="-925.8" font-family="sans" font-size="10.00"> </text>
<text text-anchor="start" x="125.5" y="-906" font-family="monospace" font-size="10.00">data/exports/H5N1_EC.fasta</text>
<text text-anchor="start" x="125.5" y="-888" font-family="monospace" font-size="10.00">data/exports/H5N1_EC_summary.csv</text>
<polygon fill="#add957" stroke="#add957" points="119.5,-1016 119.5,-1016 409.5,-1016 409.5,-1016 119.5,-1016"/>
<polygon fill="#add957" stroke="#add957" points="119.5,-940 119.5,-940 409.5,-940 409.5,-940 119.5,-940"/>
<polygon fill="none" stroke="#add957" stroke-width="2" points="119,-879 119,-1045 408,-1045 408,-879 119,-879"/>
</g>
<!-- 1&#45;&gt;2 -->
<g id="edge6" class="edge">
<title>1&#45;&gt;2</title>
<path fill="none" stroke="grey" stroke-width="2" d="M236.45,-1081.77C238.46,-1072.95 240.41,-1064.37 242.29,-1056.13"/>
<polygon fill="grey" stroke="grey" stroke-width="2" points="245.73,-1056.77 244.54,-1046.24 238.91,-1055.21 245.73,-1056.77"/>
</g>
<!-- 2&#45;&gt;0 -->
<g id="edge4" class="edge">
<title>2&#45;&gt;0</title>
<path fill="none" stroke="grey" stroke-width="2" d="M168.01,-877.68C159.75,-866.52 152.61,-854.56 147.5,-842 99.15,-723.14 100.36,-580.41 115.26,-462.39"/>
<polygon fill="grey" stroke="grey" stroke-width="2" points="118.78,-462.5 116.6,-452.14 111.84,-461.6 118.78,-462.5"/>
</g>
<!-- 3 -->
<g id="node4" class="node">
<title>3</title>
<text text-anchor="start" x="186" y="-821.6" font-family="sans" font-weight="bold" font-size="18.00">build_h5n1_final_fasta</text>
<text text-anchor="start" x="164.5" y="-797.8" font-family="sans" font-size="10.00"> </text>
<text text-anchor="start" x="167.5" y="-797.8" font-family="sans" font-weight="bold" font-size="14.00">↪ input</text>
<text text-anchor="start" x="222.5" y="-797.8" font-family="sans" font-size="10.00"> </text>
<text text-anchor="start" x="164.5" y="-778" font-family="monospace" font-size="10.00">config/final_metadata_50_per_country.tsv</text>
<text text-anchor="start" x="164.5" y="-760" font-family="monospace" font-size="10.00">data/exports/H5N1_EC.fasta</text>
<text text-anchor="start" x="335.5" y="-739.8" font-family="sans" font-size="10.00"> </text>
<text text-anchor="start" x="338.5" y="-739.8" font-family="sans" font-weight="bold" font-size="14.00">output →</text>
<text text-anchor="start" x="402.5" y="-739.8" font-family="sans" font-size="10.00"> </text>
<text text-anchor="start" x="164.5" y="-720" font-family="monospace" font-size="10.00">data/exports/H5N1_context.fasta</text>
<text text-anchor="start" x="164.5" y="-702" font-family="monospace" font-size="10.00">data/exports/H5N1_context_summary.csv</text>
<text text-anchor="start" x="164.5" y="-684" font-family="monospace" font-size="10.00">data/final/H5N1_final.fasta</text>
<polygon fill="#74d957" stroke="#74d957" points="158.5,-812 158.5,-812 412.5,-812 412.5,-812 158.5,-812"/>
<polygon fill="#74d957" stroke="#74d957" points="158.5,-754 158.5,-754 412.5,-754 412.5,-754 158.5,-754"/>
<polygon fill="none" stroke="#74d957" stroke-width="2" points="158,-675 158,-841 411,-841 411,-675 158,-675"/>
</g>
<!-- 2&#45;&gt;3 -->
<g id="edge7" class="edge">
<title>2&#45;&gt;3</title>
<path fill="none" stroke="grey" stroke-width="2" d="M272.13,-877.96C273.02,-869.44 273.92,-860.74 274.82,-852.11"/>
<polygon fill="grey" stroke="grey" stroke-width="2" points="278.31,-852.35 275.87,-842.04 271.35,-851.62 278.31,-852.35"/>
</g>
<!-- 3&#45;&gt;0 -->
<g id="edge5" class="edge">
<title>3&#45;&gt;0</title>
<path fill="none" stroke="grey" stroke-width="2" d="M204.56,-673.84C196.96,-662.46 190.31,-650.4 185.5,-638 164.25,-583.23 154.7,-521.23 151.51,-462.31"/>
<polygon fill="grey" stroke="grey" stroke-width="2" points="155,-461.93 151.02,-452.11 148.01,-462.27 155,-461.93"/>
</g>
<!-- 4 -->
<g id="node5" class="node">
<title>4</title>
<text text-anchor="start" x="202.5" y="-608.6" font-family="sans" font-weight="bold" font-size="18.00">split_h5n1_final_by_segment</text>
<text text-anchor="start" x="202.5" y="-584.8" font-family="sans" font-size="10.00"> </text>
<text text-anchor="start" x="205.5" y="-584.8" font-family="sans" font-weight="bold" font-size="14.00">↪ input</text>
<text text-anchor="start" x="260.5" y="-584.8" font-family="sans" font-size="10.00"> </text>
<text text-anchor="start" x="202.5" y="-565" font-family="monospace" font-size="10.00">data/final/H5N1_final.fasta</text>
<text text-anchor="start" x="387.5" y="-544.8" font-family="sans" font-size="10.00"> </text>
<text text-anchor="start" x="390.5" y="-544.8" font-family="sans" font-weight="bold" font-size="14.00">output →</text>
<text text-anchor="start" x="454.5" y="-544.8" font-family="sans" font-size="10.00"> </text>
<text text-anchor="start" x="202.5" y="-525" font-family="monospace" font-size="10.00">data/phylogeny/by_segment</text>
<text text-anchor="start" x="202.5" y="-507" font-family="monospace" font-size="10.00">data/phylogeny/by_segment_summary.csv</text>
<polygon fill="#5791d9" stroke="#5791d9" points="196.5,-599 196.5,-599 464.5,-599 464.5,-599 196.5,-599"/>
<polygon fill="#5791d9" stroke="#5791d9" points="196.5,-559 196.5,-559 464.5,-559 464.5,-559 196.5,-559"/>
<polygon fill="none" stroke="#5791d9" stroke-width="2" points="196,-498 196,-628 463,-628 463,-498 196,-498"/>
</g>
<!-- 3&#45;&gt;4 -->
<g id="edge8" class="edge">
<title>3&#45;&gt;4</title>
<path fill="none" stroke="grey" stroke-width="2" d="M303.91,-673.75C306.6,-662.23 309.34,-650.45 311.99,-639.09"/>
<polygon fill="grey" stroke="grey" stroke-width="2" points="315.43,-639.77 314.29,-629.23 308.61,-638.18 315.43,-639.77"/>
</g>
<!-- 4&#45;&gt;0 -->
<g id="edge1" class="edge">
<title>4&#45;&gt;0</title>
<path fill="none" stroke="grey" stroke-width="2" d="M297.69,-496.61C292.35,-485.66 286.57,-473.76 280.49,-461.27"/>
<polygon fill="grey" stroke="grey" stroke-width="2" points="283.54,-459.54 276.01,-452.08 277.24,-462.6 283.54,-459.54"/>
</g>
<!-- 5 -->
<g id="node6" class="node">
<title>5</title>
<text text-anchor="start" x="581" y="-617.6" font-family="sans" font-weight="bold" font-size="18.00">raxml_ng_tree_per_segment</text>
<text text-anchor="start" x="489.5" y="-593.8" font-family="sans" font-size="10.00"> </text>
<text text-anchor="start" x="492.5" y="-593.8" font-family="sans" font-weight="bold" font-size="14.00">↪ input</text>
<text text-anchor="start" x="547.5" y="-593.8" font-family="sans" font-size="10.00"> </text>
<text text-anchor="start" x="489.5" y="-574" font-family="monospace" font-size="10.00">data/phylogeny/aligned/H5N1_{segment}.mafft</text>
<text text-anchor="start" x="852.5" y="-553.8" font-family="sans" font-size="10.00"> </text>
<text text-anchor="start" x="855.5" y="-553.8" font-family="sans" font-weight="bold" font-size="14.00">output →</text>
<text text-anchor="start" x="919.5" y="-553.8" font-family="sans" font-size="10.00"> </text>
<text text-anchor="start" x="489.5" y="-534" font-family="monospace" font-size="10.00">results/phylogeny/raxml/{segment}/H5N1_{segment}.raxml.bestTreeCollapsed</text>
<text text-anchor="start" x="489.5" y="-516" font-family="monospace" font-size="10.00">results/phylogeny/raxml/{segment}/H5N1_{segment}.raxml.supportFBP</text>
<text text-anchor="start" x="489.5" y="-498" font-family="monospace" font-size="10.00">results/phylogeny/raxml/{segment}/H5N1_{segment}.raxml.supportTBE</text>
<polygon fill="#57d9ad" stroke="#57d9ad" points="483.5,-608 483.5,-608 929.5,-608 929.5,-608 483.5,-608"/>
<polygon fill="#57d9ad" stroke="#57d9ad" points="483.5,-568 483.5,-568 929.5,-568 929.5,-568 483.5,-568"/>
<polygon fill="none" stroke="#57d9ad" stroke-width="2" points="483,-489 483,-637 928,-637 928,-489 483,-489"/>
</g>
<!-- 5&#45;&gt;0 -->
<g id="edge2" class="edge">
<title>5&#45;&gt;0</title>
<path fill="none" stroke="grey" stroke-width="2" d="M586.21,-487.86C514.48,-443.28 421.9,-385.73 341.94,-336.04"/>
<polygon fill="grey" stroke="grey" stroke-width="2" points="343.59,-332.95 333.25,-330.64 339.9,-338.89 343.59,-332.95"/>
</g>
<!-- 6 -->
<g id="node7" class="node">
<title>6</title>
<text text-anchor="start" x="593" y="-794.6" font-family="sans" font-weight="bold" font-size="18.00">mafft_align_per_segment</text>
<text text-anchor="start" x="567.5" y="-770.8" font-family="sans" font-size="10.00"> </text>
<text text-anchor="start" x="570.5" y="-770.8" font-family="sans" font-weight="bold" font-size="14.00">↪ input</text>
<text text-anchor="start" x="625.5" y="-770.8" font-family="sans" font-size="10.00"> </text>
<text text-anchor="start" x="567.5" y="-751" font-family="monospace" font-size="10.00">data/phylogeny/by_segment/H5N1_{segment}.fasta</text>
<text text-anchor="start" x="774.5" y="-730.8" font-family="sans" font-size="10.00"> </text>
<text text-anchor="start" x="777.5" y="-730.8" font-family="sans" font-weight="bold" font-size="14.00">output →</text>
<text text-anchor="start" x="841.5" y="-730.8" font-family="sans" font-size="10.00"> </text>
<text text-anchor="start" x="567.5" y="-711" font-family="monospace" font-size="10.00">data/phylogeny/aligned/H5N1_{segment}.mafft</text>
<polygon fill="#57d974" stroke="#57d974" points="561.5,-785 561.5,-785 851.5,-785 851.5,-785 561.5,-785"/>
<polygon fill="#57d974" stroke="#57d974" points="561.5,-745 561.5,-745 851.5,-745 851.5,-745 561.5,-745"/>
<polygon fill="none" stroke="#57d974" stroke-width="2" points="561,-702 561,-814 850,-814 850,-702 561,-702"/>
</g>
<!-- 6&#45;&gt;5 -->
<g id="edge9" class="edge">
<title>6&#45;&gt;5</title>
<path fill="none" stroke="grey" stroke-width="2" d="M705.5,-700.92C705.5,-684.54 705.5,-666.27 705.5,-648.55"/>
<polygon fill="grey" stroke="grey" stroke-width="2" points="709,-648.2 705.5,-638.2 702,-648.2 709,-648.2"/>
</g>
</g>
</svg>
