<?xml version="1.0" encoding="UTF-8" standalone="no"?>
<!DOCTYPE svg PUBLIC "-//W3C//DTD SVG 1.1//EN"
 "http://www.w3.org/Graphics/SVG/1.1/DTD/svg11.dtd">
<!-- Generated by graphviz version 2.43.0 (0)
 -->
<!-- Title: snakemake_dag Pages: 1 -->
<svg width="1993pt" height="620pt"
 viewBox="0.00 0.00 1992.50 620.00" xmlns="http://www.w3.org/2000/svg" xmlns:xlink="http://www.w3.org/1999/xlink">
<g id="graph0" class="graph" transform="scale(1 1) rotate(0) translate(4 616)">
<title>snakemake_dag</title>
<polygon fill="white" stroke="transparent" points="-4,4 -4,-616 1988.5,-616 1988.5,4 -4,4"/>
<!-- 0 -->
<g id="node1" class="node">
<title>0</title>
<path fill="none" stroke="#d8ac56" stroke-width="2" d="M962.5,-468C962.5,-468 867.5,-468 867.5,-468 861.5,-468 855.5,-462 855.5,-456 855.5,-456 855.5,-444 855.5,-444 855.5,-438 861.5,-432 867.5,-432 867.5,-432 962.5,-432 962.5,-432 968.5,-432 974.5,-438 974.5,-444 974.5,-444 974.5,-456 974.5,-456 974.5,-462 968.5,-468 962.5,-468"/>
<text text-anchor="middle" x="915" y="-447.5" font-family="sans" font-size="10.00">build_h5n1_final_fasta</text>
</g>
<!-- 3 -->
<g id="node4" class="node">
<title>3</title>
<path fill="none" stroke="#56d0d8" stroke-width="2" d="M977.5,-396C977.5,-396 852.5,-396 852.5,-396 846.5,-396 840.5,-390 840.5,-384 840.5,-384 840.5,-372 840.5,-372 840.5,-366 846.5,-360 852.5,-360 852.5,-360 977.5,-360 977.5,-360 983.5,-360 989.5,-366 989.5,-372 989.5,-372 989.5,-384 989.5,-384 989.5,-390 983.5,-396 977.5,-396"/>
<text text-anchor="middle" x="915" y="-375.5" font-family="sans" font-size="10.00">split_h5n1_final_by_segment</text>
</g>
<!-- 0&#45;&gt;3 -->
<g id="edge3" class="edge">
<title>0&#45;&gt;3</title>
<path fill="none" stroke="grey" stroke-width="2" d="M915,-431.7C915,-423.98 915,-414.71 915,-406.11"/>
<polygon fill="grey" stroke="grey" stroke-width="2" points="918.5,-406.1 915,-396.1 911.5,-406.1 918.5,-406.1"/>
</g>
<!-- 1 -->
<g id="node2" class="node">
<title>1</title>
<path fill="none" stroke="#d89c56" stroke-width="2" d="M958,-540C958,-540 872,-540 872,-540 866,-540 860,-534 860,-528 860,-528 860,-516 860,-516 860,-510 866,-504 872,-504 872,-504 958,-504 958,-504 964,-504 970,-510 970,-516 970,-516 970,-528 970,-528 970,-534 964,-540 958,-540"/>
<text text-anchor="middle" x="915" y="-519.5" font-family="sans" font-size="10.00">build_h5n1_ec_fasta</text>
</g>
<!-- 1&#45;&gt;0 -->
<g id="edge1" class="edge">
<title>1&#45;&gt;0</title>
<path fill="none" stroke="grey" stroke-width="2" d="M915,-503.7C915,-495.98 915,-486.71 915,-478.11"/>
<polygon fill="grey" stroke="grey" stroke-width="2" points="918.5,-478.1 915,-468.1 911.5,-478.1 918.5,-478.1"/>
</g>
<!-- 2 -->
<g id="node3" class="node">
<title>2</title>
<path fill="none" stroke="#d87556" stroke-width="2" d="M991,-612C991,-612 839,-612 839,-612 833,-612 827,-606 827,-600 827,-600 827,-588 827,-588 827,-582 833,-576 839,-576 839,-576 991,-576 991,-576 997,-576 1003,-582 1003,-588 1003,-588 1003,-600 1003,-600 1003,-606 997,-612 991,-612"/>
<text text-anchor="middle" x="915" y="-591.5" font-family="sans" font-size="10.00">build_ecuador_intermediate_input</text>
</g>
<!-- 2&#45;&gt;1 -->
<g id="edge2" class="edge">
<title>2&#45;&gt;1</title>
<path fill="none" stroke="grey" stroke-width="2" d="M915,-575.7C915,-567.98 915,-558.71 915,-550.11"/>
<polygon fill="grey" stroke="grey" stroke-width="2" points="918.5,-550.1 915,-540.1 911.5,-550.1 918.5,-550.1"/>
</g>
<!-- 5 -->
<g id="node6" class="node">
<title>5</title>
<path fill="none" stroke="#bed856" stroke-width="2" d="M260,-252C260,-252 150,-252 150,-252 144,-252 138,-246 138,-240 138,-240 138,-228 138,-228 138,-222 144,-216 150,-216 150,-216 260,-216 260,-216 266,-216 272,-222 272,-228 272,-228 272,-240 272,-240 272,-246 266,-252 260,-252"/>
<text text-anchor="middle" x="205" y="-237" font-family="sans" font-size="10.00">mafft_align_per_segment</text>
<text text-anchor="middle" x="205" y="-226" font-family="sans" font-size="10.00">segment: NS</text>
</g>
<!-- 3&#45;&gt;5 -->
<g id="edge5" class="edge">
<title>3&#45;&gt;5</title>
<path fill="none" stroke="grey" stroke-width="2" d="M840.35,-372.17C753.47,-365.56 606.08,-351.27 482,-324 402.88,-306.61 314.19,-276.08 258.96,-255.7"/>
<polygon fill="grey" stroke="grey" stroke-width="2" points="259.98,-252.34 249.38,-252.14 257.54,-258.91 259.98,-252.34"/>
</g>
<!-- 7 -->
<g id="node8" class="node">
<title>7</title>
<path fill="none" stroke="#bed856" stroke-width="2" d="M412,-252C412,-252 302,-252 302,-252 296,-252 290,-246 290,-240 290,-240 290,-228 290,-228 290,-222 296,-216 302,-216 302,-216 412,-216 412,-216 418,-216 424,-222 424,-228 424,-228 424,-240 424,-240 424,-246 418,-252 412,-252"/>
<text text-anchor="middle" x="357" y="-237" font-family="sans" font-size="10.00">mafft_align_per_segment</text>
<text text-anchor="middle" x="357" y="-226" font-family="sans" font-size="10.00">segment: MP</text>
</g>
<!-- 3&#45;&gt;7 -->
<g id="edge7" class="edge">
<title>3&#45;&gt;7</title>
<path fill="none" stroke="grey" stroke-width="2" d="M840.28,-369.27C773.6,-361.33 673.7,-346.87 589,-324 523.09,-306.2 450.02,-276.4 403.82,-256.24"/>
<polygon fill="grey" stroke="grey" stroke-width="2" points="404.95,-252.91 394.38,-252.09 402.13,-259.32 404.95,-252.91"/>
</g>
<!-- 9 -->
<g id="node10" class="node">
<title>9</title>
<path fill="none" stroke="#bed856" stroke-width="2" d="M720,-324C720,-324 610,-324 610,-324 604,-324 598,-318 598,-312 598,-312 598,-300 598,-300 598,-294 604,-288 610,-288 610,-288 720,-288 720,-288 726,-288 732,-294 732,-300 732,-300 732,-312 732,-312 732,-318 726,-324 720,-324"/>
<text text-anchor="middle" x="665" y="-309" font-family="sans" font-size="10.00">mafft_align_per_segment</text>
<text text-anchor="middle" x="665" y="-298" font-family="sans" font-size="10.00">segment: PB2</text>
</g>
<!-- 3&#45;&gt;9 -->
<g id="edge10" class="edge">
<title>3&#45;&gt;9</title>
<path fill="none" stroke="grey" stroke-width="2" d="M854.16,-359.97C818.47,-349.97 773.21,-337.3 735.91,-326.85"/>
<polygon fill="grey" stroke="grey" stroke-width="2" points="736.68,-323.44 726.11,-324.11 734.8,-330.18 736.68,-323.44"/>
</g>
<!-- 12 -->
<g id="node13" class="node">
<title>12</title>
<path fill="none" stroke="#bed856" stroke-width="2" d="M888,-324C888,-324 778,-324 778,-324 772,-324 766,-318 766,-312 766,-312 766,-300 766,-300 766,-294 772,-288 778,-288 778,-288 888,-288 888,-288 894,-288 900,-294 900,-300 900,-300 900,-312 900,-312 900,-318 894,-324 888,-324"/>
<text text-anchor="middle" x="833" y="-309" font-family="sans" font-size="10.00">mafft_align_per_segment</text>
<text text-anchor="middle" x="833" y="-298" font-family="sans" font-size="10.00">segment: HA</text>
</g>
<!-- 3&#45;&gt;12 -->
<g id="edge14" class="edge">
<title>3&#45;&gt;12</title>
<path fill="none" stroke="grey" stroke-width="2" d="M894.73,-359.7C884.5,-350.97 871.94,-340.24 860.82,-330.75"/>
<polygon fill="grey" stroke="grey" stroke-width="2" points="862.91,-327.94 853.04,-324.1 858.37,-333.26 862.91,-327.94"/>
</g>
<!-- 15 -->
<g id="node16" class="node">
<title>15</title>
<path fill="none" stroke="#bed856" stroke-width="2" d="M1053,-324C1053,-324 943,-324 943,-324 937,-324 931,-318 931,-312 931,-312 931,-300 931,-300 931,-294 937,-288 943,-288 943,-288 1053,-288 1053,-288 1059,-288 1065,-294 1065,-300 1065,-300 1065,-312 1065,-312 1065,-318 1059,-324 1053,-324"/>
<text text-anchor="middle" x="998" y="-309" font-family="sans" font-size="10.00">mafft_align_per_segment</text>
<text text-anchor="middle" x="998" y="-298" font-family="sans" font-size="10.00">segment: PB1</text>
</g>
<!-- 3&#45;&gt;15 -->
<g id="edge32" class="edge">
<title>3&#45;&gt;15</title>
<path fill="none" stroke="grey" stroke-width="2" d="M935.52,-359.7C945.87,-350.97 958.59,-340.24 969.84,-330.75"/>
<polygon fill="grey" stroke="grey" stroke-width="2" points="972.33,-333.23 977.72,-324.1 967.82,-327.88 972.33,-333.23"/>
</g>
<!-- 16 -->
<g id="node17" class="node">
<title>16</title>
<path fill="none" stroke="#bed856" stroke-width="2" d="M1306,-324C1306,-324 1196,-324 1196,-324 1190,-324 1184,-318 1184,-312 1184,-312 1184,-300 1184,-300 1184,-294 1190,-288 1196,-288 1196,-288 1306,-288 1306,-288 1312,-288 1318,-294 1318,-300 1318,-300 1318,-312 1318,-312 1318,-318 1312,-324 1306,-324"/>
<text text-anchor="middle" x="1251" y="-309" font-family="sans" font-size="10.00">mafft_align_per_segment</text>
<text text-anchor="middle" x="1251" y="-298" font-family="sans" font-size="10.00">segment: PA</text>
</g>
<!-- 3&#45;&gt;16 -->
<g id="edge33" class="edge">
<title>3&#45;&gt;16</title>
<path fill="none" stroke="grey" stroke-width="2" d="M989.57,-361.46C1044.26,-350.07 1118.33,-334.64 1173.66,-323.11"/>
<polygon fill="grey" stroke="grey" stroke-width="2" points="1174.69,-326.47 1183.77,-321.01 1173.26,-319.62 1174.69,-326.47"/>
</g>
<!-- 17 -->
<g id="node18" class="node">
<title>17</title>
<path fill="none" stroke="#bed856" stroke-width="2" d="M1566,-324C1566,-324 1456,-324 1456,-324 1450,-324 1444,-318 1444,-312 1444,-312 1444,-300 1444,-300 1444,-294 1450,-288 1456,-288 1456,-288 1566,-288 1566,-288 1572,-288 1578,-294 1578,-300 1578,-300 1578,-312 1578,-312 1578,-318 1572,-324 1566,-324"/>
<text text-anchor="middle" x="1511" y="-309" font-family="sans" font-size="10.00">mafft_align_per_segment</text>
<text text-anchor="middle" x="1511" y="-298" font-family="sans" font-size="10.00">segment: NP</text>
</g>
<!-- 3&#45;&gt;17 -->
<g id="edge34" class="edge">
<title>3&#45;&gt;17</title>
<path fill="none" stroke="grey" stroke-width="2" d="M989.58,-368.24C1103.13,-354.9 1318.29,-329.63 1433.53,-316.1"/>
<polygon fill="grey" stroke="grey" stroke-width="2" points="1434.17,-319.55 1443.69,-314.91 1433.35,-312.6 1434.17,-319.55"/>
</g>
<!-- 18 -->
<g id="node19" class="node">
<title>18</title>
<path fill="none" stroke="#bed856" stroke-width="2" d="M1826,-324C1826,-324 1716,-324 1716,-324 1710,-324 1704,-318 1704,-312 1704,-312 1704,-300 1704,-300 1704,-294 1710,-288 1716,-288 1716,-288 1826,-288 1826,-288 1832,-288 1838,-294 1838,-300 1838,-300 1838,-312 1838,-312 1838,-318 1832,-324 1826,-324"/>
<text text-anchor="middle" x="1771" y="-309" font-family="sans" font-size="10.00">mafft_align_per_segment</text>
<text text-anchor="middle" x="1771" y="-298" font-family="sans" font-size="10.00">segment: NA</text>
</g>
<!-- 3&#45;&gt;18 -->
<g id="edge35" class="edge">
<title>3&#45;&gt;18</title>
<path fill="none" stroke="grey" stroke-width="2" d="M989.61,-371.44C1113.65,-362.13 1370.12,-342.57 1587,-324 1622.05,-321 1660.83,-317.45 1693.72,-314.37"/>
<polygon fill="grey" stroke="grey" stroke-width="2" points="1694.1,-317.85 1703.73,-313.43 1693.44,-310.88 1694.1,-317.85"/>
</g>
<!-- 4 -->
<g id="node5" class="node">
<title>4</title>
<path fill="none" stroke="#59d856" stroke-width="2" d="M172,-180C172,-180 12,-180 12,-180 6,-180 0,-174 0,-168 0,-168 0,-156 0,-156 0,-150 6,-144 12,-144 12,-144 172,-144 172,-144 178,-144 184,-150 184,-156 184,-156 184,-168 184,-168 184,-174 178,-180 172,-180"/>
<text text-anchor="middle" x="92" y="-159.5" font-family="sans" font-size="10.00">raxml_ng_tree_per_segment_simple</text>
</g>
<!-- 14 -->
<g id="node15" class="node">
<title>14</title>
<path fill="none" stroke="#d8d356" stroke-width="2" d="M1045,-108C1045,-108 861,-108 861,-108 855,-108 849,-102 849,-96 849,-96 849,-84 849,-84 849,-78 855,-72 861,-72 861,-72 1045,-72 1045,-72 1051,-72 1057,-78 1057,-84 1057,-84 1057,-96 1057,-96 1057,-102 1051,-108 1045,-108"/>
<text text-anchor="middle" x="953" y="-87.5" font-family="sans" font-size="10.00">concat_aligned_segments_with_partitions</text>
</g>
<!-- 4&#45;&gt;14 -->
<g id="edge31" class="edge">
<title>4&#45;&gt;14</title>
<path fill="none" stroke="grey" stroke-width="2" d="M184.14,-145.72C188.82,-145.1 193.46,-144.52 198,-144 424.5,-117.94 690.81,-102.86 838.9,-95.84"/>
<polygon fill="grey" stroke="grey" stroke-width="2" points="839.1,-99.34 848.92,-95.37 838.77,-92.35 839.1,-99.34"/>
</g>
<!-- 5&#45;&gt;4 -->
<g id="edge4" class="edge">
<title>5&#45;&gt;4</title>
<path fill="none" stroke="grey" stroke-width="2" d="M177.36,-215.88C162.58,-206.72 144.21,-195.34 128.3,-185.48"/>
<polygon fill="grey" stroke="grey" stroke-width="2" points="130.09,-182.48 119.75,-180.19 126.41,-188.43 130.09,-182.48"/>
</g>
<!-- 5&#45;&gt;14 -->
<g id="edge23" class="edge">
<title>5&#45;&gt;14</title>
<path fill="none" stroke="grey" stroke-width="2" d="M204.62,-215.8C205.19,-195.2 209.6,-161.31 231,-144 277.09,-106.74 647.23,-95.61 838.87,-92.34"/>
<polygon fill="grey" stroke="grey" stroke-width="2" points="839.04,-95.84 848.98,-92.17 838.93,-88.84 839.04,-95.84"/>
</g>
<!-- 6 -->
<g id="node7" class="node">
<title>6</title>
<path fill="none" stroke="#59d856" stroke-width="2" d="M412,-180C412,-180 252,-180 252,-180 246,-180 240,-174 240,-168 240,-168 240,-156 240,-156 240,-150 246,-144 252,-144 252,-144 412,-144 412,-144 418,-144 424,-150 424,-156 424,-156 424,-168 424,-168 424,-174 418,-180 412,-180"/>
<text text-anchor="middle" x="332" y="-159.5" font-family="sans" font-size="10.00">raxml_ng_tree_per_segment_simple</text>
</g>
<!-- 6&#45;&gt;14 -->
<g id="edge30" class="edge">
<title>6&#45;&gt;14</title>
<path fill="none" stroke="grey" stroke-width="2" d="M424.17,-145.9C428.84,-145.23 433.47,-144.6 438,-144 575.34,-125.93 733.97,-110.41 838.48,-100.92"/>
<polygon fill="grey" stroke="grey" stroke-width="2" points="839.09,-104.38 848.74,-99.99 838.46,-97.41 839.09,-104.38"/>
</g>
<!-- 7&#45;&gt;6 -->
<g id="edge6" class="edge">
<title>7&#45;&gt;6</title>
<path fill="none" stroke="grey" stroke-width="2" d="M350.82,-215.7C348,-207.81 344.61,-198.3 341.48,-189.55"/>
<polygon fill="grey" stroke="grey" stroke-width="2" points="344.77,-188.34 338.11,-180.1 338.18,-190.7 344.77,-188.34"/>
</g>
<!-- 7&#45;&gt;14 -->
<g id="edge22" class="edge">
<title>7&#45;&gt;14</title>
<path fill="none" stroke="grey" stroke-width="2" d="M383.73,-215.78C398.63,-205.84 417.29,-192.8 433,-180 451.04,-165.31 449.89,-153.78 471,-144 534.24,-114.69 717.35,-101.12 838.78,-95.2"/>
<polygon fill="grey" stroke="grey" stroke-width="2" points="839.05,-98.69 848.88,-94.71 838.72,-91.7 839.05,-98.69"/>
</g>
<!-- 8 -->
<g id="node9" class="node">
<title>8</title>
<path fill="none" stroke="#78d856" stroke-width="2" d="M650,-180C650,-180 492,-180 492,-180 486,-180 480,-174 480,-168 480,-168 480,-156 480,-156 480,-150 486,-144 492,-144 492,-144 650,-144 650,-144 656,-144 662,-150 662,-156 662,-156 662,-168 662,-168 662,-174 656,-180 650,-180"/>
<text text-anchor="middle" x="571" y="-159.5" font-family="sans" font-size="10.00">raxml_ng_tree_per_segment_codon</text>
</g>
<!-- 8&#45;&gt;14 -->
<g id="edge24" class="edge">
<title>8&#45;&gt;14</title>
<path fill="none" stroke="grey" stroke-width="2" d="M662.01,-144.32C718.55,-133.96 791.36,-120.62 850,-109.87"/>
<polygon fill="grey" stroke="grey" stroke-width="2" points="850.82,-113.28 860.03,-108.04 849.56,-106.4 850.82,-113.28"/>
</g>
<!-- 9&#45;&gt;8 -->
<g id="edge8" class="edge">
<title>9&#45;&gt;8</title>
<path fill="none" stroke="grey" stroke-width="2" d="M597.82,-295.54C547.84,-286.97 485.69,-272.52 470,-252 460.28,-239.29 461.72,-229.69 470,-216 478.11,-202.59 490.86,-192.4 504.61,-184.73"/>
<polygon fill="grey" stroke="grey" stroke-width="2" points="506.45,-187.72 513.75,-180.04 503.25,-181.49 506.45,-187.72"/>
</g>
<!-- 10 -->
<g id="node11" class="node">
<title>10</title>
<path fill="none" stroke="#d8bc56" stroke-width="2" d="M634.5,-252C634.5,-252 491.5,-252 491.5,-252 485.5,-252 479.5,-246 479.5,-240 479.5,-240 479.5,-228 479.5,-228 479.5,-222 485.5,-216 491.5,-216 491.5,-216 634.5,-216 634.5,-216 640.5,-216 646.5,-222 646.5,-228 646.5,-228 646.5,-240 646.5,-240 646.5,-246 640.5,-252 634.5,-252"/>
<text text-anchor="middle" x="563" y="-231.5" font-family="sans" font-size="10.00">build_segment_codon_partitions</text>
</g>
<!-- 9&#45;&gt;10 -->
<g id="edge11" class="edge">
<title>9&#45;&gt;10</title>
<path fill="none" stroke="grey" stroke-width="2" d="M640.05,-287.88C626.96,-278.89 610.74,-267.76 596.56,-258.03"/>
<polygon fill="grey" stroke="grey" stroke-width="2" points="598.27,-254.96 588.05,-252.19 594.31,-260.73 598.27,-254.96"/>
</g>
<!-- 9&#45;&gt;14 -->
<g id="edge16" class="edge">
<title>9&#45;&gt;14</title>
<path fill="none" stroke="grey" stroke-width="2" d="M665.04,-287.76C666.09,-254.72 673.35,-182.37 715,-144 733.72,-126.76 787.37,-114.02 839,-105.36"/>
<polygon fill="grey" stroke="grey" stroke-width="2" points="839.64,-108.8 848.94,-103.73 838.51,-101.89 839.64,-108.8"/>
</g>
<!-- 10&#45;&gt;8 -->
<g id="edge9" class="edge">
<title>10&#45;&gt;8</title>
<path fill="none" stroke="grey" stroke-width="2" d="M564.98,-215.7C565.86,-207.98 566.92,-198.71 567.9,-190.11"/>
<polygon fill="grey" stroke="grey" stroke-width="2" points="571.39,-190.44 569.05,-180.1 564.43,-189.64 571.39,-190.44"/>
</g>
<!-- 11 -->
<g id="node12" class="node">
<title>11</title>
<path fill="none" stroke="#78d856" stroke-width="2" d="M894,-180C894,-180 736,-180 736,-180 730,-180 724,-174 724,-168 724,-168 724,-156 724,-156 724,-150 730,-144 736,-144 736,-144 894,-144 894,-144 900,-144 906,-150 906,-156 906,-156 906,-168 906,-168 906,-174 900,-180 894,-180"/>
<text text-anchor="middle" x="815" y="-159.5" font-family="sans" font-size="10.00">raxml_ng_tree_per_segment_codon</text>
</g>
<!-- 11&#45;&gt;14 -->
<g id="edge27" class="edge">
<title>11&#45;&gt;14</title>
<path fill="none" stroke="grey" stroke-width="2" d="M848.76,-143.88C867.22,-134.51 890.28,-122.81 910.02,-112.8"/>
<polygon fill="grey" stroke="grey" stroke-width="2" points="911.78,-115.83 919.11,-108.19 908.61,-109.59 911.78,-115.83"/>
</g>
<!-- 12&#45;&gt;11 -->
<g id="edge12" class="edge">
<title>12&#45;&gt;11</title>
<path fill="none" stroke="grey" stroke-width="2" d="M774.1,-287.96C756.88,-279.93 740,-268.4 730,-252 721.67,-238.34 722.24,-229.99 730,-216 737.13,-203.15 748.81,-193.01 761.27,-185.19"/>
<polygon fill="grey" stroke="grey" stroke-width="2" points="763.08,-188.19 769.97,-180.14 759.56,-182.13 763.08,-188.19"/>
</g>
<!-- 13 -->
<g id="node14" class="node">
<title>13</title>
<path fill="none" stroke="#d8bc56" stroke-width="2" d="M894.5,-252C894.5,-252 751.5,-252 751.5,-252 745.5,-252 739.5,-246 739.5,-240 739.5,-240 739.5,-228 739.5,-228 739.5,-222 745.5,-216 751.5,-216 751.5,-216 894.5,-216 894.5,-216 900.5,-216 906.5,-222 906.5,-228 906.5,-228 906.5,-240 906.5,-240 906.5,-246 900.5,-252 894.5,-252"/>
<text text-anchor="middle" x="823" y="-231.5" font-family="sans" font-size="10.00">build_segment_codon_partitions</text>
</g>
<!-- 12&#45;&gt;13 -->
<g id="edge15" class="edge">
<title>12&#45;&gt;13</title>
<path fill="none" stroke="grey" stroke-width="2" d="M830.53,-287.7C829.43,-279.98 828.1,-270.71 826.87,-262.11"/>
<polygon fill="grey" stroke="grey" stroke-width="2" points="830.32,-261.51 825.44,-252.1 823.39,-262.5 830.32,-261.51"/>
</g>
<!-- 12&#45;&gt;14 -->
<g id="edge19" class="edge">
<title>12&#45;&gt;14</title>
<path fill="none" stroke="grey" stroke-width="2" d="M872.1,-287.81C887.6,-279.16 904.25,-267.24 915,-252 943.53,-211.55 950.87,-152.6 952.62,-118.38"/>
<polygon fill="grey" stroke="grey" stroke-width="2" points="956.12,-118.33 953.01,-108.2 949.13,-118.06 956.12,-118.33"/>
</g>
<!-- 13&#45;&gt;11 -->
<g id="edge13" class="edge">
<title>13&#45;&gt;11</title>
<path fill="none" stroke="grey" stroke-width="2" d="M821.02,-215.7C820.14,-207.98 819.08,-198.71 818.1,-190.11"/>
<polygon fill="grey" stroke="grey" stroke-width="2" points="821.57,-189.64 816.95,-180.1 814.61,-190.44 821.57,-189.64"/>
</g>
<!-- 27 -->
<g id="node28" class="node">
<title>27</title>
<path fill="none" stroke="#afd856" stroke-width="2" d="M1009,-36C1009,-36 897,-36 897,-36 891,-36 885,-30 885,-24 885,-24 885,-12 885,-12 885,-6 891,0 897,0 897,0 1009,0 1009,0 1015,0 1021,-6 1021,-12 1021,-12 1021,-24 1021,-24 1021,-30 1015,-36 1009,-36"/>
<text text-anchor="middle" x="953" y="-15.5" font-family="sans" font-size="10.00">raxml_ng_tree_full_concat</text>
</g>
<!-- 14&#45;&gt;27 -->
<g id="edge48" class="edge">
<title>14&#45;&gt;27</title>
<path fill="none" stroke="grey" stroke-width="2" d="M953,-71.7C953,-63.98 953,-54.71 953,-46.11"/>
<polygon fill="grey" stroke="grey" stroke-width="2" points="956.5,-46.1 953,-36.1 949.5,-46.1 956.5,-46.1"/>
</g>
<!-- 15&#45;&gt;14 -->
<g id="edge17" class="edge">
<title>15&#45;&gt;14</title>
<path fill="none" stroke="grey" stroke-width="2" d="M994.39,-287.85C986.59,-250.75 968.1,-162.81 958.7,-118.1"/>
<polygon fill="grey" stroke="grey" stroke-width="2" points="962.11,-117.3 956.62,-108.23 955.26,-118.74 962.11,-117.3"/>
</g>
<!-- 19 -->
<g id="node20" class="node">
<title>19</title>
<path fill="none" stroke="#78d856" stroke-width="2" d="M1170,-180C1170,-180 1012,-180 1012,-180 1006,-180 1000,-174 1000,-168 1000,-168 1000,-156 1000,-156 1000,-150 1006,-144 1012,-144 1012,-144 1170,-144 1170,-144 1176,-144 1182,-150 1182,-156 1182,-156 1182,-168 1182,-168 1182,-174 1176,-180 1170,-180"/>
<text text-anchor="middle" x="1091" y="-159.5" font-family="sans" font-size="10.00">raxml_ng_tree_per_segment_codon</text>
</g>
<!-- 15&#45;&gt;19 -->
<g id="edge36" class="edge">
<title>15&#45;&gt;19</title>
<path fill="none" stroke="grey" stroke-width="2" d="M1001.19,-287.71C1005.3,-268.82 1013.77,-238.29 1029,-216 1036.56,-204.93 1047.01,-194.8 1057.18,-186.42"/>
<polygon fill="grey" stroke="grey" stroke-width="2" points="1059.52,-189.04 1065.21,-180.1 1055.19,-183.54 1059.52,-189.04"/>
</g>
<!-- 20 -->
<g id="node21" class="node">
<title>20</title>
<path fill="none" stroke="#d8bc56" stroke-width="2" d="M1192.5,-252C1192.5,-252 1049.5,-252 1049.5,-252 1043.5,-252 1037.5,-246 1037.5,-240 1037.5,-240 1037.5,-228 1037.5,-228 1037.5,-222 1043.5,-216 1049.5,-216 1049.5,-216 1192.5,-216 1192.5,-216 1198.5,-216 1204.5,-222 1204.5,-228 1204.5,-228 1204.5,-240 1204.5,-240 1204.5,-246 1198.5,-252 1192.5,-252"/>
<text text-anchor="middle" x="1121" y="-231.5" font-family="sans" font-size="10.00">build_segment_codon_partitions</text>
</g>
<!-- 15&#45;&gt;20 -->
<g id="edge38" class="edge">
<title>15&#45;&gt;20</title>
<path fill="none" stroke="grey" stroke-width="2" d="M1028.09,-287.88C1044.32,-278.64 1064.54,-267.13 1081.97,-257.21"/>
<polygon fill="grey" stroke="grey" stroke-width="2" points="1083.84,-260.18 1090.8,-252.19 1080.37,-254.09 1083.84,-260.18"/>
</g>
<!-- 16&#45;&gt;14 -->
<g id="edge18" class="edge">
<title>16&#45;&gt;14</title>
<path fill="none" stroke="grey" stroke-width="2" d="M1249.83,-287.93C1246.59,-254.87 1234.64,-182.01 1191,-144 1171.88,-127.35 1118.55,-114.68 1067.21,-105.9"/>
<polygon fill="grey" stroke="grey" stroke-width="2" points="1067.76,-102.45 1057.32,-104.26 1066.61,-109.35 1067.76,-102.45"/>
</g>
<!-- 21 -->
<g id="node22" class="node">
<title>21</title>
<path fill="none" stroke="#78d856" stroke-width="2" d="M1430,-180C1430,-180 1272,-180 1272,-180 1266,-180 1260,-174 1260,-168 1260,-168 1260,-156 1260,-156 1260,-150 1266,-144 1272,-144 1272,-144 1430,-144 1430,-144 1436,-144 1442,-150 1442,-156 1442,-156 1442,-168 1442,-168 1442,-174 1436,-180 1430,-180"/>
<text text-anchor="middle" x="1351" y="-159.5" font-family="sans" font-size="10.00">raxml_ng_tree_per_segment_codon</text>
</g>
<!-- 16&#45;&gt;21 -->
<g id="edge39" class="edge">
<title>16&#45;&gt;21</title>
<path fill="none" stroke="grey" stroke-width="2" d="M1255.77,-287.73C1261.55,-268.86 1272.59,-238.34 1289,-216 1297,-205.1 1307.66,-194.96 1317.88,-186.53"/>
<polygon fill="grey" stroke="grey" stroke-width="2" points="1320.26,-189.11 1325.92,-180.15 1315.91,-183.62 1320.26,-189.11"/>
</g>
<!-- 22 -->
<g id="node23" class="node">
<title>22</title>
<path fill="none" stroke="#d8bc56" stroke-width="2" d="M1452.5,-252C1452.5,-252 1309.5,-252 1309.5,-252 1303.5,-252 1297.5,-246 1297.5,-240 1297.5,-240 1297.5,-228 1297.5,-228 1297.5,-222 1303.5,-216 1309.5,-216 1309.5,-216 1452.5,-216 1452.5,-216 1458.5,-216 1464.5,-222 1464.5,-228 1464.5,-228 1464.5,-240 1464.5,-240 1464.5,-246 1458.5,-252 1452.5,-252"/>
<text text-anchor="middle" x="1381" y="-231.5" font-family="sans" font-size="10.00">build_segment_codon_partitions</text>
</g>
<!-- 16&#45;&gt;22 -->
<g id="edge41" class="edge">
<title>16&#45;&gt;22</title>
<path fill="none" stroke="grey" stroke-width="2" d="M1282.8,-287.88C1300.11,-278.55 1321.72,-266.92 1340.26,-256.94"/>
<polygon fill="grey" stroke="grey" stroke-width="2" points="1341.93,-260.01 1349.08,-252.19 1338.61,-253.85 1341.93,-260.01"/>
</g>
<!-- 17&#45;&gt;14 -->
<g id="edge20" class="edge">
<title>17&#45;&gt;14</title>
<path fill="none" stroke="grey" stroke-width="2" d="M1510.21,-287.75C1507.66,-254.03 1496.83,-179.57 1451,-144 1421.33,-120.97 1204.81,-104.88 1067.21,-96.86"/>
<polygon fill="grey" stroke="grey" stroke-width="2" points="1067.22,-93.35 1057.03,-96.27 1066.81,-100.34 1067.22,-93.35"/>
</g>
<!-- 23 -->
<g id="node24" class="node">
<title>23</title>
<path fill="none" stroke="#78d856" stroke-width="2" d="M1690,-180C1690,-180 1532,-180 1532,-180 1526,-180 1520,-174 1520,-168 1520,-168 1520,-156 1520,-156 1520,-150 1526,-144 1532,-144 1532,-144 1690,-144 1690,-144 1696,-144 1702,-150 1702,-156 1702,-156 1702,-168 1702,-168 1702,-174 1696,-180 1690,-180"/>
<text text-anchor="middle" x="1611" y="-159.5" font-family="sans" font-size="10.00">raxml_ng_tree_per_segment_codon</text>
</g>
<!-- 17&#45;&gt;23 -->
<g id="edge42" class="edge">
<title>17&#45;&gt;23</title>
<path fill="none" stroke="grey" stroke-width="2" d="M1515.77,-287.73C1521.55,-268.86 1532.59,-238.34 1549,-216 1557,-205.1 1567.66,-194.96 1577.88,-186.53"/>
<polygon fill="grey" stroke="grey" stroke-width="2" points="1580.26,-189.11 1585.92,-180.15 1575.91,-183.62 1580.26,-189.11"/>
</g>
<!-- 24 -->
<g id="node25" class="node">
<title>24</title>
<path fill="none" stroke="#d8bc56" stroke-width="2" d="M1712.5,-252C1712.5,-252 1569.5,-252 1569.5,-252 1563.5,-252 1557.5,-246 1557.5,-240 1557.5,-240 1557.5,-228 1557.5,-228 1557.5,-222 1563.5,-216 1569.5,-216 1569.5,-216 1712.5,-216 1712.5,-216 1718.5,-216 1724.5,-222 1724.5,-228 1724.5,-228 1724.5,-240 1724.5,-240 1724.5,-246 1718.5,-252 1712.5,-252"/>
<text text-anchor="middle" x="1641" y="-231.5" font-family="sans" font-size="10.00">build_segment_codon_partitions</text>
</g>
<!-- 17&#45;&gt;24 -->
<g id="edge44" class="edge">
<title>17&#45;&gt;24</title>
<path fill="none" stroke="grey" stroke-width="2" d="M1542.8,-287.88C1560.11,-278.55 1581.72,-266.92 1600.26,-256.94"/>
<polygon fill="grey" stroke="grey" stroke-width="2" points="1601.93,-260.01 1609.08,-252.19 1598.61,-253.85 1601.93,-260.01"/>
</g>
<!-- 18&#45;&gt;14 -->
<g id="edge21" class="edge">
<title>18&#45;&gt;14</title>
<path fill="none" stroke="grey" stroke-width="2" d="M1770.34,-287.86C1768.02,-254.01 1757.59,-178.83 1711,-144 1660.76,-106.44 1266.78,-95.44 1067.55,-92.26"/>
<polygon fill="grey" stroke="grey" stroke-width="2" points="1067.39,-88.76 1057.34,-92.1 1067.29,-95.76 1067.39,-88.76"/>
</g>
<!-- 25 -->
<g id="node26" class="node">
<title>25</title>
<path fill="none" stroke="#78d856" stroke-width="2" d="M1950,-180C1950,-180 1792,-180 1792,-180 1786,-180 1780,-174 1780,-168 1780,-168 1780,-156 1780,-156 1780,-150 1786,-144 1792,-144 1792,-144 1950,-144 1950,-144 1956,-144 1962,-150 1962,-156 1962,-156 1962,-168 1962,-168 1962,-174 1956,-180 1950,-180"/>
<text text-anchor="middle" x="1871" y="-159.5" font-family="sans" font-size="10.00">raxml_ng_tree_per_segment_codon</text>
</g>
<!-- 18&#45;&gt;25 -->
<g id="edge45" class="edge">
<title>18&#45;&gt;25</title>
<path fill="none" stroke="grey" stroke-width="2" d="M1775.77,-287.73C1781.55,-268.86 1792.59,-238.34 1809,-216 1817,-205.1 1827.66,-194.96 1837.88,-186.53"/>
<polygon fill="grey" stroke="grey" stroke-width="2" points="1840.26,-189.11 1845.92,-180.15 1835.91,-183.62 1840.26,-189.11"/>
</g>
<!-- 26 -->
<g id="node27" class="node">
<title>26</title>
<path fill="none" stroke="#d8bc56" stroke-width="2" d="M1972.5,-252C1972.5,-252 1829.5,-252 1829.5,-252 1823.5,-252 1817.5,-246 1817.5,-240 1817.5,-240 1817.5,-228 1817.5,-228 1817.5,-222 1823.5,-216 1829.5,-216 1829.5,-216 1972.5,-216 1972.5,-216 1978.5,-216 1984.5,-222 1984.5,-228 1984.5,-228 1984.5,-240 1984.5,-240 1984.5,-246 1978.5,-252 1972.5,-252"/>
<text text-anchor="middle" x="1901" y="-231.5" font-family="sans" font-size="10.00">build_segment_codon_partitions</text>
</g>
<!-- 18&#45;&gt;26 -->
<g id="edge47" class="edge">
<title>18&#45;&gt;26</title>
<path fill="none" stroke="grey" stroke-width="2" d="M1802.8,-287.88C1820.11,-278.55 1841.72,-266.92 1860.26,-256.94"/>
<polygon fill="grey" stroke="grey" stroke-width="2" points="1861.93,-260.01 1869.08,-252.19 1858.61,-253.85 1861.93,-260.01"/>
</g>
<!-- 19&#45;&gt;14 -->
<g id="edge25" class="edge">
<title>19&#45;&gt;14</title>
<path fill="none" stroke="grey" stroke-width="2" d="M1057.24,-143.88C1038.78,-134.51 1015.72,-122.81 995.98,-112.8"/>
<polygon fill="grey" stroke="grey" stroke-width="2" points="997.39,-109.59 986.89,-108.19 994.22,-115.83 997.39,-109.59"/>
</g>
<!-- 20&#45;&gt;19 -->
<g id="edge37" class="edge">
<title>20&#45;&gt;19</title>
<path fill="none" stroke="grey" stroke-width="2" d="M1113.58,-215.7C1110.21,-207.81 1106.13,-198.3 1102.38,-189.55"/>
<polygon fill="grey" stroke="grey" stroke-width="2" points="1105.49,-187.92 1098.33,-180.1 1099.05,-190.67 1105.49,-187.92"/>
</g>
<!-- 21&#45;&gt;14 -->
<g id="edge26" class="edge">
<title>21&#45;&gt;14</title>
<path fill="none" stroke="grey" stroke-width="2" d="M1259.69,-144.94C1200.11,-134.46 1122.1,-120.74 1059.67,-109.76"/>
<polygon fill="grey" stroke="grey" stroke-width="2" points="1060.24,-106.31 1049.79,-108.02 1059.03,-113.2 1060.24,-106.31"/>
</g>
<!-- 22&#45;&gt;21 -->
<g id="edge40" class="edge">
<title>22&#45;&gt;21</title>
<path fill="none" stroke="grey" stroke-width="2" d="M1373.58,-215.7C1370.21,-207.81 1366.13,-198.3 1362.38,-189.55"/>
<polygon fill="grey" stroke="grey" stroke-width="2" points="1365.49,-187.92 1358.33,-180.1 1359.05,-190.67 1365.49,-187.92"/>
</g>
<!-- 23&#45;&gt;14 -->
<g id="edge28" class="edge">
<title>23&#45;&gt;14</title>
<path fill="none" stroke="grey" stroke-width="2" d="M1519.99,-145.89C1515.26,-145.23 1510.58,-144.59 1506,-144 1354.8,-124.54 1179.49,-108.9 1067.49,-99.79"/>
<polygon fill="grey" stroke="grey" stroke-width="2" points="1067.44,-96.27 1057.19,-98.95 1066.87,-103.25 1067.44,-96.27"/>
</g>
<!-- 24&#45;&gt;23 -->
<g id="edge43" class="edge">
<title>24&#45;&gt;23</title>
<path fill="none" stroke="grey" stroke-width="2" d="M1633.58,-215.7C1630.21,-207.81 1626.13,-198.3 1622.38,-189.55"/>
<polygon fill="grey" stroke="grey" stroke-width="2" points="1625.49,-187.92 1618.33,-180.1 1619.05,-190.67 1625.49,-187.92"/>
</g>
<!-- 25&#45;&gt;14 -->
<g id="edge29" class="edge">
<title>25&#45;&gt;14</title>
<path fill="none" stroke="grey" stroke-width="2" d="M1779.73,-145.69C1775.09,-145.08 1770.5,-144.51 1766,-144 1517.76,-115.88 1225.07,-101.33 1067.42,-95.02"/>
<polygon fill="grey" stroke="grey" stroke-width="2" points="1067.37,-91.51 1057.24,-94.61 1067.09,-98.51 1067.37,-91.51"/>
</g>
<!-- 26&#45;&gt;25 -->
<g id="edge46" class="edge">
<title>26&#45;&gt;25</title>
<path fill="none" stroke="grey" stroke-width="2" d="M1893.58,-215.7C1890.21,-207.81 1886.13,-198.3 1882.38,-189.55"/>
<polygon fill="grey" stroke="grey" stroke-width="2" points="1885.49,-187.92 1878.33,-180.1 1879.05,-190.67 1885.49,-187.92"/>
</g>
</g>
</svg>
