<?xml version="1.0" encoding="UTF-8" standalone="no"?>
<!DOCTYPE svg PUBLIC "-//W3C//DTD SVG 1.1//EN"
 "http://www.w3.org/Graphics/SVG/1.1/DTD/svg11.dtd">
<!-- Generated by graphviz version 2.43.0 (0)
 -->
<!-- Title: snakemake_dag Pages: 1 -->
<svg width="571pt" height="1484pt"
 viewBox="0.00 0.00 570.53 1484.00" xmlns="http://www.w3.org/2000/svg" xmlns:xlink="http://www.w3.org/1999/xlink">
<g id="graph0" class="graph" transform="scale(1 1) rotate(0) translate(4 1480)">
<title>snakemake_dag</title>
<polygon fill="white" stroke="transparent" points="-4,4 -4,-1480 566.53,-1480 566.53,4 -4,4"/>
<!-- 1 -->
<g id="node1" class="node">
<title>1</title>
<path fill="none" stroke="#5682d8" stroke-width="2" d="M283.03,-36C283.03,-36 188.03,-36 188.03,-36 182.03,-36 176.03,-30 176.03,-24 176.03,-24 176.03,-12 176.03,-12 176.03,-6 182.03,0 188.03,0 188.03,0 283.03,0 283.03,0 289.03,0 295.03,-6 295.03,-12 295.03,-12 295.03,-24 295.03,-24 295.03,-30 289.03,-36 283.03,-36"/>
<text text-anchor="middle" x="235.53" y="-15.5" font-family="sans" font-size="10.00">summarize_beast_run</text>
</g>
<!-- 2 -->
<g id="node2" class="node">
<title>2</title>
<path fill="none" stroke="#56d0d8" stroke-width="2" d="M277.03,-108C277.03,-108 194.03,-108 194.03,-108 188.03,-108 182.03,-102 182.03,-96 182.03,-96 182.03,-84 182.03,-84 182.03,-78 188.03,-72 194.03,-72 194.03,-72 277.03,-72 277.03,-72 283.03,-72 289.03,-78 289.03,-84 289.03,-84 289.03,-96 289.03,-96 289.03,-102 283.03,-108 277.03,-108"/>
<text text-anchor="middle" x="235.53" y="-87.5" font-family="sans" font-size="10.00">run_beast_replicate</text>
</g>
<!-- 2&#45;&gt;1 -->
<g id="edge1" class="edge">
<title>2&#45;&gt;1</title>
<path fill="none" stroke="grey" stroke-width="2" d="M235.53,-71.7C235.53,-63.98 235.53,-54.71 235.53,-46.11"/>
<polygon fill="grey" stroke="grey" stroke-width="2" points="239.03,-46.1 235.53,-36.1 232.03,-46.1 239.03,-46.1"/>
</g>
<!-- 2&#45;&gt;2 -->
<g id="edge2" class="edge">
<title>2&#45;&gt;2</title>
<path fill="none" stroke="grey" stroke-width="2" d="M289.17,-102.9C299.61,-101.4 307.03,-97.1 307.03,-90 307.03,-85.45 303.99,-82.05 299.05,-79.8"/>
<polygon fill="grey" stroke="grey" stroke-width="2" points="299.74,-76.36 289.17,-77.1 297.89,-83.11 299.74,-76.36"/>
</g>
<!-- 3 -->
<g id="node3" class="node">
<title>3</title>
<path fill="none" stroke="#56d882" stroke-width="2" d="M286.03,-252C286.03,-252 185.03,-252 185.03,-252 179.03,-252 173.03,-246 173.03,-240 173.03,-240 173.03,-228 173.03,-228 173.03,-222 179.03,-216 185.03,-216 185.03,-216 286.03,-216 286.03,-216 292.03,-216 298.03,-222 298.03,-228 298.03,-228 298.03,-240 298.03,-240 298.03,-246 292.03,-252 286.03,-252"/>
<text text-anchor="middle" x="235.53" y="-231.5" font-family="sans" font-size="10.00">prepare_beast_run_xml</text>
</g>
<!-- 3&#45;&gt;2 -->
<g id="edge3" class="edge">
<title>3&#45;&gt;2</title>
<path fill="none" stroke="grey" stroke-width="2" d="M226.82,-215.83C222.16,-205.69 216.91,-192.44 214.53,-180 211.53,-164.28 211.53,-159.72 214.53,-144 216.24,-135.06 219.43,-125.7 222.82,-117.37"/>
<polygon fill="grey" stroke="grey" stroke-width="2" points="226.05,-118.73 226.82,-108.17 219.63,-115.95 226.05,-118.73"/>
</g>
<!-- 22 -->
<g id="node22" class="node">
<title>22</title>
<path fill="none" stroke="#5663d8" stroke-width="2" d="M315.53,-180C315.53,-180 235.53,-180 235.53,-180 229.53,-180 223.53,-174 223.53,-168 223.53,-168 223.53,-156 223.53,-156 223.53,-150 229.53,-144 235.53,-144 235.53,-144 315.53,-144 315.53,-144 321.53,-144 327.53,-150 327.53,-156 327.53,-156 327.53,-168 327.53,-168 327.53,-174 321.53,-180 315.53,-180"/>
<text text-anchor="middle" x="275.53" y="-159.5" font-family="sans" font-size="10.00">validate_beast_xml</text>
</g>
<!-- 3&#45;&gt;22 -->
<g id="edge37" class="edge">
<title>3&#45;&gt;22</title>
<path fill="none" stroke="grey" stroke-width="2" d="M245.42,-215.7C250.02,-207.64 255.59,-197.89 260.69,-188.98"/>
<polygon fill="grey" stroke="grey" stroke-width="2" points="263.84,-190.52 265.76,-180.1 257.76,-187.05 263.84,-190.52"/>
</g>
<!-- 4 -->
<g id="node4" class="node">
<title>4</title>
<path fill="none" stroke="#8fd856" stroke-width="2" d="M371.03,-396C371.03,-396 224.03,-396 224.03,-396 218.03,-396 212.03,-390 212.03,-384 212.03,-384 212.03,-372 212.03,-372 212.03,-366 218.03,-360 224.03,-360 224.03,-360 371.03,-360 371.03,-360 377.03,-360 383.03,-366 383.03,-372 383.03,-372 383.03,-384 383.03,-384 383.03,-390 377.03,-396 371.03,-396"/>
<text text-anchor="middle" x="297.53" y="-375.5" font-family="sans" font-size="10.00">filter_beast_panel_by_rtt_outliers</text>
</g>
<!-- 4&#45;&gt;3 -->
<g id="edge5" class="edge">
<title>4&#45;&gt;3</title>
<path fill="none" stroke="grey" stroke-width="2" d="M295.98,-359.86C293.79,-341.37 288.73,-311.44 277.53,-288 272.83,-278.15 266,-268.46 259.21,-260.12"/>
<polygon fill="grey" stroke="grey" stroke-width="2" points="261.67,-257.6 252.51,-252.26 256.34,-262.14 261.67,-257.6"/>
</g>
<!-- 21 -->
<g id="node21" class="node">
<title>21</title>
<path fill="none" stroke="#56d88a" stroke-width="2" d="M257.03,-324C257.03,-324 92.03,-324 92.03,-324 86.03,-324 80.03,-318 80.03,-312 80.03,-312 80.03,-300 80.03,-300 80.03,-294 86.03,-288 92.03,-288 92.03,-288 257.03,-288 257.03,-288 263.03,-288 269.03,-294 269.03,-300 269.03,-300 269.03,-312 269.03,-312 269.03,-318 263.03,-324 257.03,-324"/>
<text text-anchor="middle" x="174.53" y="-303.5" font-family="sans" font-size="10.00">publish_final_panel_concat_alignment</text>
</g>
<!-- 4&#45;&gt;21 -->
<g id="edge36" class="edge">
<title>4&#45;&gt;21</title>
<path fill="none" stroke="grey" stroke-width="2" d="M267.44,-359.88C251.21,-350.64 230.99,-339.13 213.56,-329.21"/>
<polygon fill="grey" stroke="grey" stroke-width="2" points="215.16,-326.09 204.74,-324.19 211.7,-332.18 215.16,-326.09"/>
</g>
<!-- 5 -->
<g id="node5" class="node">
<title>5</title>
<path fill="none" stroke="#97d856" stroke-width="2" d="M410.53,-684C410.53,-684 304.53,-684 304.53,-684 298.53,-684 292.53,-678 292.53,-672 292.53,-672 292.53,-660 292.53,-660 292.53,-654 298.53,-648 304.53,-648 304.53,-648 410.53,-648 410.53,-648 416.53,-648 422.53,-654 422.53,-660 422.53,-660 422.53,-672 422.53,-672 422.53,-678 416.53,-684 410.53,-684"/>
<text text-anchor="middle" x="357.53" y="-663.5" font-family="sans" font-size="10.00">filter_beast_panel_by_qc</text>
</g>
<!-- 5&#45;&gt;4 -->
<g id="edge9" class="edge">
<title>5&#45;&gt;4</title>
<path fill="none" stroke="grey" stroke-width="2" d="M359.3,-647.81C361.87,-618.06 365.16,-555.26 353.53,-504 345.36,-467.97 326.48,-429.63 312.9,-405.05"/>
<polygon fill="grey" stroke="grey" stroke-width="2" points="315.77,-403.02 307.81,-396.03 309.68,-406.46 315.77,-403.02"/>
</g>
<!-- 19 -->
<g id="node19" class="node">
<title>19</title>
<path fill="none" stroke="#56a9d8" stroke-width="2" d="M331.53,-612C331.53,-612 75.53,-612 75.53,-612 69.53,-612 63.53,-606 63.53,-600 63.53,-600 63.53,-588 63.53,-588 63.53,-582 69.53,-576 75.53,-576 75.53,-576 331.53,-576 331.53,-576 337.53,-576 343.53,-582 343.53,-588 343.53,-588 343.53,-600 343.53,-600 343.53,-606 337.53,-612 331.53,-612"/>
<text text-anchor="middle" x="203.53" y="-591.5" font-family="sans" font-size="10.00">subset_filtered_panel_concat_alignment_and_prune_tree</text>
</g>
<!-- 5&#45;&gt;19 -->
<g id="edge33" class="edge">
<title>5&#45;&gt;19</title>
<path fill="none" stroke="grey" stroke-width="2" d="M319.86,-647.88C298.9,-638.35 272.63,-626.41 250.36,-616.28"/>
<polygon fill="grey" stroke="grey" stroke-width="2" points="251.64,-613.02 241.08,-612.07 248.74,-619.39 251.64,-613.02"/>
</g>
<!-- 6 -->
<g id="node6" class="node">
<title>6</title>
<path fill="none" stroke="#d88d56" stroke-width="2" d="M383.53,-828C383.53,-828 303.53,-828 303.53,-828 297.53,-828 291.53,-822 291.53,-816 291.53,-816 291.53,-804 291.53,-804 291.53,-798 297.53,-792 303.53,-792 303.53,-792 383.53,-792 383.53,-792 389.53,-792 395.53,-798 395.53,-804 395.53,-804 395.53,-816 395.53,-816 395.53,-822 389.53,-828 383.53,-828"/>
<text text-anchor="middle" x="343.53" y="-807.5" font-family="sans" font-size="10.00">build_beast_panels</text>
</g>
<!-- 6&#45;&gt;5 -->
<g id="edge10" class="edge">
<title>6&#45;&gt;5</title>
<path fill="none" stroke="grey" stroke-width="2" d="M345.22,-791.87C347.61,-767.67 351.99,-723.21 354.83,-694.39"/>
<polygon fill="grey" stroke="grey" stroke-width="2" points="358.34,-694.48 355.84,-684.19 351.37,-693.8 358.34,-694.48"/>
</g>
<!-- 17 -->
<g id="node17" class="node">
<title>17</title>
<path fill="none" stroke="#61d856" stroke-width="2" d="M529.53,-756C529.53,-756 383.53,-756 383.53,-756 377.53,-756 371.53,-750 371.53,-744 371.53,-744 371.53,-732 371.53,-732 371.53,-726 377.53,-720 383.53,-720 383.53,-720 529.53,-720 529.53,-720 535.53,-720 541.53,-726 541.53,-732 541.53,-732 541.53,-744 541.53,-744 541.53,-750 535.53,-756 529.53,-756"/>
<text text-anchor="middle" x="456.53" y="-735.5" font-family="sans" font-size="10.00">observe_beast_subset_source_qc</text>
</g>
<!-- 6&#45;&gt;17 -->
<g id="edge27" class="edge">
<title>6&#45;&gt;17</title>
<path fill="none" stroke="grey" stroke-width="2" d="M371.18,-791.88C385.95,-782.72 404.33,-771.34 420.24,-761.48"/>
<polygon fill="grey" stroke="grey" stroke-width="2" points="422.13,-764.43 428.78,-756.19 418.44,-758.48 422.13,-764.43"/>
</g>
<!-- 7 -->
<g id="node7" class="node">
<title>7</title>
<path fill="none" stroke="#56d89a" stroke-width="2" d="M336.53,-900C336.53,-900 224.53,-900 224.53,-900 218.53,-900 212.53,-894 212.53,-888 212.53,-888 212.53,-876 212.53,-876 212.53,-870 218.53,-864 224.53,-864 224.53,-864 336.53,-864 336.53,-864 342.53,-864 348.53,-870 348.53,-876 348.53,-876 348.53,-888 348.53,-888 348.53,-894 342.53,-900 336.53,-900"/>
<text text-anchor="middle" x="280.53" y="-879.5" font-family="sans" font-size="10.00">raxml_ng_tree_full_concat</text>
</g>
<!-- 7&#45;&gt;6 -->
<g id="edge12" class="edge">
<title>7&#45;&gt;6</title>
<path fill="none" stroke="grey" stroke-width="2" d="M296.11,-863.7C303.74,-855.22 313.06,-844.86 321.41,-835.58"/>
<polygon fill="grey" stroke="grey" stroke-width="2" points="324.05,-837.88 328.14,-828.1 318.85,-833.2 324.05,-837.88"/>
</g>
<!-- 7&#45;&gt;19 -->
<g id="edge31" class="edge">
<title>7&#45;&gt;19</title>
<path fill="none" stroke="grey" stroke-width="2" d="M275.95,-863.97C263.09,-816.19 226.59,-680.62 210.87,-622.27"/>
<polygon fill="grey" stroke="grey" stroke-width="2" points="214.17,-621.05 208.19,-612.31 207.41,-622.87 214.17,-621.05"/>
</g>
<!-- 8 -->
<g id="node8" class="node">
<title>8</title>
<path fill="none" stroke="#a7d856" stroke-width="2" d="M276.53,-972C276.53,-972 92.53,-972 92.53,-972 86.53,-972 80.53,-966 80.53,-960 80.53,-960 80.53,-948 80.53,-948 80.53,-942 86.53,-936 92.53,-936 92.53,-936 276.53,-936 276.53,-936 282.53,-936 288.53,-942 288.53,-948 288.53,-948 288.53,-960 288.53,-960 288.53,-966 282.53,-972 276.53,-972"/>
<text text-anchor="middle" x="184.53" y="-951.5" font-family="sans" font-size="10.00">concat_aligned_segments_with_partitions</text>
</g>
<!-- 8&#45;&gt;7 -->
<g id="edge13" class="edge">
<title>8&#45;&gt;7</title>
<path fill="none" stroke="grey" stroke-width="2" d="M208.26,-935.7C220.47,-926.8 235.52,-915.82 248.72,-906.2"/>
<polygon fill="grey" stroke="grey" stroke-width="2" points="251.06,-908.82 257.08,-900.1 246.93,-903.17 251.06,-908.82"/>
</g>
<!-- 8&#45;&gt;19 -->
<g id="edge32" class="edge">
<title>8&#45;&gt;19</title>
<path fill="none" stroke="grey" stroke-width="2" d="M184.53,-935.95C184.53,-909.29 184.53,-856.11 184.53,-811 184.53,-811 184.53,-811 184.53,-737 184.53,-696.86 192.08,-650.9 197.67,-622.4"/>
<polygon fill="grey" stroke="grey" stroke-width="2" points="201.14,-622.88 199.69,-612.39 194.28,-621.5 201.14,-622.88"/>
</g>
<!-- 9 -->
<g id="node9" class="node">
<title>9</title>
<path fill="none" stroke="#80d856" stroke-width="2" d="M285.53,-1188C285.53,-1188 175.53,-1188 175.53,-1188 169.53,-1188 163.53,-1182 163.53,-1176 163.53,-1176 163.53,-1164 163.53,-1164 163.53,-1158 169.53,-1152 175.53,-1152 175.53,-1152 285.53,-1152 285.53,-1152 291.53,-1152 297.53,-1158 297.53,-1164 297.53,-1164 297.53,-1176 297.53,-1176 297.53,-1182 291.53,-1188 285.53,-1188"/>
<text text-anchor="middle" x="230.53" y="-1167.5" font-family="sans" font-size="10.00">mafft_align_per_segment</text>
</g>
<!-- 9&#45;&gt;8 -->
<g id="edge15" class="edge">
<title>9&#45;&gt;8</title>
<path fill="none" stroke="grey" stroke-width="2" d="M163.48,-1159.96C111.11,-1151.43 44.33,-1136.84 26.53,-1116 -4.7,-1079.42 -8.8,-1046.87 19.53,-1008 32.23,-990.58 50.75,-978.76 70.83,-970.77"/>
<polygon fill="grey" stroke="grey" stroke-width="2" points="72.28,-973.97 80.48,-967.25 69.88,-967.39 72.28,-973.97"/>
</g>
<!-- 14 -->
<g id="node14" class="node">
<title>14</title>
<path fill="none" stroke="#56d8a9" stroke-width="2" d="M198.53,-1044C198.53,-1044 40.53,-1044 40.53,-1044 34.53,-1044 28.53,-1038 28.53,-1032 28.53,-1032 28.53,-1020 28.53,-1020 28.53,-1014 34.53,-1008 40.53,-1008 40.53,-1008 198.53,-1008 198.53,-1008 204.53,-1008 210.53,-1014 210.53,-1020 210.53,-1020 210.53,-1032 210.53,-1032 210.53,-1038 204.53,-1044 198.53,-1044"/>
<text text-anchor="middle" x="119.53" y="-1023.5" font-family="sans" font-size="10.00">raxml_ng_tree_per_segment_codon</text>
</g>
<!-- 9&#45;&gt;14 -->
<g id="edge21" class="edge">
<title>9&#45;&gt;14</title>
<path fill="none" stroke="grey" stroke-width="2" d="M230.87,-1151.94C230.42,-1132.71 227.06,-1101.33 211.53,-1080 202.19,-1067.16 188.72,-1056.97 174.96,-1049.08"/>
<polygon fill="grey" stroke="grey" stroke-width="2" points="176.38,-1045.87 165.91,-1044.23 173.07,-1052.04 176.38,-1045.87"/>
</g>
<!-- 15 -->
<g id="node15" class="node">
<title>15</title>
<path fill="none" stroke="#c6d856" stroke-width="2" d="M191.03,-1116C191.03,-1116 48.03,-1116 48.03,-1116 42.03,-1116 36.03,-1110 36.03,-1104 36.03,-1104 36.03,-1092 36.03,-1092 36.03,-1086 42.03,-1080 48.03,-1080 48.03,-1080 191.03,-1080 191.03,-1080 197.03,-1080 203.03,-1086 203.03,-1092 203.03,-1092 203.03,-1104 203.03,-1104 203.03,-1110 197.03,-1116 191.03,-1116"/>
<text text-anchor="middle" x="119.53" y="-1095.5" font-family="sans" font-size="10.00">build_segment_codon_partitions</text>
</g>
<!-- 9&#45;&gt;15 -->
<g id="edge23" class="edge">
<title>9&#45;&gt;15</title>
<path fill="none" stroke="grey" stroke-width="2" d="M203.38,-1151.88C189,-1142.81 171.15,-1131.55 155.62,-1121.76"/>
<polygon fill="grey" stroke="grey" stroke-width="2" points="157.12,-1118.56 146.79,-1116.19 153.38,-1124.48 157.12,-1118.56"/>
</g>
<!-- 16 -->
<g id="node16" class="node">
<title>16</title>
<path fill="none" stroke="#56d8b9" stroke-width="2" d="M400.53,-1044C400.53,-1044 240.53,-1044 240.53,-1044 234.53,-1044 228.53,-1038 228.53,-1032 228.53,-1032 228.53,-1020 228.53,-1020 228.53,-1014 234.53,-1008 240.53,-1008 240.53,-1008 400.53,-1008 400.53,-1008 406.53,-1008 412.53,-1014 412.53,-1020 412.53,-1020 412.53,-1032 412.53,-1032 412.53,-1038 406.53,-1044 400.53,-1044"/>
<text text-anchor="middle" x="320.53" y="-1023.5" font-family="sans" font-size="10.00">raxml_ng_tree_per_segment_simple</text>
</g>
<!-- 9&#45;&gt;16 -->
<g id="edge24" class="edge">
<title>9&#45;&gt;16</title>
<path fill="none" stroke="grey" stroke-width="2" d="M241.39,-1151.87C257,-1127.24 285.9,-1081.64 304.13,-1052.88"/>
<polygon fill="grey" stroke="grey" stroke-width="2" points="307.24,-1054.51 309.64,-1044.19 301.33,-1050.76 307.24,-1054.51"/>
</g>
<!-- 10 -->
<g id="node10" class="node">
<title>10</title>
<path fill="none" stroke="#56b9d8" stroke-width="2" d="M347.03,-1260C347.03,-1260 222.03,-1260 222.03,-1260 216.03,-1260 210.03,-1254 210.03,-1248 210.03,-1248 210.03,-1236 210.03,-1236 210.03,-1230 216.03,-1224 222.03,-1224 222.03,-1224 347.03,-1224 347.03,-1224 353.03,-1224 359.03,-1230 359.03,-1236 359.03,-1236 359.03,-1248 359.03,-1248 359.03,-1254 353.03,-1260 347.03,-1260"/>
<text text-anchor="middle" x="284.53" y="-1239.5" font-family="sans" font-size="10.00">split_h5n1_final_by_segment</text>
</g>
<!-- 10&#45;&gt;9 -->
<g id="edge17" class="edge">
<title>10&#45;&gt;9</title>
<path fill="none" stroke="grey" stroke-width="2" d="M271.19,-1223.7C264.78,-1215.39 256.98,-1205.28 249.93,-1196.14"/>
<polygon fill="grey" stroke="grey" stroke-width="2" points="252.61,-1193.88 243.73,-1188.1 247.07,-1198.16 252.61,-1193.88"/>
</g>
<!-- 11 -->
<g id="node11" class="node">
<title>11</title>
<path fill="none" stroke="#d8d356" stroke-width="2" d="M438.03,-1332C438.03,-1332 343.03,-1332 343.03,-1332 337.03,-1332 331.03,-1326 331.03,-1320 331.03,-1320 331.03,-1308 331.03,-1308 331.03,-1302 337.03,-1296 343.03,-1296 343.03,-1296 438.03,-1296 438.03,-1296 444.03,-1296 450.03,-1302 450.03,-1308 450.03,-1308 450.03,-1320 450.03,-1320 450.03,-1326 444.03,-1332 438.03,-1332"/>
<text text-anchor="middle" x="390.53" y="-1311.5" font-family="sans" font-size="10.00">build_h5n1_final_fasta</text>
</g>
<!-- 11&#45;&gt;10 -->
<g id="edge18" class="edge">
<title>11&#45;&gt;10</title>
<path fill="none" stroke="grey" stroke-width="2" d="M364.6,-1295.88C350.87,-1286.81 333.83,-1275.55 319,-1265.76"/>
<polygon fill="grey" stroke="grey" stroke-width="2" points="320.84,-1262.78 310.56,-1260.19 316.98,-1268.62 320.84,-1262.78"/>
</g>
<!-- 11&#45;&gt;17 -->
<g id="edge25" class="edge">
<title>11&#45;&gt;17</title>
<path fill="none" stroke="grey" stroke-width="2" d="M400.89,-1295.76C415.54,-1269.7 440.53,-1218.31 440.53,-1171 440.53,-1171 440.53,-1171 440.53,-881 440.53,-840.96 446.89,-794.97 451.59,-766.45"/>
<polygon fill="grey" stroke="grey" stroke-width="2" points="455.07,-766.86 453.3,-756.42 448.17,-765.69 455.07,-766.86"/>
</g>
<!-- 12 -->
<g id="node12" class="node">
<title>12</title>
<path fill="none" stroke="#d8c356" stroke-width="2" d="M476.53,-1404C476.53,-1404 390.53,-1404 390.53,-1404 384.53,-1404 378.53,-1398 378.53,-1392 378.53,-1392 378.53,-1380 378.53,-1380 378.53,-1374 384.53,-1368 390.53,-1368 390.53,-1368 476.53,-1368 476.53,-1368 482.53,-1368 488.53,-1374 488.53,-1380 488.53,-1380 488.53,-1392 488.53,-1392 488.53,-1398 482.53,-1404 476.53,-1404"/>
<text text-anchor="middle" x="433.53" y="-1383.5" font-family="sans" font-size="10.00">build_h5n1_ec_fasta</text>
</g>
<!-- 12&#45;&gt;11 -->
<g id="edge19" class="edge">
<title>12&#45;&gt;11</title>
<path fill="none" stroke="grey" stroke-width="2" d="M422.9,-1367.7C417.91,-1359.56 411.84,-1349.69 406.32,-1340.7"/>
<polygon fill="grey" stroke="grey" stroke-width="2" points="409.26,-1338.79 401.04,-1332.1 403.29,-1342.46 409.26,-1338.79"/>
</g>
<!-- 12&#45;&gt;17 -->
<g id="edge28" class="edge">
<title>12&#45;&gt;17</title>
<path fill="none" stroke="grey" stroke-width="2" d="M442.86,-1367.63C456.04,-1341.41 478.53,-1289.81 478.53,-1243 478.53,-1243 478.53,-1243 478.53,-881 478.53,-840.74 469.79,-794.81 463.33,-766.36"/>
<polygon fill="grey" stroke="grey" stroke-width="2" points="466.67,-765.29 460.99,-756.35 459.86,-766.89 466.67,-765.29"/>
</g>
<!-- 13 -->
<g id="node13" class="node">
<title>13</title>
<path fill="none" stroke="#d89c56" stroke-width="2" d="M550.53,-1476C550.53,-1476 398.53,-1476 398.53,-1476 392.53,-1476 386.53,-1470 386.53,-1464 386.53,-1464 386.53,-1452 386.53,-1452 386.53,-1446 392.53,-1440 398.53,-1440 398.53,-1440 550.53,-1440 550.53,-1440 556.53,-1440 562.53,-1446 562.53,-1452 562.53,-1452 562.53,-1464 562.53,-1464 562.53,-1470 556.53,-1476 550.53,-1476"/>
<text text-anchor="middle" x="474.53" y="-1455.5" font-family="sans" font-size="10.00">build_ecuador_intermediate_input</text>
</g>
<!-- 13&#45;&gt;12 -->
<g id="edge20" class="edge">
<title>13&#45;&gt;12</title>
<path fill="none" stroke="grey" stroke-width="2" d="M464.4,-1439.7C459.68,-1431.64 453.97,-1421.89 448.75,-1412.98"/>
<polygon fill="grey" stroke="grey" stroke-width="2" points="451.63,-1410.96 443.55,-1404.1 445.59,-1414.5 451.63,-1410.96"/>
</g>
<!-- 13&#45;&gt;17 -->
<g id="edge26" class="edge">
<title>13&#45;&gt;17</title>
<path fill="none" stroke="grey" stroke-width="2" d="M483.03,-1439.99C495.31,-1413.82 516.53,-1361.79 516.53,-1315 516.53,-1315 516.53,-1315 516.53,-881 516.53,-837.72 492.59,-792.45 474.95,-764.98"/>
<polygon fill="grey" stroke="grey" stroke-width="2" points="477.7,-762.78 469.26,-756.38 471.86,-766.65 477.7,-762.78"/>
</g>
<!-- 14&#45;&gt;8 -->
<g id="edge14" class="edge">
<title>14&#45;&gt;8</title>
<path fill="none" stroke="grey" stroke-width="2" d="M135.6,-1007.7C143.47,-999.22 153.09,-988.86 161.71,-979.58"/>
<polygon fill="grey" stroke="grey" stroke-width="2" points="164.41,-981.81 168.65,-972.1 159.28,-977.05 164.41,-981.81"/>
</g>
<!-- 15&#45;&gt;14 -->
<g id="edge22" class="edge">
<title>15&#45;&gt;14</title>
<path fill="none" stroke="grey" stroke-width="2" d="M119.53,-1079.7C119.53,-1071.98 119.53,-1062.71 119.53,-1054.11"/>
<polygon fill="grey" stroke="grey" stroke-width="2" points="123.03,-1054.1 119.53,-1044.1 116.03,-1054.1 123.03,-1054.1"/>
</g>
<!-- 16&#45;&gt;8 -->
<g id="edge16" class="edge">
<title>16&#45;&gt;8</title>
<path fill="none" stroke="grey" stroke-width="2" d="M287.26,-1007.88C269.07,-998.51 246.34,-986.81 226.89,-976.8"/>
<polygon fill="grey" stroke="grey" stroke-width="2" points="228.42,-973.65 217.93,-972.19 225.22,-979.88 228.42,-973.65"/>
</g>
<!-- 17&#45;&gt;5 -->
<g id="edge11" class="edge">
<title>17&#45;&gt;5</title>
<path fill="none" stroke="grey" stroke-width="2" d="M432.32,-719.88C419.61,-710.89 403.87,-699.76 390.11,-690.03"/>
<polygon fill="grey" stroke="grey" stroke-width="2" points="392.03,-687.11 381.85,-684.19 387.99,-692.82 392.03,-687.11"/>
</g>
<!-- 18 -->
<g id="node18" class="node">
<title>18</title>
<path fill="none" stroke="#56c1d8" stroke-width="2" d="M268.53,-468C268.53,-468 204.53,-468 204.53,-468 198.53,-468 192.53,-462 192.53,-456 192.53,-456 192.53,-444 192.53,-444 192.53,-438 198.53,-432 204.53,-432 204.53,-432 268.53,-432 268.53,-432 274.53,-432 280.53,-438 280.53,-444 280.53,-444 280.53,-456 280.53,-456 280.53,-462 274.53,-468 268.53,-468"/>
<text text-anchor="middle" x="236.53" y="-447.5" font-family="sans" font-size="10.00">run_root_to_tip</text>
</g>
<!-- 18&#45;&gt;4 -->
<g id="edge7" class="edge">
<title>18&#45;&gt;4</title>
<path fill="none" stroke="grey" stroke-width="2" d="M251.61,-431.7C258.93,-423.3 267.84,-413.07 275.87,-403.86"/>
<polygon fill="grey" stroke="grey" stroke-width="2" points="278.7,-405.94 282.63,-396.1 273.42,-401.34 278.7,-405.94"/>
</g>
<!-- 19&#45;&gt;18 -->
<g id="edge29" class="edge">
<title>19&#45;&gt;18</title>
<path fill="none" stroke="grey" stroke-width="2" d="M206.6,-575.85C209.91,-557.87 215.52,-528.82 221.53,-504 223.61,-495.41 226.15,-486.11 228.54,-477.74"/>
<polygon fill="grey" stroke="grey" stroke-width="2" points="231.91,-478.68 231.34,-468.1 225.19,-476.73 231.91,-478.68"/>
</g>
<!-- 20 -->
<g id="node20" class="node">
<title>20</title>
<path fill="none" stroke="#b6d856" stroke-width="2" d="M332.53,-540C332.53,-540 242.53,-540 242.53,-540 236.53,-540 230.53,-534 230.53,-528 230.53,-528 230.53,-516 230.53,-516 230.53,-510 236.53,-504 242.53,-504 242.53,-504 332.53,-504 332.53,-504 338.53,-504 344.53,-510 344.53,-516 344.53,-516 344.53,-528 344.53,-528 344.53,-534 338.53,-540 332.53,-540"/>
<text text-anchor="middle" x="287.53" y="-519.5" font-family="sans" font-size="10.00">build_treetime_dates</text>
</g>
<!-- 19&#45;&gt;20 -->
<g id="edge34" class="edge">
<title>19&#45;&gt;20</title>
<path fill="none" stroke="grey" stroke-width="2" d="M224.3,-575.7C234.78,-566.97 247.65,-556.24 259.03,-546.75"/>
<polygon fill="grey" stroke="grey" stroke-width="2" points="261.57,-549.19 267.01,-540.1 257.09,-543.82 261.57,-549.19"/>
</g>
<!-- 19&#45;&gt;21 -->
<g id="edge35" class="edge">
<title>19&#45;&gt;21</title>
<path fill="none" stroke="grey" stroke-width="2" d="M200.19,-575.69C195.66,-551.63 187.7,-506.68 183.53,-468 178.52,-421.44 176.22,-366.99 175.22,-334.83"/>
<polygon fill="grey" stroke="grey" stroke-width="2" points="178.71,-334.33 174.92,-324.44 171.71,-334.54 178.71,-334.33"/>
</g>
<!-- 20&#45;&gt;4 -->
<g id="edge8" class="edge">
<title>20&#45;&gt;4</title>
<path fill="none" stroke="grey" stroke-width="2" d="M288.74,-503.87C290.44,-479.67 293.58,-435.21 295.6,-406.39"/>
<polygon fill="grey" stroke="grey" stroke-width="2" points="299.11,-406.41 296.32,-396.19 292.13,-405.92 299.11,-406.41"/>
</g>
<!-- 20&#45;&gt;18 -->
<g id="edge30" class="edge">
<title>20&#45;&gt;18</title>
<path fill="none" stroke="grey" stroke-width="2" d="M274.93,-503.7C268.94,-495.47 261.66,-485.48 255.05,-476.42"/>
<polygon fill="grey" stroke="grey" stroke-width="2" points="257.71,-474.13 249,-468.1 252.06,-478.25 257.71,-474.13"/>
</g>
<!-- 21&#45;&gt;3 -->
<g id="edge6" class="edge">
<title>21&#45;&gt;3</title>
<path fill="none" stroke="grey" stroke-width="2" d="M189.61,-287.7C196.93,-279.3 205.84,-269.07 213.87,-259.86"/>
<polygon fill="grey" stroke="grey" stroke-width="2" points="216.7,-261.94 220.63,-252.1 211.42,-257.34 216.7,-261.94"/>
</g>
<!-- 22&#45;&gt;2 -->
<g id="edge4" class="edge">
<title>22&#45;&gt;2</title>
<path fill="none" stroke="grey" stroke-width="2" d="M265.65,-143.7C261.04,-135.64 255.47,-125.89 250.38,-116.98"/>
<polygon fill="grey" stroke="grey" stroke-width="2" points="253.31,-115.05 245.31,-108.1 247.23,-118.52 253.31,-115.05"/>
</g>
</g>
</svg>
