<?xml version="1.0" encoding="UTF-8" standalone="no"?>
<!DOCTYPE svg PUBLIC "-//W3C//DTD SVG 1.1//EN"
 "http://www.w3.org/Graphics/SVG/1.1/DTD/svg11.dtd">
<!-- Generated by graphviz version 2.43.0 (0)
 -->
<!-- Title: snakemake_dag Pages: 1 -->
<svg width="786pt" height="764pt"
 viewBox="0.00 0.00 786.00 764.00" xmlns="http://www.w3.org/2000/svg" xmlns:xlink="http://www.w3.org/1999/xlink">
<g id="graph0" class="graph" transform="scale(1 1) rotate(0) translate(4 760)">
<title>snakemake_dag</title>
<polygon fill="white" stroke="transparent" points="-4,4 -4,-760 782,-760 782,4 -4,4"/>
<!-- 0 -->
<g id="node1" class="node">
<title>0</title>
<path fill="none" stroke="#d87556" stroke-width="2" d="M483,-36C483,-36 453,-36 453,-36 447,-36 441,-30 441,-24 441,-24 441,-12 441,-12 441,-6 447,0 453,0 453,0 483,0 483,0 489,0 495,-6 495,-12 495,-12 495,-24 495,-24 495,-30 489,-36 483,-36"/>
<text text-anchor="middle" x="468" y="-15.5" font-family="sans" font-size="10.00">all</text>
</g>
<!-- 1 -->
<g id="node2" class="node">
<title>1</title>
<path fill="none" stroke="#d8ac56" stroke-width="2" d="M395,-756C395,-756 243,-756 243,-756 237,-756 231,-750 231,-744 231,-744 231,-732 231,-732 231,-726 237,-720 243,-720 243,-720 395,-720 395,-720 401,-720 407,-726 407,-732 407,-732 407,-744 407,-744 407,-750 401,-756 395,-756"/>
<text text-anchor="middle" x="319" y="-735.5" font-family="sans" font-size="10.00">build_ecuador_intermediate_input</text>
</g>
<!-- 1&#45;&gt;0 -->
<g id="edge5" class="edge">
<title>1&#45;&gt;0</title>
<path fill="none" stroke="grey" stroke-width="2" d="M230.99,-734.23C136.57,-726 0,-696.54 0,-595 0,-595 0,-595 0,-161 0,-116.47 9.49,-97.48 46,-72 107.81,-28.86 339.44,-20.82 430.71,-19.33"/>
<polygon fill="grey" stroke="grey" stroke-width="2" points="430.92,-22.83 440.87,-19.19 430.82,-15.83 430.92,-22.83"/>
</g>
<!-- 2 -->
<g id="node3" class="node">
<title>2</title>
<path fill="none" stroke="#d8c356" stroke-width="2" d="M681,-684C681,-684 595,-684 595,-684 589,-684 583,-678 583,-672 583,-672 583,-660 583,-660 583,-654 589,-648 595,-648 595,-648 681,-648 681,-648 687,-648 693,-654 693,-660 693,-660 693,-672 693,-672 693,-678 687,-684 681,-684"/>
<text text-anchor="middle" x="638" y="-663.5" font-family="sans" font-size="10.00">build_h5n1_ec_fasta</text>
</g>
<!-- 1&#45;&gt;2 -->
<g id="edge13" class="edge">
<title>1&#45;&gt;2</title>
<path fill="none" stroke="grey" stroke-width="2" d="M396.63,-719.97C450.57,-708.13 521.66,-692.53 572.69,-681.33"/>
<polygon fill="grey" stroke="grey" stroke-width="2" points="573.6,-684.71 582.62,-679.15 572.1,-677.88 573.6,-684.71"/>
</g>
<!-- 2&#45;&gt;0 -->
<g id="edge9" class="edge">
<title>2&#45;&gt;0</title>
<path fill="none" stroke="grey" stroke-width="2" d="M674.42,-647.81C715.9,-625.42 778,-582.03 778,-523 778,-523 778,-523 778,-161 778,-42.33 587.91,-22.44 505.44,-19.39"/>
<polygon fill="grey" stroke="grey" stroke-width="2" points="505.34,-15.89 495.24,-19.08 505.13,-22.89 505.34,-15.89"/>
</g>
<!-- 3 -->
<g id="node4" class="node">
<title>3</title>
<path fill="none" stroke="#b6d856" stroke-width="2" d="M685.5,-612C685.5,-612 590.5,-612 590.5,-612 584.5,-612 578.5,-606 578.5,-600 578.5,-600 578.5,-588 578.5,-588 578.5,-582 584.5,-576 590.5,-576 590.5,-576 685.5,-576 685.5,-576 691.5,-576 697.5,-582 697.5,-588 697.5,-588 697.5,-600 697.5,-600 697.5,-606 691.5,-612 685.5,-612"/>
<text text-anchor="middle" x="638" y="-591.5" font-family="sans" font-size="10.00">build_h5n1_final_fasta</text>
</g>
<!-- 2&#45;&gt;3 -->
<g id="edge14" class="edge">
<title>2&#45;&gt;3</title>
<path fill="none" stroke="grey" stroke-width="2" d="M638,-647.7C638,-639.98 638,-630.71 638,-622.11"/>
<polygon fill="grey" stroke="grey" stroke-width="2" points="641.5,-622.1 638,-612.1 634.5,-622.1 641.5,-622.1"/>
</g>
<!-- 3&#45;&gt;0 -->
<g id="edge3" class="edge">
<title>3&#45;&gt;0</title>
<path fill="none" stroke="grey" stroke-width="2" d="M661.4,-575.92C691.51,-551.77 740,-504.57 740,-451 740,-451 740,-451 740,-161 740,-56.41 580,-28.72 505.43,-21.5"/>
<polygon fill="grey" stroke="grey" stroke-width="2" points="505.35,-17.98 495.07,-20.58 504.72,-24.95 505.35,-17.98"/>
</g>
<!-- 4 -->
<g id="node5" class="node">
<title>4</title>
<path fill="none" stroke="#ced856" stroke-width="2" d="M700.5,-324C700.5,-324 575.5,-324 575.5,-324 569.5,-324 563.5,-318 563.5,-312 563.5,-312 563.5,-300 563.5,-300 563.5,-294 569.5,-288 575.5,-288 575.5,-288 700.5,-288 700.5,-288 706.5,-288 712.5,-294 712.5,-300 712.5,-300 712.5,-312 712.5,-312 712.5,-318 706.5,-324 700.5,-324"/>
<text text-anchor="middle" x="638" y="-303.5" font-family="sans" font-size="10.00">build_h5n1_final_beast_fasta</text>
</g>
<!-- 3&#45;&gt;4 -->
<g id="edge15" class="edge">
<title>3&#45;&gt;4</title>
<path fill="none" stroke="grey" stroke-width="2" d="M638,-575.97C638,-528.29 638,-393.18 638,-334.63"/>
<polygon fill="grey" stroke="grey" stroke-width="2" points="641.5,-334.31 638,-324.31 634.5,-334.31 641.5,-334.31"/>
</g>
<!-- 7 -->
<g id="node8" class="node">
<title>7</title>
<path fill="none" stroke="#56a9d8" stroke-width="2" d="M300.5,-540C300.5,-540 175.5,-540 175.5,-540 169.5,-540 163.5,-534 163.5,-528 163.5,-528 163.5,-516 163.5,-516 163.5,-510 169.5,-504 175.5,-504 175.5,-504 300.5,-504 300.5,-504 306.5,-504 312.5,-510 312.5,-516 312.5,-516 312.5,-528 312.5,-528 312.5,-534 306.5,-540 300.5,-540"/>
<text text-anchor="middle" x="238" y="-519.5" font-family="sans" font-size="10.00">split_h5n1_final_by_segment</text>
</g>
<!-- 3&#45;&gt;7 -->
<g id="edge18" class="edge">
<title>3&#45;&gt;7</title>
<path fill="none" stroke="grey" stroke-width="2" d="M578.12,-582.52C510.33,-570.66 399.38,-551.24 322.73,-537.83"/>
<polygon fill="grey" stroke="grey" stroke-width="2" points="323.08,-534.34 312.62,-536.06 321.87,-541.23 323.08,-534.34"/>
</g>
<!-- 4&#45;&gt;0 -->
<g id="edge10" class="edge">
<title>4&#45;&gt;0</title>
<path fill="none" stroke="grey" stroke-width="2" d="M656.6,-287.76C665.53,-278.2 675.29,-265.53 680,-252 707.87,-171.95 682.8,-125.43 617,-72 584.4,-45.53 537.57,-31.77 505.15,-24.98"/>
<polygon fill="grey" stroke="grey" stroke-width="2" points="505.65,-21.51 495.16,-23.02 504.3,-28.38 505.65,-21.51"/>
</g>
<!-- 12 -->
<g id="node13" class="node">
<title>12</title>
<path fill="none" stroke="#d88d56" stroke-width="2" d="M659,-252C659,-252 579,-252 579,-252 573,-252 567,-246 567,-240 567,-240 567,-228 567,-228 567,-222 573,-216 579,-216 579,-216 659,-216 659,-216 665,-216 671,-222 671,-228 671,-228 671,-240 671,-240 671,-246 665,-252 659,-252"/>
<text text-anchor="middle" x="619" y="-231.5" font-family="sans" font-size="10.00">build_beast_panels</text>
</g>
<!-- 4&#45;&gt;12 -->
<g id="edge28" class="edge">
<title>4&#45;&gt;12</title>
<path fill="none" stroke="grey" stroke-width="2" d="M633.3,-287.7C631.19,-279.9 628.64,-270.51 626.28,-261.83"/>
<polygon fill="grey" stroke="grey" stroke-width="2" points="629.64,-260.84 623.64,-252.1 622.88,-262.67 629.64,-260.84"/>
</g>
<!-- 5 -->
<g id="node6" class="node">
<title>5</title>
<path fill="none" stroke="#97d856" stroke-width="2" d="M429,-396C429,-396 245,-396 245,-396 239,-396 233,-390 233,-384 233,-384 233,-372 233,-372 233,-366 239,-360 245,-360 245,-360 429,-360 429,-360 435,-360 441,-366 441,-372 441,-372 441,-384 441,-384 441,-390 435,-396 429,-396"/>
<text text-anchor="middle" x="337" y="-375.5" font-family="sans" font-size="10.00">concat_aligned_segments_with_partitions</text>
</g>
<!-- 5&#45;&gt;0 -->
<g id="edge4" class="edge">
<title>5&#45;&gt;0</title>
<path fill="none" stroke="grey" stroke-width="2" d="M255.23,-359.91C191.59,-341.26 114,-304.31 114,-235 114,-235 114,-235 114,-161 114,-107.52 148.38,-98.21 195,-72 270.95,-29.31 375.49,-20.47 430.56,-18.97"/>
<polygon fill="grey" stroke="grey" stroke-width="2" points="430.97,-22.46 440.9,-18.76 430.83,-15.46 430.97,-22.46"/>
</g>
<!-- 8 -->
<g id="node9" class="node">
<title>8</title>
<path fill="none" stroke="#61d856" stroke-width="2" d="M493,-324C493,-324 351,-324 351,-324 345,-324 339,-318 339,-312 339,-312 339,-300 339,-300 339,-294 345,-288 351,-288 351,-288 493,-288 493,-288 499,-288 505,-294 505,-300 505,-300 505,-312 505,-312 505,-318 499,-324 493,-324"/>
<text text-anchor="middle" x="422" y="-303.5" font-family="sans" font-size="10.00">raxml_ng_tree_full_concat_beast</text>
</g>
<!-- 5&#45;&gt;8 -->
<g id="edge19" class="edge">
<title>5&#45;&gt;8</title>
<path fill="none" stroke="grey" stroke-width="2" d="M358.01,-359.7C368.72,-350.88 381.89,-340.03 393.5,-330.47"/>
<polygon fill="grey" stroke="grey" stroke-width="2" points="395.74,-333.16 401.23,-324.1 391.29,-327.76 395.74,-333.16"/>
</g>
<!-- 10 -->
<g id="node11" class="node">
<title>10</title>
<path fill="none" stroke="#56d863" stroke-width="2" d="M343.5,-252C343.5,-252 192.5,-252 192.5,-252 186.5,-252 180.5,-246 180.5,-240 180.5,-240 180.5,-228 180.5,-228 180.5,-222 186.5,-216 192.5,-216 192.5,-216 343.5,-216 343.5,-216 349.5,-216 355.5,-222 355.5,-228 355.5,-228 355.5,-240 355.5,-240 355.5,-246 349.5,-252 343.5,-252"/>
<text text-anchor="middle" x="268" y="-231.5" font-family="sans" font-size="10.00">raxml_ng_tree_full_concat_rf_rep1</text>
</g>
<!-- 5&#45;&gt;10 -->
<g id="edge23" class="edge">
<title>5&#45;&gt;10</title>
<path fill="none" stroke="grey" stroke-width="2" d="M328.68,-359.87C316.76,-335.35 294.74,-290.03 280.76,-261.26"/>
<polygon fill="grey" stroke="grey" stroke-width="2" points="283.87,-259.65 276.35,-252.19 277.58,-262.71 283.87,-259.65"/>
</g>
<!-- 11 -->
<g id="node12" class="node">
<title>11</title>
<path fill="none" stroke="#56d882" stroke-width="2" d="M353.5,-180C353.5,-180 202.5,-180 202.5,-180 196.5,-180 190.5,-174 190.5,-168 190.5,-168 190.5,-156 190.5,-156 190.5,-150 196.5,-144 202.5,-144 202.5,-144 353.5,-144 353.5,-144 359.5,-144 365.5,-150 365.5,-156 365.5,-156 365.5,-168 365.5,-168 365.5,-174 359.5,-180 353.5,-180"/>
<text text-anchor="middle" x="278" y="-159.5" font-family="sans" font-size="10.00">raxml_ng_tree_full_concat_rf_rep2</text>
</g>
<!-- 5&#45;&gt;11 -->
<g id="edge25" class="edge">
<title>5&#45;&gt;11</title>
<path fill="none" stroke="grey" stroke-width="2" d="M297.08,-359.9C257.1,-340.34 197.91,-304.14 172,-252 164.88,-237.67 163.59,-229.61 172,-216 180.34,-202.5 193.27,-192.33 207.28,-184.7"/>
<polygon fill="grey" stroke="grey" stroke-width="2" points="209.21,-187.65 216.59,-180.05 206.08,-181.38 209.21,-187.65"/>
</g>
<!-- 13 -->
<g id="node14" class="node">
<title>13</title>
<path fill="none" stroke="#568ad8" stroke-width="2" d="M624.5,-180C624.5,-180 471.5,-180 471.5,-180 465.5,-180 459.5,-174 459.5,-168 459.5,-168 459.5,-156 459.5,-156 459.5,-150 465.5,-144 471.5,-144 471.5,-144 624.5,-144 624.5,-144 630.5,-144 636.5,-150 636.5,-156 636.5,-156 636.5,-168 636.5,-168 636.5,-174 630.5,-180 624.5,-180"/>
<text text-anchor="middle" x="548" y="-159.5" font-family="sans" font-size="10.00">subset_alignment_and_prune_tree</text>
</g>
<!-- 5&#45;&gt;13 -->
<g id="edge30" class="edge">
<title>5&#45;&gt;13</title>
<path fill="none" stroke="grey" stroke-width="2" d="M441.4,-365.18C468.3,-357.38 494.99,-344.65 514,-324 547.84,-287.24 551.31,-225.55 550.11,-190.16"/>
<polygon fill="grey" stroke="grey" stroke-width="2" points="553.6,-189.9 549.62,-180.08 546.61,-190.24 553.6,-189.9"/>
</g>
<!-- 6 -->
<g id="node7" class="node">
<title>6</title>
<path fill="none" stroke="#80d856" stroke-width="2" d="M293,-468C293,-468 183,-468 183,-468 177,-468 171,-462 171,-456 171,-456 171,-444 171,-444 171,-438 177,-432 183,-432 183,-432 293,-432 293,-432 299,-432 305,-438 305,-444 305,-444 305,-456 305,-456 305,-462 299,-468 293,-468"/>
<text text-anchor="middle" x="238" y="-447.5" font-family="sans" font-size="10.00">mafft_align_per_segment</text>
</g>
<!-- 6&#45;&gt;5 -->
<g id="edge16" class="edge">
<title>6&#45;&gt;5</title>
<path fill="none" stroke="grey" stroke-width="2" d="M262.22,-431.88C274.92,-422.89 290.66,-411.76 304.42,-402.03"/>
<polygon fill="grey" stroke="grey" stroke-width="2" points="306.54,-404.82 312.69,-396.19 302.5,-399.11 306.54,-404.82"/>
</g>
<!-- 15 -->
<g id="node16" class="node">
<title>15</title>
<path fill="none" stroke="#56d89a" stroke-width="2" d="M202.5,-396C202.5,-396 77.5,-396 77.5,-396 71.5,-396 65.5,-390 65.5,-384 65.5,-384 65.5,-372 65.5,-372 65.5,-366 71.5,-360 77.5,-360 77.5,-360 202.5,-360 202.5,-360 208.5,-360 214.5,-366 214.5,-372 214.5,-372 214.5,-384 214.5,-384 214.5,-390 208.5,-396 202.5,-396"/>
<text text-anchor="middle" x="140" y="-375.5" font-family="sans" font-size="10.00">raxml_ng_tree_per_segment</text>
</g>
<!-- 6&#45;&gt;15 -->
<g id="edge34" class="edge">
<title>6&#45;&gt;15</title>
<path fill="none" stroke="grey" stroke-width="2" d="M214.03,-431.88C201.45,-422.89 185.87,-411.76 172.25,-402.03"/>
<polygon fill="grey" stroke="grey" stroke-width="2" points="174.24,-399.15 164.07,-396.19 170.17,-404.85 174.24,-399.15"/>
</g>
<!-- 7&#45;&gt;0 -->
<g id="edge1" class="edge">
<title>7&#45;&gt;0</title>
<path fill="none" stroke="grey" stroke-width="2" d="M172.24,-503.99C113.94,-484.48 38,-446.18 38,-379 38,-379 38,-379 38,-161 38,-116.06 49.09,-97.64 86,-72 141.31,-33.59 345.54,-22.82 430.52,-19.97"/>
<polygon fill="grey" stroke="grey" stroke-width="2" points="430.86,-23.46 440.75,-19.64 430.64,-16.46 430.86,-23.46"/>
</g>
<!-- 7&#45;&gt;6 -->
<g id="edge17" class="edge">
<title>7&#45;&gt;6</title>
<path fill="none" stroke="grey" stroke-width="2" d="M238,-503.7C238,-495.98 238,-486.71 238,-478.11"/>
<polygon fill="grey" stroke="grey" stroke-width="2" points="241.5,-478.1 238,-468.1 234.5,-478.1 241.5,-478.1"/>
</g>
<!-- 8&#45;&gt;0 -->
<g id="edge12" class="edge">
<title>8&#45;&gt;0</title>
<path fill="none" stroke="grey" stroke-width="2" d="M423.03,-287.86C425.62,-249.04 433.44,-151.61 451,-72 452.89,-63.41 455.59,-54.23 458.28,-45.97"/>
<polygon fill="grey" stroke="grey" stroke-width="2" points="461.61,-47.04 461.5,-36.44 454.98,-44.79 461.61,-47.04"/>
</g>
<!-- 9 -->
<g id="node10" class="node">
<title>9</title>
<path fill="none" stroke="#5673d8" stroke-width="2" d="M374,-108C374,-108 216,-108 216,-108 210,-108 204,-102 204,-96 204,-96 204,-84 204,-84 204,-78 210,-72 216,-72 216,-72 374,-72 374,-72 380,-72 386,-78 386,-84 386,-84 386,-96 386,-96 386,-102 380,-108 374,-108"/>
<text text-anchor="middle" x="295" y="-87.5" font-family="sans" font-size="10.00">summarize_full_concat_rf_instability</text>
</g>
<!-- 8&#45;&gt;9 -->
<g id="edge22" class="edge">
<title>8&#45;&gt;9</title>
<path fill="none" stroke="grey" stroke-width="2" d="M420.83,-287.79C417.91,-256.36 407.98,-188.78 375,-144 366.01,-131.79 353.3,-121.57 340.66,-113.46"/>
<polygon fill="grey" stroke="grey" stroke-width="2" points="342.32,-110.37 331.96,-108.18 338.69,-116.36 342.32,-110.37"/>
</g>
<!-- 8&#45;&gt;10 -->
<g id="edge24" class="edge">
<title>8&#45;&gt;10</title>
<path fill="none" stroke="grey" stroke-width="2" d="M384.33,-287.88C363.37,-278.35 337.1,-266.41 314.82,-256.28"/>
<polygon fill="grey" stroke="grey" stroke-width="2" points="316.1,-253.02 305.55,-252.07 313.21,-259.39 316.1,-253.02"/>
</g>
<!-- 8&#45;&gt;11 -->
<g id="edge27" class="edge">
<title>8&#45;&gt;11</title>
<path fill="none" stroke="grey" stroke-width="2" d="M414.07,-287.98C404.49,-268.77 386.91,-237.42 365,-216 352.75,-204.02 337.31,-193.52 322.85,-185.09"/>
<polygon fill="grey" stroke="grey" stroke-width="2" points="324.44,-181.97 314.01,-180.11 321.01,-188.07 324.44,-181.97"/>
</g>
<!-- 8&#45;&gt;12 -->
<g id="edge29" class="edge">
<title>8&#45;&gt;12</title>
<path fill="none" stroke="grey" stroke-width="2" d="M469.94,-287.97C497.47,-278.19 532.22,-265.84 561.24,-255.52"/>
<polygon fill="grey" stroke="grey" stroke-width="2" points="562.59,-258.76 570.85,-252.11 560.25,-252.16 562.59,-258.76"/>
</g>
<!-- 8&#45;&gt;13 -->
<g id="edge32" class="edge">
<title>8&#45;&gt;13</title>
<path fill="none" stroke="grey" stroke-width="2" d="M439.7,-287.68C449.94,-277.49 462.94,-264.24 474,-252 493.04,-230.92 513.62,-205.99 528.23,-187.88"/>
<polygon fill="grey" stroke="grey" stroke-width="2" points="530.96,-190.07 534.49,-180.08 525.5,-185.69 530.96,-190.07"/>
</g>
<!-- 9&#45;&gt;0 -->
<g id="edge2" class="edge">
<title>9&#45;&gt;0</title>
<path fill="none" stroke="grey" stroke-width="2" d="M337.32,-71.88C366.22,-60.18 404.12,-44.85 431.66,-33.7"/>
<polygon fill="grey" stroke="grey" stroke-width="2" points="432.98,-36.95 440.93,-29.95 430.35,-30.46 432.98,-36.95"/>
</g>
<!-- 10&#45;&gt;9 -->
<g id="edge21" class="edge">
<title>10&#45;&gt;9</title>
<path fill="none" stroke="grey" stroke-width="2" d="M222.45,-215.98C206.75,-207.66 190.89,-195.93 182,-180 174.2,-166.03 173.42,-157.5 182,-144 190.71,-130.29 204.01,-120.07 218.45,-112.47"/>
<polygon fill="grey" stroke="grey" stroke-width="2" points="220.09,-115.56 227.57,-108.06 217.04,-109.26 220.09,-115.56"/>
</g>
<!-- 10&#45;&gt;11 -->
<g id="edge26" class="edge">
<title>10&#45;&gt;11</title>
<path fill="none" stroke="grey" stroke-width="2" d="M270.47,-215.7C271.57,-207.98 272.9,-198.71 274.13,-190.11"/>
<polygon fill="grey" stroke="grey" stroke-width="2" points="277.61,-190.5 275.56,-180.1 270.68,-189.51 277.61,-190.5"/>
</g>
<!-- 11&#45;&gt;9 -->
<g id="edge20" class="edge">
<title>11&#45;&gt;9</title>
<path fill="none" stroke="grey" stroke-width="2" d="M282.2,-143.7C284.1,-135.9 286.38,-126.51 288.48,-117.83"/>
<polygon fill="grey" stroke="grey" stroke-width="2" points="291.89,-118.65 290.85,-108.1 285.08,-117 291.89,-118.65"/>
</g>
<!-- 12&#45;&gt;0 -->
<g id="edge7" class="edge">
<title>12&#45;&gt;0</title>
<path fill="none" stroke="grey" stroke-width="2" d="M631.09,-215.92C642.37,-197.75 656.07,-168.32 646,-144 621.15,-84 549.34,-48.2 504.89,-31.16"/>
<polygon fill="grey" stroke="grey" stroke-width="2" points="505.9,-27.81 495.31,-27.62 503.48,-34.37 505.9,-27.81"/>
</g>
<!-- 12&#45;&gt;13 -->
<g id="edge31" class="edge">
<title>12&#45;&gt;13</title>
<path fill="none" stroke="grey" stroke-width="2" d="M601.45,-215.7C592.77,-207.14 582.14,-196.66 572.65,-187.3"/>
<polygon fill="grey" stroke="grey" stroke-width="2" points="574.93,-184.63 565.35,-180.1 570.01,-189.62 574.93,-184.63"/>
</g>
<!-- 13&#45;&gt;0 -->
<g id="edge11" class="edge">
<title>13&#45;&gt;0</title>
<path fill="none" stroke="grey" stroke-width="2" d="M555.4,-143.7C562.26,-124.81 569.66,-94.28 557,-72 545.75,-52.21 523.86,-39.03 504.6,-30.76"/>
<polygon fill="grey" stroke="grey" stroke-width="2" points="505.72,-27.44 495.13,-26.98 503.12,-33.94 505.72,-27.44"/>
</g>
<!-- 14 -->
<g id="node15" class="node">
<title>14</title>
<path fill="none" stroke="#56c1d8" stroke-width="2" d="M536,-108C536,-108 472,-108 472,-108 466,-108 460,-102 460,-96 460,-96 460,-84 460,-84 460,-78 466,-72 472,-72 472,-72 536,-72 536,-72 542,-72 548,-78 548,-84 548,-84 548,-96 548,-96 548,-102 542,-108 536,-108"/>
<text text-anchor="middle" x="504" y="-87.5" font-family="sans" font-size="10.00">run_root_to_tip</text>
</g>
<!-- 13&#45;&gt;14 -->
<g id="edge33" class="edge">
<title>13&#45;&gt;14</title>
<path fill="none" stroke="grey" stroke-width="2" d="M537.12,-143.7C532.01,-135.56 525.8,-125.69 520.16,-116.7"/>
<polygon fill="grey" stroke="grey" stroke-width="2" points="523.04,-114.71 514.75,-108.1 517.11,-118.43 523.04,-114.71"/>
</g>
<!-- 14&#45;&gt;0 -->
<g id="edge8" class="edge">
<title>14&#45;&gt;0</title>
<path fill="none" stroke="grey" stroke-width="2" d="M495.1,-71.7C491,-63.73 486.05,-54.1 481.51,-45.26"/>
<polygon fill="grey" stroke="grey" stroke-width="2" points="484.48,-43.4 476.8,-36.1 478.26,-46.6 484.48,-43.4"/>
</g>
<!-- 15&#45;&gt;0 -->
<g id="edge6" class="edge">
<title>15&#45;&gt;0</title>
<path fill="none" stroke="grey" stroke-width="2" d="M126.43,-359.76C107.64,-334.1 76,-283.67 76,-235 76,-235 76,-235 76,-161 76,-114.5 92.27,-97.74 131,-72 179.64,-39.67 353.35,-25.7 430.56,-20.99"/>
<polygon fill="grey" stroke="grey" stroke-width="2" points="431.01,-24.47 440.79,-20.38 430.6,-17.48 431.01,-24.47"/>
</g>
</g>
</svg>
