<?xml version="1.0" encoding="UTF-8" standalone="no"?>
<!DOCTYPE svg PUBLIC "-//W3C//DTD SVG 1.1//EN"
 "http://www.w3.org/Graphics/SVG/1.1/DTD/svg11.dtd">
<!-- Generated by graphviz version 2.43.0 (0)
 -->
<!-- Title: snakemake_dag Pages: 1 -->
<svg width="359pt" height="944pt"
 viewBox="0.00 0.00 359.00 944.00" xmlns="http://www.w3.org/2000/svg" xmlns:xlink="http://www.w3.org/1999/xlink">
<g id="graph0" class="graph" transform="scale(1 1) rotate(0) translate(4 940)">
<title>snakemake_dag</title>
<polygon fill="white" stroke="transparent" points="-4,4 -4,-940 355,-940 355,4 -4,4"/>
<!-- 0 -->
<g id="node1" class="node">
<title>0</title>
<text text-anchor="start" x="77" y="-147.6" font-family="sans" font-weight="bold" font-size="18.00">build_h5n1_final_fasta</text>
<text text-anchor="start" x="55.5" y="-123.8" font-family="sans" font-size="10.00"> </text>
<text text-anchor="start" x="58.5" y="-123.8" font-family="sans" font-weight="bold" font-size="14.00">↪ input</text>
<text text-anchor="start" x="113.5" y="-123.8" font-family="sans" font-size="10.00"> </text>
<text text-anchor="start" x="55.5" y="-104" font-family="monospace" font-size="10.00">config/final_metadata_50_per_country.tsv</text>
<text text-anchor="start" x="55.5" y="-86" font-family="monospace" font-size="10.00">data/exports/H5N1_EC.fasta</text>
<text text-anchor="start" x="226.5" y="-65.8" font-family="sans" font-size="10.00"> </text>
<text text-anchor="start" x="229.5" y="-65.8" font-family="sans" font-weight="bold" font-size="14.00">output →</text>
<text text-anchor="start" x="293.5" y="-65.8" font-family="sans" font-size="10.00"> </text>
<text text-anchor="start" x="55.5" y="-46" font-family="monospace" font-size="10.00">data/exports/H5N1_context.fasta</text>
<text text-anchor="start" x="55.5" y="-28" font-family="monospace" font-size="10.00">data/exports/H5N1_context_summary.csv</text>
<text text-anchor="start" x="55.5" y="-10" font-family="monospace" font-size="10.00">data/final/H5N1_final.fasta</text>
<polygon fill="#57d9d9" stroke="#57d9d9" points="49.5,-138 49.5,-138 303.5,-138 303.5,-138 49.5,-138"/>
<polygon fill="#57d9d9" stroke="#57d9d9" points="49.5,-80 49.5,-80 303.5,-80 303.5,-80 49.5,-80"/>
<polygon fill="none" stroke="#57d9d9" stroke-width="2" points="49,-1 49,-167 302,-167 302,-1 49,-1"/>
</g>
<!-- 1 -->
<g id="node2" class="node">
<title>1</title>
<text text-anchor="start" x="87.5" y="-351.6" font-family="sans" font-weight="bold" font-size="18.00">build_h5n1_ec_fasta</text>
<text text-anchor="start" x="37.5" y="-327.8" font-family="sans" font-size="10.00"> </text>
<text text-anchor="start" x="40.5" y="-327.8" font-family="sans" font-weight="bold" font-size="14.00">↪ input</text>
<text text-anchor="start" x="95.5" y="-327.8" font-family="sans" font-size="10.00"> </text>
<text text-anchor="start" x="37.5" y="-308" font-family="monospace" font-size="10.00">config/flu_filtrado.csv</text>
<text text-anchor="start" x="37.5" y="-290" font-family="monospace" font-size="10.00">data/assembled/ecuador_intermediate_audit.csv</text>
<text text-anchor="start" x="37.5" y="-272" font-family="monospace" font-size="10.00">data/assembled/ecuador_intermediate_per_sample</text>
<text text-anchor="start" x="244.5" y="-251.8" font-family="sans" font-size="10.00"> </text>
<text text-anchor="start" x="247.5" y="-251.8" font-family="sans" font-weight="bold" font-size="14.00">output →</text>
<text text-anchor="start" x="311.5" y="-251.8" font-family="sans" font-size="10.00"> </text>
<text text-anchor="start" x="37.5" y="-232" font-family="monospace" font-size="10.00">data/exports/H5N1_EC.fasta</text>
<text text-anchor="start" x="37.5" y="-214" font-family="monospace" font-size="10.00">data/exports/H5N1_EC_summary.csv</text>
<polygon fill="#57d957" stroke="#57d957" points="31.5,-342 31.5,-342 321.5,-342 321.5,-342 31.5,-342"/>
<polygon fill="#57d957" stroke="#57d957" points="31.5,-266 31.5,-266 321.5,-266 321.5,-266 31.5,-266"/>
<polygon fill="none" stroke="#57d957" stroke-width="2" points="31,-205 31,-371 320,-371 320,-205 31,-205"/>
</g>
<!-- 1&#45;&gt;0 -->
<g id="edge1" class="edge">
<title>1&#45;&gt;0</title>
<path fill="none" stroke="grey" stroke-width="2" d="M175.5,-203.96C175.5,-195.44 175.5,-186.74 175.5,-178.11"/>
<polygon fill="grey" stroke="grey" stroke-width="2" points="179,-178.04 175.5,-168.04 172,-178.04 179,-178.04"/>
</g>
<!-- 2 -->
<g id="node3" class="node">
<title>2</title>
<text text-anchor="start" x="23" y="-915.6" font-family="sans" font-weight="bold" font-size="18.00">build_ecuador_intermediate_input</text>
<text text-anchor="start" x="7.5" y="-891.8" font-family="sans" font-size="10.00"> </text>
<text text-anchor="start" x="10.5" y="-891.8" font-family="sans" font-weight="bold" font-size="14.00">↪ input</text>
<text text-anchor="start" x="65.5" y="-891.8" font-family="sans" font-size="10.00"> </text>
<text text-anchor="start" x="7.5" y="-872" font-family="monospace" font-size="10.00">../run1/amended_consensus.fasta</text>
<text text-anchor="start" x="7.5" y="-854" font-family="monospace" font-size="10.00">../run10/amended_consensus.fasta</text>
<text text-anchor="start" x="7.5" y="-836" font-family="monospace" font-size="10.00">../run12/amended_consensus.fasta</text>
<text text-anchor="start" x="7.5" y="-818" font-family="monospace" font-size="10.00">../run17/amended_consensus.fasta</text>
<text text-anchor="start" x="7.5" y="-800" font-family="monospace" font-size="10.00">../run2/amended_consensus.fasta</text>
<text text-anchor="start" x="7.5" y="-782" font-family="monospace" font-size="10.00">../run20/amended_consensus.fasta</text>
<text text-anchor="start" x="7.5" y="-764" font-family="monospace" font-size="10.00">../run21/amended_consensus.fasta</text>
<text text-anchor="start" x="7.5" y="-746" font-family="monospace" font-size="10.00">../run22/amended_consensus.fasta</text>
<text text-anchor="start" x="7.5" y="-728" font-family="monospace" font-size="10.00">../run23/amended_consensus.fasta</text>
<text text-anchor="start" x="7.5" y="-710" font-family="monospace" font-size="10.00">../run24/amended_consensus.fasta</text>
<text text-anchor="start" x="7.5" y="-692" font-family="monospace" font-size="10.00">../run25/amended_consensus.fasta</text>
<text text-anchor="start" x="7.5" y="-674" font-family="monospace" font-size="10.00">../run26/amended_consensus.fasta</text>
<text text-anchor="start" x="7.5" y="-656" font-family="monospace" font-size="10.00">../run3/amended_consensus.fasta</text>
<text text-anchor="start" x="7.5" y="-638" font-family="monospace" font-size="10.00">../run8/amended_consensus.fasta</text>
<text text-anchor="start" x="7.5" y="-620" font-family="monospace" font-size="10.00">../run9/amended_consensus.fasta</text>
<text text-anchor="start" x="7.5" y="-602" font-family="monospace" font-size="10.00">../run_agro/amended_consensus.fasta</text>
<text text-anchor="start" x="7.5" y="-584" font-family="monospace" font-size="10.00">config/flu_filtrado.csv</text>
<text text-anchor="start" x="274.5" y="-563.8" font-family="sans" font-size="10.00"> </text>
<text text-anchor="start" x="277.5" y="-563.8" font-family="sans" font-weight="bold" font-size="14.00">output →</text>
<text text-anchor="start" x="341.5" y="-563.8" font-family="sans" font-size="10.00"> </text>
<text text-anchor="start" x="7.5" y="-544" font-family="monospace" font-size="10.00">data/all_amended_fasta</text>
<text text-anchor="start" x="7.5" y="-526" font-family="monospace" font-size="10.00">data/assembled/ecuador_intermediate_audit.csv</text>
<text text-anchor="start" x="7.5" y="-508" font-family="monospace" font-size="10.00">data/assembled/ecuador_intermediate_expected_lengths.csv</text>
<text text-anchor="start" x="7.5" y="-490" font-family="monospace" font-size="10.00">data/assembled/ecuador_intermediate_issues.csv</text>
<text text-anchor="start" x="7.5" y="-472" font-family="monospace" font-size="10.00">data/assembled/ecuador_intermediate_per_sample</text>
<text text-anchor="start" x="7.5" y="-454" font-family="monospace" font-size="10.00">data/assembled/ecuador_intermediate_raw_segments.csv</text>
<text text-anchor="start" x="7.5" y="-436" font-family="monospace" font-size="10.00">data/assembled/ecuador_intermediate_sequences.fasta</text>
<text text-anchor="start" x="7.5" y="-418" font-family="monospace" font-size="10.00">data/assembled/ecuador_intermediate_summary.csv</text>
<polygon fill="#d9d957" stroke="#d9d957" points="1.5,-906 1.5,-906 351.5,-906 351.5,-906 1.5,-906"/>
<polygon fill="#d9d957" stroke="#d9d957" points="1.5,-578 1.5,-578 351.5,-578 351.5,-578 1.5,-578"/>
<polygon fill="none" stroke="#d9d957" stroke-width="2" points="1,-409 1,-935 350,-935 350,-409 1,-409"/>
</g>
<!-- 2&#45;&gt;1 -->
<g id="edge2" class="edge">
<title>2&#45;&gt;1</title>
<path fill="none" stroke="grey" stroke-width="2" d="M175.5,-407.77C175.5,-399.05 175.5,-390.56 175.5,-382.4"/>
<polygon fill="grey" stroke="grey" stroke-width="2" points="179,-382.24 175.5,-372.24 172,-382.24 179,-382.24"/>
</g>
</g>
</svg>
