<?xml version="1.0" encoding="UTF-8" standalone="no"?>
<!DOCTYPE svg PUBLIC "-//W3C//DTD SVG 1.1//EN"
 "http://www.w3.org/Graphics/SVG/1.1/DTD/svg11.dtd">
<!-- Generated by graphviz version 2.43.0 (0)
 -->
<!-- Title: snakemake_dag Pages: 1 -->
<svg width="1508pt" height="2944pt"
 viewBox="0.00 0.00 1507.50 2944.00" xmlns="http://www.w3.org/2000/svg" xmlns:xlink="http://www.w3.org/1999/xlink">
<g id="graph0" class="graph" transform="scale(1 1) rotate(0) translate(4 2940)">
<title>snakemake_dag</title>
<polygon fill="white" stroke="transparent" points="-4,4 -4,-2940 1503.5,-2940 1503.5,4 -4,4"/>
<!-- 0 -->
<g id="node1" class="node">
<title>0</title>
<text text-anchor="start" x="391.5" y="-485.6" font-family="sans" font-weight="bold" font-size="18.00">all</text>
<text text-anchor="start" x="177" y="-461.8" font-family="sans" font-size="10.00"> </text>
<text text-anchor="start" x="180" y="-461.8" font-family="sans" font-weight="bold" font-size="14.00">↪ input</text>
<text text-anchor="start" x="235" y="-461.8" font-family="sans" font-size="10.00"> </text>
<text text-anchor="start" x="177" y="-442" font-family="monospace" font-size="10.00">data/final/H5N1_final.fasta</text>
<text text-anchor="start" x="177" y="-424" font-family="monospace" font-size="10.00">data/final/H5N1_final_beast.fasta</text>
<text text-anchor="start" x="177" y="-406" font-family="monospace" font-size="10.00">data/final/H5N1_final_beast_summary.csv</text>
<text text-anchor="start" x="177" y="-388" font-family="monospace" font-size="10.00">data/input/H5N1_context.fasta</text>
<text text-anchor="start" x="177" y="-370" font-family="monospace" font-size="10.00">data/input/H5N1_context_summary.csv</text>
<text text-anchor="start" x="177" y="-352" font-family="monospace" font-size="10.00">data/phylogeny/aligned/H5N1_full_concat_beast.mafft</text>
<text text-anchor="start" x="177" y="-334" font-family="monospace" font-size="10.00">data/phylogeny/by_segment/H5N1_HA.fasta</text>
<text text-anchor="start" x="177" y="-316" font-family="monospace" font-size="10.00">data/phylogeny/by_segment/H5N1_MP.fasta</text>
<text text-anchor="start" x="177" y="-298" font-family="monospace" font-size="10.00">data/phylogeny/by_segment/H5N1_NA.fasta</text>
<text text-anchor="start" x="177" y="-280" font-family="monospace" font-size="10.00">data/phylogeny/by_segment/H5N1_NP.fasta</text>
<text text-anchor="start" x="177" y="-262" font-family="monospace" font-size="10.00">data/phylogeny/by_segment/H5N1_NS.fasta</text>
<text text-anchor="start" x="177" y="-244" font-family="monospace" font-size="10.00">data/phylogeny/by_segment/H5N1_PA.fasta</text>
<text text-anchor="start" x="177" y="-226" font-family="monospace" font-size="10.00">data/phylogeny/by_segment/H5N1_PB1.fasta</text>
<text text-anchor="start" x="177" y="-208" font-family="monospace" font-size="10.00">data/phylogeny/by_segment/H5N1_PB2.fasta</text>
<text text-anchor="start" x="177" y="-190" font-family="monospace" font-size="10.00">data/phylogeny/by_segment_summary.csv</text>
<text text-anchor="start" x="177" y="-172" font-family="monospace" font-size="10.00">results/phylogeny/raxml/HA/H5N1_HA.raxml.supportTBE</text>
<text text-anchor="start" x="177" y="-154" font-family="monospace" font-size="10.00">results/phylogeny/raxml/MP/H5N1_MP.raxml.supportTBE</text>
<text text-anchor="start" x="177" y="-136" font-family="monospace" font-size="10.00">results/phylogeny/raxml/NA/H5N1_NA.raxml.supportTBE</text>
<text text-anchor="start" x="177" y="-118" font-family="monospace" font-size="10.00">results/phylogeny/raxml/NP/H5N1_NP.raxml.supportTBE</text>
<text text-anchor="start" x="177" y="-100" font-family="monospace" font-size="10.00">results/phylogeny/raxml/NS/H5N1_NS.raxml.supportTBE</text>
<text text-anchor="start" x="177" y="-82" font-family="monospace" font-size="10.00">results/phylogeny/raxml/PA/H5N1_PA.raxml.supportTBE</text>
<text text-anchor="start" x="177" y="-64" font-family="monospace" font-size="10.00">results/phylogeny/raxml/PB1/H5N1_PB1.raxml.supportTBE</text>
<text text-anchor="start" x="177" y="-46" font-family="monospace" font-size="10.00">results/phylogeny/raxml/PB2/H5N1_PB2.raxml.supportTBE</text>
<text text-anchor="start" x="177" y="-28" font-family="monospace" font-size="10.00">results/phylogeny/raxml/full_concat/H5N1_full_concat_beast.raxml.supportTBE</text>
<text text-anchor="start" x="623" y="-10" font-family="sans" font-size="10.00"> &#160;</text>
<polygon fill="#d96757" stroke="#d96757" points="171,-476 171,-476 635,-476 635,-476 171,-476"/>
<polygon fill="#d96757" stroke="#d96757" points="171,-22 171,-22 635,-22 635,-22 171,-22"/>
<polygon fill="none" stroke="#d96757" stroke-width="2" points="170.5,-1 170.5,-505 633.5,-505 633.5,-1 170.5,-1"/>
</g>
<!-- 1 -->
<g id="node2" class="node">
<title>1</title>
<text text-anchor="start" x="83.5" y="-2147.6" font-family="sans" font-weight="bold" font-size="18.00">build_h5n1_final_fasta</text>
<text text-anchor="start" x="35" y="-2123.8" font-family="sans" font-size="10.00"> </text>
<text text-anchor="start" x="38" y="-2123.8" font-family="sans" font-weight="bold" font-size="14.00">↪ input</text>
<text text-anchor="start" x="93" y="-2123.8" font-family="sans" font-size="10.00"> </text>
<text text-anchor="start" x="35" y="-2104" font-family="monospace" font-size="10.00">config/final_metadata_50_per_country_isolates.tsv</text>
<text text-anchor="start" x="35" y="-2086" font-family="monospace" font-size="10.00">data/input/H5N1_EC.fasta</text>
<text text-anchor="start" x="260" y="-2065.8" font-family="sans" font-size="10.00"> </text>
<text text-anchor="start" x="263" y="-2065.8" font-family="sans" font-weight="bold" font-size="14.00">output →</text>
<text text-anchor="start" x="327" y="-2065.8" font-family="sans" font-size="10.00"> </text>
<text text-anchor="start" x="35" y="-2046" font-family="monospace" font-size="10.00">data/final/H5N1_final.fasta</text>
<text text-anchor="start" x="35" y="-2028" font-family="monospace" font-size="10.00">data/input/H5N1_context.fasta</text>
<text text-anchor="start" x="35" y="-2010" font-family="monospace" font-size="10.00">data/input/H5N1_context_summary.csv</text>
<polygon fill="#d9bb57" stroke="#d9bb57" points="29,-2138 29,-2138 337,-2138 337,-2138 29,-2138"/>
<polygon fill="#d9bb57" stroke="#d9bb57" points="29,-2080 29,-2080 337,-2080 337,-2080 29,-2080"/>
<polygon fill="none" stroke="#d9bb57" stroke-width="2" points="28.5,-2001 28.5,-2167 335.5,-2167 335.5,-2001 28.5,-2001"/>
</g>
<!-- 1&#45;&gt;0 -->
<g id="edge1" class="edge">
<title>1&#45;&gt;0</title>
<path fill="none" stroke="grey" stroke-width="2" d="M131.06,-1999.95C77.22,-1904.09 0,-1739.95 0,-1587 0,-1587 0,-1587 0,-928 0,-775.5 76.85,-627.51 163.34,-509.24"/>
<polygon fill="grey" stroke="grey" stroke-width="2" points="166.2,-511.26 169.32,-501.13 160.57,-507.1 166.2,-511.26"/>
</g>
<!-- 4 -->
<g id="node5" class="node">
<title>4</title>
<text text-anchor="start" x="55.5" y="-1649.6" font-family="sans" font-weight="bold" font-size="18.00">build_h5n1_final_beast_fasta</text>
<text text-anchor="start" x="35" y="-1625.8" font-family="sans" font-size="10.00"> </text>
<text text-anchor="start" x="38" y="-1625.8" font-family="sans" font-weight="bold" font-size="14.00">↪ input</text>
<text text-anchor="start" x="93" y="-1625.8" font-family="sans" font-size="10.00"> </text>
<text text-anchor="start" x="35" y="-1606" font-family="monospace" font-size="10.00">config/final_metadata_50_per_country_isolates.tsv</text>
<text text-anchor="start" x="35" y="-1588" font-family="monospace" font-size="10.00">config/flu_filtrado.csv</text>
<text text-anchor="start" x="35" y="-1570" font-family="monospace" font-size="10.00">data/final/H5N1_final.fasta</text>
<text text-anchor="start" x="260" y="-1549.8" font-family="sans" font-size="10.00"> </text>
<text text-anchor="start" x="263" y="-1549.8" font-family="sans" font-weight="bold" font-size="14.00">output →</text>
<text text-anchor="start" x="327" y="-1549.8" font-family="sans" font-size="10.00"> </text>
<text text-anchor="start" x="35" y="-1530" font-family="monospace" font-size="10.00">data/final/H5N1_final_beast.fasta</text>
<text text-anchor="start" x="35" y="-1512" font-family="monospace" font-size="10.00">data/final/H5N1_final_beast_summary.csv</text>
<polygon fill="#d9ab57" stroke="#d9ab57" points="29,-1640 29,-1640 337,-1640 337,-1640 29,-1640"/>
<polygon fill="#d9ab57" stroke="#d9ab57" points="29,-1564 29,-1564 337,-1564 337,-1564 29,-1564"/>
<polygon fill="none" stroke="#d9ab57" stroke-width="2" points="28.5,-1503 28.5,-1669 335.5,-1669 335.5,-1503 28.5,-1503"/>
</g>
<!-- 1&#45;&gt;4 -->
<g id="edge10" class="edge">
<title>1&#45;&gt;4</title>
<path fill="none" stroke="grey" stroke-width="2" d="M182,-1999.98C182,-1911.73 182,-1772.47 182,-1680.44"/>
<polygon fill="grey" stroke="grey" stroke-width="2" points="185.5,-1680.29 182,-1670.29 178.5,-1680.29 185.5,-1680.29"/>
</g>
<!-- 7 -->
<g id="node8" class="node">
<title>7</title>
<text text-anchor="start" x="237" y="-1943.6" font-family="sans" font-weight="bold" font-size="18.00">split_h5n1_final_by_segment</text>
<text text-anchor="start" x="237" y="-1919.8" font-family="sans" font-size="10.00"> </text>
<text text-anchor="start" x="240" y="-1919.8" font-family="sans" font-weight="bold" font-size="14.00">↪ input</text>
<text text-anchor="start" x="295" y="-1919.8" font-family="sans" font-size="10.00"> </text>
<text text-anchor="start" x="237" y="-1900" font-family="monospace" font-size="10.00">data/final/H5N1_final.fasta</text>
<text text-anchor="start" x="422" y="-1879.8" font-family="sans" font-size="10.00"> </text>
<text text-anchor="start" x="425" y="-1879.8" font-family="sans" font-weight="bold" font-size="14.00">output →</text>
<text text-anchor="start" x="489" y="-1879.8" font-family="sans" font-size="10.00"> </text>
<text text-anchor="start" x="237" y="-1860" font-family="monospace" font-size="10.00">data/phylogeny/by_segment/H5N1_HA.fasta</text>
<text text-anchor="start" x="237" y="-1842" font-family="monospace" font-size="10.00">data/phylogeny/by_segment/H5N1_MP.fasta</text>
<text text-anchor="start" x="237" y="-1824" font-family="monospace" font-size="10.00">data/phylogeny/by_segment/H5N1_NA.fasta</text>
<text text-anchor="start" x="237" y="-1806" font-family="monospace" font-size="10.00">data/phylogeny/by_segment/H5N1_NP.fasta</text>
<text text-anchor="start" x="237" y="-1788" font-family="monospace" font-size="10.00">data/phylogeny/by_segment/H5N1_NS.fasta</text>
<text text-anchor="start" x="237" y="-1770" font-family="monospace" font-size="10.00">data/phylogeny/by_segment/H5N1_PA.fasta</text>
<text text-anchor="start" x="237" y="-1752" font-family="monospace" font-size="10.00">data/phylogeny/by_segment/H5N1_PB1.fasta</text>
<text text-anchor="start" x="237" y="-1734" font-family="monospace" font-size="10.00">data/phylogeny/by_segment/H5N1_PB2.fasta</text>
<text text-anchor="start" x="237" y="-1716" font-family="monospace" font-size="10.00">data/phylogeny/by_segment_summary.csv</text>
<polygon fill="#57ccd9" stroke="#57ccd9" points="231,-1934 231,-1934 499,-1934 499,-1934 231,-1934"/>
<polygon fill="#57ccd9" stroke="#57ccd9" points="231,-1894 231,-1894 499,-1894 499,-1894 231,-1894"/>
<polygon fill="none" stroke="#57ccd9" stroke-width="2" points="230.5,-1707 230.5,-1963 497.5,-1963 497.5,-1707 230.5,-1707"/>
</g>
<!-- 1&#45;&gt;7 -->
<g id="edge15" class="edge">
<title>1&#45;&gt;7</title>
<path fill="none" stroke="grey" stroke-width="2" d="M243.36,-1999.72C249.91,-1990.84 256.68,-1981.65 263.53,-1972.35"/>
<polygon fill="grey" stroke="grey" stroke-width="2" points="266.45,-1974.29 269.56,-1964.17 260.81,-1970.14 266.45,-1974.29"/>
</g>
<!-- 2 -->
<g id="node3" class="node">
<title>2</title>
<text text-anchor="start" x="94" y="-2351.6" font-family="sans" font-weight="bold" font-size="18.00">build_h5n1_ec_fasta</text>
<text text-anchor="start" x="44" y="-2327.8" font-family="sans" font-size="10.00"> </text>
<text text-anchor="start" x="47" y="-2327.8" font-family="sans" font-weight="bold" font-size="14.00">↪ input</text>
<text text-anchor="start" x="102" y="-2327.8" font-family="sans" font-size="10.00"> </text>
<text text-anchor="start" x="44" y="-2308" font-family="monospace" font-size="10.00">config/flu_filtrado.csv</text>
<text text-anchor="start" x="44" y="-2290" font-family="monospace" font-size="10.00">data/assembled/ecuador_intermediate_audit.csv</text>
<text text-anchor="start" x="44" y="-2272" font-family="monospace" font-size="10.00">data/assembled/ecuador_intermediate_per_sample</text>
<text text-anchor="start" x="251" y="-2251.8" font-family="sans" font-size="10.00"> </text>
<text text-anchor="start" x="254" y="-2251.8" font-family="sans" font-weight="bold" font-size="14.00">output →</text>
<text text-anchor="start" x="318" y="-2251.8" font-family="sans" font-size="10.00"> </text>
<text text-anchor="start" x="44" y="-2232" font-family="monospace" font-size="10.00">data/input/H5N1_EC.fasta</text>
<text text-anchor="start" x="44" y="-2214" font-family="monospace" font-size="10.00">data/input/H5N1_EC_summary.csv</text>
<polygon fill="#d99a57" stroke="#d99a57" points="38,-2342 38,-2342 328,-2342 328,-2342 38,-2342"/>
<polygon fill="#d99a57" stroke="#d99a57" points="38,-2266 38,-2266 328,-2266 328,-2266 38,-2266"/>
<polygon fill="none" stroke="#d99a57" stroke-width="2" points="37.5,-2205 37.5,-2371 326.5,-2371 326.5,-2205 37.5,-2205"/>
</g>
<!-- 2&#45;&gt;1 -->
<g id="edge8" class="edge">
<title>2&#45;&gt;1</title>
<path fill="none" stroke="grey" stroke-width="2" d="M182,-2203.96C182,-2195.44 182,-2186.74 182,-2178.11"/>
<polygon fill="grey" stroke="grey" stroke-width="2" points="185.5,-2178.04 182,-2168.04 178.5,-2178.04 185.5,-2178.04"/>
</g>
<!-- 3 -->
<g id="node4" class="node">
<title>3</title>
<text text-anchor="start" x="29.5" y="-2915.6" font-family="sans" font-weight="bold" font-size="18.00">build_ecuador_intermediate_input</text>
<text text-anchor="start" x="14" y="-2891.8" font-family="sans" font-size="10.00"> </text>
<text text-anchor="start" x="17" y="-2891.8" font-family="sans" font-weight="bold" font-size="14.00">↪ input</text>
<text text-anchor="start" x="72" y="-2891.8" font-family="sans" font-size="10.00"> </text>
<text text-anchor="start" x="14" y="-2872" font-family="monospace" font-size="10.00">../run1/amended_consensus.fasta</text>
<text text-anchor="start" x="14" y="-2854" font-family="monospace" font-size="10.00">../run10/amended_consensus.fasta</text>
<text text-anchor="start" x="14" y="-2836" font-family="monospace" font-size="10.00">../run12/amended_consensus.fasta</text>
<text text-anchor="start" x="14" y="-2818" font-family="monospace" font-size="10.00">../run17/amended_consensus.fasta</text>
<text text-anchor="start" x="14" y="-2800" font-family="monospace" font-size="10.00">../run2/amended_consensus.fasta</text>
<text text-anchor="start" x="14" y="-2782" font-family="monospace" font-size="10.00">../run20/amended_consensus.fasta</text>
<text text-anchor="start" x="14" y="-2764" font-family="monospace" font-size="10.00">../run21/amended_consensus.fasta</text>
<text text-anchor="start" x="14" y="-2746" font-family="monospace" font-size="10.00">../run22/amended_consensus.fasta</text>
<text text-anchor="start" x="14" y="-2728" font-family="monospace" font-size="10.00">../run23/amended_consensus.fasta</text>
<text text-anchor="start" x="14" y="-2710" font-family="monospace" font-size="10.00">../run24/amended_consensus.fasta</text>
<text text-anchor="start" x="14" y="-2692" font-family="monospace" font-size="10.00">../run25/amended_consensus.fasta</text>
<text text-anchor="start" x="14" y="-2674" font-family="monospace" font-size="10.00">../run26/amended_consensus.fasta</text>
<text text-anchor="start" x="14" y="-2656" font-family="monospace" font-size="10.00">../run3/amended_consensus.fasta</text>
<text text-anchor="start" x="14" y="-2638" font-family="monospace" font-size="10.00">../run8/amended_consensus.fasta</text>
<text text-anchor="start" x="14" y="-2620" font-family="monospace" font-size="10.00">../run9/amended_consensus.fasta</text>
<text text-anchor="start" x="14" y="-2602" font-family="monospace" font-size="10.00">../run_agro/amended_consensus.fasta</text>
<text text-anchor="start" x="14" y="-2584" font-family="monospace" font-size="10.00">config/flu_filtrado.csv</text>
<text text-anchor="start" x="281" y="-2563.8" font-family="sans" font-size="10.00"> </text>
<text text-anchor="start" x="284" y="-2563.8" font-family="sans" font-weight="bold" font-size="14.00">output →</text>
<text text-anchor="start" x="348" y="-2563.8" font-family="sans" font-size="10.00"> </text>
<text text-anchor="start" x="14" y="-2544" font-family="monospace" font-size="10.00">data/all_amended_fasta</text>
<text text-anchor="start" x="14" y="-2526" font-family="monospace" font-size="10.00">data/assembled/ecuador_intermediate_audit.csv</text>
<text text-anchor="start" x="14" y="-2508" font-family="monospace" font-size="10.00">data/assembled/ecuador_intermediate_expected_lengths.csv</text>
<text text-anchor="start" x="14" y="-2490" font-family="monospace" font-size="10.00">data/assembled/ecuador_intermediate_issues.csv</text>
<text text-anchor="start" x="14" y="-2472" font-family="monospace" font-size="10.00">data/assembled/ecuador_intermediate_per_sample</text>
<text text-anchor="start" x="14" y="-2454" font-family="monospace" font-size="10.00">data/assembled/ecuador_intermediate_raw_segments.csv</text>
<text text-anchor="start" x="14" y="-2436" font-family="monospace" font-size="10.00">data/assembled/ecuador_intermediate_sequences.fasta</text>
<text text-anchor="start" x="14" y="-2418" font-family="monospace" font-size="10.00">data/assembled/ecuador_intermediate_summary.csv</text>
<polygon fill="#d97857" stroke="#d97857" points="8,-2906 8,-2906 358,-2906 358,-2906 8,-2906"/>
<polygon fill="#d97857" stroke="#d97857" points="8,-2578 8,-2578 358,-2578 358,-2578 8,-2578"/>
<polygon fill="none" stroke="#d97857" stroke-width="2" points="7.5,-2409 7.5,-2935 356.5,-2935 356.5,-2409 7.5,-2409"/>
</g>
<!-- 3&#45;&gt;2 -->
<g id="edge9" class="edge">
<title>3&#45;&gt;2</title>
<path fill="none" stroke="grey" stroke-width="2" d="M182,-2407.77C182,-2399.05 182,-2390.56 182,-2382.4"/>
<polygon fill="grey" stroke="grey" stroke-width="2" points="185.5,-2382.24 182,-2372.24 178.5,-2382.24 185.5,-2382.24"/>
</g>
<!-- 4&#45;&gt;0 -->
<g id="edge5" class="edge">
<title>4&#45;&gt;0</title>
<path fill="none" stroke="grey" stroke-width="2" d="M209.53,-1501.8C229.85,-1432.96 254,-1332.2 254,-1242 254,-1242 254,-1242 254,-928 254,-790.07 283.93,-639.88 316.88,-516.35"/>
<polygon fill="grey" stroke="grey" stroke-width="2" points="320.34,-516.94 319.56,-506.38 313.58,-515.13 320.34,-516.94"/>
</g>
<!-- 5 -->
<g id="node6" class="node">
<title>5</title>
<text text-anchor="start" x="718" y="-1109.6" font-family="sans" font-weight="bold" font-size="18.00">concat_aligned_segments_with_partitions</text>
<text text-anchor="start" x="718" y="-1085.8" font-family="sans" font-size="10.00"> </text>
<text text-anchor="start" x="721" y="-1085.8" font-family="sans" font-weight="bold" font-size="14.00">↪ input</text>
<text text-anchor="start" x="776" y="-1085.8" font-family="sans" font-size="10.00"> </text>
<text text-anchor="start" x="718" y="-1066" font-family="monospace" font-size="10.00">data/phylogeny/aligned/H5N1_HA.mafft</text>
<text text-anchor="start" x="718" y="-1048" font-family="monospace" font-size="10.00">data/phylogeny/aligned/H5N1_MP.mafft</text>
<text text-anchor="start" x="718" y="-1030" font-family="monospace" font-size="10.00">data/phylogeny/aligned/H5N1_NA.mafft</text>
<text text-anchor="start" x="718" y="-1012" font-family="monospace" font-size="10.00">data/phylogeny/aligned/H5N1_NP.mafft</text>
<text text-anchor="start" x="718" y="-994" font-family="monospace" font-size="10.00">data/phylogeny/aligned/H5N1_NS.mafft</text>
<text text-anchor="start" x="718" y="-976" font-family="monospace" font-size="10.00">data/phylogeny/aligned/H5N1_PA.mafft</text>
<text text-anchor="start" x="718" y="-958" font-family="monospace" font-size="10.00">data/phylogeny/aligned/H5N1_PB1.mafft</text>
<text text-anchor="start" x="718" y="-940" font-family="monospace" font-size="10.00">data/phylogeny/aligned/H5N1_PB2.mafft</text>
<text text-anchor="start" x="718" y="-922" font-family="monospace" font-size="10.00">results/phylogeny/raxml/HA/H5N1_HA.raxml.supportTBE</text>
<text text-anchor="start" x="718" y="-904" font-family="monospace" font-size="10.00">results/phylogeny/raxml/MP/H5N1_MP.raxml.supportTBE</text>
<text text-anchor="start" x="718" y="-886" font-family="monospace" font-size="10.00">results/phylogeny/raxml/NA/H5N1_NA.raxml.supportTBE</text>
<text text-anchor="start" x="718" y="-868" font-family="monospace" font-size="10.00">results/phylogeny/raxml/NP/H5N1_NP.raxml.supportTBE</text>
<text text-anchor="start" x="718" y="-850" font-family="monospace" font-size="10.00">results/phylogeny/raxml/NS/H5N1_NS.raxml.supportTBE</text>
<text text-anchor="start" x="718" y="-832" font-family="monospace" font-size="10.00">results/phylogeny/raxml/PA/H5N1_PA.raxml.supportTBE</text>
<text text-anchor="start" x="718" y="-814" font-family="monospace" font-size="10.00">results/phylogeny/raxml/PB1/H5N1_PB1.raxml.supportTBE</text>
<text text-anchor="start" x="718" y="-796" font-family="monospace" font-size="10.00">results/phylogeny/raxml/PB2/H5N1_PB2.raxml.supportTBE</text>
<text text-anchor="start" x="1020" y="-775.8" font-family="sans" font-size="10.00"> </text>
<text text-anchor="start" x="1023" y="-775.8" font-family="sans" font-weight="bold" font-size="14.00">output →</text>
<text text-anchor="start" x="1087" y="-775.8" font-family="sans" font-size="10.00"> </text>
<text text-anchor="start" x="718" y="-756" font-family="monospace" font-size="10.00">data/phylogeny/H5N1_full_concat_beast.partitions</text>
<text text-anchor="start" x="718" y="-738" font-family="monospace" font-size="10.00">data/phylogeny/aligned/H5N1_full_concat_beast.mafft</text>
<polygon fill="#d5d957" stroke="#d5d957" points="712,-1100 712,-1100 1097,-1100 1097,-1100 712,-1100"/>
<polygon fill="#d5d957" stroke="#d5d957" points="712,-790 712,-790 1097,-790 1097,-790 712,-790"/>
<polygon fill="none" stroke="#d5d957" stroke-width="2" points="712,-729 712,-1129 1096,-1129 1096,-729 712,-729"/>
</g>
<!-- 5&#45;&gt;0 -->
<g id="edge2" class="edge">
<title>5&#45;&gt;0</title>
<path fill="none" stroke="grey" stroke-width="2" d="M972.78,-727.62C982.68,-664.52 980.15,-597.01 947,-542 880.78,-432.12 757.07,-361.99 644.23,-318.48"/>
<polygon fill="grey" stroke="grey" stroke-width="2" points="645.34,-315.16 634.74,-314.88 642.85,-321.7 645.34,-315.16"/>
</g>
<!-- 11 -->
<g id="node12" class="node">
<title>11</title>
<text text-anchor="start" x="541.5" y="-671.6" font-family="sans" font-weight="bold" font-size="18.00">raxml_ng_tree_full_concat_beast</text>
<text text-anchor="start" x="438" y="-647.8" font-family="sans" font-size="10.00"> </text>
<text text-anchor="start" x="441" y="-647.8" font-family="sans" font-weight="bold" font-size="14.00">↪ input</text>
<text text-anchor="start" x="496" y="-647.8" font-family="sans" font-size="10.00"> </text>
<text text-anchor="start" x="438" y="-628" font-family="monospace" font-size="10.00">data/phylogeny/H5N1_full_concat_beast.partitions</text>
<text text-anchor="start" x="438" y="-610" font-family="monospace" font-size="10.00">data/phylogeny/aligned/H5N1_full_concat_beast.mafft</text>
<text text-anchor="start" x="861" y="-589.8" font-family="sans" font-size="10.00"> </text>
<text text-anchor="start" x="864" y="-589.8" font-family="sans" font-weight="bold" font-size="14.00">output →</text>
<text text-anchor="start" x="928" y="-589.8" font-family="sans" font-size="10.00"> </text>
<text text-anchor="start" x="438" y="-570" font-family="monospace" font-size="10.00">results/phylogeny/raxml/full_concat/H5N1_full_concat_beast.raxml.bestTreeCollapsed</text>
<text text-anchor="start" x="438" y="-552" font-family="monospace" font-size="10.00">results/phylogeny/raxml/full_concat/H5N1_full_concat_beast.raxml.supportTBE</text>
<polygon fill="#a2d957" stroke="#a2d957" points="432,-662 432,-662 938,-662 938,-662 432,-662"/>
<polygon fill="#a2d957" stroke="#a2d957" points="432,-604 432,-604 938,-604 938,-604 432,-604"/>
<polygon fill="none" stroke="#a2d957" stroke-width="2" points="431.5,-543 431.5,-691 936.5,-691 936.5,-543 431.5,-543"/>
</g>
<!-- 5&#45;&gt;11 -->
<g id="edge20" class="edge">
<title>5&#45;&gt;11</title>
<path fill="none" stroke="grey" stroke-width="2" d="M761.87,-727.73C755.22,-718.35 748.73,-709.21 742.53,-700.47"/>
<polygon fill="grey" stroke="grey" stroke-width="2" points="745.31,-698.35 736.67,-692.22 739.6,-702.4 745.31,-698.35"/>
</g>
<!-- 6 -->
<g id="node7" class="node">
<title>6</title>
<text text-anchor="start" x="791.5" y="-1622.6" font-family="sans" font-weight="bold" font-size="18.00">mafft_align_per_segment</text>
<text text-anchor="start" x="766" y="-1598.8" font-family="sans" font-size="10.00"> </text>
<text text-anchor="start" x="769" y="-1598.8" font-family="sans" font-weight="bold" font-size="14.00">↪ input</text>
<text text-anchor="start" x="824" y="-1598.8" font-family="sans" font-size="10.00"> </text>
<text text-anchor="start" x="766" y="-1579" font-family="monospace" font-size="10.00">data/phylogeny/by_segment/H5N1_{segment}.fasta</text>
<text text-anchor="start" x="973" y="-1558.8" font-family="sans" font-size="10.00"> </text>
<text text-anchor="start" x="976" y="-1558.8" font-family="sans" font-weight="bold" font-size="14.00">output →</text>
<text text-anchor="start" x="1040" y="-1558.8" font-family="sans" font-size="10.00"> </text>
<text text-anchor="start" x="766" y="-1539" font-family="monospace" font-size="10.00">data/phylogeny/aligned/H5N1_{segment}.mafft</text>
<polygon fill="#b3d957" stroke="#b3d957" points="760,-1613 760,-1613 1050,-1613 1050,-1613 760,-1613"/>
<polygon fill="#b3d957" stroke="#b3d957" points="760,-1573 760,-1573 1050,-1573 1050,-1573 760,-1573"/>
<polygon fill="none" stroke="#b3d957" stroke-width="2" points="759.5,-1530 759.5,-1642 1048.5,-1642 1048.5,-1530 759.5,-1530"/>
</g>
<!-- 6&#45;&gt;5 -->
<g id="edge13" class="edge">
<title>6&#45;&gt;5</title>
<path fill="none" stroke="grey" stroke-width="2" d="M904,-1528.87C904,-1443.48 904,-1276.49 904,-1140.5"/>
<polygon fill="grey" stroke="grey" stroke-width="2" points="907.5,-1140.35 904,-1130.35 900.5,-1140.35 907.5,-1140.35"/>
</g>
<!-- 8 -->
<g id="node9" class="node">
<title>8</title>
<text text-anchor="start" x="1060" y="-1295.6" font-family="sans" font-weight="bold" font-size="18.00">raxml_ng_tree_per_segment_codon</text>
<text text-anchor="start" x="940" y="-1271.8" font-family="sans" font-size="10.00"> </text>
<text text-anchor="start" x="943" y="-1271.8" font-family="sans" font-weight="bold" font-size="14.00">↪ input</text>
<text text-anchor="start" x="998" y="-1271.8" font-family="sans" font-size="10.00"> </text>
<text text-anchor="start" x="940" y="-1252" font-family="monospace" font-size="10.00">data/phylogeny/aligned/H5N1_{segment}.mafft</text>
<text text-anchor="start" x="940" y="-1234" font-family="monospace" font-size="10.00">data/phylogeny/codon_partitions/H5N1_{segment}.codon.partitions</text>
<text text-anchor="start" x="1423" y="-1213.8" font-family="sans" font-size="10.00"> </text>
<text text-anchor="start" x="1426" y="-1213.8" font-family="sans" font-weight="bold" font-size="14.00">output →</text>
<text text-anchor="start" x="1490" y="-1213.8" font-family="sans" font-size="10.00"> </text>
<text text-anchor="start" x="940" y="-1194" font-family="monospace" font-size="10.00">results/phylogeny/raxml/{segment,PB2|PB1|PA|HA|NP|NA}/H5N1_{segment}.raxml.bestTreeCollapsed</text>
<text text-anchor="start" x="940" y="-1176" font-family="monospace" font-size="10.00">results/phylogeny/raxml/{segment,PB2|PB1|PA|HA|NP|NA}/H5N1_{segment}.raxml.supportTBE</text>
<polygon fill="#70d957" stroke="#70d957" points="934,-1286 934,-1286 1500,-1286 1500,-1286 934,-1286"/>
<polygon fill="#70d957" stroke="#70d957" points="934,-1228 934,-1228 1500,-1228 1500,-1228 934,-1228"/>
<polygon fill="none" stroke="#70d957" stroke-width="2" points="933.5,-1167 933.5,-1315 1498.5,-1315 1498.5,-1167 933.5,-1167"/>
</g>
<!-- 6&#45;&gt;8 -->
<g id="edge17" class="edge">
<title>6&#45;&gt;8</title>
<path fill="none" stroke="grey" stroke-width="2" d="M912.13,-1528.91C921.83,-1468.8 939.6,-1378.43 962,-1352 971.28,-1341.05 981.85,-1331.16 993.28,-1322.23"/>
<polygon fill="grey" stroke="grey" stroke-width="2" points="995.42,-1325 1001.33,-1316.2 991.22,-1319.4 995.42,-1325"/>
</g>
<!-- 9 -->
<g id="node10" class="node">
<title>9</title>
<text text-anchor="start" x="1083" y="-1445.6" font-family="sans" font-weight="bold" font-size="18.00">build_segment_codon_partitions</text>
<text text-anchor="start" x="978" y="-1421.8" font-family="sans" font-size="10.00"> </text>
<text text-anchor="start" x="981" y="-1421.8" font-family="sans" font-weight="bold" font-size="14.00">↪ input</text>
<text text-anchor="start" x="1036" y="-1421.8" font-family="sans" font-size="10.00"> </text>
<text text-anchor="start" x="978" y="-1402" font-family="monospace" font-size="10.00">data/phylogeny/aligned/H5N1_{segment}.mafft</text>
<text text-anchor="start" x="1407" y="-1381.8" font-family="sans" font-size="10.00"> </text>
<text text-anchor="start" x="1410" y="-1381.8" font-family="sans" font-weight="bold" font-size="14.00">output →</text>
<text text-anchor="start" x="1474" y="-1381.8" font-family="sans" font-size="10.00"> </text>
<text text-anchor="start" x="978" y="-1362" font-family="monospace" font-size="10.00">data/phylogeny/codon_partitions/H5N1_{segment,PB2|PB1|PA|HA|NP|NA}.codon.partitions</text>
<polygon fill="#d9cc57" stroke="#d9cc57" points="972,-1436 972,-1436 1484,-1436 1484,-1436 972,-1436"/>
<polygon fill="#d9cc57" stroke="#d9cc57" points="972,-1396 972,-1396 1484,-1396 1484,-1396 972,-1396"/>
<polygon fill="none" stroke="#d9cc57" stroke-width="2" points="971.5,-1353 971.5,-1465 1482.5,-1465 1482.5,-1353 971.5,-1353"/>
</g>
<!-- 6&#45;&gt;9 -->
<g id="edge18" class="edge">
<title>6&#45;&gt;9</title>
<path fill="none" stroke="grey" stroke-width="2" d="M1007.53,-1528.91C1041.58,-1510.46 1079.59,-1489.87 1114.28,-1471.07"/>
<polygon fill="grey" stroke="grey" stroke-width="2" points="1116.38,-1473.92 1123.5,-1466.08 1113.04,-1467.76 1116.38,-1473.92"/>
</g>
<!-- 10 -->
<g id="node11" class="node">
<title>10</title>
<text text-anchor="start" x="476" y="-1286.6" font-family="sans" font-weight="bold" font-size="18.00">raxml_ng_tree_per_segment_simple</text>
<text text-anchor="start" x="400" y="-1262.8" font-family="sans" font-size="10.00"> </text>
<text text-anchor="start" x="403" y="-1262.8" font-family="sans" font-weight="bold" font-size="14.00">↪ input</text>
<text text-anchor="start" x="458" y="-1262.8" font-family="sans" font-size="10.00"> </text>
<text text-anchor="start" x="400" y="-1243" font-family="monospace" font-size="10.00">data/phylogeny/aligned/H5N1_{segment}.mafft</text>
<text text-anchor="start" x="799" y="-1222.8" font-family="sans" font-size="10.00"> </text>
<text text-anchor="start" x="802" y="-1222.8" font-family="sans" font-weight="bold" font-size="14.00">output →</text>
<text text-anchor="start" x="866" y="-1222.8" font-family="sans" font-size="10.00"> </text>
<text text-anchor="start" x="400" y="-1203" font-family="monospace" font-size="10.00">results/phylogeny/raxml/{segment,NS|MP}/H5N1_{segment}.raxml.bestTreeCollapsed</text>
<text text-anchor="start" x="400" y="-1185" font-family="monospace" font-size="10.00">results/phylogeny/raxml/{segment,NS|MP}/H5N1_{segment}.raxml.supportTBE</text>
<polygon fill="#57d95f" stroke="#57d95f" points="394,-1277 394,-1277 876,-1277 876,-1277 394,-1277"/>
<polygon fill="#57d95f" stroke="#57d95f" points="394,-1237 394,-1237 876,-1237 876,-1237 394,-1237"/>
<polygon fill="none" stroke="#57d95f" stroke-width="2" points="393.5,-1176 393.5,-1306 874.5,-1306 874.5,-1176 393.5,-1176"/>
</g>
<!-- 6&#45;&gt;10 -->
<g id="edge19" class="edge">
<title>6&#45;&gt;10</title>
<path fill="none" stroke="grey" stroke-width="2" d="M859.72,-1528.74C813.81,-1470.42 741.84,-1379 691.55,-1315.11"/>
<polygon fill="grey" stroke="grey" stroke-width="2" points="694.16,-1312.76 685.22,-1307.07 688.66,-1317.09 694.16,-1312.76"/>
</g>
<!-- 7&#45;&gt;0 -->
<g id="edge4" class="edge">
<title>7&#45;&gt;0</title>
<path fill="none" stroke="grey" stroke-width="2" d="M364,-1705.98C364,-1621.85 364,-1509.38 364,-1410 364,-1410 364,-1410 364,-928 364,-792.07 371.8,-640.96 380.33,-516.33"/>
<polygon fill="grey" stroke="grey" stroke-width="2" points="383.83,-516.48 381.03,-506.26 376.85,-515.99 383.83,-516.48"/>
</g>
<!-- 7&#45;&gt;6 -->
<g id="edge14" class="edge">
<title>7&#45;&gt;6</title>
<path fill="none" stroke="grey" stroke-width="2" d="M498.52,-1772.47C582.08,-1734.25 688.99,-1685.35 772.06,-1647.35"/>
<polygon fill="grey" stroke="grey" stroke-width="2" points="773.66,-1650.47 781.29,-1643.13 770.74,-1644.1 773.66,-1650.47"/>
</g>
<!-- 8&#45;&gt;0 -->
<g id="edge6" class="edge">
<title>8&#45;&gt;0</title>
<path fill="none" stroke="grey" stroke-width="2" d="M1213.69,-1165.9C1204.97,-1022.01 1164.18,-704.7 976,-542 878.99,-458.12 753.28,-391.48 644.24,-343.52"/>
<polygon fill="grey" stroke="grey" stroke-width="2" points="645.31,-340.17 634.75,-339.37 642.51,-346.58 645.31,-340.17"/>
</g>
<!-- 8&#45;&gt;5 -->
<g id="edge11" class="edge">
<title>8&#45;&gt;5</title>
<path fill="none" stroke="grey" stroke-width="2" d="M1141.27,-1165.75C1129.63,-1154.19 1117.16,-1141.79 1104.24,-1128.96"/>
<polygon fill="grey" stroke="grey" stroke-width="2" points="1106.59,-1126.35 1097.03,-1121.79 1101.65,-1131.32 1106.59,-1126.35"/>
</g>
<!-- 9&#45;&gt;8 -->
<g id="edge16" class="edge">
<title>9&#45;&gt;8</title>
<path fill="none" stroke="grey" stroke-width="2" d="M1223.28,-1351.8C1222.73,-1343.55 1222.16,-1334.91 1221.58,-1326.25"/>
<polygon fill="grey" stroke="grey" stroke-width="2" points="1225.06,-1325.84 1220.91,-1316.09 1218.08,-1326.3 1225.06,-1325.84"/>
</g>
<!-- 10&#45;&gt;0 -->
<g id="edge3" class="edge">
<title>10&#45;&gt;0</title>
<path fill="none" stroke="grey" stroke-width="2" d="M600.68,-1174.65C551.25,-1074.01 460.23,-873.68 422,-692 410.17,-635.76 403.57,-574.59 400.16,-516.29"/>
<polygon fill="grey" stroke="grey" stroke-width="2" points="403.65,-515.99 399.6,-506.2 396.66,-516.38 403.65,-515.99"/>
</g>
<!-- 10&#45;&gt;5 -->
<g id="edge12" class="edge">
<title>10&#45;&gt;5</title>
<path fill="none" stroke="grey" stroke-width="2" d="M690.93,-1174.64C700.89,-1163.2 711.71,-1150.78 723.02,-1137.79"/>
<polygon fill="grey" stroke="grey" stroke-width="2" points="725.81,-1139.92 729.74,-1130.08 720.53,-1135.32 725.81,-1139.92"/>
</g>
<!-- 11&#45;&gt;0 -->
<g id="edge7" class="edge">
<title>11&#45;&gt;0</title>
<path fill="none" stroke="grey" stroke-width="2" d="M626.25,-541.87C619.45,-533.14 612.25,-523.9 604.76,-514.29"/>
<polygon fill="grey" stroke="grey" stroke-width="2" points="607.31,-511.86 598.41,-506.13 601.79,-516.16 607.31,-511.86"/>
</g>
</g>
</svg>
