<?xml version="1.0" encoding="UTF-8" standalone="no"?>
<!DOCTYPE svg PUBLIC "-//W3C//DTD SVG 1.1//EN"
 "http://www.w3.org/Graphics/SVG/1.1/DTD/svg11.dtd">
<!-- Generated by graphviz version 2.43.0 (0)
 -->
<!-- Title: snakemake_dag Pages: 1 -->
<svg width="184pt" height="188pt"
 viewBox="0.00 0.00 184.00 188.00" xmlns="http://www.w3.org/2000/svg" xmlns:xlink="http://www.w3.org/1999/xlink">
<g id="graph0" class="graph" transform="scale(1 1) rotate(0) translate(4 184)">
<title>snakemake_dag</title>
<polygon fill="white" stroke="transparent" points="-4,4 -4,-184 180,-184 180,4 -4,4"/>
<!-- 0 -->
<g id="node1" class="node">
<title>0</title>
<path fill="none" stroke="#56d8d8" stroke-width="2" d="M135.5,-36C135.5,-36 40.5,-36 40.5,-36 34.5,-36 28.5,-30 28.5,-24 28.5,-24 28.5,-12 28.5,-12 28.5,-6 34.5,0 40.5,0 40.5,0 135.5,0 135.5,0 141.5,0 147.5,-6 147.5,-12 147.5,-12 147.5,-24 147.5,-24 147.5,-30 141.5,-36 135.5,-36"/>
<text text-anchor="middle" x="88" y="-15.5" font-family="sans" font-size="10.00">build_h5n1_final_fasta</text>
</g>
<!-- 1 -->
<g id="node2" class="node">
<title>1</title>
<path fill="none" stroke="#59d856" stroke-width="2" d="M131,-108C131,-108 45,-108 45,-108 39,-108 33,-102 33,-96 33,-96 33,-84 33,-84 33,-78 39,-72 45,-72 45,-72 131,-72 131,-72 137,-72 143,-78 143,-84 143,-84 143,-96 143,-96 143,-102 137,-108 131,-108"/>
<text text-anchor="middle" x="88" y="-87.5" font-family="sans" font-size="10.00">build_h5n1_ec_fasta</text>
</g>
<!-- 1&#45;&gt;0 -->
<g id="edge1" class="edge">
<title>1&#45;&gt;0</title>
<path fill="none" stroke="grey" stroke-width="2" d="M88,-71.7C88,-63.98 88,-54.71 88,-46.11"/>
<polygon fill="grey" stroke="grey" stroke-width="2" points="91.5,-46.1 88,-36.1 84.5,-46.1 91.5,-46.1"/>
</g>
<!-- 2 -->
<g id="node3" class="node">
<title>2</title>
<path fill="none" stroke="#d6d856" stroke-width="2" d="M164,-180C164,-180 12,-180 12,-180 6,-180 0,-174 0,-168 0,-168 0,-156 0,-156 0,-150 6,-144 12,-144 12,-144 164,-144 164,-144 170,-144 176,-150 176,-156 176,-156 176,-168 176,-168 176,-174 170,-180 164,-180"/>
<text text-anchor="middle" x="88" y="-159.5" font-family="sans" font-size="10.00">build_ecuador_intermediate_input</text>
</g>
<!-- 2&#45;&gt;1 -->
<g id="edge2" class="edge">
<title>2&#45;&gt;1</title>
<path fill="none" stroke="grey" stroke-width="2" d="M88,-143.7C88,-135.98 88,-126.71 88,-118.11"/>
<polygon fill="grey" stroke="grey" stroke-width="2" points="91.5,-118.1 88,-108.1 84.5,-118.1 91.5,-118.1"/>
</g>
</g>
</svg>
