<?xml version="1.0" encoding="UTF-8" standalone="no"?>
<!DOCTYPE svg PUBLIC "-//W3C//DTD SVG 1.1//EN"
 "http://www.w3.org/Graphics/SVG/1.1/DTD/svg11.dtd">
<!-- Generated by graphviz version 2.43.0 (0)
 -->
<!-- Title: snakemake_dag Pages: 1 -->
<svg width="2097pt" height="692pt"
 viewBox="0.00 0.00 2097.00 692.00" xmlns="http://www.w3.org/2000/svg" xmlns:xlink="http://www.w3.org/1999/xlink">
<g id="graph0" class="graph" transform="scale(1 1) rotate(0) translate(4 688)">
<title>snakemake_dag</title>
<polygon fill="white" stroke="transparent" points="-4,4 -4,-688 2093,-688 2093,4 -4,4"/>
<!-- 0 -->
<g id="node1" class="node">
<title>0</title>
<path fill="none" stroke="#d86656" stroke-width="2" d="M1061,-36C1061,-36 1031,-36 1031,-36 1025,-36 1019,-30 1019,-24 1019,-24 1019,-12 1019,-12 1019,-6 1025,0 1031,0 1031,0 1061,0 1061,0 1067,0 1073,-6 1073,-12 1073,-12 1073,-24 1073,-24 1073,-30 1067,-36 1061,-36"/>
<text text-anchor="middle" x="1046" y="-15.5" font-family="sans" font-size="10.00">all</text>
</g>
<!-- 1 -->
<g id="node2" class="node">
<title>1</title>
<path fill="none" stroke="#d8bc56" stroke-width="2" d="M135.5,-540C135.5,-540 40.5,-540 40.5,-540 34.5,-540 28.5,-534 28.5,-528 28.5,-528 28.5,-516 28.5,-516 28.5,-510 34.5,-504 40.5,-504 40.5,-504 135.5,-504 135.5,-504 141.5,-504 147.5,-510 147.5,-516 147.5,-516 147.5,-528 147.5,-528 147.5,-534 141.5,-540 135.5,-540"/>
<text text-anchor="middle" x="88" y="-519.5" font-family="sans" font-size="10.00">build_h5n1_final_fasta</text>
</g>
<!-- 1&#45;&gt;0 -->
<g id="edge1" class="edge">
<title>1&#45;&gt;0</title>
<path fill="none" stroke="grey" stroke-width="2" d="M80.31,-503.91C69.21,-477.62 50,-425.45 50,-379 50,-379 50,-379 50,-161 50,-32.54 198.93,-96.66 325,-72 582.82,-21.56 901.04,-18.17 1008.53,-18.61"/>
<polygon fill="grey" stroke="grey" stroke-width="2" points="1008.83,-22.11 1018.85,-18.67 1008.87,-15.11 1008.83,-22.11"/>
</g>
<!-- 4 -->
<g id="node5" class="node">
<title>4</title>
<path fill="none" stroke="#d8ac56" stroke-width="2" d="M284.5,-180C284.5,-180 159.5,-180 159.5,-180 153.5,-180 147.5,-174 147.5,-168 147.5,-168 147.5,-156 147.5,-156 147.5,-150 153.5,-144 159.5,-144 159.5,-144 284.5,-144 284.5,-144 290.5,-144 296.5,-150 296.5,-156 296.5,-156 296.5,-168 296.5,-168 296.5,-174 290.5,-180 284.5,-180"/>
<text text-anchor="middle" x="222" y="-159.5" font-family="sans" font-size="10.00">build_h5n1_final_beast_fasta</text>
</g>
<!-- 1&#45;&gt;4 -->
<g id="edge16" class="edge">
<title>1&#45;&gt;4</title>
<path fill="none" stroke="grey" stroke-width="2" d="M88,-503.95C88,-477.29 88,-424.11 88,-379 88,-379 88,-379 88,-305 88,-263.26 90.72,-247.59 118,-216 129.46,-202.73 145.05,-192.38 160.68,-184.48"/>
<polygon fill="grey" stroke="grey" stroke-width="2" points="162.32,-187.57 169.85,-180.12 159.31,-181.25 162.32,-187.57"/>
</g>
<!-- 7 -->
<g id="node8" class="node">
<title>7</title>
<path fill="none" stroke="#56c9d8" stroke-width="2" d="M1168.5,-468C1168.5,-468 1043.5,-468 1043.5,-468 1037.5,-468 1031.5,-462 1031.5,-456 1031.5,-456 1031.5,-444 1031.5,-444 1031.5,-438 1037.5,-432 1043.5,-432 1043.5,-432 1168.5,-432 1168.5,-432 1174.5,-432 1180.5,-438 1180.5,-444 1180.5,-444 1180.5,-456 1180.5,-456 1180.5,-462 1174.5,-468 1168.5,-468"/>
<text text-anchor="middle" x="1106" y="-447.5" font-family="sans" font-size="10.00">split_h5n1_final_by_segment</text>
</g>
<!-- 1&#45;&gt;7 -->
<g id="edge34" class="edge">
<title>1&#45;&gt;7</title>
<path fill="none" stroke="grey" stroke-width="2" d="M147.51,-516.91C319.93,-505.05 820.34,-470.64 1021.15,-456.83"/>
<polygon fill="grey" stroke="grey" stroke-width="2" points="1021.61,-460.31 1031.35,-456.13 1021.13,-453.33 1021.61,-460.31"/>
</g>
<!-- 2 -->
<g id="node3" class="node">
<title>2</title>
<path fill="none" stroke="#d89c56" stroke-width="2" d="M131,-612C131,-612 45,-612 45,-612 39,-612 33,-606 33,-600 33,-600 33,-588 33,-588 33,-582 39,-576 45,-576 45,-576 131,-576 131,-576 137,-576 143,-582 143,-588 143,-588 143,-600 143,-600 143,-606 137,-612 131,-612"/>
<text text-anchor="middle" x="88" y="-591.5" font-family="sans" font-size="10.00">build_h5n1_ec_fasta</text>
</g>
<!-- 2&#45;&gt;1 -->
<g id="edge14" class="edge">
<title>2&#45;&gt;1</title>
<path fill="none" stroke="grey" stroke-width="2" d="M88,-575.7C88,-567.98 88,-558.71 88,-550.11"/>
<polygon fill="grey" stroke="grey" stroke-width="2" points="91.5,-550.1 88,-540.1 84.5,-550.1 91.5,-550.1"/>
</g>
<!-- 3 -->
<g id="node4" class="node">
<title>3</title>
<path fill="none" stroke="#d87556" stroke-width="2" d="M164,-684C164,-684 12,-684 12,-684 6,-684 0,-678 0,-672 0,-672 0,-660 0,-660 0,-654 6,-648 12,-648 12,-648 164,-648 164,-648 170,-648 176,-654 176,-660 176,-660 176,-672 176,-672 176,-678 170,-684 164,-684"/>
<text text-anchor="middle" x="88" y="-663.5" font-family="sans" font-size="10.00">build_ecuador_intermediate_input</text>
</g>
<!-- 3&#45;&gt;2 -->
<g id="edge15" class="edge">
<title>3&#45;&gt;2</title>
<path fill="none" stroke="grey" stroke-width="2" d="M88,-647.7C88,-639.98 88,-630.71 88,-622.11"/>
<polygon fill="grey" stroke="grey" stroke-width="2" points="91.5,-622.1 88,-612.1 84.5,-622.1 91.5,-622.1"/>
</g>
<!-- 4&#45;&gt;0 -->
<g id="edge2" class="edge">
<title>4&#45;&gt;0</title>
<path fill="none" stroke="grey" stroke-width="2" d="M252.83,-143.82C292,-122.91 362.3,-88.35 427,-72 538.29,-43.88 892.45,-25.88 1008.66,-20.61"/>
<polygon fill="grey" stroke="grey" stroke-width="2" points="1009,-24.1 1018.84,-20.16 1008.69,-17.11 1009,-24.1"/>
</g>
<!-- 5 -->
<g id="node6" class="node">
<title>5</title>
<path fill="none" stroke="#d6d856" stroke-width="2" d="M1163,-180C1163,-180 979,-180 979,-180 973,-180 967,-174 967,-168 967,-168 967,-156 967,-156 967,-150 973,-144 979,-144 979,-144 1163,-144 1163,-144 1169,-144 1175,-150 1175,-156 1175,-156 1175,-168 1175,-168 1175,-174 1169,-180 1163,-180"/>
<text text-anchor="middle" x="1071" y="-159.5" font-family="sans" font-size="10.00">concat_aligned_segments_with_partitions</text>
</g>
<!-- 5&#45;&gt;0 -->
<g id="edge3" class="edge">
<title>5&#45;&gt;0</title>
<path fill="none" stroke="grey" stroke-width="2" d="M1103.53,-143.98C1116.79,-135.18 1130.7,-123.09 1138,-108 1144.97,-93.6 1146.01,-85.85 1138,-72 1126.11,-51.43 1102.87,-38.14 1082.72,-30.01"/>
<polygon fill="grey" stroke="grey" stroke-width="2" points="1083.73,-26.65 1073.14,-26.42 1081.28,-33.21 1083.73,-26.65"/>
</g>
<!-- 29 -->
<g id="node30" class="node">
<title>29</title>
<path fill="none" stroke="#9fd856" stroke-width="2" d="M1117,-108C1117,-108 975,-108 975,-108 969,-108 963,-102 963,-96 963,-96 963,-84 963,-84 963,-78 969,-72 975,-72 975,-72 1117,-72 1117,-72 1123,-72 1129,-78 1129,-84 1129,-84 1129,-96 1129,-96 1129,-102 1123,-108 1117,-108"/>
<text text-anchor="middle" x="1046" y="-87.5" font-family="sans" font-size="10.00">raxml_ng_tree_full_concat_beast</text>
</g>
<!-- 5&#45;&gt;29 -->
<g id="edge62" class="edge">
<title>5&#45;&gt;29</title>
<path fill="none" stroke="grey" stroke-width="2" d="M1064.82,-143.7C1062,-135.81 1058.61,-126.3 1055.48,-117.55"/>
<polygon fill="grey" stroke="grey" stroke-width="2" points="1058.77,-116.34 1052.11,-108.1 1052.18,-118.7 1058.77,-116.34"/>
</g>
<!-- 6 -->
<g id="node7" class="node">
<title>6</title>
<path fill="none" stroke="#afd856" stroke-width="2" d="M348,-396C348,-396 238,-396 238,-396 232,-396 226,-390 226,-384 226,-384 226,-372 226,-372 226,-366 232,-360 238,-360 238,-360 348,-360 348,-360 354,-360 360,-366 360,-372 360,-372 360,-384 360,-384 360,-390 354,-396 348,-396"/>
<text text-anchor="middle" x="293" y="-381" font-family="sans" font-size="10.00">mafft_align_per_segment</text>
<text text-anchor="middle" x="293" y="-370" font-family="sans" font-size="10.00">segment: PB2</text>
</g>
<!-- 6&#45;&gt;5 -->
<g id="edge17" class="edge">
<title>6&#45;&gt;5</title>
<path fill="none" stroke="grey" stroke-width="2" d="M307.44,-359.85C315.14,-349.93 324.2,-336.89 330,-324 350.26,-278.98 318.37,-247.97 356,-216 400.64,-178.07 766.29,-167.26 956.67,-164.2"/>
<polygon fill="grey" stroke="grey" stroke-width="2" points="956.78,-167.7 966.72,-164.04 956.67,-160.7 956.78,-167.7"/>
</g>
<!-- 15 -->
<g id="node16" class="node">
<title>15</title>
<path fill="none" stroke="#70d856" stroke-width="2" d="M297,-252C297,-252 139,-252 139,-252 133,-252 127,-246 127,-240 127,-240 127,-228 127,-228 127,-222 133,-216 139,-216 139,-216 297,-216 297,-216 303,-216 309,-222 309,-228 309,-228 309,-240 309,-240 309,-246 303,-252 297,-252"/>
<text text-anchor="middle" x="218" y="-231.5" font-family="sans" font-size="10.00">raxml_ng_tree_per_segment_codon</text>
</g>
<!-- 6&#45;&gt;15 -->
<g id="edge42" class="edge">
<title>6&#45;&gt;15</title>
<path fill="none" stroke="grey" stroke-width="2" d="M225.74,-370.18C195.88,-363.42 163.38,-350.11 145,-324 135.79,-310.92 137.73,-302.25 145,-288 151.23,-275.77 161.76,-265.7 172.9,-257.75"/>
<polygon fill="grey" stroke="grey" stroke-width="2" points="175.07,-260.51 181.49,-252.08 171.21,-254.67 175.07,-260.51"/>
</g>
<!-- 16 -->
<g id="node17" class="node">
<title>16</title>
<path fill="none" stroke="#d8cb56" stroke-width="2" d="M308.5,-324C308.5,-324 165.5,-324 165.5,-324 159.5,-324 153.5,-318 153.5,-312 153.5,-312 153.5,-300 153.5,-300 153.5,-294 159.5,-288 165.5,-288 165.5,-288 308.5,-288 308.5,-288 314.5,-288 320.5,-294 320.5,-300 320.5,-300 320.5,-312 320.5,-312 320.5,-318 314.5,-324 308.5,-324"/>
<text text-anchor="middle" x="237" y="-303.5" font-family="sans" font-size="10.00">build_segment_codon_partitions</text>
</g>
<!-- 6&#45;&gt;16 -->
<g id="edge44" class="edge">
<title>6&#45;&gt;16</title>
<path fill="none" stroke="grey" stroke-width="2" d="M279.16,-359.7C272.51,-351.39 264.42,-341.28 257.11,-332.14"/>
<polygon fill="grey" stroke="grey" stroke-width="2" points="259.66,-329.73 250.68,-324.1 254.2,-334.1 259.66,-329.73"/>
</g>
<!-- 7&#45;&gt;0 -->
<g id="edge4" class="edge">
<title>7&#45;&gt;0</title>
<path fill="none" stroke="grey" stroke-width="2" d="M1180.76,-449.5C1361.54,-449.89 1817.99,-445.74 1961,-396 2026.44,-373.24 2089,-376.29 2089,-307 2089,-307 2089,-307 2089,-161 2089,-57.31 1269.14,-25.86 1083.2,-20.06"/>
<polygon fill="grey" stroke="grey" stroke-width="2" points="1083.2,-16.56 1073.1,-19.75 1082.98,-23.56 1083.2,-16.56"/>
</g>
<!-- 7&#45;&gt;6 -->
<g id="edge33" class="edge">
<title>7&#45;&gt;6</title>
<path fill="none" stroke="grey" stroke-width="2" d="M1031.33,-442.57C877.4,-429.32 526.16,-399.07 370.14,-385.64"/>
<polygon fill="grey" stroke="grey" stroke-width="2" points="370.41,-382.15 360.15,-384.78 369.81,-389.13 370.41,-382.15"/>
</g>
<!-- 8 -->
<g id="node9" class="node">
<title>8</title>
<path fill="none" stroke="#afd856" stroke-width="2" d="M753,-396C753,-396 643,-396 643,-396 637,-396 631,-390 631,-384 631,-384 631,-372 631,-372 631,-366 637,-360 643,-360 643,-360 753,-360 753,-360 759,-360 765,-366 765,-372 765,-372 765,-384 765,-384 765,-390 759,-396 753,-396"/>
<text text-anchor="middle" x="698" y="-381" font-family="sans" font-size="10.00">mafft_align_per_segment</text>
<text text-anchor="middle" x="698" y="-370" font-family="sans" font-size="10.00">segment: PB1</text>
</g>
<!-- 7&#45;&gt;8 -->
<g id="edge35" class="edge">
<title>7&#45;&gt;8</title>
<path fill="none" stroke="grey" stroke-width="2" d="M1031.17,-436.16C958.55,-423.7 848.84,-404.88 775.37,-392.27"/>
<polygon fill="grey" stroke="grey" stroke-width="2" points="775.7,-388.78 765.26,-390.54 774.52,-395.68 775.7,-388.78"/>
</g>
<!-- 9 -->
<g id="node10" class="node">
<title>9</title>
<path fill="none" stroke="#afd856" stroke-width="2" d="M1201,-396C1201,-396 1091,-396 1091,-396 1085,-396 1079,-390 1079,-384 1079,-384 1079,-372 1079,-372 1079,-366 1085,-360 1091,-360 1091,-360 1201,-360 1201,-360 1207,-360 1213,-366 1213,-372 1213,-372 1213,-384 1213,-384 1213,-390 1207,-396 1201,-396"/>
<text text-anchor="middle" x="1146" y="-381" font-family="sans" font-size="10.00">mafft_align_per_segment</text>
<text text-anchor="middle" x="1146" y="-370" font-family="sans" font-size="10.00">segment: PA</text>
</g>
<!-- 7&#45;&gt;9 -->
<g id="edge36" class="edge">
<title>7&#45;&gt;9</title>
<path fill="none" stroke="grey" stroke-width="2" d="M1115.89,-431.7C1120.49,-423.64 1126.06,-413.89 1131.15,-404.98"/>
<polygon fill="grey" stroke="grey" stroke-width="2" points="1134.3,-406.52 1136.23,-396.1 1128.23,-403.05 1134.3,-406.52"/>
</g>
<!-- 10 -->
<g id="node11" class="node">
<title>10</title>
<path fill="none" stroke="#afd856" stroke-width="2" d="M1378,-396C1378,-396 1268,-396 1268,-396 1262,-396 1256,-390 1256,-384 1256,-384 1256,-372 1256,-372 1256,-366 1262,-360 1268,-360 1268,-360 1378,-360 1378,-360 1384,-360 1390,-366 1390,-372 1390,-372 1390,-384 1390,-384 1390,-390 1384,-396 1378,-396"/>
<text text-anchor="middle" x="1323" y="-381" font-family="sans" font-size="10.00">mafft_align_per_segment</text>
<text text-anchor="middle" x="1323" y="-370" font-family="sans" font-size="10.00">segment: HA</text>
</g>
<!-- 7&#45;&gt;10 -->
<g id="edge37" class="edge">
<title>7&#45;&gt;10</title>
<path fill="none" stroke="grey" stroke-width="2" d="M1158.81,-431.97C1189.39,-422.1 1228.07,-409.62 1260.21,-399.25"/>
<polygon fill="grey" stroke="grey" stroke-width="2" points="1261.51,-402.51 1269.96,-396.11 1259.36,-395.85 1261.51,-402.51"/>
</g>
<!-- 11 -->
<g id="node12" class="node">
<title>11</title>
<path fill="none" stroke="#afd856" stroke-width="2" d="M1643,-396C1643,-396 1533,-396 1533,-396 1527,-396 1521,-390 1521,-384 1521,-384 1521,-372 1521,-372 1521,-366 1527,-360 1533,-360 1533,-360 1643,-360 1643,-360 1649,-360 1655,-366 1655,-372 1655,-372 1655,-384 1655,-384 1655,-390 1649,-396 1643,-396"/>
<text text-anchor="middle" x="1588" y="-381" font-family="sans" font-size="10.00">mafft_align_per_segment</text>
<text text-anchor="middle" x="1588" y="-370" font-family="sans" font-size="10.00">segment: NP</text>
</g>
<!-- 7&#45;&gt;11 -->
<g id="edge38" class="edge">
<title>7&#45;&gt;11</title>
<path fill="none" stroke="grey" stroke-width="2" d="M1180.52,-438.18C1270.17,-425.16 1419.94,-403.41 1510.78,-390.21"/>
<polygon fill="grey" stroke="grey" stroke-width="2" points="1511.35,-393.67 1520.74,-388.77 1510.34,-386.74 1511.35,-393.67"/>
</g>
<!-- 12 -->
<g id="node13" class="node">
<title>12</title>
<path fill="none" stroke="#afd856" stroke-width="2" d="M1940,-396C1940,-396 1830,-396 1830,-396 1824,-396 1818,-390 1818,-384 1818,-384 1818,-372 1818,-372 1818,-366 1824,-360 1830,-360 1830,-360 1940,-360 1940,-360 1946,-360 1952,-366 1952,-372 1952,-372 1952,-384 1952,-384 1952,-390 1946,-396 1940,-396"/>
<text text-anchor="middle" x="1885" y="-381" font-family="sans" font-size="10.00">mafft_align_per_segment</text>
<text text-anchor="middle" x="1885" y="-370" font-family="sans" font-size="10.00">segment: NA</text>
</g>
<!-- 7&#45;&gt;12 -->
<g id="edge39" class="edge">
<title>7&#45;&gt;12</title>
<path fill="none" stroke="grey" stroke-width="2" d="M1180.69,-442.29C1328.67,-428.99 1657.7,-399.42 1807.74,-385.94"/>
<polygon fill="grey" stroke="grey" stroke-width="2" points="1808.15,-389.42 1817.8,-385.04 1807.52,-382.45 1808.15,-389.42"/>
</g>
<!-- 13 -->
<g id="node14" class="node">
<title>13</title>
<path fill="none" stroke="#afd856" stroke-width="2" d="M775,-324C775,-324 665,-324 665,-324 659,-324 653,-318 653,-312 653,-312 653,-300 653,-300 653,-294 659,-288 665,-288 665,-288 775,-288 775,-288 781,-288 787,-294 787,-300 787,-300 787,-312 787,-312 787,-318 781,-324 775,-324"/>
<text text-anchor="middle" x="720" y="-309" font-family="sans" font-size="10.00">mafft_align_per_segment</text>
<text text-anchor="middle" x="720" y="-298" font-family="sans" font-size="10.00">segment: MP</text>
</g>
<!-- 7&#45;&gt;13 -->
<g id="edge40" class="edge">
<title>7&#45;&gt;13</title>
<path fill="none" stroke="grey" stroke-width="2" d="M1059.44,-431.87C988.2,-405.66 852.37,-355.69 775.9,-327.56"/>
<polygon fill="grey" stroke="grey" stroke-width="2" points="777.02,-324.25 766.42,-324.08 774.6,-330.82 777.02,-324.25"/>
</g>
<!-- 14 -->
<g id="node15" class="node">
<title>14</title>
<path fill="none" stroke="#afd856" stroke-width="2" d="M1009,-324C1009,-324 899,-324 899,-324 893,-324 887,-318 887,-312 887,-312 887,-300 887,-300 887,-294 893,-288 899,-288 899,-288 1009,-288 1009,-288 1015,-288 1021,-294 1021,-300 1021,-300 1021,-312 1021,-312 1021,-318 1015,-324 1009,-324"/>
<text text-anchor="middle" x="954" y="-309" font-family="sans" font-size="10.00">mafft_align_per_segment</text>
<text text-anchor="middle" x="954" y="-298" font-family="sans" font-size="10.00">segment: NS</text>
</g>
<!-- 7&#45;&gt;14 -->
<g id="edge41" class="edge">
<title>7&#45;&gt;14</title>
<path fill="none" stroke="grey" stroke-width="2" d="M1087.67,-431.87C1060.73,-406.71 1010.36,-359.65 979.73,-331.04"/>
<polygon fill="grey" stroke="grey" stroke-width="2" points="982.1,-328.46 972.4,-324.19 977.32,-333.57 982.1,-328.46"/>
</g>
<!-- 8&#45;&gt;5 -->
<g id="edge18" class="edge">
<title>8&#45;&gt;5</title>
<path fill="none" stroke="grey" stroke-width="2" d="M745.54,-359.91C763.42,-351.47 782.62,-339.67 796,-324 829.04,-285.3 795.95,-249.79 834,-216 852.84,-199.27 905.76,-186.6 956.82,-177.86"/>
<polygon fill="grey" stroke="grey" stroke-width="2" points="957.71,-181.26 967,-176.16 956.56,-174.36 957.71,-181.26"/>
</g>
<!-- 17 -->
<g id="node18" class="node">
<title>17</title>
<path fill="none" stroke="#70d856" stroke-width="2" d="M535,-252C535,-252 377,-252 377,-252 371,-252 365,-246 365,-240 365,-240 365,-228 365,-228 365,-222 371,-216 377,-216 377,-216 535,-216 535,-216 541,-216 547,-222 547,-228 547,-228 547,-240 547,-240 547,-246 541,-252 535,-252"/>
<text text-anchor="middle" x="456" y="-231.5" font-family="sans" font-size="10.00">raxml_ng_tree_per_segment_codon</text>
</g>
<!-- 8&#45;&gt;17 -->
<g id="edge45" class="edge">
<title>8&#45;&gt;17</title>
<path fill="none" stroke="grey" stroke-width="2" d="M676.93,-359.87C652.94,-340.85 612.12,-309.95 574,-288 553.32,-276.1 529.49,-264.95 508.68,-255.97"/>
<polygon fill="grey" stroke="grey" stroke-width="2" points="509.92,-252.7 499.35,-252.01 507.18,-259.14 509.92,-252.7"/>
</g>
<!-- 18 -->
<g id="node19" class="node">
<title>18</title>
<path fill="none" stroke="#d8cb56" stroke-width="2" d="M552.5,-324C552.5,-324 409.5,-324 409.5,-324 403.5,-324 397.5,-318 397.5,-312 397.5,-312 397.5,-300 397.5,-300 397.5,-294 403.5,-288 409.5,-288 409.5,-288 552.5,-288 552.5,-288 558.5,-288 564.5,-294 564.5,-300 564.5,-300 564.5,-312 564.5,-312 564.5,-318 558.5,-324 552.5,-324"/>
<text text-anchor="middle" x="481" y="-303.5" font-family="sans" font-size="10.00">build_segment_codon_partitions</text>
</g>
<!-- 8&#45;&gt;18 -->
<g id="edge47" class="edge">
<title>8&#45;&gt;18</title>
<path fill="none" stroke="grey" stroke-width="2" d="M645.19,-359.97C614.61,-350.1 575.93,-337.62 543.79,-327.25"/>
<polygon fill="grey" stroke="grey" stroke-width="2" points="544.64,-323.85 534.04,-324.11 542.49,-330.51 544.64,-323.85"/>
</g>
<!-- 9&#45;&gt;5 -->
<g id="edge19" class="edge">
<title>9&#45;&gt;5</title>
<path fill="none" stroke="grey" stroke-width="2" d="M1105.82,-359.77C1091.17,-351.28 1076.2,-339.48 1068,-324 1056.11,-301.54 1062.62,-229.76 1067.4,-190.06"/>
<polygon fill="grey" stroke="grey" stroke-width="2" points="1070.88,-190.36 1068.65,-180.01 1063.94,-189.5 1070.88,-190.36"/>
</g>
<!-- 19 -->
<g id="node20" class="node">
<title>19</title>
<path fill="none" stroke="#70d856" stroke-width="2" d="M1291,-252C1291,-252 1133,-252 1133,-252 1127,-252 1121,-246 1121,-240 1121,-240 1121,-228 1121,-228 1121,-222 1127,-216 1133,-216 1133,-216 1291,-216 1291,-216 1297,-216 1303,-222 1303,-228 1303,-228 1303,-240 1303,-240 1303,-246 1297,-252 1291,-252"/>
<text text-anchor="middle" x="1212" y="-231.5" font-family="sans" font-size="10.00">raxml_ng_tree_per_segment_codon</text>
</g>
<!-- 9&#45;&gt;19 -->
<g id="edge48" class="edge">
<title>9&#45;&gt;19</title>
<path fill="none" stroke="grey" stroke-width="2" d="M1208.25,-359.95C1225.75,-351.98 1242.78,-340.47 1253,-324 1265.76,-303.44 1251.69,-278.26 1236.66,-259.93"/>
<polygon fill="grey" stroke="grey" stroke-width="2" points="1238.99,-257.28 1229.78,-252.04 1233.71,-261.88 1238.99,-257.28"/>
</g>
<!-- 20 -->
<g id="node21" class="node">
<title>20</title>
<path fill="none" stroke="#d8cb56" stroke-width="2" d="M1231.5,-324C1231.5,-324 1088.5,-324 1088.5,-324 1082.5,-324 1076.5,-318 1076.5,-312 1076.5,-312 1076.5,-300 1076.5,-300 1076.5,-294 1082.5,-288 1088.5,-288 1088.5,-288 1231.5,-288 1231.5,-288 1237.5,-288 1243.5,-294 1243.5,-300 1243.5,-300 1243.5,-312 1243.5,-312 1243.5,-318 1237.5,-324 1231.5,-324"/>
<text text-anchor="middle" x="1160" y="-303.5" font-family="sans" font-size="10.00">build_segment_codon_partitions</text>
</g>
<!-- 9&#45;&gt;20 -->
<g id="edge50" class="edge">
<title>9&#45;&gt;20</title>
<path fill="none" stroke="grey" stroke-width="2" d="M1149.46,-359.7C1151,-351.98 1152.86,-342.71 1154.58,-334.11"/>
<polygon fill="grey" stroke="grey" stroke-width="2" points="1158.05,-334.6 1156.58,-324.1 1151.19,-333.22 1158.05,-334.6"/>
</g>
<!-- 10&#45;&gt;5 -->
<g id="edge20" class="edge">
<title>10&#45;&gt;5</title>
<path fill="none" stroke="grey" stroke-width="2" d="M1324.31,-359.75C1326.75,-322.69 1330.2,-237.12 1312,-216 1294.85,-196.1 1238.84,-183.11 1185.13,-174.97"/>
<polygon fill="grey" stroke="grey" stroke-width="2" points="1185.54,-171.49 1175.14,-173.5 1184.53,-178.42 1185.54,-171.49"/>
</g>
<!-- 21 -->
<g id="node22" class="node">
<title>21</title>
<path fill="none" stroke="#70d856" stroke-width="2" d="M1529,-252C1529,-252 1371,-252 1371,-252 1365,-252 1359,-246 1359,-240 1359,-240 1359,-228 1359,-228 1359,-222 1365,-216 1371,-216 1371,-216 1529,-216 1529,-216 1535,-216 1541,-222 1541,-228 1541,-228 1541,-240 1541,-240 1541,-246 1535,-252 1529,-252"/>
<text text-anchor="middle" x="1450" y="-231.5" font-family="sans" font-size="10.00">raxml_ng_tree_per_segment_codon</text>
</g>
<!-- 10&#45;&gt;21 -->
<g id="edge51" class="edge">
<title>10&#45;&gt;21</title>
<path fill="none" stroke="grey" stroke-width="2" d="M1390.22,-366.99C1438.62,-358.25 1497.93,-343.84 1513,-324 1522.68,-311.26 1519.75,-302.51 1513,-288 1507.57,-276.34 1498.18,-266.34 1488.28,-258.26"/>
<polygon fill="grey" stroke="grey" stroke-width="2" points="1490.38,-255.45 1480.3,-252.2 1486.15,-261.03 1490.38,-255.45"/>
</g>
<!-- 22 -->
<g id="node23" class="node">
<title>22</title>
<path fill="none" stroke="#d8cb56" stroke-width="2" d="M1491.5,-324C1491.5,-324 1348.5,-324 1348.5,-324 1342.5,-324 1336.5,-318 1336.5,-312 1336.5,-312 1336.5,-300 1336.5,-300 1336.5,-294 1342.5,-288 1348.5,-288 1348.5,-288 1491.5,-288 1491.5,-288 1497.5,-288 1503.5,-294 1503.5,-300 1503.5,-300 1503.5,-312 1503.5,-312 1503.5,-318 1497.5,-324 1491.5,-324"/>
<text text-anchor="middle" x="1420" y="-303.5" font-family="sans" font-size="10.00">build_segment_codon_partitions</text>
</g>
<!-- 10&#45;&gt;22 -->
<g id="edge53" class="edge">
<title>10&#45;&gt;22</title>
<path fill="none" stroke="grey" stroke-width="2" d="M1346.98,-359.7C1359.31,-350.8 1374.52,-339.82 1387.85,-330.2"/>
<polygon fill="grey" stroke="grey" stroke-width="2" points="1390.24,-332.79 1396.3,-324.1 1386.14,-327.12 1390.24,-332.79"/>
</g>
<!-- 11&#45;&gt;5 -->
<g id="edge21" class="edge">
<title>11&#45;&gt;5</title>
<path fill="none" stroke="grey" stroke-width="2" d="M1589.72,-360C1592.03,-326.73 1591.83,-253.03 1550,-216 1523.21,-192.29 1318.39,-176.6 1185.39,-168.8"/>
<polygon fill="grey" stroke="grey" stroke-width="2" points="1185.34,-165.29 1175.15,-168.21 1184.93,-172.28 1185.34,-165.29"/>
</g>
<!-- 23 -->
<g id="node24" class="node">
<title>23</title>
<path fill="none" stroke="#70d856" stroke-width="2" d="M1767,-252C1767,-252 1609,-252 1609,-252 1603,-252 1597,-246 1597,-240 1597,-240 1597,-228 1597,-228 1597,-222 1603,-216 1609,-216 1609,-216 1767,-216 1767,-216 1773,-216 1779,-222 1779,-228 1779,-228 1779,-240 1779,-240 1779,-246 1773,-252 1767,-252"/>
<text text-anchor="middle" x="1688" y="-231.5" font-family="sans" font-size="10.00">raxml_ng_tree_per_segment_codon</text>
</g>
<!-- 11&#45;&gt;23 -->
<g id="edge54" class="edge">
<title>11&#45;&gt;23</title>
<path fill="none" stroke="grey" stroke-width="2" d="M1592.77,-359.73C1598.55,-340.86 1609.59,-310.34 1626,-288 1634,-277.1 1644.66,-266.96 1654.88,-258.53"/>
<polygon fill="grey" stroke="grey" stroke-width="2" points="1657.26,-261.11 1662.92,-252.15 1652.91,-255.62 1657.26,-261.11"/>
</g>
<!-- 24 -->
<g id="node25" class="node">
<title>24</title>
<path fill="none" stroke="#d8cb56" stroke-width="2" d="M1789.5,-324C1789.5,-324 1646.5,-324 1646.5,-324 1640.5,-324 1634.5,-318 1634.5,-312 1634.5,-312 1634.5,-300 1634.5,-300 1634.5,-294 1640.5,-288 1646.5,-288 1646.5,-288 1789.5,-288 1789.5,-288 1795.5,-288 1801.5,-294 1801.5,-300 1801.5,-300 1801.5,-312 1801.5,-312 1801.5,-318 1795.5,-324 1789.5,-324"/>
<text text-anchor="middle" x="1718" y="-303.5" font-family="sans" font-size="10.00">build_segment_codon_partitions</text>
</g>
<!-- 11&#45;&gt;24 -->
<g id="edge56" class="edge">
<title>11&#45;&gt;24</title>
<path fill="none" stroke="grey" stroke-width="2" d="M1619.8,-359.88C1637.11,-350.55 1658.72,-338.92 1677.26,-328.94"/>
<polygon fill="grey" stroke="grey" stroke-width="2" points="1678.93,-332.01 1686.08,-324.19 1675.61,-325.85 1678.93,-332.01"/>
</g>
<!-- 12&#45;&gt;5 -->
<g id="edge22" class="edge">
<title>12&#45;&gt;5</title>
<path fill="none" stroke="grey" stroke-width="2" d="M1872.21,-359.64C1864.86,-349.43 1855.61,-336.18 1848,-324 1818.91,-277.43 1834.27,-245.57 1788,-216 1738.54,-184.38 1374.54,-170.61 1185.02,-165.53"/>
<polygon fill="grey" stroke="grey" stroke-width="2" points="1185.11,-162.03 1175.02,-165.27 1184.93,-169.03 1185.11,-162.03"/>
</g>
<!-- 25 -->
<g id="node26" class="node">
<title>25</title>
<path fill="none" stroke="#70d856" stroke-width="2" d="M2027,-252C2027,-252 1869,-252 1869,-252 1863,-252 1857,-246 1857,-240 1857,-240 1857,-228 1857,-228 1857,-222 1863,-216 1869,-216 1869,-216 2027,-216 2027,-216 2033,-216 2039,-222 2039,-228 2039,-228 2039,-240 2039,-240 2039,-246 2033,-252 2027,-252"/>
<text text-anchor="middle" x="1948" y="-231.5" font-family="sans" font-size="10.00">raxml_ng_tree_per_segment_codon</text>
</g>
<!-- 12&#45;&gt;25 -->
<g id="edge57" class="edge">
<title>12&#45;&gt;25</title>
<path fill="none" stroke="grey" stroke-width="2" d="M1952.26,-370.18C1982.12,-363.42 2014.62,-350.11 2033,-324 2042.21,-310.92 2040.76,-301.99 2033,-288 2025.87,-275.15 2014.19,-265.01 2001.73,-257.19"/>
<polygon fill="grey" stroke="grey" stroke-width="2" points="2003.44,-254.13 1993.03,-252.14 1999.92,-260.19 2003.44,-254.13"/>
</g>
<!-- 26 -->
<g id="node27" class="node">
<title>26</title>
<path fill="none" stroke="#d8cb56" stroke-width="2" d="M2011.5,-324C2011.5,-324 1868.5,-324 1868.5,-324 1862.5,-324 1856.5,-318 1856.5,-312 1856.5,-312 1856.5,-300 1856.5,-300 1856.5,-294 1862.5,-288 1868.5,-288 1868.5,-288 2011.5,-288 2011.5,-288 2017.5,-288 2023.5,-294 2023.5,-300 2023.5,-300 2023.5,-312 2023.5,-312 2023.5,-318 2017.5,-324 2011.5,-324"/>
<text text-anchor="middle" x="1940" y="-303.5" font-family="sans" font-size="10.00">build_segment_codon_partitions</text>
</g>
<!-- 12&#45;&gt;26 -->
<g id="edge59" class="edge">
<title>12&#45;&gt;26</title>
<path fill="none" stroke="grey" stroke-width="2" d="M1898.6,-359.7C1905.12,-351.39 1913.07,-341.28 1920.25,-332.14"/>
<polygon fill="grey" stroke="grey" stroke-width="2" points="1923.13,-334.13 1926.56,-324.1 1917.63,-329.81 1923.13,-334.13"/>
</g>
<!-- 13&#45;&gt;5 -->
<g id="edge23" class="edge">
<title>13&#45;&gt;5</title>
<path fill="none" stroke="grey" stroke-width="2" d="M730.57,-287.88C744.19,-267.36 769.87,-233.54 801,-216 848.21,-189.4 906.6,-175.97 956.98,-169.25"/>
<polygon fill="grey" stroke="grey" stroke-width="2" points="957.46,-172.72 966.95,-168 956.59,-165.78 957.46,-172.72"/>
</g>
<!-- 27 -->
<g id="node28" class="node">
<title>27</title>
<path fill="none" stroke="#56d85b" stroke-width="2" d="M737,-252C737,-252 577,-252 577,-252 571,-252 565,-246 565,-240 565,-240 565,-228 565,-228 565,-222 571,-216 577,-216 577,-216 737,-216 737,-216 743,-216 749,-222 749,-228 749,-228 749,-240 749,-240 749,-246 743,-252 737,-252"/>
<text text-anchor="middle" x="657" y="-231.5" font-family="sans" font-size="10.00">raxml_ng_tree_per_segment_simple</text>
</g>
<!-- 13&#45;&gt;27 -->
<g id="edge60" class="edge">
<title>13&#45;&gt;27</title>
<path fill="none" stroke="grey" stroke-width="2" d="M704.43,-287.7C696.8,-279.22 687.48,-268.86 679.12,-259.58"/>
<polygon fill="grey" stroke="grey" stroke-width="2" points="681.69,-257.2 672.39,-252.1 676.48,-261.88 681.69,-257.2"/>
</g>
<!-- 14&#45;&gt;5 -->
<g id="edge24" class="edge">
<title>14&#45;&gt;5</title>
<path fill="none" stroke="grey" stroke-width="2" d="M990.4,-287.97C1006.16,-279.1 1023.76,-266.95 1036,-252 1050.82,-233.89 1059.93,-208.76 1065.12,-189.81"/>
<polygon fill="grey" stroke="grey" stroke-width="2" points="1068.54,-190.57 1067.62,-180.01 1061.76,-188.84 1068.54,-190.57"/>
</g>
<!-- 28 -->
<g id="node29" class="node">
<title>28</title>
<path fill="none" stroke="#56d85b" stroke-width="2" d="M1015,-252C1015,-252 855,-252 855,-252 849,-252 843,-246 843,-240 843,-240 843,-228 843,-228 843,-222 849,-216 855,-216 855,-216 1015,-216 1015,-216 1021,-216 1027,-222 1027,-228 1027,-228 1027,-240 1027,-240 1027,-246 1021,-252 1015,-252"/>
<text text-anchor="middle" x="935" y="-231.5" font-family="sans" font-size="10.00">raxml_ng_tree_per_segment_simple</text>
</g>
<!-- 14&#45;&gt;28 -->
<g id="edge61" class="edge">
<title>14&#45;&gt;28</title>
<path fill="none" stroke="grey" stroke-width="2" d="M949.3,-287.7C947.19,-279.9 944.64,-270.51 942.28,-261.83"/>
<polygon fill="grey" stroke="grey" stroke-width="2" points="945.64,-260.84 939.64,-252.1 938.88,-262.67 945.64,-260.84"/>
</g>
<!-- 15&#45;&gt;0 -->
<g id="edge6" class="edge">
<title>15&#45;&gt;0</title>
<path fill="none" stroke="grey" stroke-width="2" d="M269.27,-215.89C365.18,-184.33 578.62,-116.12 762,-72 849.73,-50.89 954.41,-33.28 1008.89,-24.67"/>
<polygon fill="grey" stroke="grey" stroke-width="2" points="1009.45,-28.13 1018.78,-23.12 1008.36,-21.21 1009.45,-28.13"/>
</g>
<!-- 15&#45;&gt;5 -->
<g id="edge25" class="edge">
<title>15&#45;&gt;5</title>
<path fill="none" stroke="grey" stroke-width="2" d="M309.27,-217.72C313.91,-217.1 318.51,-216.52 323,-216 546.69,-190.02 809.58,-174.95 956.58,-167.91"/>
<polygon fill="grey" stroke="grey" stroke-width="2" points="957.14,-171.39 966.97,-167.42 956.81,-164.4 957.14,-171.39"/>
</g>
<!-- 16&#45;&gt;15 -->
<g id="edge43" class="edge">
<title>16&#45;&gt;15</title>
<path fill="none" stroke="grey" stroke-width="2" d="M232.3,-287.7C230.19,-279.9 227.64,-270.51 225.28,-261.83"/>
<polygon fill="grey" stroke="grey" stroke-width="2" points="228.64,-260.84 222.64,-252.1 221.88,-262.67 228.64,-260.84"/>
</g>
<!-- 17&#45;&gt;0 -->
<g id="edge7" class="edge">
<title>17&#45;&gt;0</title>
<path fill="none" stroke="grey" stroke-width="2" d="M495.4,-215.97C567.53,-185.11 726.02,-118.81 863,-72 912.92,-54.94 971.68,-38.56 1008.88,-28.64"/>
<polygon fill="grey" stroke="grey" stroke-width="2" points="1010,-31.96 1018.77,-26.02 1008.21,-25.2 1010,-31.96"/>
</g>
<!-- 17&#45;&gt;5 -->
<g id="edge26" class="edge">
<title>17&#45;&gt;5</title>
<path fill="none" stroke="grey" stroke-width="2" d="M547.25,-217.23C550.2,-216.8 553.12,-216.39 556,-216 693.26,-197.29 851.9,-181.9 956.44,-172.61"/>
<polygon fill="grey" stroke="grey" stroke-width="2" points="957.04,-176.07 966.7,-171.7 956.43,-169.1 957.04,-176.07"/>
</g>
<!-- 18&#45;&gt;17 -->
<g id="edge46" class="edge">
<title>18&#45;&gt;17</title>
<path fill="none" stroke="grey" stroke-width="2" d="M474.82,-287.7C472,-279.81 468.61,-270.3 465.48,-261.55"/>
<polygon fill="grey" stroke="grey" stroke-width="2" points="468.77,-260.34 462.11,-252.1 462.18,-262.7 468.77,-260.34"/>
</g>
<!-- 19&#45;&gt;0 -->
<g id="edge8" class="edge">
<title>19&#45;&gt;0</title>
<path fill="none" stroke="grey" stroke-width="2" d="M1210.26,-215.64C1206.16,-183.34 1193.08,-113.55 1154,-72 1134.72,-51.5 1105.81,-37.89 1082.76,-29.61"/>
<polygon fill="grey" stroke="grey" stroke-width="2" points="1083.87,-26.29 1073.28,-26.38 1081.62,-32.92 1083.87,-26.29"/>
</g>
<!-- 19&#45;&gt;5 -->
<g id="edge27" class="edge">
<title>19&#45;&gt;5</title>
<path fill="none" stroke="grey" stroke-width="2" d="M1177.51,-215.88C1158.56,-206.47 1134.87,-194.71 1114.64,-184.67"/>
<polygon fill="grey" stroke="grey" stroke-width="2" points="1116.14,-181.5 1105.63,-180.19 1113.03,-187.77 1116.14,-181.5"/>
</g>
<!-- 20&#45;&gt;19 -->
<g id="edge49" class="edge">
<title>20&#45;&gt;19</title>
<path fill="none" stroke="grey" stroke-width="2" d="M1172.85,-287.7C1179.03,-279.39 1186.54,-269.28 1193.32,-260.14"/>
<polygon fill="grey" stroke="grey" stroke-width="2" points="1196.14,-262.22 1199.29,-252.1 1190.52,-258.04 1196.14,-262.22"/>
</g>
<!-- 21&#45;&gt;0 -->
<g id="edge9" class="edge">
<title>21&#45;&gt;0</title>
<path fill="none" stroke="grey" stroke-width="2" d="M1424.34,-215.79C1377.25,-184.64 1273.29,-117.89 1180,-72 1148.01,-56.26 1110.12,-41.62 1082.8,-31.74"/>
<polygon fill="grey" stroke="grey" stroke-width="2" points="1083.84,-28.39 1073.25,-28.32 1081.48,-34.98 1083.84,-28.39"/>
</g>
<!-- 21&#45;&gt;5 -->
<g id="edge28" class="edge">
<title>21&#45;&gt;5</title>
<path fill="none" stroke="grey" stroke-width="2" d="M1358.74,-216.14C1302.73,-205.8 1230.9,-192.53 1173.01,-181.84"/>
<polygon fill="grey" stroke="grey" stroke-width="2" points="1173.58,-178.39 1163.11,-180.01 1172.31,-185.27 1173.58,-178.39"/>
</g>
<!-- 22&#45;&gt;21 -->
<g id="edge52" class="edge">
<title>22&#45;&gt;21</title>
<path fill="none" stroke="grey" stroke-width="2" d="M1427.42,-287.7C1430.79,-279.81 1434.87,-270.3 1438.62,-261.55"/>
<polygon fill="grey" stroke="grey" stroke-width="2" points="1441.95,-262.67 1442.67,-252.1 1435.51,-259.92 1441.95,-262.67"/>
</g>
<!-- 23&#45;&gt;0 -->
<g id="edge10" class="edge">
<title>23&#45;&gt;0</title>
<path fill="none" stroke="grey" stroke-width="2" d="M1641.37,-215.9C1558.29,-185.63 1379.04,-121.17 1226,-72 1176.81,-56.2 1119.49,-39.64 1082.99,-29.32"/>
<polygon fill="grey" stroke="grey" stroke-width="2" points="1083.84,-25.92 1073.27,-26.58 1081.94,-32.66 1083.84,-25.92"/>
</g>
<!-- 23&#45;&gt;5 -->
<g id="edge29" class="edge">
<title>23&#45;&gt;5</title>
<path fill="none" stroke="grey" stroke-width="2" d="M1596.99,-217.94C1592.26,-217.26 1587.58,-216.61 1583,-216 1446.68,-197.92 1289.26,-182.43 1185.35,-172.94"/>
<polygon fill="grey" stroke="grey" stroke-width="2" points="1185.43,-169.44 1175.15,-172.02 1184.79,-176.41 1185.43,-169.44"/>
</g>
<!-- 24&#45;&gt;23 -->
<g id="edge55" class="edge">
<title>24&#45;&gt;23</title>
<path fill="none" stroke="grey" stroke-width="2" d="M1710.58,-287.7C1707.21,-279.81 1703.13,-270.3 1699.38,-261.55"/>
<polygon fill="grey" stroke="grey" stroke-width="2" points="1702.49,-259.92 1695.33,-252.1 1696.05,-262.67 1702.49,-259.92"/>
</g>
<!-- 25&#45;&gt;0 -->
<g id="edge11" class="edge">
<title>25&#45;&gt;0</title>
<path fill="none" stroke="grey" stroke-width="2" d="M1880.78,-215.99C1761.71,-186 1505.87,-122.14 1289,-72 1216.1,-55.15 1130.55,-36.83 1082.88,-26.75"/>
<polygon fill="grey" stroke="grey" stroke-width="2" points="1083.53,-23.3 1073.02,-24.66 1082.08,-30.15 1083.53,-23.3"/>
</g>
<!-- 25&#45;&gt;5 -->
<g id="edge30" class="edge">
<title>25&#45;&gt;5</title>
<path fill="none" stroke="grey" stroke-width="2" d="M1856.73,-217.71C1852.09,-217.09 1847.49,-216.52 1843,-216 1610.28,-189.23 1336.43,-174.34 1185.44,-167.56"/>
<polygon fill="grey" stroke="grey" stroke-width="2" points="1185.38,-164.06 1175.23,-167.11 1185.06,-171.05 1185.38,-164.06"/>
</g>
<!-- 26&#45;&gt;25 -->
<g id="edge58" class="edge">
<title>26&#45;&gt;25</title>
<path fill="none" stroke="grey" stroke-width="2" d="M1941.98,-287.7C1942.86,-279.98 1943.92,-270.71 1944.9,-262.11"/>
<polygon fill="grey" stroke="grey" stroke-width="2" points="1948.39,-262.44 1946.05,-252.1 1941.43,-261.64 1948.39,-262.44"/>
</g>
<!-- 27&#45;&gt;0 -->
<g id="edge12" class="edge">
<title>27&#45;&gt;0</title>
<path fill="none" stroke="grey" stroke-width="2" d="M684.48,-215.99C733.75,-185.71 840.71,-121.07 934,-72 958.88,-58.91 987.54,-45.38 1009.64,-35.26"/>
<polygon fill="grey" stroke="grey" stroke-width="2" points="1011.33,-38.34 1018.98,-31.01 1008.43,-31.97 1011.33,-38.34"/>
</g>
<!-- 27&#45;&gt;5 -->
<g id="edge31" class="edge">
<title>27&#45;&gt;5</title>
<path fill="none" stroke="grey" stroke-width="2" d="M749.14,-217.42C811.57,-206.86 894.41,-192.86 960.41,-181.7"/>
<polygon fill="grey" stroke="grey" stroke-width="2" points="961.16,-185.12 970.44,-180 959.99,-178.22 961.16,-185.12"/>
</g>
<!-- 28&#45;&gt;0 -->
<g id="edge13" class="edge">
<title>28&#45;&gt;0</title>
<path fill="none" stroke="grey" stroke-width="2" d="M932.33,-215.81C928.4,-184.41 924.41,-116.88 954,-72 966.9,-52.43 989.69,-39.22 1009.36,-30.88"/>
<polygon fill="grey" stroke="grey" stroke-width="2" points="1010.7,-34.12 1018.71,-27.18 1008.12,-27.61 1010.7,-34.12"/>
</g>
<!-- 28&#45;&gt;5 -->
<g id="edge32" class="edge">
<title>28&#45;&gt;5</title>
<path fill="none" stroke="grey" stroke-width="2" d="M968.27,-215.88C986.46,-206.51 1009.19,-194.81 1028.64,-184.8"/>
<polygon fill="grey" stroke="grey" stroke-width="2" points="1030.31,-187.88 1037.6,-180.19 1027.11,-181.65 1030.31,-187.88"/>
</g>
<!-- 29&#45;&gt;0 -->
<g id="edge5" class="edge">
<title>29&#45;&gt;0</title>
<path fill="none" stroke="grey" stroke-width="2" d="M1046,-71.7C1046,-63.98 1046,-54.71 1046,-46.11"/>
<polygon fill="grey" stroke="grey" stroke-width="2" points="1049.5,-46.1 1046,-36.1 1042.5,-46.1 1049.5,-46.1"/>
</g>
</g>
</svg>
