<?xml version="1.0" encoding="UTF-8" standalone="no"?>
<!DOCTYPE svg PUBLIC "-//W3C//DTD SVG 1.1//EN"
 "http://www.w3.org/Graphics/SVG/1.1/DTD/svg11.dtd">
<!-- Generated by graphviz version 2.43.0 (0)
 -->
<!-- Title: snakemake_dag Pages: 1 -->
<svg width="1644pt" height="332pt"
 viewBox="0.00 0.00 1643.50 332.00" xmlns="http://www.w3.org/2000/svg" xmlns:xlink="http://www.w3.org/1999/xlink">
<g id="graph0" class="graph" transform="scale(1 1) rotate(0) translate(4 328)">
<title>snakemake_dag</title>
<polygon fill="white" stroke="transparent" points="-4,4 -4,-328 1639.5,-328 1639.5,4 -4,4"/>
<!-- 0 -->
<g id="node1" class="node">
<title>0</title>
<path fill="none" stroke="#d88d56" stroke-width="2" d="M657,-36C657,-36 627,-36 627,-36 621,-36 615,-30 615,-24 615,-24 615,-12 615,-12 615,-6 621,0 627,0 627,0 657,0 657,0 663,0 669,-6 669,-12 669,-12 669,-24 669,-24 669,-30 663,-36 657,-36"/>
<text text-anchor="middle" x="642" y="-15.5" font-family="sans" font-size="10.00">all</text>
</g>
<!-- 1 -->
<g id="node2" class="node">
<title>1</title>
<path fill="none" stroke="#d8cb56" stroke-width="2" stroke-dasharray="5,2" d="M164,-324C164,-324 12,-324 12,-324 6,-324 0,-318 0,-312 0,-312 0,-300 0,-300 0,-294 6,-288 12,-288 12,-288 164,-288 164,-288 170,-288 176,-294 176,-300 176,-300 176,-312 176,-312 176,-318 170,-324 164,-324"/>
<text text-anchor="middle" x="88" y="-303.5" font-family="sans" font-size="10.00">build_ecuador_intermediate_input</text>
</g>
<!-- 1&#45;&gt;0 -->
<g id="edge1" class="edge">
<title>1&#45;&gt;0</title>
<path fill="none" stroke="grey" stroke-width="2" d="M78.87,-287.88C73.99,-277.76 68.49,-264.51 66,-252 53.66,-190.07 93.56,-75.93 98,-72 135.85,-38.49 487.63,-24.04 604.47,-20.14"/>
<polygon fill="grey" stroke="grey" stroke-width="2" points="604.83,-23.63 614.71,-19.81 604.6,-16.64 604.83,-23.63"/>
</g>
<!-- 2 -->
<g id="node3" class="node">
<title>2</title>
<path fill="none" stroke="#afd856" stroke-width="2" stroke-dasharray="5,2" d="M173,-252C173,-252 87,-252 87,-252 81,-252 75,-246 75,-240 75,-240 75,-228 75,-228 75,-222 81,-216 87,-216 87,-216 173,-216 173,-216 179,-216 185,-222 185,-228 185,-228 185,-240 185,-240 185,-246 179,-252 173,-252"/>
<text text-anchor="middle" x="130" y="-231.5" font-family="sans" font-size="10.00">build_h5n1_ec_fasta</text>
</g>
<!-- 1&#45;&gt;2 -->
<g id="edge13" class="edge">
<title>1&#45;&gt;2</title>
<path fill="none" stroke="grey" stroke-width="2" d="M98.38,-287.7C103.26,-279.56 109.19,-269.69 114.58,-260.7"/>
<polygon fill="grey" stroke="grey" stroke-width="2" points="117.59,-262.48 119.74,-252.1 111.59,-258.88 117.59,-262.48"/>
</g>
<!-- 2&#45;&gt;0 -->
<g id="edge2" class="edge">
<title>2&#45;&gt;0</title>
<path fill="none" stroke="grey" stroke-width="2" d="M118.95,-215.61C113.26,-205.62 106.92,-192.58 104,-180 92.81,-131.8 91.84,-102.24 131,-72 168.35,-43.15 493.29,-25.77 604.7,-20.62"/>
<polygon fill="grey" stroke="grey" stroke-width="2" points="604.97,-24.11 614.8,-20.16 604.65,-17.12 604.97,-24.11"/>
</g>
<!-- 3 -->
<g id="node4" class="node">
<title>3</title>
<path fill="none" stroke="#70d856" stroke-width="2" stroke-dasharray="5,2" d="M220.5,-180C220.5,-180 125.5,-180 125.5,-180 119.5,-180 113.5,-174 113.5,-168 113.5,-168 113.5,-156 113.5,-156 113.5,-150 119.5,-144 125.5,-144 125.5,-144 220.5,-144 220.5,-144 226.5,-144 232.5,-150 232.5,-156 232.5,-156 232.5,-168 232.5,-168 232.5,-174 226.5,-180 220.5,-180"/>
<text text-anchor="middle" x="173" y="-159.5" font-family="sans" font-size="10.00">build_h5n1_final_fasta</text>
</g>
<!-- 2&#45;&gt;3 -->
<g id="edge14" class="edge">
<title>2&#45;&gt;3</title>
<path fill="none" stroke="grey" stroke-width="2" d="M140.63,-215.7C145.63,-207.56 151.69,-197.69 157.21,-188.7"/>
<polygon fill="grey" stroke="grey" stroke-width="2" points="160.24,-190.46 162.49,-180.1 154.28,-186.79 160.24,-190.46"/>
</g>
<!-- 3&#45;&gt;0 -->
<g id="edge3" class="edge">
<title>3&#45;&gt;0</title>
<path fill="none" stroke="grey" stroke-width="2" d="M158.01,-143.92C142.71,-124.38 123.62,-92.44 142,-72 172.86,-37.7 493.8,-23.9 604.62,-20.14"/>
<polygon fill="grey" stroke="grey" stroke-width="2" points="604.79,-23.64 614.67,-19.81 604.56,-16.64 604.79,-23.64"/>
</g>
<!-- 4 -->
<g id="node5" class="node">
<title>4</title>
<path fill="none" stroke="#5692d8" stroke-width="2" stroke-dasharray="5,2" d="M287.5,-108C287.5,-108 162.5,-108 162.5,-108 156.5,-108 150.5,-102 150.5,-96 150.5,-96 150.5,-84 150.5,-84 150.5,-78 156.5,-72 162.5,-72 162.5,-72 287.5,-72 287.5,-72 293.5,-72 299.5,-78 299.5,-84 299.5,-84 299.5,-96 299.5,-96 299.5,-102 293.5,-108 287.5,-108"/>
<text text-anchor="middle" x="225" y="-87.5" font-family="sans" font-size="10.00">split_h5n1_final_by_segment</text>
</g>
<!-- 3&#45;&gt;4 -->
<g id="edge15" class="edge">
<title>3&#45;&gt;4</title>
<path fill="none" stroke="grey" stroke-width="2" d="M185.85,-143.7C192.03,-135.39 199.54,-125.28 206.32,-116.14"/>
<polygon fill="grey" stroke="grey" stroke-width="2" points="209.14,-118.22 212.29,-108.1 203.52,-114.04 209.14,-118.22"/>
</g>
<!-- 4&#45;&gt;0 -->
<g id="edge4" class="edge">
<title>4&#45;&gt;0</title>
<path fill="none" stroke="grey" stroke-width="2" d="M299.62,-73.73C302.79,-73.13 305.93,-72.56 309,-72 416.01,-52.66 543.05,-33.48 604.71,-24.41"/>
<polygon fill="grey" stroke="grey" stroke-width="2" points="605.35,-27.86 614.74,-22.94 604.34,-20.93 605.35,-27.86"/>
</g>
<!-- 5 -->
<g id="node6" class="node">
<title>5</title>
<path fill="none" stroke="#56d8a9" stroke-width="2" d="M454.5,-108C454.5,-108 329.5,-108 329.5,-108 323.5,-108 317.5,-102 317.5,-96 317.5,-96 317.5,-84 317.5,-84 317.5,-78 323.5,-72 329.5,-72 329.5,-72 454.5,-72 454.5,-72 460.5,-72 466.5,-78 466.5,-84 466.5,-84 466.5,-96 466.5,-96 466.5,-102 460.5,-108 454.5,-108"/>
<text text-anchor="middle" x="392" y="-87.5" font-family="sans" font-size="10.00">raxml_ng_tree_per_segment</text>
</g>
<!-- 5&#45;&gt;0 -->
<g id="edge5" class="edge">
<title>5&#45;&gt;0</title>
<path fill="none" stroke="grey" stroke-width="2" d="M452.84,-71.97C500.44,-58.64 565.07,-40.54 605.12,-29.33"/>
<polygon fill="grey" stroke="grey" stroke-width="2" points="606.31,-32.63 615,-26.56 604.42,-25.89 606.31,-32.63"/>
</g>
<!-- 6 -->
<g id="node7" class="node">
<title>6</title>
<path fill="none" stroke="#56d873" stroke-width="2" d="M447,-180C447,-180 337,-180 337,-180 331,-180 325,-174 325,-168 325,-168 325,-156 325,-156 325,-150 331,-144 337,-144 337,-144 447,-144 447,-144 453,-144 459,-150 459,-156 459,-156 459,-168 459,-168 459,-174 453,-180 447,-180"/>
<text text-anchor="middle" x="392" y="-165" font-family="sans" font-size="10.00">mafft_align_per_segment</text>
<text text-anchor="middle" x="392" y="-154" font-family="sans" font-size="10.00">segment: PB2</text>
</g>
<!-- 6&#45;&gt;5 -->
<g id="edge16" class="edge">
<title>6&#45;&gt;5</title>
<path fill="none" stroke="grey" stroke-width="2" d="M392,-143.7C392,-135.98 392,-126.71 392,-118.11"/>
<polygon fill="grey" stroke="grey" stroke-width="2" points="395.5,-118.1 392,-108.1 388.5,-118.1 395.5,-118.1"/>
</g>
<!-- 7 -->
<g id="node8" class="node">
<title>7</title>
<path fill="none" stroke="#56d8a9" stroke-width="2" d="M621.5,-108C621.5,-108 496.5,-108 496.5,-108 490.5,-108 484.5,-102 484.5,-96 484.5,-96 484.5,-84 484.5,-84 484.5,-78 490.5,-72 496.5,-72 496.5,-72 621.5,-72 621.5,-72 627.5,-72 633.5,-78 633.5,-84 633.5,-84 633.5,-96 633.5,-96 633.5,-102 627.5,-108 621.5,-108"/>
<text text-anchor="middle" x="559" y="-87.5" font-family="sans" font-size="10.00">raxml_ng_tree_per_segment</text>
</g>
<!-- 7&#45;&gt;0 -->
<g id="edge6" class="edge">
<title>7&#45;&gt;0</title>
<path fill="none" stroke="grey" stroke-width="2" d="M579.52,-71.7C589.87,-62.97 602.59,-52.24 613.84,-42.75"/>
<polygon fill="grey" stroke="grey" stroke-width="2" points="616.33,-45.23 621.72,-36.1 611.82,-39.88 616.33,-45.23"/>
</g>
<!-- 8 -->
<g id="node9" class="node">
<title>8</title>
<path fill="none" stroke="#56d873" stroke-width="2" d="M614,-180C614,-180 504,-180 504,-180 498,-180 492,-174 492,-168 492,-168 492,-156 492,-156 492,-150 498,-144 504,-144 504,-144 614,-144 614,-144 620,-144 626,-150 626,-156 626,-156 626,-168 626,-168 626,-174 620,-180 614,-180"/>
<text text-anchor="middle" x="559" y="-165" font-family="sans" font-size="10.00">mafft_align_per_segment</text>
<text text-anchor="middle" x="559" y="-154" font-family="sans" font-size="10.00">segment: PB1</text>
</g>
<!-- 8&#45;&gt;7 -->
<g id="edge17" class="edge">
<title>8&#45;&gt;7</title>
<path fill="none" stroke="grey" stroke-width="2" d="M559,-143.7C559,-135.98 559,-126.71 559,-118.11"/>
<polygon fill="grey" stroke="grey" stroke-width="2" points="562.5,-118.1 559,-108.1 555.5,-118.1 562.5,-118.1"/>
</g>
<!-- 9 -->
<g id="node10" class="node">
<title>9</title>
<path fill="none" stroke="#56d8a9" stroke-width="2" d="M788.5,-108C788.5,-108 663.5,-108 663.5,-108 657.5,-108 651.5,-102 651.5,-96 651.5,-96 651.5,-84 651.5,-84 651.5,-78 657.5,-72 663.5,-72 663.5,-72 788.5,-72 788.5,-72 794.5,-72 800.5,-78 800.5,-84 800.5,-84 800.5,-96 800.5,-96 800.5,-102 794.5,-108 788.5,-108"/>
<text text-anchor="middle" x="726" y="-87.5" font-family="sans" font-size="10.00">raxml_ng_tree_per_segment</text>
</g>
<!-- 9&#45;&gt;0 -->
<g id="edge7" class="edge">
<title>9&#45;&gt;0</title>
<path fill="none" stroke="grey" stroke-width="2" d="M705.24,-71.7C694.76,-62.97 681.89,-52.24 670.5,-42.75"/>
<polygon fill="grey" stroke="grey" stroke-width="2" points="672.45,-39.82 662.53,-36.1 667.97,-45.19 672.45,-39.82"/>
</g>
<!-- 10 -->
<g id="node11" class="node">
<title>10</title>
<path fill="none" stroke="#56d873" stroke-width="2" d="M781,-180C781,-180 671,-180 671,-180 665,-180 659,-174 659,-168 659,-168 659,-156 659,-156 659,-150 665,-144 671,-144 671,-144 781,-144 781,-144 787,-144 793,-150 793,-156 793,-156 793,-168 793,-168 793,-174 787,-180 781,-180"/>
<text text-anchor="middle" x="726" y="-165" font-family="sans" font-size="10.00">mafft_align_per_segment</text>
<text text-anchor="middle" x="726" y="-154" font-family="sans" font-size="10.00">segment: PA</text>
</g>
<!-- 10&#45;&gt;9 -->
<g id="edge18" class="edge">
<title>10&#45;&gt;9</title>
<path fill="none" stroke="grey" stroke-width="2" d="M726,-143.7C726,-135.98 726,-126.71 726,-118.11"/>
<polygon fill="grey" stroke="grey" stroke-width="2" points="729.5,-118.1 726,-108.1 722.5,-118.1 729.5,-118.1"/>
</g>
<!-- 11 -->
<g id="node12" class="node">
<title>11</title>
<path fill="none" stroke="#56d8a9" stroke-width="2" d="M955.5,-108C955.5,-108 830.5,-108 830.5,-108 824.5,-108 818.5,-102 818.5,-96 818.5,-96 818.5,-84 818.5,-84 818.5,-78 824.5,-72 830.5,-72 830.5,-72 955.5,-72 955.5,-72 961.5,-72 967.5,-78 967.5,-84 967.5,-84 967.5,-96 967.5,-96 967.5,-102 961.5,-108 955.5,-108"/>
<text text-anchor="middle" x="893" y="-87.5" font-family="sans" font-size="10.00">raxml_ng_tree_per_segment</text>
</g>
<!-- 11&#45;&gt;0 -->
<g id="edge8" class="edge">
<title>11&#45;&gt;0</title>
<path fill="none" stroke="grey" stroke-width="2" d="M831.92,-71.97C784.03,-58.61 718.97,-40.46 678.77,-29.25"/>
<polygon fill="grey" stroke="grey" stroke-width="2" points="679.68,-25.88 669.11,-26.56 677.8,-32.62 679.68,-25.88"/>
</g>
<!-- 12 -->
<g id="node13" class="node">
<title>12</title>
<path fill="none" stroke="#56d873" stroke-width="2" d="M948,-180C948,-180 838,-180 838,-180 832,-180 826,-174 826,-168 826,-168 826,-156 826,-156 826,-150 832,-144 838,-144 838,-144 948,-144 948,-144 954,-144 960,-150 960,-156 960,-156 960,-168 960,-168 960,-174 954,-180 948,-180"/>
<text text-anchor="middle" x="893" y="-165" font-family="sans" font-size="10.00">mafft_align_per_segment</text>
<text text-anchor="middle" x="893" y="-154" font-family="sans" font-size="10.00">segment: HA</text>
</g>
<!-- 12&#45;&gt;11 -->
<g id="edge19" class="edge">
<title>12&#45;&gt;11</title>
<path fill="none" stroke="grey" stroke-width="2" d="M893,-143.7C893,-135.98 893,-126.71 893,-118.11"/>
<polygon fill="grey" stroke="grey" stroke-width="2" points="896.5,-118.1 893,-108.1 889.5,-118.1 896.5,-118.1"/>
</g>
<!-- 13 -->
<g id="node14" class="node">
<title>13</title>
<path fill="none" stroke="#56d8a9" stroke-width="2" d="M1122.5,-108C1122.5,-108 997.5,-108 997.5,-108 991.5,-108 985.5,-102 985.5,-96 985.5,-96 985.5,-84 985.5,-84 985.5,-78 991.5,-72 997.5,-72 997.5,-72 1122.5,-72 1122.5,-72 1128.5,-72 1134.5,-78 1134.5,-84 1134.5,-84 1134.5,-96 1134.5,-96 1134.5,-102 1128.5,-108 1122.5,-108"/>
<text text-anchor="middle" x="1060" y="-87.5" font-family="sans" font-size="10.00">raxml_ng_tree_per_segment</text>
</g>
<!-- 13&#45;&gt;0 -->
<g id="edge9" class="edge">
<title>13&#45;&gt;0</title>
<path fill="none" stroke="grey" stroke-width="2" d="M985.37,-73.55C982.55,-73.02 979.75,-72.5 977,-72 869.38,-52.48 741.56,-33.38 679.52,-24.37"/>
<polygon fill="grey" stroke="grey" stroke-width="2" points="679.83,-20.88 669.43,-22.91 678.82,-27.81 679.83,-20.88"/>
</g>
<!-- 14 -->
<g id="node15" class="node">
<title>14</title>
<path fill="none" stroke="#56d873" stroke-width="2" d="M1115,-180C1115,-180 1005,-180 1005,-180 999,-180 993,-174 993,-168 993,-168 993,-156 993,-156 993,-150 999,-144 1005,-144 1005,-144 1115,-144 1115,-144 1121,-144 1127,-150 1127,-156 1127,-156 1127,-168 1127,-168 1127,-174 1121,-180 1115,-180"/>
<text text-anchor="middle" x="1060" y="-165" font-family="sans" font-size="10.00">mafft_align_per_segment</text>
<text text-anchor="middle" x="1060" y="-154" font-family="sans" font-size="10.00">segment: NP</text>
</g>
<!-- 14&#45;&gt;13 -->
<g id="edge20" class="edge">
<title>14&#45;&gt;13</title>
<path fill="none" stroke="grey" stroke-width="2" d="M1060,-143.7C1060,-135.98 1060,-126.71 1060,-118.11"/>
<polygon fill="grey" stroke="grey" stroke-width="2" points="1063.5,-118.1 1060,-108.1 1056.5,-118.1 1063.5,-118.1"/>
</g>
<!-- 15 -->
<g id="node16" class="node">
<title>15</title>
<path fill="none" stroke="#56d8a9" stroke-width="2" d="M1289.5,-108C1289.5,-108 1164.5,-108 1164.5,-108 1158.5,-108 1152.5,-102 1152.5,-96 1152.5,-96 1152.5,-84 1152.5,-84 1152.5,-78 1158.5,-72 1164.5,-72 1164.5,-72 1289.5,-72 1289.5,-72 1295.5,-72 1301.5,-78 1301.5,-84 1301.5,-84 1301.5,-96 1301.5,-96 1301.5,-102 1295.5,-108 1289.5,-108"/>
<text text-anchor="middle" x="1227" y="-87.5" font-family="sans" font-size="10.00">raxml_ng_tree_per_segment</text>
</g>
<!-- 15&#45;&gt;0 -->
<g id="edge10" class="edge">
<title>15&#45;&gt;0</title>
<path fill="none" stroke="grey" stroke-width="2" d="M1152.4,-73.37C1149.57,-72.89 1146.76,-72.43 1144,-72 971.04,-45.22 762.43,-27.97 679.05,-21.68"/>
<polygon fill="grey" stroke="grey" stroke-width="2" points="679.29,-18.18 669.06,-20.93 678.77,-25.16 679.29,-18.18"/>
</g>
<!-- 16 -->
<g id="node17" class="node">
<title>16</title>
<path fill="none" stroke="#56d873" stroke-width="2" d="M1282,-180C1282,-180 1172,-180 1172,-180 1166,-180 1160,-174 1160,-168 1160,-168 1160,-156 1160,-156 1160,-150 1166,-144 1172,-144 1172,-144 1282,-144 1282,-144 1288,-144 1294,-150 1294,-156 1294,-156 1294,-168 1294,-168 1294,-174 1288,-180 1282,-180"/>
<text text-anchor="middle" x="1227" y="-165" font-family="sans" font-size="10.00">mafft_align_per_segment</text>
<text text-anchor="middle" x="1227" y="-154" font-family="sans" font-size="10.00">segment: NA</text>
</g>
<!-- 16&#45;&gt;15 -->
<g id="edge21" class="edge">
<title>16&#45;&gt;15</title>
<path fill="none" stroke="grey" stroke-width="2" d="M1227,-143.7C1227,-135.98 1227,-126.71 1227,-118.11"/>
<polygon fill="grey" stroke="grey" stroke-width="2" points="1230.5,-118.1 1227,-108.1 1223.5,-118.1 1230.5,-118.1"/>
</g>
<!-- 17 -->
<g id="node18" class="node">
<title>17</title>
<path fill="none" stroke="#56d8a9" stroke-width="2" d="M1456.5,-108C1456.5,-108 1331.5,-108 1331.5,-108 1325.5,-108 1319.5,-102 1319.5,-96 1319.5,-96 1319.5,-84 1319.5,-84 1319.5,-78 1325.5,-72 1331.5,-72 1331.5,-72 1456.5,-72 1456.5,-72 1462.5,-72 1468.5,-78 1468.5,-84 1468.5,-84 1468.5,-96 1468.5,-96 1468.5,-102 1462.5,-108 1456.5,-108"/>
<text text-anchor="middle" x="1394" y="-87.5" font-family="sans" font-size="10.00">raxml_ng_tree_per_segment</text>
</g>
<!-- 17&#45;&gt;0 -->
<g id="edge11" class="edge">
<title>17&#45;&gt;0</title>
<path fill="none" stroke="grey" stroke-width="2" d="M1319.42,-73.27C1316.58,-72.82 1313.77,-72.39 1311,-72 1071.73,-38.15 781.03,-24.36 679.3,-20.34"/>
<polygon fill="grey" stroke="grey" stroke-width="2" points="679.34,-16.84 669.22,-19.95 679.07,-23.84 679.34,-16.84"/>
</g>
<!-- 18 -->
<g id="node19" class="node">
<title>18</title>
<path fill="none" stroke="#56d873" stroke-width="2" d="M1449,-180C1449,-180 1339,-180 1339,-180 1333,-180 1327,-174 1327,-168 1327,-168 1327,-156 1327,-156 1327,-150 1333,-144 1339,-144 1339,-144 1449,-144 1449,-144 1455,-144 1461,-150 1461,-156 1461,-156 1461,-168 1461,-168 1461,-174 1455,-180 1449,-180"/>
<text text-anchor="middle" x="1394" y="-165" font-family="sans" font-size="10.00">mafft_align_per_segment</text>
<text text-anchor="middle" x="1394" y="-154" font-family="sans" font-size="10.00">segment: MP</text>
</g>
<!-- 18&#45;&gt;17 -->
<g id="edge22" class="edge">
<title>18&#45;&gt;17</title>
<path fill="none" stroke="grey" stroke-width="2" d="M1394,-143.7C1394,-135.98 1394,-126.71 1394,-118.11"/>
<polygon fill="grey" stroke="grey" stroke-width="2" points="1397.5,-118.1 1394,-108.1 1390.5,-118.1 1397.5,-118.1"/>
</g>
<!-- 19 -->
<g id="node20" class="node">
<title>19</title>
<path fill="none" stroke="#56d8a9" stroke-width="2" d="M1623.5,-108C1623.5,-108 1498.5,-108 1498.5,-108 1492.5,-108 1486.5,-102 1486.5,-96 1486.5,-96 1486.5,-84 1486.5,-84 1486.5,-78 1492.5,-72 1498.5,-72 1498.5,-72 1623.5,-72 1623.5,-72 1629.5,-72 1635.5,-78 1635.5,-84 1635.5,-84 1635.5,-96 1635.5,-96 1635.5,-102 1629.5,-108 1623.5,-108"/>
<text text-anchor="middle" x="1561" y="-87.5" font-family="sans" font-size="10.00">raxml_ng_tree_per_segment</text>
</g>
<!-- 19&#45;&gt;0 -->
<g id="edge12" class="edge">
<title>19&#45;&gt;0</title>
<path fill="none" stroke="grey" stroke-width="2" d="M1486.43,-73.22C1483.59,-72.78 1480.77,-72.37 1478,-72 1171.51,-31.1 797.47,-21.58 679.49,-19.53"/>
<polygon fill="grey" stroke="grey" stroke-width="2" points="679.26,-16.02 669.2,-19.36 679.14,-23.02 679.26,-16.02"/>
</g>
<!-- 20 -->
<g id="node21" class="node">
<title>20</title>
<path fill="none" stroke="#56d873" stroke-width="2" d="M1616,-180C1616,-180 1506,-180 1506,-180 1500,-180 1494,-174 1494,-168 1494,-168 1494,-156 1494,-156 1494,-150 1500,-144 1506,-144 1506,-144 1616,-144 1616,-144 1622,-144 1628,-150 1628,-156 1628,-156 1628,-168 1628,-168 1628,-174 1622,-180 1616,-180"/>
<text text-anchor="middle" x="1561" y="-165" font-family="sans" font-size="10.00">mafft_align_per_segment</text>
<text text-anchor="middle" x="1561" y="-154" font-family="sans" font-size="10.00">segment: NS</text>
</g>
<!-- 20&#45;&gt;19 -->
<g id="edge23" class="edge">
<title>20&#45;&gt;19</title>
<path fill="none" stroke="grey" stroke-width="2" d="M1561,-143.7C1561,-135.98 1561,-126.71 1561,-118.11"/>
<polygon fill="grey" stroke="grey" stroke-width="2" points="1564.5,-118.1 1561,-108.1 1557.5,-118.1 1564.5,-118.1"/>
</g>
</g>
</svg>
