<?xml version="1.0" encoding="UTF-8" standalone="no"?>
<!DOCTYPE svg PUBLIC "-//W3C//DTD SVG 1.1//EN"
 "http://www.w3.org/Graphics/SVG/1.1/DTD/svg11.dtd">
<!-- Generated by graphviz version 2.43.0 (0)
 -->
<!-- Title: snakemake_dag Pages: 1 -->
<svg width="685pt" height="692pt"
 viewBox="0.00 0.00 684.50 692.00" xmlns="http://www.w3.org/2000/svg" xmlns:xlink="http://www.w3.org/1999/xlink">
<g id="graph0" class="graph" transform="scale(1 1) rotate(0) translate(4 688)">
<title>snakemake_dag</title>
<polygon fill="white" stroke="transparent" points="-4,4 -4,-688 680.5,-688 680.5,4 -4,4"/>
<!-- 0 -->
<g id="node1" class="node">
<title>0</title>
<path fill="none" stroke="#d86656" stroke-width="2" d="M257,-36C257,-36 227,-36 227,-36 221,-36 215,-30 215,-24 215,-24 215,-12 215,-12 215,-6 221,0 227,0 227,0 257,0 257,0 263,0 269,-6 269,-12 269,-12 269,-24 269,-24 269,-30 263,-36 257,-36"/>
<text text-anchor="middle" x="242" y="-15.5" font-family="sans" font-size="10.00">all</text>
</g>
<!-- 1 -->
<g id="node2" class="node">
<title>1</title>
<path fill="none" stroke="#d8bc56" stroke-width="2" d="M149.5,-540C149.5,-540 54.5,-540 54.5,-540 48.5,-540 42.5,-534 42.5,-528 42.5,-528 42.5,-516 42.5,-516 42.5,-510 48.5,-504 54.5,-504 54.5,-504 149.5,-504 149.5,-504 155.5,-504 161.5,-510 161.5,-516 161.5,-516 161.5,-528 161.5,-528 161.5,-534 155.5,-540 149.5,-540"/>
<text text-anchor="middle" x="102" y="-519.5" font-family="sans" font-size="10.00">build_h5n1_final_fasta</text>
</g>
<!-- 1&#45;&gt;0 -->
<g id="edge2" class="edge">
<title>1&#45;&gt;0</title>
<path fill="none" stroke="grey" stroke-width="2" d="M78.6,-503.92C48.49,-479.77 0,-432.57 0,-379 0,-379 0,-379 0,-161 0,-67.37 136.43,-34.29 204.42,-23.61"/>
<polygon fill="grey" stroke="grey" stroke-width="2" points="205.33,-27.02 214.71,-22.09 204.3,-20.09 205.33,-27.02"/>
</g>
<!-- 4 -->
<g id="node5" class="node">
<title>4</title>
<path fill="none" stroke="#d8ac56" stroke-width="2" d="M164.5,-396C164.5,-396 39.5,-396 39.5,-396 33.5,-396 27.5,-390 27.5,-384 27.5,-384 27.5,-372 27.5,-372 27.5,-366 33.5,-360 39.5,-360 39.5,-360 164.5,-360 164.5,-360 170.5,-360 176.5,-366 176.5,-372 176.5,-372 176.5,-384 176.5,-384 176.5,-390 170.5,-396 164.5,-396"/>
<text text-anchor="middle" x="102" y="-375.5" font-family="sans" font-size="10.00">build_h5n1_final_beast_fasta</text>
</g>
<!-- 1&#45;&gt;4 -->
<g id="edge10" class="edge">
<title>1&#45;&gt;4</title>
<path fill="none" stroke="grey" stroke-width="2" d="M102,-503.87C102,-479.67 102,-435.21 102,-406.39"/>
<polygon fill="grey" stroke="grey" stroke-width="2" points="105.5,-406.19 102,-396.19 98.5,-406.19 105.5,-406.19"/>
</g>
<!-- 7 -->
<g id="node8" class="node">
<title>7</title>
<path fill="none" stroke="#56c9d8" stroke-width="2" d="M266.5,-468C266.5,-468 141.5,-468 141.5,-468 135.5,-468 129.5,-462 129.5,-456 129.5,-456 129.5,-444 129.5,-444 129.5,-438 135.5,-432 141.5,-432 141.5,-432 266.5,-432 266.5,-432 272.5,-432 278.5,-438 278.5,-444 278.5,-444 278.5,-456 278.5,-456 278.5,-462 272.5,-468 266.5,-468"/>
<text text-anchor="middle" x="204" y="-447.5" font-family="sans" font-size="10.00">split_h5n1_final_by_segment</text>
</g>
<!-- 1&#45;&gt;7 -->
<g id="edge15" class="edge">
<title>1&#45;&gt;7</title>
<path fill="none" stroke="grey" stroke-width="2" d="M126.95,-503.88C140.04,-494.89 156.26,-483.76 170.44,-474.03"/>
<polygon fill="grey" stroke="grey" stroke-width="2" points="172.69,-476.73 178.95,-468.19 168.73,-470.96 172.69,-476.73"/>
</g>
<!-- 2 -->
<g id="node3" class="node">
<title>2</title>
<path fill="none" stroke="#d89c56" stroke-width="2" d="M145,-612C145,-612 59,-612 59,-612 53,-612 47,-606 47,-600 47,-600 47,-588 47,-588 47,-582 53,-576 59,-576 59,-576 145,-576 145,-576 151,-576 157,-582 157,-588 157,-588 157,-600 157,-600 157,-606 151,-612 145,-612"/>
<text text-anchor="middle" x="102" y="-591.5" font-family="sans" font-size="10.00">build_h5n1_ec_fasta</text>
</g>
<!-- 2&#45;&gt;1 -->
<g id="edge8" class="edge">
<title>2&#45;&gt;1</title>
<path fill="none" stroke="grey" stroke-width="2" d="M102,-575.7C102,-567.98 102,-558.71 102,-550.11"/>
<polygon fill="grey" stroke="grey" stroke-width="2" points="105.5,-550.1 102,-540.1 98.5,-550.1 105.5,-550.1"/>
</g>
<!-- 3 -->
<g id="node4" class="node">
<title>3</title>
<path fill="none" stroke="#d87556" stroke-width="2" d="M178,-684C178,-684 26,-684 26,-684 20,-684 14,-678 14,-672 14,-672 14,-660 14,-660 14,-654 20,-648 26,-648 26,-648 178,-648 178,-648 184,-648 190,-654 190,-660 190,-660 190,-672 190,-672 190,-678 184,-684 178,-684"/>
<text text-anchor="middle" x="102" y="-663.5" font-family="sans" font-size="10.00">build_ecuador_intermediate_input</text>
</g>
<!-- 3&#45;&gt;2 -->
<g id="edge9" class="edge">
<title>3&#45;&gt;2</title>
<path fill="none" stroke="grey" stroke-width="2" d="M102,-647.7C102,-639.98 102,-630.71 102,-622.11"/>
<polygon fill="grey" stroke="grey" stroke-width="2" points="105.5,-622.1 102,-612.1 98.5,-622.1 105.5,-622.1"/>
</g>
<!-- 4&#45;&gt;0 -->
<g id="edge6" class="edge">
<title>4&#45;&gt;0</title>
<path fill="none" stroke="grey" stroke-width="2" d="M108.48,-359.79C117.83,-333.36 134,-280.99 134,-235 134,-235 134,-235 134,-161 134,-111.1 176.77,-67.77 208.48,-42.5"/>
<polygon fill="grey" stroke="grey" stroke-width="2" points="210.91,-45.05 216.68,-36.17 206.63,-39.51 210.91,-45.05"/>
</g>
<!-- 5 -->
<g id="node6" class="node">
<title>5</title>
<path fill="none" stroke="#d6d856" stroke-width="2" d="M523,-180C523,-180 339,-180 339,-180 333,-180 327,-174 327,-168 327,-168 327,-156 327,-156 327,-150 333,-144 339,-144 339,-144 523,-144 523,-144 529,-144 535,-150 535,-156 535,-156 535,-168 535,-168 535,-174 529,-180 523,-180"/>
<text text-anchor="middle" x="431" y="-159.5" font-family="sans" font-size="10.00">concat_aligned_segments_with_partitions</text>
</g>
<!-- 5&#45;&gt;0 -->
<g id="edge4" class="edge">
<title>5&#45;&gt;0</title>
<path fill="none" stroke="grey" stroke-width="2" d="M440.69,-143.7C450.14,-124.25 460.97,-92.67 445,-72 424.91,-45.99 332.26,-30.31 279.34,-23.33"/>
<polygon fill="grey" stroke="grey" stroke-width="2" points="279.68,-19.84 269.32,-22.04 278.79,-26.78 279.68,-19.84"/>
</g>
<!-- 11 -->
<g id="node12" class="node">
<title>11</title>
<path fill="none" stroke="#9fd856" stroke-width="2" d="M424,-108C424,-108 282,-108 282,-108 276,-108 270,-102 270,-96 270,-96 270,-84 270,-84 270,-78 276,-72 282,-72 282,-72 424,-72 424,-72 430,-72 436,-78 436,-84 436,-84 436,-96 436,-96 436,-102 430,-108 424,-108"/>
<text text-anchor="middle" x="353" y="-87.5" font-family="sans" font-size="10.00">raxml_ng_tree_full_concat_beast</text>
</g>
<!-- 5&#45;&gt;11 -->
<g id="edge20" class="edge">
<title>5&#45;&gt;11</title>
<path fill="none" stroke="grey" stroke-width="2" d="M411.72,-143.7C402.08,-135.05 390.27,-124.45 379.77,-115.03"/>
<polygon fill="grey" stroke="grey" stroke-width="2" points="381.84,-112.18 372.06,-108.1 377.16,-117.39 381.84,-112.18"/>
</g>
<!-- 6 -->
<g id="node7" class="node">
<title>6</title>
<path fill="none" stroke="#afd856" stroke-width="2" d="M499,-396C499,-396 389,-396 389,-396 383,-396 377,-390 377,-384 377,-384 377,-372 377,-372 377,-366 383,-360 389,-360 389,-360 499,-360 499,-360 505,-360 511,-366 511,-372 511,-372 511,-384 511,-384 511,-390 505,-396 499,-396"/>
<text text-anchor="middle" x="444" y="-375.5" font-family="sans" font-size="10.00">mafft_align_per_segment</text>
</g>
<!-- 6&#45;&gt;5 -->
<g id="edge11" class="edge">
<title>6&#45;&gt;5</title>
<path fill="none" stroke="grey" stroke-width="2" d="M442.96,-359.85C440.71,-322.83 435.38,-235.18 432.66,-190.39"/>
<polygon fill="grey" stroke="grey" stroke-width="2" points="436.15,-190 432.05,-180.23 429.16,-190.43 436.15,-190"/>
</g>
<!-- 8 -->
<g id="node9" class="node">
<title>8</title>
<path fill="none" stroke="#70d856" stroke-width="2" d="M642,-252C642,-252 484,-252 484,-252 478,-252 472,-246 472,-240 472,-240 472,-228 472,-228 472,-222 478,-216 484,-216 484,-216 642,-216 642,-216 648,-216 654,-222 654,-228 654,-228 654,-240 654,-240 654,-246 648,-252 642,-252"/>
<text text-anchor="middle" x="563" y="-231.5" font-family="sans" font-size="10.00">raxml_ng_tree_per_segment_codon</text>
</g>
<!-- 6&#45;&gt;8 -->
<g id="edge16" class="edge">
<title>6&#45;&gt;8</title>
<path fill="none" stroke="grey" stroke-width="2" d="M452.95,-359.91C463.18,-341.2 481.12,-310.83 501,-288 510.1,-277.55 521.3,-267.35 531.67,-258.73"/>
<polygon fill="grey" stroke="grey" stroke-width="2" points="534.18,-261.2 539.75,-252.18 529.77,-255.76 534.18,-261.2"/>
</g>
<!-- 9 -->
<g id="node10" class="node">
<title>9</title>
<path fill="none" stroke="#d8cb56" stroke-width="2" d="M664.5,-324C664.5,-324 521.5,-324 521.5,-324 515.5,-324 509.5,-318 509.5,-312 509.5,-312 509.5,-300 509.5,-300 509.5,-294 515.5,-288 521.5,-288 521.5,-288 664.5,-288 664.5,-288 670.5,-288 676.5,-294 676.5,-300 676.5,-300 676.5,-312 676.5,-312 676.5,-318 670.5,-324 664.5,-324"/>
<text text-anchor="middle" x="593" y="-303.5" font-family="sans" font-size="10.00">build_segment_codon_partitions</text>
</g>
<!-- 6&#45;&gt;9 -->
<g id="edge18" class="edge">
<title>6&#45;&gt;9</title>
<path fill="none" stroke="grey" stroke-width="2" d="M480.45,-359.88C500.64,-350.39 525.92,-338.51 547.41,-328.42"/>
<polygon fill="grey" stroke="grey" stroke-width="2" points="549.11,-331.49 556.67,-324.07 546.13,-325.15 549.11,-331.49"/>
</g>
<!-- 10 -->
<g id="node11" class="node">
<title>10</title>
<path fill="none" stroke="#56d85b" stroke-width="2" d="M404,-252C404,-252 244,-252 244,-252 238,-252 232,-246 232,-240 232,-240 232,-228 232,-228 232,-222 238,-216 244,-216 244,-216 404,-216 404,-216 410,-216 416,-222 416,-228 416,-228 416,-240 416,-240 416,-246 410,-252 404,-252"/>
<text text-anchor="middle" x="324" y="-231.5" font-family="sans" font-size="10.00">raxml_ng_tree_per_segment_simple</text>
</g>
<!-- 6&#45;&gt;10 -->
<g id="edge19" class="edge">
<title>6&#45;&gt;10</title>
<path fill="none" stroke="grey" stroke-width="2" d="M429.53,-359.87C408.53,-335.03 369.5,-288.85 345.25,-260.14"/>
<polygon fill="grey" stroke="grey" stroke-width="2" points="347.65,-257.57 338.53,-252.19 342.31,-262.09 347.65,-257.57"/>
</g>
<!-- 7&#45;&gt;0 -->
<g id="edge5" class="edge">
<title>7&#45;&gt;0</title>
<path fill="none" stroke="grey" stroke-width="2" d="M204,-431.95C204,-405.29 204,-352.11 204,-307 204,-307 204,-307 204,-161 204,-119.63 219.23,-73.72 230.41,-45.61"/>
<polygon fill="grey" stroke="grey" stroke-width="2" points="233.76,-46.67 234.31,-36.09 227.28,-44.02 233.76,-46.67"/>
</g>
<!-- 7&#45;&gt;6 -->
<g id="edge14" class="edge">
<title>7&#45;&gt;6</title>
<path fill="none" stroke="grey" stroke-width="2" d="M262.4,-431.97C296.52,-422.01 339.75,-409.41 375.47,-398.99"/>
<polygon fill="grey" stroke="grey" stroke-width="2" points="376.71,-402.27 385.33,-396.11 374.75,-395.55 376.71,-402.27"/>
</g>
<!-- 8&#45;&gt;0 -->
<g id="edge1" class="edge">
<title>8&#45;&gt;0</title>
<path fill="none" stroke="grey" stroke-width="2" d="M562.48,-215.8C561.22,-196.99 557.12,-166.53 544,-144 519.77,-102.37 505.7,-94.29 463,-72 403.29,-40.84 324.95,-27.67 279.37,-22.35"/>
<polygon fill="grey" stroke="grey" stroke-width="2" points="279.66,-18.86 269.34,-21.25 278.89,-25.82 279.66,-18.86"/>
</g>
<!-- 8&#45;&gt;5 -->
<g id="edge12" class="edge">
<title>8&#45;&gt;5</title>
<path fill="none" stroke="grey" stroke-width="2" d="M530.71,-215.88C513.13,-206.55 491.19,-194.92 472.37,-184.94"/>
<polygon fill="grey" stroke="grey" stroke-width="2" points="473.89,-181.78 463.41,-180.19 470.61,-187.97 473.89,-181.78"/>
</g>
<!-- 9&#45;&gt;8 -->
<g id="edge17" class="edge">
<title>9&#45;&gt;8</title>
<path fill="none" stroke="grey" stroke-width="2" d="M585.58,-287.7C582.21,-279.81 578.13,-270.3 574.38,-261.55"/>
<polygon fill="grey" stroke="grey" stroke-width="2" points="577.49,-259.92 570.33,-252.1 571.05,-262.67 577.49,-259.92"/>
</g>
<!-- 10&#45;&gt;0 -->
<g id="edge7" class="edge">
<title>10&#45;&gt;0</title>
<path fill="none" stroke="grey" stroke-width="2" d="M313.55,-215.83C299.66,-192.3 275.21,-148.34 261,-108 253.88,-87.79 248.97,-64.01 245.93,-46.12"/>
<polygon fill="grey" stroke="grey" stroke-width="2" points="249.36,-45.4 244.31,-36.09 242.45,-46.52 249.36,-45.4"/>
</g>
<!-- 10&#45;&gt;5 -->
<g id="edge13" class="edge">
<title>10&#45;&gt;5</title>
<path fill="none" stroke="grey" stroke-width="2" d="M350.18,-215.88C364.04,-206.81 381.24,-195.55 396.21,-185.76"/>
<polygon fill="grey" stroke="grey" stroke-width="2" points="398.27,-188.59 404.72,-180.19 394.44,-182.74 398.27,-188.59"/>
</g>
<!-- 11&#45;&gt;0 -->
<g id="edge3" class="edge">
<title>11&#45;&gt;0</title>
<path fill="none" stroke="grey" stroke-width="2" d="M325.85,-71.88C311.47,-62.81 293.62,-51.55 278.09,-41.76"/>
<polygon fill="grey" stroke="grey" stroke-width="2" points="279.58,-38.56 269.26,-36.19 275.85,-44.48 279.58,-38.56"/>
</g>
</g>
</svg>
