<?xml version="1.0" encoding="UTF-8" standalone="no"?>
<!DOCTYPE svg PUBLIC "-//W3C//DTD SVG 1.1//EN"
 "http://www.w3.org/Graphics/SVG/1.1/DTD/svg11.dtd">
<!-- Generated by graphviz version 2.43.0 (0)
 -->
<!-- Title: snakemake_dag Pages: 1 -->
<svg width="2070pt" height="1556pt"
 viewBox="0.00 0.00 2070.46 1556.00" xmlns="http://www.w3.org/2000/svg" xmlns:xlink="http://www.w3.org/1999/xlink">
<g id="graph0" class="graph" transform="scale(1 1) rotate(0) translate(4 1552)">
<title>snakemake_dag</title>
<polygon fill="white" stroke="transparent" points="-4,4 -4,-1552 2066.46,-1552 2066.46,4 -4,4"/>
<!-- 1 -->
<g id="node1" class="node">
<title>1</title>
<path fill="none" stroke="#5682d8" stroke-width="2" d="M1425.96,-36C1425.96,-36 1330.96,-36 1330.96,-36 1324.96,-36 1318.96,-30 1318.96,-24 1318.96,-24 1318.96,-12 1318.96,-12 1318.96,-6 1324.96,0 1330.96,0 1330.96,0 1425.96,0 1425.96,0 1431.96,0 1437.96,-6 1437.96,-12 1437.96,-12 1437.96,-24 1437.96,-24 1437.96,-30 1431.96,-36 1425.96,-36"/>
<text text-anchor="middle" x="1378.46" y="-15.5" font-family="sans" font-size="10.00">summarize_beast_run</text>
</g>
<!-- 2 -->
<g id="node2" class="node">
<title>2</title>
<path fill="none" stroke="#56d0d8" stroke-width="2" d="M1352.96,-180C1352.96,-180 1269.96,-180 1269.96,-180 1263.96,-180 1257.96,-174 1257.96,-168 1257.96,-168 1257.96,-156 1257.96,-156 1257.96,-150 1263.96,-144 1269.96,-144 1269.96,-144 1352.96,-144 1352.96,-144 1358.96,-144 1364.96,-150 1364.96,-156 1364.96,-156 1364.96,-168 1364.96,-168 1364.96,-174 1358.96,-180 1352.96,-180"/>
<text text-anchor="middle" x="1311.46" y="-165" font-family="sans" font-size="10.00">run_beast_replicate</text>
<text text-anchor="middle" x="1311.46" y="-154" font-family="sans" font-size="10.00">replicate: r1</text>
</g>
<!-- 2&#45;&gt;1 -->
<g id="edge1" class="edge">
<title>2&#45;&gt;1</title>
<path fill="none" stroke="grey" stroke-width="2" d="M1312.49,-143.71C1314.18,-125.1 1318.66,-95.06 1330.46,-72 1335.75,-61.68 1343.56,-51.83 1351.36,-43.49"/>
<polygon fill="grey" stroke="grey" stroke-width="2" points="1353.94,-45.87 1358.45,-36.28 1348.94,-40.96 1353.94,-45.87"/>
</g>
<!-- 41 -->
<g id="node41" class="node">
<title>41</title>
<path fill="none" stroke="#56d0d8" stroke-width="2" d="M1434.96,-108C1434.96,-108 1351.96,-108 1351.96,-108 1345.96,-108 1339.96,-102 1339.96,-96 1339.96,-96 1339.96,-84 1339.96,-84 1339.96,-78 1345.96,-72 1351.96,-72 1351.96,-72 1434.96,-72 1434.96,-72 1440.96,-72 1446.96,-78 1446.96,-84 1446.96,-84 1446.96,-96 1446.96,-96 1446.96,-102 1440.96,-108 1434.96,-108"/>
<text text-anchor="middle" x="1393.46" y="-93" font-family="sans" font-size="10.00">run_beast_replicate</text>
<text text-anchor="middle" x="1393.46" y="-82" font-family="sans" font-size="10.00">replicate: r2</text>
</g>
<!-- 2&#45;&gt;41 -->
<g id="edge76" class="edge">
<title>2&#45;&gt;41</title>
<path fill="none" stroke="grey" stroke-width="2" d="M1331.73,-143.7C1341.96,-134.97 1354.52,-124.24 1365.64,-114.75"/>
<polygon fill="grey" stroke="grey" stroke-width="2" points="1368.09,-117.26 1373.43,-108.1 1363.55,-111.94 1368.09,-117.26"/>
</g>
<!-- 3 -->
<g id="node3" class="node">
<title>3</title>
<path fill="none" stroke="#56d882" stroke-width="2" d="M1443.46,-324C1443.46,-324 1339.46,-324 1339.46,-324 1333.46,-324 1327.46,-318 1327.46,-312 1327.46,-312 1327.46,-300 1327.46,-300 1327.46,-294 1333.46,-288 1339.46,-288 1339.46,-288 1443.46,-288 1443.46,-288 1449.46,-288 1455.46,-294 1455.46,-300 1455.46,-300 1455.46,-312 1455.46,-312 1455.46,-318 1449.46,-324 1443.46,-324"/>
<text text-anchor="middle" x="1391.46" y="-309" font-family="sans" font-size="10.00">prepare_beast_run_xml</text>
<text text-anchor="middle" x="1391.46" y="-298" font-family="sans" font-size="10.00">scenario: strict_constant</text>
</g>
<!-- 3&#45;&gt;2 -->
<g id="edge3" class="edge">
<title>3&#45;&gt;2</title>
<path fill="none" stroke="grey" stroke-width="2" d="M1349.35,-287.87C1334.28,-279.45 1318.94,-267.67 1310.46,-252 1300.28,-233.16 1301.41,-208.64 1304.6,-190.11"/>
<polygon fill="grey" stroke="grey" stroke-width="2" points="1308.04,-190.73 1306.58,-180.24 1301.18,-189.36 1308.04,-190.73"/>
</g>
<!-- 40 -->
<g id="node40" class="node">
<title>40</title>
<path fill="none" stroke="#5663d8" stroke-width="2" d="M1411.46,-252C1411.46,-252 1331.46,-252 1331.46,-252 1325.46,-252 1319.46,-246 1319.46,-240 1319.46,-240 1319.46,-228 1319.46,-228 1319.46,-222 1325.46,-216 1331.46,-216 1331.46,-216 1411.46,-216 1411.46,-216 1417.46,-216 1423.46,-222 1423.46,-228 1423.46,-228 1423.46,-240 1423.46,-240 1423.46,-246 1417.46,-252 1411.46,-252"/>
<text text-anchor="middle" x="1371.46" y="-231.5" font-family="sans" font-size="10.00">validate_beast_xml</text>
</g>
<!-- 3&#45;&gt;40 -->
<g id="edge73" class="edge">
<title>3&#45;&gt;40</title>
<path fill="none" stroke="grey" stroke-width="2" d="M1386.52,-287.7C1384.29,-279.9 1381.61,-270.51 1379.13,-261.83"/>
<polygon fill="grey" stroke="grey" stroke-width="2" points="1382.46,-260.76 1376.35,-252.1 1375.73,-262.68 1382.46,-260.76"/>
</g>
<!-- 3&#45;&gt;41 -->
<g id="edge74" class="edge">
<title>3&#45;&gt;41</title>
<path fill="none" stroke="grey" stroke-width="2" d="M1409.63,-287.68C1418.35,-278.1 1427.87,-265.43 1432.46,-252 1448.37,-205.43 1425.59,-149.19 1408.73,-117.01"/>
<polygon fill="grey" stroke="grey" stroke-width="2" points="1411.8,-115.33 1403.96,-108.21 1405.65,-118.67 1411.8,-115.33"/>
</g>
<!-- 4 -->
<g id="node4" class="node">
<title>4</title>
<path fill="none" stroke="#8fd856" stroke-width="2" d="M1592.96,-468C1592.96,-468 1445.96,-468 1445.96,-468 1439.96,-468 1433.96,-462 1433.96,-456 1433.96,-456 1433.96,-444 1433.96,-444 1433.96,-438 1439.96,-432 1445.96,-432 1445.96,-432 1592.96,-432 1592.96,-432 1598.96,-432 1604.96,-438 1604.96,-444 1604.96,-444 1604.96,-456 1604.96,-456 1604.96,-462 1598.96,-468 1592.96,-468"/>
<text text-anchor="middle" x="1519.46" y="-447.5" font-family="sans" font-size="10.00">filter_beast_panel_by_rtt_outliers</text>
</g>
<!-- 4&#45;&gt;3 -->
<g id="edge5" class="edge">
<title>4&#45;&gt;3</title>
<path fill="none" stroke="grey" stroke-width="2" d="M1518.64,-431.74C1516.89,-412.31 1511.41,-380.76 1494.46,-360 1483.56,-346.65 1468.42,-336.3 1453.1,-328.44"/>
<polygon fill="grey" stroke="grey" stroke-width="2" points="1454.61,-325.28 1444.09,-324.09 1451.57,-331.59 1454.61,-325.28"/>
</g>
<!-- 39 -->
<g id="node39" class="node">
<title>39</title>
<path fill="none" stroke="#56d88a" stroke-width="2" d="M1473.96,-396C1473.96,-396 1308.96,-396 1308.96,-396 1302.96,-396 1296.96,-390 1296.96,-384 1296.96,-384 1296.96,-372 1296.96,-372 1296.96,-366 1302.96,-360 1308.96,-360 1308.96,-360 1473.96,-360 1473.96,-360 1479.96,-360 1485.96,-366 1485.96,-372 1485.96,-372 1485.96,-384 1485.96,-384 1485.96,-390 1479.96,-396 1473.96,-396"/>
<text text-anchor="middle" x="1391.46" y="-375.5" font-family="sans" font-size="10.00">publish_final_panel_concat_alignment</text>
</g>
<!-- 4&#45;&gt;39 -->
<g id="edge72" class="edge">
<title>4&#45;&gt;39</title>
<path fill="none" stroke="grey" stroke-width="2" d="M1488.15,-431.88C1471.26,-422.64 1450.22,-411.13 1432.08,-401.21"/>
<polygon fill="grey" stroke="grey" stroke-width="2" points="1433.35,-397.92 1422.89,-396.19 1429.99,-404.06 1433.35,-397.92"/>
</g>
<!-- 44 -->
<g id="node44" class="node">
<title>44</title>
<path fill="none" stroke="#56d882" stroke-width="2" d="M1602.96,-324C1602.96,-324 1501.96,-324 1501.96,-324 1495.96,-324 1489.96,-318 1489.96,-312 1489.96,-312 1489.96,-300 1489.96,-300 1489.96,-294 1495.96,-288 1501.96,-288 1501.96,-288 1602.96,-288 1602.96,-288 1608.96,-288 1614.96,-294 1614.96,-300 1614.96,-300 1614.96,-312 1614.96,-312 1614.96,-318 1608.96,-324 1602.96,-324"/>
<text text-anchor="middle" x="1552.46" y="-309" font-family="sans" font-size="10.00">prepare_beast_run_xml</text>
<text text-anchor="middle" x="1552.46" y="-298" font-family="sans" font-size="10.00">scenario: ucln_constant</text>
</g>
<!-- 4&#45;&gt;44 -->
<g id="edge81" class="edge">
<title>4&#45;&gt;44</title>
<path fill="none" stroke="grey" stroke-width="2" d="M1523.44,-431.87C1529.09,-407.56 1539.49,-362.82 1546.18,-334.01"/>
<polygon fill="grey" stroke="grey" stroke-width="2" points="1549.61,-334.72 1548.47,-324.19 1542.79,-333.14 1549.61,-334.72"/>
</g>
<!-- 5 -->
<g id="node5" class="node">
<title>5</title>
<path fill="none" stroke="#97d856" stroke-width="2" d="M1642.46,-756C1642.46,-756 1536.46,-756 1536.46,-756 1530.46,-756 1524.46,-750 1524.46,-744 1524.46,-744 1524.46,-732 1524.46,-732 1524.46,-726 1530.46,-720 1536.46,-720 1536.46,-720 1642.46,-720 1642.46,-720 1648.46,-720 1654.46,-726 1654.46,-732 1654.46,-732 1654.46,-744 1654.46,-744 1654.46,-750 1648.46,-756 1642.46,-756"/>
<text text-anchor="middle" x="1589.46" y="-735.5" font-family="sans" font-size="10.00">filter_beast_panel_by_qc</text>
</g>
<!-- 5&#45;&gt;4 -->
<g id="edge7" class="edge">
<title>5&#45;&gt;4</title>
<path fill="none" stroke="grey" stroke-width="2" d="M1588.95,-719.8C1587.73,-690.05 1583.68,-627.24 1570.46,-576 1561.37,-540.74 1544.53,-502.23 1532.69,-477.41"/>
<polygon fill="grey" stroke="grey" stroke-width="2" points="1535.78,-475.76 1528.27,-468.29 1529.48,-478.81 1535.78,-475.76"/>
</g>
<!-- 37 -->
<g id="node37" class="node">
<title>37</title>
<path fill="none" stroke="#56a9d8" stroke-width="2" d="M1547.46,-684C1547.46,-684 1291.46,-684 1291.46,-684 1285.46,-684 1279.46,-678 1279.46,-672 1279.46,-672 1279.46,-660 1279.46,-660 1279.46,-654 1285.46,-648 1291.46,-648 1291.46,-648 1547.46,-648 1547.46,-648 1553.46,-648 1559.46,-654 1559.46,-660 1559.46,-660 1559.46,-672 1559.46,-672 1559.46,-678 1553.46,-684 1547.46,-684"/>
<text text-anchor="middle" x="1419.46" y="-663.5" font-family="sans" font-size="10.00">subset_filtered_panel_concat_alignment_and_prune_tree</text>
</g>
<!-- 5&#45;&gt;37 -->
<g id="edge69" class="edge">
<title>5&#45;&gt;37</title>
<path fill="none" stroke="grey" stroke-width="2" d="M1547.88,-719.88C1524.43,-710.22 1494.96,-698.09 1470.16,-687.88"/>
<polygon fill="grey" stroke="grey" stroke-width="2" points="1471.49,-684.64 1460.91,-684.07 1468.83,-691.11 1471.49,-684.64"/>
</g>
<!-- 6 -->
<g id="node6" class="node">
<title>6</title>
<path fill="none" stroke="#d88d56" stroke-width="2" d="M1629.46,-900C1629.46,-900 1549.46,-900 1549.46,-900 1543.46,-900 1537.46,-894 1537.46,-888 1537.46,-888 1537.46,-876 1537.46,-876 1537.46,-870 1543.46,-864 1549.46,-864 1549.46,-864 1629.46,-864 1629.46,-864 1635.46,-864 1641.46,-870 1641.46,-876 1641.46,-876 1641.46,-888 1641.46,-888 1641.46,-894 1635.46,-900 1629.46,-900"/>
<text text-anchor="middle" x="1589.46" y="-879.5" font-family="sans" font-size="10.00">build_beast_panels</text>
</g>
<!-- 6&#45;&gt;5 -->
<g id="edge10" class="edge">
<title>6&#45;&gt;5</title>
<path fill="none" stroke="grey" stroke-width="2" d="M1589.46,-863.87C1589.46,-839.67 1589.46,-795.21 1589.46,-766.39"/>
<polygon fill="grey" stroke="grey" stroke-width="2" points="1592.96,-766.19 1589.46,-756.19 1585.96,-766.19 1592.96,-766.19"/>
</g>
<!-- 35 -->
<g id="node35" class="node">
<title>35</title>
<path fill="none" stroke="#61d856" stroke-width="2" d="M2013.46,-828C2013.46,-828 1867.46,-828 1867.46,-828 1861.46,-828 1855.46,-822 1855.46,-816 1855.46,-816 1855.46,-804 1855.46,-804 1855.46,-798 1861.46,-792 1867.46,-792 1867.46,-792 2013.46,-792 2013.46,-792 2019.46,-792 2025.46,-798 2025.46,-804 2025.46,-804 2025.46,-816 2025.46,-816 2025.46,-822 2019.46,-828 2013.46,-828"/>
<text text-anchor="middle" x="1940.46" y="-807.5" font-family="sans" font-size="10.00">observe_beast_subset_source_qc</text>
</g>
<!-- 6&#45;&gt;35 -->
<g id="edge62" class="edge">
<title>6&#45;&gt;35</title>
<path fill="none" stroke="grey" stroke-width="2" d="M1641.63,-870.6C1695.22,-859.91 1779.82,-843.04 1845.35,-829.97"/>
<polygon fill="grey" stroke="grey" stroke-width="2" points="1846.16,-833.38 1855.29,-827.99 1844.79,-826.51 1846.16,-833.38"/>
</g>
<!-- 7 -->
<g id="node7" class="node">
<title>7</title>
<path fill="none" stroke="#56d89a" stroke-width="2" d="M1475.46,-972C1475.46,-972 1363.46,-972 1363.46,-972 1357.46,-972 1351.46,-966 1351.46,-960 1351.46,-960 1351.46,-948 1351.46,-948 1351.46,-942 1357.46,-936 1363.46,-936 1363.46,-936 1475.46,-936 1475.46,-936 1481.46,-936 1487.46,-942 1487.46,-948 1487.46,-948 1487.46,-960 1487.46,-960 1487.46,-966 1481.46,-972 1475.46,-972"/>
<text text-anchor="middle" x="1419.46" y="-951.5" font-family="sans" font-size="10.00">raxml_ng_tree_full_concat</text>
</g>
<!-- 7&#45;&gt;6 -->
<g id="edge12" class="edge">
<title>7&#45;&gt;6</title>
<path fill="none" stroke="grey" stroke-width="2" d="M1461.05,-935.88C1484.5,-926.22 1513.97,-914.09 1538.76,-903.88"/>
<polygon fill="grey" stroke="grey" stroke-width="2" points="1540.1,-907.11 1548.01,-900.07 1537.43,-900.64 1540.1,-907.11"/>
</g>
<!-- 7&#45;&gt;37 -->
<g id="edge68" class="edge">
<title>7&#45;&gt;37</title>
<path fill="none" stroke="grey" stroke-width="2" d="M1419.46,-935.97C1419.46,-888.29 1419.46,-753.18 1419.46,-694.63"/>
<polygon fill="grey" stroke="grey" stroke-width="2" points="1422.96,-694.31 1419.46,-684.31 1415.96,-694.31 1422.96,-694.31"/>
</g>
<!-- 8 -->
<g id="node8" class="node">
<title>8</title>
<path fill="none" stroke="#a7d856" stroke-width="2" d="M1116.46,-1044C1116.46,-1044 932.46,-1044 932.46,-1044 926.46,-1044 920.46,-1038 920.46,-1032 920.46,-1032 920.46,-1020 920.46,-1020 920.46,-1014 926.46,-1008 932.46,-1008 932.46,-1008 1116.46,-1008 1116.46,-1008 1122.46,-1008 1128.46,-1014 1128.46,-1020 1128.46,-1020 1128.46,-1032 1128.46,-1032 1128.46,-1038 1122.46,-1044 1116.46,-1044"/>
<text text-anchor="middle" x="1024.46" y="-1023.5" font-family="sans" font-size="10.00">concat_aligned_segments_with_partitions</text>
</g>
<!-- 8&#45;&gt;7 -->
<g id="edge13" class="edge">
<title>8&#45;&gt;7</title>
<path fill="none" stroke="grey" stroke-width="2" d="M1120.58,-1007.97C1188.32,-995.96 1277.89,-980.09 1341.26,-968.86"/>
<polygon fill="grey" stroke="grey" stroke-width="2" points="1341.96,-972.29 1351.2,-967.1 1340.74,-965.4 1341.96,-972.29"/>
</g>
<!-- 8&#45;&gt;37 -->
<g id="edge67" class="edge">
<title>8&#45;&gt;37</title>
<path fill="none" stroke="grey" stroke-width="2" d="M1078.96,-1007.89C1131.94,-987.46 1204.46,-947.68 1204.46,-883 1204.46,-883 1204.46,-883 1204.46,-809 1204.46,-743.82 1274.11,-706.84 1334.12,-687.07"/>
<polygon fill="grey" stroke="grey" stroke-width="2" points="1335.19,-690.4 1343.66,-684.04 1333.07,-683.73 1335.19,-690.4"/>
</g>
<!-- 9 -->
<g id="node9" class="node">
<title>9</title>
<path fill="none" stroke="#80d856" stroke-width="2" d="M1612.46,-1260C1612.46,-1260 1502.46,-1260 1502.46,-1260 1496.46,-1260 1490.46,-1254 1490.46,-1248 1490.46,-1248 1490.46,-1236 1490.46,-1236 1490.46,-1230 1496.46,-1224 1502.46,-1224 1502.46,-1224 1612.46,-1224 1612.46,-1224 1618.46,-1224 1624.46,-1230 1624.46,-1236 1624.46,-1236 1624.46,-1248 1624.46,-1248 1624.46,-1254 1618.46,-1260 1612.46,-1260"/>
<text text-anchor="middle" x="1557.46" y="-1245" font-family="sans" font-size="10.00">mafft_align_per_segment</text>
<text text-anchor="middle" x="1557.46" y="-1234" font-family="sans" font-size="10.00">segment: PB2</text>
</g>
<!-- 9&#45;&gt;8 -->
<g id="edge14" class="edge">
<title>9&#45;&gt;8</title>
<path fill="none" stroke="grey" stroke-width="2" d="M1575.12,-1223.87C1605.92,-1191.95 1662.63,-1122.78 1623.46,-1080 1591.46,-1045.04 1303.52,-1033.01 1138.8,-1028.97"/>
<polygon fill="grey" stroke="grey" stroke-width="2" points="1138.7,-1025.47 1128.62,-1028.73 1138.53,-1032.47 1138.7,-1025.47"/>
</g>
<!-- 21 -->
<g id="node21" class="node">
<title>21</title>
<path fill="none" stroke="#56d8a9" stroke-width="2" d="M1602.46,-1116C1602.46,-1116 1444.46,-1116 1444.46,-1116 1438.46,-1116 1432.46,-1110 1432.46,-1104 1432.46,-1104 1432.46,-1092 1432.46,-1092 1432.46,-1086 1438.46,-1080 1444.46,-1080 1444.46,-1080 1602.46,-1080 1602.46,-1080 1608.46,-1080 1614.46,-1086 1614.46,-1092 1614.46,-1092 1614.46,-1104 1614.46,-1104 1614.46,-1110 1608.46,-1116 1602.46,-1116"/>
<text text-anchor="middle" x="1523.46" y="-1095.5" font-family="sans" font-size="10.00">raxml_ng_tree_per_segment_codon</text>
</g>
<!-- 9&#45;&gt;21 -->
<g id="edge41" class="edge">
<title>9&#45;&gt;21</title>
<path fill="none" stroke="grey" stroke-width="2" d="M1570.24,-1223.79C1582.14,-1205.5 1596.51,-1175.98 1585.46,-1152 1580.14,-1140.44 1570.91,-1130.47 1561.18,-1122.4"/>
<polygon fill="grey" stroke="grey" stroke-width="2" points="1563.02,-1119.39 1552.97,-1116.06 1558.75,-1124.94 1563.02,-1119.39"/>
</g>
<!-- 22 -->
<g id="node22" class="node">
<title>22</title>
<path fill="none" stroke="#c6d856" stroke-width="2" d="M1564.96,-1188C1564.96,-1188 1421.96,-1188 1421.96,-1188 1415.96,-1188 1409.96,-1182 1409.96,-1176 1409.96,-1176 1409.96,-1164 1409.96,-1164 1409.96,-1158 1415.96,-1152 1421.96,-1152 1421.96,-1152 1564.96,-1152 1564.96,-1152 1570.96,-1152 1576.96,-1158 1576.96,-1164 1576.96,-1164 1576.96,-1176 1576.96,-1176 1576.96,-1182 1570.96,-1188 1564.96,-1188"/>
<text text-anchor="middle" x="1493.46" y="-1167.5" font-family="sans" font-size="10.00">build_segment_codon_partitions</text>
</g>
<!-- 9&#45;&gt;22 -->
<g id="edge43" class="edge">
<title>9&#45;&gt;22</title>
<path fill="none" stroke="grey" stroke-width="2" d="M1541.64,-1223.7C1533.89,-1215.22 1524.42,-1204.86 1515.94,-1195.58"/>
<polygon fill="grey" stroke="grey" stroke-width="2" points="1518.43,-1193.12 1509.1,-1188.1 1513.27,-1197.85 1518.43,-1193.12"/>
</g>
<!-- 10 -->
<g id="node10" class="node">
<title>10</title>
<path fill="none" stroke="#56b9d8" stroke-width="2" stroke-dasharray="5,2" d="M1118.96,-1332C1118.96,-1332 993.96,-1332 993.96,-1332 987.96,-1332 981.96,-1326 981.96,-1320 981.96,-1320 981.96,-1308 981.96,-1308 981.96,-1302 987.96,-1296 993.96,-1296 993.96,-1296 1118.96,-1296 1118.96,-1296 1124.96,-1296 1130.96,-1302 1130.96,-1308 1130.96,-1308 1130.96,-1320 1130.96,-1320 1130.96,-1326 1124.96,-1332 1118.96,-1332"/>
<text text-anchor="middle" x="1056.46" y="-1311.5" font-family="sans" font-size="10.00">split_h5n1_final_by_segment</text>
</g>
<!-- 10&#45;&gt;9 -->
<g id="edge30" class="edge">
<title>10&#45;&gt;9</title>
<path fill="none" stroke="grey" stroke-width="2" d="M1131.2,-1302.56C1225.02,-1289.45 1385.17,-1267.07 1480.18,-1253.8"/>
<polygon fill="grey" stroke="grey" stroke-width="2" points="1480.88,-1257.23 1490.3,-1252.38 1479.91,-1250.3 1480.88,-1257.23"/>
</g>
<!-- 14 -->
<g id="node14" class="node">
<title>14</title>
<path fill="none" stroke="#80d856" stroke-width="2" d="M1781.46,-1260C1781.46,-1260 1671.46,-1260 1671.46,-1260 1665.46,-1260 1659.46,-1254 1659.46,-1248 1659.46,-1248 1659.46,-1236 1659.46,-1236 1659.46,-1230 1665.46,-1224 1671.46,-1224 1671.46,-1224 1781.46,-1224 1781.46,-1224 1787.46,-1224 1793.46,-1230 1793.46,-1236 1793.46,-1236 1793.46,-1248 1793.46,-1248 1793.46,-1254 1787.46,-1260 1781.46,-1260"/>
<text text-anchor="middle" x="1726.46" y="-1245" font-family="sans" font-size="10.00">mafft_align_per_segment</text>
<text text-anchor="middle" x="1726.46" y="-1234" font-family="sans" font-size="10.00">segment: PB1</text>
</g>
<!-- 10&#45;&gt;14 -->
<g id="edge34" class="edge">
<title>10&#45;&gt;14</title>
<path fill="none" stroke="grey" stroke-width="2" d="M1131.4,-1308.26C1241.69,-1300.8 1454.07,-1284.59 1633.46,-1260 1638.57,-1259.3 1643.82,-1258.52 1649.1,-1257.68"/>
<polygon fill="grey" stroke="grey" stroke-width="2" points="1649.97,-1261.09 1659.27,-1256.02 1648.84,-1254.18 1649.97,-1261.09"/>
</g>
<!-- 15 -->
<g id="node15" class="node">
<title>15</title>
<path fill="none" stroke="#80d856" stroke-width="2" d="M210.46,-1260C210.46,-1260 100.46,-1260 100.46,-1260 94.46,-1260 88.46,-1254 88.46,-1248 88.46,-1248 88.46,-1236 88.46,-1236 88.46,-1230 94.46,-1224 100.46,-1224 100.46,-1224 210.46,-1224 210.46,-1224 216.46,-1224 222.46,-1230 222.46,-1236 222.46,-1236 222.46,-1248 222.46,-1248 222.46,-1254 216.46,-1260 210.46,-1260"/>
<text text-anchor="middle" x="155.46" y="-1245" font-family="sans" font-size="10.00">mafft_align_per_segment</text>
<text text-anchor="middle" x="155.46" y="-1234" font-family="sans" font-size="10.00">segment: PA</text>
</g>
<!-- 10&#45;&gt;15 -->
<g id="edge35" class="edge">
<title>10&#45;&gt;15</title>
<path fill="none" stroke="grey" stroke-width="2" d="M981.79,-1308C850.99,-1299.13 571.9,-1279.72 336.46,-1260 302.41,-1257.15 264.78,-1253.67 232.69,-1250.6"/>
<polygon fill="grey" stroke="grey" stroke-width="2" points="232.77,-1247.09 222.48,-1249.62 232.1,-1254.06 232.77,-1247.09"/>
</g>
<!-- 16 -->
<g id="node16" class="node">
<title>16</title>
<path fill="none" stroke="#80d856" stroke-width="2" d="M467.46,-1260C467.46,-1260 357.46,-1260 357.46,-1260 351.46,-1260 345.46,-1254 345.46,-1248 345.46,-1248 345.46,-1236 345.46,-1236 345.46,-1230 351.46,-1224 357.46,-1224 357.46,-1224 467.46,-1224 467.46,-1224 473.46,-1224 479.46,-1230 479.46,-1236 479.46,-1236 479.46,-1248 479.46,-1248 479.46,-1254 473.46,-1260 467.46,-1260"/>
<text text-anchor="middle" x="412.46" y="-1245" font-family="sans" font-size="10.00">mafft_align_per_segment</text>
<text text-anchor="middle" x="412.46" y="-1234" font-family="sans" font-size="10.00">segment: HA</text>
</g>
<!-- 10&#45;&gt;16 -->
<g id="edge36" class="edge">
<title>10&#45;&gt;16</title>
<path fill="none" stroke="grey" stroke-width="2" d="M981.96,-1304.9C858.94,-1291.53 614.55,-1264.97 489.74,-1251.4"/>
<polygon fill="grey" stroke="grey" stroke-width="2" points="489.82,-1247.89 479.5,-1250.29 489.06,-1254.85 489.82,-1247.89"/>
</g>
<!-- 17 -->
<g id="node17" class="node">
<title>17</title>
<path fill="none" stroke="#80d856" stroke-width="2" d="M952.46,-1260C952.46,-1260 842.46,-1260 842.46,-1260 836.46,-1260 830.46,-1254 830.46,-1248 830.46,-1248 830.46,-1236 830.46,-1236 830.46,-1230 836.46,-1224 842.46,-1224 842.46,-1224 952.46,-1224 952.46,-1224 958.46,-1224 964.46,-1230 964.46,-1236 964.46,-1236 964.46,-1248 964.46,-1248 964.46,-1254 958.46,-1260 952.46,-1260"/>
<text text-anchor="middle" x="897.46" y="-1245" font-family="sans" font-size="10.00">mafft_align_per_segment</text>
<text text-anchor="middle" x="897.46" y="-1234" font-family="sans" font-size="10.00">segment: NP</text>
</g>
<!-- 10&#45;&gt;17 -->
<g id="edge37" class="edge">
<title>10&#45;&gt;17</title>
<path fill="none" stroke="grey" stroke-width="2" d="M1017.57,-1295.88C995.83,-1286.31 968.56,-1274.3 945.5,-1264.15"/>
<polygon fill="grey" stroke="grey" stroke-width="2" points="946.79,-1260.89 936.23,-1260.07 943.97,-1267.3 946.79,-1260.89"/>
</g>
<!-- 18 -->
<g id="node18" class="node">
<title>18</title>
<path fill="none" stroke="#80d856" stroke-width="2" d="M1271.46,-1260C1271.46,-1260 1161.46,-1260 1161.46,-1260 1155.46,-1260 1149.46,-1254 1149.46,-1248 1149.46,-1248 1149.46,-1236 1149.46,-1236 1149.46,-1230 1155.46,-1224 1161.46,-1224 1161.46,-1224 1271.46,-1224 1271.46,-1224 1277.46,-1224 1283.46,-1230 1283.46,-1236 1283.46,-1236 1283.46,-1248 1283.46,-1248 1283.46,-1254 1277.46,-1260 1271.46,-1260"/>
<text text-anchor="middle" x="1216.46" y="-1245" font-family="sans" font-size="10.00">mafft_align_per_segment</text>
<text text-anchor="middle" x="1216.46" y="-1234" font-family="sans" font-size="10.00">segment: NA</text>
</g>
<!-- 10&#45;&gt;18 -->
<g id="edge38" class="edge">
<title>10&#45;&gt;18</title>
<path fill="none" stroke="grey" stroke-width="2" d="M1095.6,-1295.88C1117.48,-1286.31 1144.92,-1274.3 1168.12,-1264.15"/>
<polygon fill="grey" stroke="grey" stroke-width="2" points="1169.69,-1267.28 1177.45,-1260.07 1166.88,-1260.87 1169.69,-1267.28"/>
</g>
<!-- 19 -->
<g id="node19" class="node">
<title>19</title>
<path fill="none" stroke="#80d856" stroke-width="2" d="M686.46,-1188C686.46,-1188 576.46,-1188 576.46,-1188 570.46,-1188 564.46,-1182 564.46,-1176 564.46,-1176 564.46,-1164 564.46,-1164 564.46,-1158 570.46,-1152 576.46,-1152 576.46,-1152 686.46,-1152 686.46,-1152 692.46,-1152 698.46,-1158 698.46,-1164 698.46,-1164 698.46,-1176 698.46,-1176 698.46,-1182 692.46,-1188 686.46,-1188"/>
<text text-anchor="middle" x="631.46" y="-1173" font-family="sans" font-size="10.00">mafft_align_per_segment</text>
<text text-anchor="middle" x="631.46" y="-1162" font-family="sans" font-size="10.00">segment: MP</text>
</g>
<!-- 10&#45;&gt;19 -->
<g id="edge39" class="edge">
<title>10&#45;&gt;19</title>
<path fill="none" stroke="grey" stroke-width="2" d="M981.76,-1300.43C935,-1291.52 873.89,-1277.95 821.46,-1260 767.93,-1241.67 709.41,-1212.81 671.66,-1192.96"/>
<polygon fill="grey" stroke="grey" stroke-width="2" points="673,-1189.71 662.53,-1188.12 669.72,-1195.89 673,-1189.71"/>
</g>
<!-- 20 -->
<g id="node20" class="node">
<title>20</title>
<path fill="none" stroke="#80d856" stroke-width="2" d="M1111.46,-1188C1111.46,-1188 1001.46,-1188 1001.46,-1188 995.46,-1188 989.46,-1182 989.46,-1176 989.46,-1176 989.46,-1164 989.46,-1164 989.46,-1158 995.46,-1152 1001.46,-1152 1001.46,-1152 1111.46,-1152 1111.46,-1152 1117.46,-1152 1123.46,-1158 1123.46,-1164 1123.46,-1164 1123.46,-1176 1123.46,-1176 1123.46,-1182 1117.46,-1188 1111.46,-1188"/>
<text text-anchor="middle" x="1056.46" y="-1173" font-family="sans" font-size="10.00">mafft_align_per_segment</text>
<text text-anchor="middle" x="1056.46" y="-1162" font-family="sans" font-size="10.00">segment: NS</text>
</g>
<!-- 10&#45;&gt;20 -->
<g id="edge40" class="edge">
<title>10&#45;&gt;20</title>
<path fill="none" stroke="grey" stroke-width="2" d="M1056.46,-1295.87C1056.46,-1271.67 1056.46,-1227.21 1056.46,-1198.39"/>
<polygon fill="grey" stroke="grey" stroke-width="2" points="1059.96,-1198.19 1056.46,-1188.19 1052.96,-1198.19 1059.96,-1198.19"/>
</g>
<!-- 11 -->
<g id="node11" class="node">
<title>11</title>
<path fill="none" stroke="#d8d356" stroke-width="2" stroke-dasharray="5,2" d="M1937.96,-1404C1937.96,-1404 1842.96,-1404 1842.96,-1404 1836.96,-1404 1830.96,-1398 1830.96,-1392 1830.96,-1392 1830.96,-1380 1830.96,-1380 1830.96,-1374 1836.96,-1368 1842.96,-1368 1842.96,-1368 1937.96,-1368 1937.96,-1368 1943.96,-1368 1949.96,-1374 1949.96,-1380 1949.96,-1380 1949.96,-1392 1949.96,-1392 1949.96,-1398 1943.96,-1404 1937.96,-1404"/>
<text text-anchor="middle" x="1890.46" y="-1383.5" font-family="sans" font-size="10.00">build_h5n1_final_fasta</text>
</g>
<!-- 11&#45;&gt;10 -->
<g id="edge31" class="edge">
<title>11&#45;&gt;10</title>
<path fill="none" stroke="grey" stroke-width="2" d="M1830.82,-1379.99C1685.04,-1367.76 1310.29,-1336.3 1141.33,-1322.12"/>
<polygon fill="grey" stroke="grey" stroke-width="2" points="1141.49,-1318.62 1131.23,-1321.28 1140.9,-1325.6 1141.49,-1318.62"/>
</g>
<!-- 11&#45;&gt;35 -->
<g id="edge61" class="edge">
<title>11&#45;&gt;35</title>
<path fill="none" stroke="grey" stroke-width="2" d="M1900.82,-1367.76C1915.47,-1341.7 1940.46,-1290.31 1940.46,-1243 1940.46,-1243 1940.46,-1243 1940.46,-953 1940.46,-913 1940.46,-866.65 1940.46,-838.08"/>
<polygon fill="grey" stroke="grey" stroke-width="2" points="1943.96,-838.05 1940.46,-828.05 1936.96,-838.05 1943.96,-838.05"/>
</g>
<!-- 12 -->
<g id="node12" class="node">
<title>12</title>
<path fill="none" stroke="#d8c356" stroke-width="2" stroke-dasharray="5,2" d="M1976.46,-1476C1976.46,-1476 1890.46,-1476 1890.46,-1476 1884.46,-1476 1878.46,-1470 1878.46,-1464 1878.46,-1464 1878.46,-1452 1878.46,-1452 1878.46,-1446 1884.46,-1440 1890.46,-1440 1890.46,-1440 1976.46,-1440 1976.46,-1440 1982.46,-1440 1988.46,-1446 1988.46,-1452 1988.46,-1452 1988.46,-1464 1988.46,-1464 1988.46,-1470 1982.46,-1476 1976.46,-1476"/>
<text text-anchor="middle" x="1933.46" y="-1455.5" font-family="sans" font-size="10.00">build_h5n1_ec_fasta</text>
</g>
<!-- 12&#45;&gt;11 -->
<g id="edge32" class="edge">
<title>12&#45;&gt;11</title>
<path fill="none" stroke="grey" stroke-width="2" d="M1922.83,-1439.7C1917.83,-1431.56 1911.77,-1421.69 1906.25,-1412.7"/>
<polygon fill="grey" stroke="grey" stroke-width="2" points="1909.19,-1410.79 1900.97,-1404.1 1903.22,-1414.46 1909.19,-1410.79"/>
</g>
<!-- 12&#45;&gt;35 -->
<g id="edge63" class="edge">
<title>12&#45;&gt;35</title>
<path fill="none" stroke="grey" stroke-width="2" d="M1942.79,-1439.63C1955.97,-1413.41 1978.46,-1361.81 1978.46,-1315 1978.46,-1315 1978.46,-1315 1978.46,-953 1978.46,-911.63 1963.23,-865.72 1952.05,-837.61"/>
<polygon fill="grey" stroke="grey" stroke-width="2" points="1955.18,-836.02 1948.15,-828.09 1948.71,-838.67 1955.18,-836.02"/>
</g>
<!-- 13 -->
<g id="node13" class="node">
<title>13</title>
<path fill="none" stroke="#d89c56" stroke-width="2" stroke-dasharray="5,2" d="M2050.46,-1548C2050.46,-1548 1898.46,-1548 1898.46,-1548 1892.46,-1548 1886.46,-1542 1886.46,-1536 1886.46,-1536 1886.46,-1524 1886.46,-1524 1886.46,-1518 1892.46,-1512 1898.46,-1512 1898.46,-1512 2050.46,-1512 2050.46,-1512 2056.46,-1512 2062.46,-1518 2062.46,-1524 2062.46,-1524 2062.46,-1536 2062.46,-1536 2062.46,-1542 2056.46,-1548 2050.46,-1548"/>
<text text-anchor="middle" x="1974.46" y="-1527.5" font-family="sans" font-size="10.00">build_ecuador_intermediate_input</text>
</g>
<!-- 13&#45;&gt;12 -->
<g id="edge33" class="edge">
<title>13&#45;&gt;12</title>
<path fill="none" stroke="grey" stroke-width="2" d="M1964.33,-1511.7C1959.61,-1503.64 1953.9,-1493.89 1948.68,-1484.98"/>
<polygon fill="grey" stroke="grey" stroke-width="2" points="1951.55,-1482.96 1943.48,-1476.1 1945.51,-1486.5 1951.55,-1482.96"/>
</g>
<!-- 13&#45;&gt;35 -->
<g id="edge64" class="edge">
<title>13&#45;&gt;35</title>
<path fill="none" stroke="grey" stroke-width="2" d="M1982.96,-1511.99C1995.23,-1485.82 2016.46,-1433.79 2016.46,-1387 2016.46,-1387 2016.46,-1387 2016.46,-953 2016.46,-907.64 1985.95,-862.75 1963.59,-835.95"/>
<polygon fill="grey" stroke="grey" stroke-width="2" points="1966.13,-833.53 1956.95,-828.23 1960.82,-838.09 1966.13,-833.53"/>
</g>
<!-- 14&#45;&gt;8 -->
<g id="edge15" class="edge">
<title>14&#45;&gt;8</title>
<path fill="none" stroke="grey" stroke-width="2" d="M1793.65,-1236.07C1826.38,-1229.88 1862.99,-1216.51 1883.46,-1188 1902.28,-1161.78 1866.81,-1084.23 1861.46,-1080 1806.11,-1036.26 1354.89,-1028.37 1138.89,-1027.12"/>
<polygon fill="grey" stroke="grey" stroke-width="2" points="1138.8,-1023.62 1128.78,-1027.07 1138.76,-1030.62 1138.8,-1023.62"/>
</g>
<!-- 23 -->
<g id="node23" class="node">
<title>23</title>
<path fill="none" stroke="#56d8a9" stroke-width="2" d="M1840.46,-1116C1840.46,-1116 1682.46,-1116 1682.46,-1116 1676.46,-1116 1670.46,-1110 1670.46,-1104 1670.46,-1104 1670.46,-1092 1670.46,-1092 1670.46,-1086 1676.46,-1080 1682.46,-1080 1682.46,-1080 1840.46,-1080 1840.46,-1080 1846.46,-1080 1852.46,-1086 1852.46,-1092 1852.46,-1092 1852.46,-1104 1852.46,-1104 1852.46,-1110 1846.46,-1116 1840.46,-1116"/>
<text text-anchor="middle" x="1761.46" y="-1095.5" font-family="sans" font-size="10.00">raxml_ng_tree_per_segment_codon</text>
</g>
<!-- 14&#45;&gt;23 -->
<g id="edge44" class="edge">
<title>14&#45;&gt;23</title>
<path fill="none" stroke="grey" stroke-width="2" d="M1713.65,-1223.77C1701.72,-1205.47 1687.32,-1175.94 1698.46,-1152 1703.89,-1140.34 1713.28,-1130.34 1723.18,-1122.26"/>
<polygon fill="grey" stroke="grey" stroke-width="2" points="1725.31,-1125.03 1731.16,-1116.2 1721.08,-1119.45 1725.31,-1125.03"/>
</g>
<!-- 24 -->
<g id="node24" class="node">
<title>24</title>
<path fill="none" stroke="#c6d856" stroke-width="2" d="M1862.96,-1188C1862.96,-1188 1719.96,-1188 1719.96,-1188 1713.96,-1188 1707.96,-1182 1707.96,-1176 1707.96,-1176 1707.96,-1164 1707.96,-1164 1707.96,-1158 1713.96,-1152 1719.96,-1152 1719.96,-1152 1862.96,-1152 1862.96,-1152 1868.96,-1152 1874.96,-1158 1874.96,-1164 1874.96,-1164 1874.96,-1176 1874.96,-1176 1874.96,-1182 1868.96,-1188 1862.96,-1188"/>
<text text-anchor="middle" x="1791.46" y="-1167.5" font-family="sans" font-size="10.00">build_segment_codon_partitions</text>
</g>
<!-- 14&#45;&gt;24 -->
<g id="edge46" class="edge">
<title>14&#45;&gt;24</title>
<path fill="none" stroke="grey" stroke-width="2" d="M1742.53,-1223.7C1750.4,-1215.22 1760.02,-1204.86 1768.64,-1195.58"/>
<polygon fill="grey" stroke="grey" stroke-width="2" points="1771.34,-1197.81 1775.58,-1188.1 1766.21,-1193.05 1771.34,-1197.81"/>
</g>
<!-- 15&#45;&gt;8 -->
<g id="edge16" class="edge">
<title>15&#45;&gt;8</title>
<path fill="none" stroke="grey" stroke-width="2" d="M167.86,-1223.59C175,-1213.37 184,-1200.12 191.46,-1188 220.25,-1141.24 205.12,-1109.45 251.46,-1080 305.61,-1045.59 708.35,-1033.03 910.05,-1028.87"/>
<polygon fill="grey" stroke="grey" stroke-width="2" points="910.17,-1032.37 920.09,-1028.66 910.02,-1025.37 910.17,-1032.37"/>
</g>
<!-- 25 -->
<g id="node25" class="node">
<title>25</title>
<path fill="none" stroke="#56d8a9" stroke-width="2" d="M170.46,-1116C170.46,-1116 12.46,-1116 12.46,-1116 6.46,-1116 0.46,-1110 0.46,-1104 0.46,-1104 0.46,-1092 0.46,-1092 0.46,-1086 6.46,-1080 12.46,-1080 12.46,-1080 170.46,-1080 170.46,-1080 176.46,-1080 182.46,-1086 182.46,-1092 182.46,-1092 182.46,-1104 182.46,-1104 182.46,-1110 176.46,-1116 170.46,-1116"/>
<text text-anchor="middle" x="91.46" y="-1095.5" font-family="sans" font-size="10.00">raxml_ng_tree_per_segment_codon</text>
</g>
<!-- 15&#45;&gt;25 -->
<g id="edge47" class="edge">
<title>15&#45;&gt;25</title>
<path fill="none" stroke="grey" stroke-width="2" d="M88.15,-1234.39C57.98,-1227.69 25.06,-1214.36 6.46,-1188 -2.76,-1174.93 -1.3,-1165.99 6.46,-1152 13.59,-1139.15 25.28,-1129.01 37.73,-1121.19"/>
<polygon fill="grey" stroke="grey" stroke-width="2" points="39.54,-1124.19 46.43,-1116.14 36.02,-1118.13 39.54,-1124.19"/>
</g>
<!-- 26 -->
<g id="node26" class="node">
<title>26</title>
<path fill="none" stroke="#c6d856" stroke-width="2" d="M170.96,-1188C170.96,-1188 27.96,-1188 27.96,-1188 21.96,-1188 15.96,-1182 15.96,-1176 15.96,-1176 15.96,-1164 15.96,-1164 15.96,-1158 21.96,-1152 27.96,-1152 27.96,-1152 170.96,-1152 170.96,-1152 176.96,-1152 182.96,-1158 182.96,-1164 182.96,-1164 182.96,-1176 182.96,-1176 182.96,-1182 176.96,-1188 170.96,-1188"/>
<text text-anchor="middle" x="99.46" y="-1167.5" font-family="sans" font-size="10.00">build_segment_codon_partitions</text>
</g>
<!-- 15&#45;&gt;26 -->
<g id="edge49" class="edge">
<title>15&#45;&gt;26</title>
<path fill="none" stroke="grey" stroke-width="2" d="M141.62,-1223.7C134.97,-1215.39 126.88,-1205.28 119.57,-1196.14"/>
<polygon fill="grey" stroke="grey" stroke-width="2" points="122.13,-1193.73 113.15,-1188.1 116.66,-1198.1 122.13,-1193.73"/>
</g>
<!-- 16&#45;&gt;8 -->
<g id="edge17" class="edge">
<title>16&#45;&gt;8</title>
<path fill="none" stroke="grey" stroke-width="2" d="M377,-1223.9C320.04,-1194.31 219.23,-1131.72 267.46,-1080 310.29,-1034.07 709.32,-1027.16 910.14,-1026.62"/>
<polygon fill="grey" stroke="grey" stroke-width="2" points="910.44,-1030.12 920.43,-1026.6 910.42,-1023.12 910.44,-1030.12"/>
</g>
<!-- 27 -->
<g id="node27" class="node">
<title>27</title>
<path fill="none" stroke="#56d8a9" stroke-width="2" d="M446.46,-1116C446.46,-1116 288.46,-1116 288.46,-1116 282.46,-1116 276.46,-1110 276.46,-1104 276.46,-1104 276.46,-1092 276.46,-1092 276.46,-1086 282.46,-1080 288.46,-1080 288.46,-1080 446.46,-1080 446.46,-1080 452.46,-1080 458.46,-1086 458.46,-1092 458.46,-1092 458.46,-1104 458.46,-1104 458.46,-1110 452.46,-1116 446.46,-1116"/>
<text text-anchor="middle" x="367.46" y="-1095.5" font-family="sans" font-size="10.00">raxml_ng_tree_per_segment_codon</text>
</g>
<!-- 16&#45;&gt;27 -->
<g id="edge50" class="edge">
<title>16&#45;&gt;27</title>
<path fill="none" stroke="grey" stroke-width="2" d="M373.69,-1223.78C359.28,-1215.24 344.5,-1203.4 336.46,-1188 325.79,-1167.56 336.27,-1142.65 347.84,-1124.39"/>
<polygon fill="grey" stroke="grey" stroke-width="2" points="350.81,-1126.25 353.52,-1116 345.01,-1122.32 350.81,-1126.25"/>
</g>
<!-- 28 -->
<g id="node28" class="node">
<title>28</title>
<path fill="none" stroke="#c6d856" stroke-width="2" d="M500.96,-1188C500.96,-1188 357.96,-1188 357.96,-1188 351.96,-1188 345.96,-1182 345.96,-1176 345.96,-1176 345.96,-1164 345.96,-1164 345.96,-1158 351.96,-1152 357.96,-1152 357.96,-1152 500.96,-1152 500.96,-1152 506.96,-1152 512.96,-1158 512.96,-1164 512.96,-1164 512.96,-1176 512.96,-1176 512.96,-1182 506.96,-1188 500.96,-1188"/>
<text text-anchor="middle" x="429.46" y="-1167.5" font-family="sans" font-size="10.00">build_segment_codon_partitions</text>
</g>
<!-- 16&#45;&gt;28 -->
<g id="edge52" class="edge">
<title>16&#45;&gt;28</title>
<path fill="none" stroke="grey" stroke-width="2" d="M416.66,-1223.7C418.56,-1215.9 420.84,-1206.51 422.95,-1197.83"/>
<polygon fill="grey" stroke="grey" stroke-width="2" points="426.35,-1198.65 425.31,-1188.1 419.55,-1197 426.35,-1198.65"/>
</g>
<!-- 17&#45;&gt;8 -->
<g id="edge18" class="edge">
<title>17&#45;&gt;8</title>
<path fill="none" stroke="grey" stroke-width="2" d="M830.24,-1233.96C800.29,-1227.15 767.53,-1213.85 748.46,-1188 719.97,-1149.35 714.84,-1116.99 745.46,-1080 766.62,-1054.44 842.65,-1041.11 910,-1034.21"/>
<polygon fill="grey" stroke="grey" stroke-width="2" points="910.69,-1037.66 920.3,-1033.2 910.01,-1030.69 910.69,-1037.66"/>
</g>
<!-- 29 -->
<g id="node29" class="node">
<title>29</title>
<path fill="none" stroke="#56d8a9" stroke-width="2" d="M924.46,-1116C924.46,-1116 766.46,-1116 766.46,-1116 760.46,-1116 754.46,-1110 754.46,-1104 754.46,-1104 754.46,-1092 754.46,-1092 754.46,-1086 760.46,-1080 766.46,-1080 766.46,-1080 924.46,-1080 924.46,-1080 930.46,-1080 936.46,-1086 936.46,-1092 936.46,-1092 936.46,-1104 936.46,-1104 936.46,-1110 930.46,-1116 924.46,-1116"/>
<text text-anchor="middle" x="845.46" y="-1095.5" font-family="sans" font-size="10.00">raxml_ng_tree_per_segment_codon</text>
</g>
<!-- 17&#45;&gt;29 -->
<g id="edge53" class="edge">
<title>17&#45;&gt;29</title>
<path fill="none" stroke="grey" stroke-width="2" d="M913.28,-1224C928.35,-1205.63 946.91,-1175.8 933.46,-1152 926.12,-1139.01 914.17,-1128.84 901.42,-1121.05"/>
<polygon fill="grey" stroke="grey" stroke-width="2" points="902.93,-1117.89 892.5,-1116.03 899.5,-1123.99 902.93,-1117.89"/>
</g>
<!-- 30 -->
<g id="node30" class="node">
<title>30</title>
<path fill="none" stroke="#c6d856" stroke-width="2" d="M912.96,-1188C912.96,-1188 769.96,-1188 769.96,-1188 763.96,-1188 757.96,-1182 757.96,-1176 757.96,-1176 757.96,-1164 757.96,-1164 757.96,-1158 763.96,-1152 769.96,-1152 769.96,-1152 912.96,-1152 912.96,-1152 918.96,-1152 924.96,-1158 924.96,-1164 924.96,-1164 924.96,-1176 924.96,-1176 924.96,-1182 918.96,-1188 912.96,-1188"/>
<text text-anchor="middle" x="841.46" y="-1167.5" font-family="sans" font-size="10.00">build_segment_codon_partitions</text>
</g>
<!-- 17&#45;&gt;30 -->
<g id="edge55" class="edge">
<title>17&#45;&gt;30</title>
<path fill="none" stroke="grey" stroke-width="2" d="M883.62,-1223.7C876.97,-1215.39 868.88,-1205.28 861.57,-1196.14"/>
<polygon fill="grey" stroke="grey" stroke-width="2" points="864.13,-1193.73 855.15,-1188.1 858.66,-1198.1 864.13,-1193.73"/>
</g>
<!-- 18&#45;&gt;8 -->
<g id="edge19" class="edge">
<title>18&#45;&gt;8</title>
<path fill="none" stroke="grey" stroke-width="2" d="M1283.79,-1230.45C1311.76,-1222.91 1342.52,-1210.01 1363.46,-1188 1397.23,-1152.52 1417.49,-1117.07 1385.46,-1080 1353.95,-1043.52 1232.3,-1031.68 1138.83,-1028.08"/>
<polygon fill="grey" stroke="grey" stroke-width="2" points="1138.85,-1024.58 1128.73,-1027.72 1138.6,-1031.58 1138.85,-1024.58"/>
</g>
<!-- 31 -->
<g id="node31" class="node">
<title>31</title>
<path fill="none" stroke="#56d8a9" stroke-width="2" d="M1364.46,-1116C1364.46,-1116 1206.46,-1116 1206.46,-1116 1200.46,-1116 1194.46,-1110 1194.46,-1104 1194.46,-1104 1194.46,-1092 1194.46,-1092 1194.46,-1086 1200.46,-1080 1206.46,-1080 1206.46,-1080 1364.46,-1080 1364.46,-1080 1370.46,-1080 1376.46,-1086 1376.46,-1092 1376.46,-1092 1376.46,-1104 1376.46,-1104 1376.46,-1110 1370.46,-1116 1364.46,-1116"/>
<text text-anchor="middle" x="1285.46" y="-1095.5" font-family="sans" font-size="10.00">raxml_ng_tree_per_segment_codon</text>
</g>
<!-- 18&#45;&gt;31 -->
<g id="edge56" class="edge">
<title>18&#45;&gt;31</title>
<path fill="none" stroke="grey" stroke-width="2" d="M1199.64,-1223.85C1183.61,-1205.35 1163.93,-1175.41 1178.46,-1152 1186.85,-1138.49 1199.81,-1128.32 1213.86,-1120.7"/>
<polygon fill="grey" stroke="grey" stroke-width="2" points="1215.82,-1123.63 1223.21,-1116.05 1212.7,-1117.37 1215.82,-1123.63"/>
</g>
<!-- 32 -->
<g id="node32" class="node">
<title>32</title>
<path fill="none" stroke="#c6d856" stroke-width="2" d="M1342.96,-1188C1342.96,-1188 1199.96,-1188 1199.96,-1188 1193.96,-1188 1187.96,-1182 1187.96,-1176 1187.96,-1176 1187.96,-1164 1187.96,-1164 1187.96,-1158 1193.96,-1152 1199.96,-1152 1199.96,-1152 1342.96,-1152 1342.96,-1152 1348.96,-1152 1354.96,-1158 1354.96,-1164 1354.96,-1164 1354.96,-1176 1354.96,-1176 1354.96,-1182 1348.96,-1188 1342.96,-1188"/>
<text text-anchor="middle" x="1271.46" y="-1167.5" font-family="sans" font-size="10.00">build_segment_codon_partitions</text>
</g>
<!-- 18&#45;&gt;32 -->
<g id="edge58" class="edge">
<title>18&#45;&gt;32</title>
<path fill="none" stroke="grey" stroke-width="2" d="M1230.06,-1223.7C1236.58,-1215.39 1244.53,-1205.28 1251.71,-1196.14"/>
<polygon fill="grey" stroke="grey" stroke-width="2" points="1254.6,-1198.13 1258.02,-1188.1 1249.09,-1193.81 1254.6,-1198.13"/>
</g>
<!-- 19&#45;&gt;8 -->
<g id="edge20" class="edge">
<title>19&#45;&gt;8</title>
<path fill="none" stroke="grey" stroke-width="2" d="M644.89,-1151.73C663.36,-1128.46 696.15,-1088.92 712.46,-1080 746.08,-1061.62 835.69,-1047.53 910.3,-1038.52"/>
<polygon fill="grey" stroke="grey" stroke-width="2" points="910.73,-1041.99 920.25,-1037.34 909.91,-1035.04 910.73,-1041.99"/>
</g>
<!-- 33 -->
<g id="node33" class="node">
<title>33</title>
<path fill="none" stroke="#56d8b9" stroke-width="2" d="M648.46,-1116C648.46,-1116 488.46,-1116 488.46,-1116 482.46,-1116 476.46,-1110 476.46,-1104 476.46,-1104 476.46,-1092 476.46,-1092 476.46,-1086 482.46,-1080 488.46,-1080 488.46,-1080 648.46,-1080 648.46,-1080 654.46,-1080 660.46,-1086 660.46,-1092 660.46,-1092 660.46,-1104 660.46,-1104 660.46,-1110 654.46,-1116 648.46,-1116"/>
<text text-anchor="middle" x="568.46" y="-1095.5" font-family="sans" font-size="10.00">raxml_ng_tree_per_segment_simple</text>
</g>
<!-- 19&#45;&gt;33 -->
<g id="edge59" class="edge">
<title>19&#45;&gt;33</title>
<path fill="none" stroke="grey" stroke-width="2" d="M615.89,-1151.7C608.26,-1143.22 598.94,-1132.86 590.59,-1123.58"/>
<polygon fill="grey" stroke="grey" stroke-width="2" points="593.15,-1121.2 583.86,-1116.1 587.94,-1125.88 593.15,-1121.2"/>
</g>
<!-- 20&#45;&gt;8 -->
<g id="edge21" class="edge">
<title>20&#45;&gt;8</title>
<path fill="none" stroke="grey" stroke-width="2" d="M1019.95,-1151.92C1005.86,-1143.29 991.29,-1131.35 983.46,-1116 972.61,-1094.71 986.01,-1069.98 1000.32,-1052"/>
<polygon fill="grey" stroke="grey" stroke-width="2" points="1003.09,-1054.15 1006.88,-1044.26 997.75,-1049.63 1003.09,-1054.15"/>
</g>
<!-- 34 -->
<g id="node34" class="node">
<title>34</title>
<path fill="none" stroke="#56d8b9" stroke-width="2" d="M1164.46,-1116C1164.46,-1116 1004.46,-1116 1004.46,-1116 998.46,-1116 992.46,-1110 992.46,-1104 992.46,-1104 992.46,-1092 992.46,-1092 992.46,-1086 998.46,-1080 1004.46,-1080 1004.46,-1080 1164.46,-1080 1164.46,-1080 1170.46,-1080 1176.46,-1086 1176.46,-1092 1176.46,-1092 1176.46,-1104 1176.46,-1104 1176.46,-1110 1170.46,-1116 1164.46,-1116"/>
<text text-anchor="middle" x="1084.46" y="-1095.5" font-family="sans" font-size="10.00">raxml_ng_tree_per_segment_simple</text>
</g>
<!-- 20&#45;&gt;34 -->
<g id="edge60" class="edge">
<title>20&#45;&gt;34</title>
<path fill="none" stroke="grey" stroke-width="2" d="M1063.38,-1151.7C1066.54,-1143.81 1070.34,-1134.3 1073.84,-1125.55"/>
<polygon fill="grey" stroke="grey" stroke-width="2" points="1077.16,-1126.69 1077.62,-1116.1 1070.66,-1124.09 1077.16,-1126.69"/>
</g>
<!-- 21&#45;&gt;8 -->
<g id="edge22" class="edge">
<title>21&#45;&gt;8</title>
<path fill="none" stroke="grey" stroke-width="2" d="M1432.43,-1082.11C1427.71,-1081.38 1423.03,-1080.68 1418.46,-1080 1324.34,-1066.05 1217.34,-1051.76 1138.62,-1041.53"/>
<polygon fill="grey" stroke="grey" stroke-width="2" points="1139.04,-1038.06 1128.68,-1040.25 1138.14,-1045 1139.04,-1038.06"/>
</g>
<!-- 22&#45;&gt;21 -->
<g id="edge42" class="edge">
<title>22&#45;&gt;21</title>
<path fill="none" stroke="grey" stroke-width="2" d="M1500.88,-1151.7C1504.26,-1143.81 1508.33,-1134.3 1512.09,-1125.55"/>
<polygon fill="grey" stroke="grey" stroke-width="2" points="1515.41,-1126.67 1516.13,-1116.1 1508.98,-1123.92 1515.41,-1126.67"/>
</g>
<!-- 23&#45;&gt;8 -->
<g id="edge23" class="edge">
<title>23&#45;&gt;8</title>
<path fill="none" stroke="grey" stroke-width="2" d="M1670.18,-1081.79C1665.55,-1081.15 1660.95,-1080.55 1656.46,-1080 1476.1,-1057.87 1265.64,-1042.25 1138.84,-1033.94"/>
<polygon fill="grey" stroke="grey" stroke-width="2" points="1138.93,-1030.44 1128.72,-1033.28 1138.47,-1037.42 1138.93,-1030.44"/>
</g>
<!-- 24&#45;&gt;23 -->
<g id="edge45" class="edge">
<title>24&#45;&gt;23</title>
<path fill="none" stroke="grey" stroke-width="2" d="M1784.05,-1151.7C1780.67,-1143.81 1776.59,-1134.3 1772.84,-1125.55"/>
<polygon fill="grey" stroke="grey" stroke-width="2" points="1775.95,-1123.92 1768.79,-1116.1 1769.51,-1126.67 1775.95,-1123.92"/>
</g>
<!-- 25&#45;&gt;8 -->
<g id="edge24" class="edge">
<title>25&#45;&gt;8</title>
<path fill="none" stroke="grey" stroke-width="2" d="M182.73,-1081.68C187.37,-1081.07 191.97,-1080.51 196.46,-1080 450.33,-1051.39 749.85,-1036.98 909.92,-1030.83"/>
<polygon fill="grey" stroke="grey" stroke-width="2" points="910.4,-1034.32 920.26,-1030.44 910.14,-1027.32 910.4,-1034.32"/>
</g>
<!-- 26&#45;&gt;25 -->
<g id="edge48" class="edge">
<title>26&#45;&gt;25</title>
<path fill="none" stroke="grey" stroke-width="2" d="M97.48,-1151.7C96.6,-1143.98 95.54,-1134.71 94.56,-1126.11"/>
<polygon fill="grey" stroke="grey" stroke-width="2" points="98.03,-1125.64 93.42,-1116.1 91.08,-1126.44 98.03,-1125.64"/>
</g>
<!-- 27&#45;&gt;8 -->
<g id="edge25" class="edge">
<title>27&#45;&gt;8</title>
<path fill="none" stroke="grey" stroke-width="2" d="M458.71,-1081.2C461.66,-1080.78 464.58,-1080.38 467.46,-1080 620.18,-1059.78 797.44,-1044.27 910.23,-1035.4"/>
<polygon fill="grey" stroke="grey" stroke-width="2" points="910.57,-1038.88 920.26,-1034.61 910.02,-1031.9 910.57,-1038.88"/>
</g>
<!-- 28&#45;&gt;27 -->
<g id="edge51" class="edge">
<title>28&#45;&gt;27</title>
<path fill="none" stroke="grey" stroke-width="2" d="M414.14,-1151.7C406.7,-1143.3 397.64,-1133.07 389.48,-1123.86"/>
<polygon fill="grey" stroke="grey" stroke-width="2" points="391.86,-1121.27 382.61,-1116.1 386.62,-1125.91 391.86,-1121.27"/>
</g>
<!-- 29&#45;&gt;8 -->
<g id="edge26" class="edge">
<title>29&#45;&gt;8</title>
<path fill="none" stroke="grey" stroke-width="2" d="M889.25,-1079.88C914.05,-1070.18 945.24,-1057.98 971.42,-1047.74"/>
<polygon fill="grey" stroke="grey" stroke-width="2" points="972.78,-1050.97 980.82,-1044.07 970.23,-1044.45 972.78,-1050.97"/>
</g>
<!-- 30&#45;&gt;29 -->
<g id="edge54" class="edge">
<title>30&#45;&gt;29</title>
<path fill="none" stroke="grey" stroke-width="2" d="M842.45,-1151.7C842.89,-1143.98 843.42,-1134.71 843.91,-1126.11"/>
<polygon fill="grey" stroke="grey" stroke-width="2" points="847.41,-1126.29 844.48,-1116.1 840.42,-1125.89 847.41,-1126.29"/>
</g>
<!-- 31&#45;&gt;8 -->
<g id="edge27" class="edge">
<title>31&#45;&gt;8</title>
<path fill="none" stroke="grey" stroke-width="2" d="M1221.95,-1079.97C1184.53,-1069.93 1137.03,-1057.19 1097.99,-1046.72"/>
<polygon fill="grey" stroke="grey" stroke-width="2" points="1098.83,-1043.32 1088.26,-1044.11 1097.01,-1050.08 1098.83,-1043.32"/>
</g>
<!-- 32&#45;&gt;31 -->
<g id="edge57" class="edge">
<title>32&#45;&gt;31</title>
<path fill="none" stroke="grey" stroke-width="2" d="M1274.92,-1151.7C1276.47,-1143.98 1278.32,-1134.71 1280.04,-1126.11"/>
<polygon fill="grey" stroke="grey" stroke-width="2" points="1283.51,-1126.6 1282.04,-1116.1 1276.65,-1125.22 1283.51,-1126.6"/>
</g>
<!-- 33&#45;&gt;8 -->
<g id="edge28" class="edge">
<title>33&#45;&gt;8</title>
<path fill="none" stroke="grey" stroke-width="2" d="M660.67,-1082.16C665.33,-1081.43 669.95,-1080.7 674.46,-1080 753.17,-1067.73 841.91,-1054.3 910.34,-1044.02"/>
<polygon fill="grey" stroke="grey" stroke-width="2" points="910.91,-1047.48 920.28,-1042.53 909.88,-1040.55 910.91,-1047.48"/>
</g>
<!-- 34&#45;&gt;8 -->
<g id="edge29" class="edge">
<title>34&#45;&gt;8</title>
<path fill="none" stroke="grey" stroke-width="2" d="M1069.63,-1079.7C1062.44,-1071.3 1053.67,-1061.07 1045.77,-1051.86"/>
<polygon fill="grey" stroke="grey" stroke-width="2" points="1048.29,-1049.42 1039.12,-1044.1 1042.97,-1053.97 1048.29,-1049.42"/>
</g>
<!-- 35&#45;&gt;5 -->
<g id="edge11" class="edge">
<title>35&#45;&gt;5</title>
<path fill="none" stroke="grey" stroke-width="2" d="M1855.05,-791.97C1796.76,-780.34 1720.28,-765.09 1664.36,-753.94"/>
<polygon fill="grey" stroke="grey" stroke-width="2" points="1665.01,-750.5 1654.52,-751.98 1663.64,-757.36 1665.01,-750.5"/>
</g>
<!-- 36 -->
<g id="node36" class="node">
<title>36</title>
<path fill="none" stroke="#56c1d8" stroke-width="2" d="M1485.46,-540C1485.46,-540 1421.46,-540 1421.46,-540 1415.46,-540 1409.46,-534 1409.46,-528 1409.46,-528 1409.46,-516 1409.46,-516 1409.46,-510 1415.46,-504 1421.46,-504 1421.46,-504 1485.46,-504 1485.46,-504 1491.46,-504 1497.46,-510 1497.46,-516 1497.46,-516 1497.46,-528 1497.46,-528 1497.46,-534 1491.46,-540 1485.46,-540"/>
<text text-anchor="middle" x="1453.46" y="-519.5" font-family="sans" font-size="10.00">run_root_to_tip</text>
</g>
<!-- 36&#45;&gt;4 -->
<g id="edge8" class="edge">
<title>36&#45;&gt;4</title>
<path fill="none" stroke="grey" stroke-width="2" d="M1469.78,-503.7C1477.77,-495.22 1487.53,-484.86 1496.28,-475.58"/>
<polygon fill="grey" stroke="grey" stroke-width="2" points="1499.02,-477.78 1503.34,-468.1 1493.93,-472.98 1499.02,-477.78"/>
</g>
<!-- 37&#45;&gt;36 -->
<g id="edge65" class="edge">
<title>37&#45;&gt;36</title>
<path fill="none" stroke="grey" stroke-width="2" d="M1422.77,-647.86C1426.33,-629.88 1432.3,-600.84 1438.46,-576 1440.59,-567.42 1443.14,-558.13 1445.52,-549.76"/>
<polygon fill="grey" stroke="grey" stroke-width="2" points="1448.9,-550.69 1448.31,-540.11 1442.17,-548.74 1448.9,-550.69"/>
</g>
<!-- 38 -->
<g id="node38" class="node">
<title>38</title>
<path fill="none" stroke="#b6d856" stroke-width="2" d="M1549.46,-612C1549.46,-612 1459.46,-612 1459.46,-612 1453.46,-612 1447.46,-606 1447.46,-600 1447.46,-600 1447.46,-588 1447.46,-588 1447.46,-582 1453.46,-576 1459.46,-576 1459.46,-576 1549.46,-576 1549.46,-576 1555.46,-576 1561.46,-582 1561.46,-588 1561.46,-588 1561.46,-600 1561.46,-600 1561.46,-606 1555.46,-612 1549.46,-612"/>
<text text-anchor="middle" x="1504.46" y="-591.5" font-family="sans" font-size="10.00">build_treetime_dates</text>
</g>
<!-- 37&#45;&gt;38 -->
<g id="edge70" class="edge">
<title>37&#45;&gt;38</title>
<path fill="none" stroke="grey" stroke-width="2" d="M1440.47,-647.7C1451.18,-638.88 1464.35,-628.03 1475.96,-618.47"/>
<polygon fill="grey" stroke="grey" stroke-width="2" points="1478.2,-621.16 1483.69,-612.1 1473.75,-615.76 1478.2,-621.16"/>
</g>
<!-- 37&#45;&gt;39 -->
<g id="edge71" class="edge">
<title>37&#45;&gt;39</title>
<path fill="none" stroke="grey" stroke-width="2" d="M1416.3,-647.68C1412.02,-623.61 1404.47,-578.65 1400.46,-540 1395.63,-493.42 1393.27,-438.97 1392.22,-406.83"/>
<polygon fill="grey" stroke="grey" stroke-width="2" points="1395.7,-406.32 1391.89,-396.44 1388.7,-406.54 1395.7,-406.32"/>
</g>
<!-- 38&#45;&gt;4 -->
<g id="edge9" class="edge">
<title>38&#45;&gt;4</title>
<path fill="none" stroke="grey" stroke-width="2" d="M1506.27,-575.87C1508.83,-551.67 1513.52,-507.21 1516.57,-478.39"/>
<polygon fill="grey" stroke="grey" stroke-width="2" points="1520.08,-478.5 1517.65,-468.19 1513.12,-477.77 1520.08,-478.5"/>
</g>
<!-- 38&#45;&gt;36 -->
<g id="edge66" class="edge">
<title>38&#45;&gt;36</title>
<path fill="none" stroke="grey" stroke-width="2" d="M1491.86,-575.7C1485.86,-567.47 1478.59,-557.48 1471.98,-548.42"/>
<polygon fill="grey" stroke="grey" stroke-width="2" points="1474.64,-546.13 1465.92,-540.1 1468.98,-550.25 1474.64,-546.13"/>
</g>
<!-- 39&#45;&gt;3 -->
<g id="edge6" class="edge">
<title>39&#45;&gt;3</title>
<path fill="none" stroke="grey" stroke-width="2" d="M1391.46,-359.7C1391.46,-351.98 1391.46,-342.71 1391.46,-334.11"/>
<polygon fill="grey" stroke="grey" stroke-width="2" points="1394.96,-334.1 1391.46,-324.1 1387.96,-334.1 1394.96,-334.1"/>
</g>
<!-- 39&#45;&gt;44 -->
<g id="edge82" class="edge">
<title>39&#45;&gt;44</title>
<path fill="none" stroke="grey" stroke-width="2" d="M1430.85,-359.88C1452.86,-350.31 1480.47,-338.3 1503.82,-328.15"/>
<polygon fill="grey" stroke="grey" stroke-width="2" points="1505.43,-331.27 1513.21,-324.07 1502.64,-324.85 1505.43,-331.27"/>
</g>
<!-- 40&#45;&gt;2 -->
<g id="edge4" class="edge">
<title>40&#45;&gt;2</title>
<path fill="none" stroke="grey" stroke-width="2" d="M1356.63,-215.7C1349.44,-207.3 1340.67,-197.07 1332.77,-187.86"/>
<polygon fill="grey" stroke="grey" stroke-width="2" points="1335.29,-185.42 1326.12,-180.1 1329.97,-189.97 1335.29,-185.42"/>
</g>
<!-- 40&#45;&gt;41 -->
<g id="edge75" class="edge">
<title>40&#45;&gt;41</title>
<path fill="none" stroke="grey" stroke-width="2" d="M1374.12,-215.87C1377.87,-191.67 1384.75,-147.21 1389.22,-118.39"/>
<polygon fill="grey" stroke="grey" stroke-width="2" points="1392.73,-118.61 1390.8,-108.19 1385.81,-117.54 1392.73,-118.61"/>
</g>
<!-- 41&#45;&gt;1 -->
<g id="edge2" class="edge">
<title>41&#45;&gt;1</title>
<path fill="none" stroke="grey" stroke-width="2" d="M1389.75,-71.7C1388.1,-63.98 1386.11,-54.71 1384.27,-46.11"/>
<polygon fill="grey" stroke="grey" stroke-width="2" points="1387.65,-45.15 1382.13,-36.1 1380.8,-46.62 1387.65,-45.15"/>
</g>
<!-- 42 -->
<g id="node42" class="node">
<title>42</title>
<path fill="none" stroke="#5682d8" stroke-width="2" d="M1594.96,-36C1594.96,-36 1499.96,-36 1499.96,-36 1493.96,-36 1487.96,-30 1487.96,-24 1487.96,-24 1487.96,-12 1487.96,-12 1487.96,-6 1493.96,0 1499.96,0 1499.96,0 1594.96,0 1594.96,0 1600.96,0 1606.96,-6 1606.96,-12 1606.96,-12 1606.96,-24 1606.96,-24 1606.96,-30 1600.96,-36 1594.96,-36"/>
<text text-anchor="middle" x="1547.46" y="-15.5" font-family="sans" font-size="10.00">summarize_beast_run</text>
</g>
<!-- 43 -->
<g id="node43" class="node">
<title>43</title>
<path fill="none" stroke="#56d0d8" stroke-width="2" d="M1574.96,-180C1574.96,-180 1491.96,-180 1491.96,-180 1485.96,-180 1479.96,-174 1479.96,-168 1479.96,-168 1479.96,-156 1479.96,-156 1479.96,-150 1485.96,-144 1491.96,-144 1491.96,-144 1574.96,-144 1574.96,-144 1580.96,-144 1586.96,-150 1586.96,-156 1586.96,-156 1586.96,-168 1586.96,-168 1586.96,-174 1580.96,-180 1574.96,-180"/>
<text text-anchor="middle" x="1533.46" y="-165" font-family="sans" font-size="10.00">run_beast_replicate</text>
<text text-anchor="middle" x="1533.46" y="-154" font-family="sans" font-size="10.00">replicate: r1</text>
</g>
<!-- 43&#45;&gt;42 -->
<g id="edge77" class="edge">
<title>43&#45;&gt;42</title>
<path fill="none" stroke="grey" stroke-width="2" d="M1535.15,-143.87C1537.54,-119.67 1541.92,-75.21 1544.76,-46.39"/>
<polygon fill="grey" stroke="grey" stroke-width="2" points="1548.27,-46.48 1545.77,-36.19 1541.3,-45.8 1548.27,-46.48"/>
</g>
<!-- 46 -->
<g id="node46" class="node">
<title>46</title>
<path fill="none" stroke="#56d0d8" stroke-width="2" d="M1656.96,-108C1656.96,-108 1573.96,-108 1573.96,-108 1567.96,-108 1561.96,-102 1561.96,-96 1561.96,-96 1561.96,-84 1561.96,-84 1561.96,-78 1567.96,-72 1573.96,-72 1573.96,-72 1656.96,-72 1656.96,-72 1662.96,-72 1668.96,-78 1668.96,-84 1668.96,-84 1668.96,-96 1668.96,-96 1668.96,-102 1662.96,-108 1656.96,-108"/>
<text text-anchor="middle" x="1615.46" y="-93" font-family="sans" font-size="10.00">run_beast_replicate</text>
<text text-anchor="middle" x="1615.46" y="-82" font-family="sans" font-size="10.00">replicate: r2</text>
</g>
<!-- 43&#45;&gt;46 -->
<g id="edge86" class="edge">
<title>43&#45;&gt;46</title>
<path fill="none" stroke="grey" stroke-width="2" d="M1553.73,-143.7C1563.96,-134.97 1576.52,-124.24 1587.64,-114.75"/>
<polygon fill="grey" stroke="grey" stroke-width="2" points="1590.09,-117.26 1595.43,-108.1 1585.55,-111.94 1590.09,-117.26"/>
</g>
<!-- 44&#45;&gt;43 -->
<g id="edge79" class="edge">
<title>44&#45;&gt;43</title>
<path fill="none" stroke="grey" stroke-width="2" d="M1534.73,-287.6C1526.22,-278 1516.93,-265.34 1512.46,-252 1505.57,-231.42 1512.02,-207.45 1519.54,-189.57"/>
<polygon fill="grey" stroke="grey" stroke-width="2" points="1522.79,-190.87 1523.74,-180.32 1516.42,-187.98 1522.79,-190.87"/>
</g>
<!-- 45 -->
<g id="node45" class="node">
<title>45</title>
<path fill="none" stroke="#5663d8" stroke-width="2" d="M1613.46,-252C1613.46,-252 1533.46,-252 1533.46,-252 1527.46,-252 1521.46,-246 1521.46,-240 1521.46,-240 1521.46,-228 1521.46,-228 1521.46,-222 1527.46,-216 1533.46,-216 1533.46,-216 1613.46,-216 1613.46,-216 1619.46,-216 1625.46,-222 1625.46,-228 1625.46,-228 1625.46,-240 1625.46,-240 1625.46,-246 1619.46,-252 1613.46,-252"/>
<text text-anchor="middle" x="1573.46" y="-231.5" font-family="sans" font-size="10.00">validate_beast_xml</text>
</g>
<!-- 44&#45;&gt;45 -->
<g id="edge83" class="edge">
<title>44&#45;&gt;45</title>
<path fill="none" stroke="grey" stroke-width="2" d="M1557.65,-287.7C1559.99,-279.9 1562.81,-270.51 1565.41,-261.83"/>
<polygon fill="grey" stroke="grey" stroke-width="2" points="1568.81,-262.69 1568.33,-252.1 1562.1,-260.68 1568.81,-262.69"/>
</g>
<!-- 44&#45;&gt;46 -->
<g id="edge84" class="edge">
<title>44&#45;&gt;46</title>
<path fill="none" stroke="grey" stroke-width="2" d="M1595.08,-287.99C1610.34,-279.58 1625.87,-267.78 1634.46,-252 1657.63,-209.44 1641.04,-151.29 1627.69,-117.78"/>
<polygon fill="grey" stroke="grey" stroke-width="2" points="1630.78,-116.1 1623.7,-108.22 1624.32,-118.8 1630.78,-116.1"/>
</g>
<!-- 45&#45;&gt;43 -->
<g id="edge80" class="edge">
<title>45&#45;&gt;43</title>
<path fill="none" stroke="grey" stroke-width="2" d="M1563.57,-215.7C1558.97,-207.64 1553.4,-197.89 1548.31,-188.98"/>
<polygon fill="grey" stroke="grey" stroke-width="2" points="1551.24,-187.05 1543.24,-180.1 1545.16,-190.52 1551.24,-187.05"/>
</g>
<!-- 45&#45;&gt;46 -->
<g id="edge85" class="edge">
<title>45&#45;&gt;46</title>
<path fill="none" stroke="grey" stroke-width="2" d="M1581.57,-215.62C1586.11,-205.4 1591.61,-192.15 1595.46,-180 1601.92,-159.65 1607.12,-136.06 1610.6,-118.28"/>
<polygon fill="grey" stroke="grey" stroke-width="2" points="1614.07,-118.77 1612.49,-108.3 1607.19,-117.47 1614.07,-118.77"/>
</g>
<!-- 46&#45;&gt;42 -->
<g id="edge78" class="edge">
<title>46&#45;&gt;42</title>
<path fill="none" stroke="grey" stroke-width="2" d="M1598.65,-71.7C1590.34,-63.14 1580.16,-52.66 1571.07,-43.3"/>
<polygon fill="grey" stroke="grey" stroke-width="2" points="1573.56,-40.84 1564.08,-36.1 1568.54,-45.72 1573.56,-40.84"/>
</g>
</g>
</svg>
