<?xml version="1.0" encoding="UTF-8" standalone="no"?>
<!DOCTYPE svg PUBLIC "-//W3C//DTD SVG 1.1//EN"
 "http://www.w3.org/Graphics/SVG/1.1/DTD/svg11.dtd">
<!-- Generated by graphviz version 2.43.0 (0)
 -->
<!-- Title: snakemake_dag Pages: 1 -->
<svg width="406pt" height="620pt"
 viewBox="0.00 0.00 406.31 620.00" xmlns="http://www.w3.org/2000/svg" xmlns:xlink="http://www.w3.org/1999/xlink">
<g id="graph0" class="graph" transform="scale(1 1) rotate(0) translate(4 616)">
<title>snakemake_dag</title>
<polygon fill="white" stroke="transparent" points="-4,4 -4,-616 402.31,-616 402.31,4 -4,4"/>
<!-- 0 -->
<g id="node1" class="node">
<title>0</title>
<path fill="none" stroke="#afd856" stroke-width="2" d="M161.31,-36C161.31,-36 49.31,-36 49.31,-36 43.31,-36 37.31,-30 37.31,-24 37.31,-24 37.31,-12 37.31,-12 37.31,-6 43.31,0 49.31,0 49.31,0 161.31,0 161.31,0 167.31,0 173.31,-6 173.31,-12 173.31,-12 173.31,-24 173.31,-24 173.31,-30 167.31,-36 161.31,-36"/>
<text text-anchor="middle" x="105.31" y="-15.5" font-family="sans" font-size="10.00">raxml_ng_tree_full_concat</text>
</g>
<!-- 1 -->
<g id="node2" class="node">
<title>1</title>
<path fill="none" stroke="#d8d356" stroke-width="2" d="M197.31,-108C197.31,-108 13.31,-108 13.31,-108 7.31,-108 1.31,-102 1.31,-96 1.31,-96 1.31,-84 1.31,-84 1.31,-78 7.31,-72 13.31,-72 13.31,-72 197.31,-72 197.31,-72 203.31,-72 209.31,-78 209.31,-84 209.31,-84 209.31,-96 209.31,-96 209.31,-102 203.31,-108 197.31,-108"/>
<text text-anchor="middle" x="105.31" y="-87.5" font-family="sans" font-size="10.00">concat_aligned_segments_with_partitions</text>
</g>
<!-- 1&#45;&gt;0 -->
<g id="edge1" class="edge">
<title>1&#45;&gt;0</title>
<path fill="none" stroke="grey" stroke-width="2" d="M105.31,-71.7C105.31,-63.98 105.31,-54.71 105.31,-46.11"/>
<polygon fill="grey" stroke="grey" stroke-width="2" points="108.81,-46.1 105.31,-36.1 101.81,-46.1 108.81,-46.1"/>
</g>
<!-- 2 -->
<g id="node3" class="node">
<title>2</title>
<path fill="none" stroke="#bed856" stroke-width="2" d="M164.31,-324C164.31,-324 54.31,-324 54.31,-324 48.31,-324 42.31,-318 42.31,-312 42.31,-312 42.31,-300 42.31,-300 42.31,-294 48.31,-288 54.31,-288 54.31,-288 164.31,-288 164.31,-288 170.31,-288 176.31,-294 176.31,-300 176.31,-300 176.31,-312 176.31,-312 176.31,-318 170.31,-324 164.31,-324"/>
<text text-anchor="middle" x="109.31" y="-303.5" font-family="sans" font-size="10.00">mafft_align_per_segment</text>
</g>
<!-- 2&#45;&gt;1 -->
<g id="edge2" class="edge">
<title>2&#45;&gt;1</title>
<path fill="none" stroke="grey" stroke-width="2" d="M87.96,-287.82C62.61,-265.92 21.73,-225.4 5.31,-180 -0.13,-164.95 -2.94,-157.71 5.31,-144 13.37,-130.6 26.08,-120.42 39.77,-112.73"/>
<polygon fill="grey" stroke="grey" stroke-width="2" points="41.59,-115.73 48.87,-108.04 38.38,-109.51 41.59,-115.73"/>
</g>
<!-- 7 -->
<g id="node8" class="node">
<title>7</title>
<path fill="none" stroke="#78d856" stroke-width="2" d="M184.31,-180C184.31,-180 26.31,-180 26.31,-180 20.31,-180 14.31,-174 14.31,-168 14.31,-168 14.31,-156 14.31,-156 14.31,-150 20.31,-144 26.31,-144 26.31,-144 184.31,-144 184.31,-144 190.31,-144 196.31,-150 196.31,-156 196.31,-156 196.31,-168 196.31,-168 196.31,-174 190.31,-180 184.31,-180"/>
<text text-anchor="middle" x="105.31" y="-159.5" font-family="sans" font-size="10.00">raxml_ng_tree_per_segment_codon</text>
</g>
<!-- 2&#45;&gt;7 -->
<g id="edge9" class="edge">
<title>2&#45;&gt;7</title>
<path fill="none" stroke="grey" stroke-width="2" d="M93.7,-287.77C85.94,-278.03 77.36,-265.18 73.31,-252 68.61,-236.71 69.02,-231.41 73.31,-216 75.98,-206.42 80.9,-196.84 86.09,-188.51"/>
<polygon fill="grey" stroke="grey" stroke-width="2" points="89.11,-190.29 91.75,-180.03 83.29,-186.41 89.11,-190.29"/>
</g>
<!-- 8 -->
<g id="node9" class="node">
<title>8</title>
<path fill="none" stroke="#d8bc56" stroke-width="2" d="M236.81,-252C236.81,-252 93.81,-252 93.81,-252 87.81,-252 81.81,-246 81.81,-240 81.81,-240 81.81,-228 81.81,-228 81.81,-222 87.81,-216 93.81,-216 93.81,-216 236.81,-216 236.81,-216 242.81,-216 248.81,-222 248.81,-228 248.81,-228 248.81,-240 248.81,-240 248.81,-246 242.81,-252 236.81,-252"/>
<text text-anchor="middle" x="165.31" y="-231.5" font-family="sans" font-size="10.00">build_segment_codon_partitions</text>
</g>
<!-- 2&#45;&gt;8 -->
<g id="edge11" class="edge">
<title>2&#45;&gt;8</title>
<path fill="none" stroke="grey" stroke-width="2" d="M123.15,-287.7C129.8,-279.39 137.89,-269.28 145.2,-260.14"/>
<polygon fill="grey" stroke="grey" stroke-width="2" points="148.11,-262.1 151.63,-252.1 142.65,-257.73 148.11,-262.1"/>
</g>
<!-- 9 -->
<g id="node10" class="node">
<title>9</title>
<path fill="none" stroke="#59d856" stroke-width="2" d="M386.31,-180C386.31,-180 226.31,-180 226.31,-180 220.31,-180 214.31,-174 214.31,-168 214.31,-168 214.31,-156 214.31,-156 214.31,-150 220.31,-144 226.31,-144 226.31,-144 386.31,-144 386.31,-144 392.31,-144 398.31,-150 398.31,-156 398.31,-156 398.31,-168 398.31,-168 398.31,-174 392.31,-180 386.31,-180"/>
<text text-anchor="middle" x="306.31" y="-159.5" font-family="sans" font-size="10.00">raxml_ng_tree_per_segment_simple</text>
</g>
<!-- 2&#45;&gt;9 -->
<g id="edge12" class="edge">
<title>2&#45;&gt;9</title>
<path fill="none" stroke="grey" stroke-width="2" d="M176.68,-292.24C204.37,-284.33 235.28,-271.75 258.31,-252 277.49,-235.55 290.27,-209.47 297.79,-189.78"/>
<polygon fill="grey" stroke="grey" stroke-width="2" points="301.16,-190.75 301.25,-180.16 294.57,-188.39 301.16,-190.75"/>
</g>
<!-- 3 -->
<g id="node4" class="node">
<title>3</title>
<path fill="none" stroke="#56d0d8" stroke-width="2" d="M171.81,-396C171.81,-396 46.81,-396 46.81,-396 40.81,-396 34.81,-390 34.81,-384 34.81,-384 34.81,-372 34.81,-372 34.81,-366 40.81,-360 46.81,-360 46.81,-360 171.81,-360 171.81,-360 177.81,-360 183.81,-366 183.81,-372 183.81,-372 183.81,-384 183.81,-384 183.81,-390 177.81,-396 171.81,-396"/>
<text text-anchor="middle" x="109.31" y="-375.5" font-family="sans" font-size="10.00">split_h5n1_final_by_segment</text>
</g>
<!-- 3&#45;&gt;2 -->
<g id="edge5" class="edge">
<title>3&#45;&gt;2</title>
<path fill="none" stroke="grey" stroke-width="2" d="M109.31,-359.7C109.31,-351.98 109.31,-342.71 109.31,-334.11"/>
<polygon fill="grey" stroke="grey" stroke-width="2" points="112.81,-334.1 109.31,-324.1 105.81,-334.1 112.81,-334.1"/>
</g>
<!-- 4 -->
<g id="node5" class="node">
<title>4</title>
<path fill="none" stroke="#d8ac56" stroke-width="2" d="M156.81,-468C156.81,-468 61.81,-468 61.81,-468 55.81,-468 49.81,-462 49.81,-456 49.81,-456 49.81,-444 49.81,-444 49.81,-438 55.81,-432 61.81,-432 61.81,-432 156.81,-432 156.81,-432 162.81,-432 168.81,-438 168.81,-444 168.81,-444 168.81,-456 168.81,-456 168.81,-462 162.81,-468 156.81,-468"/>
<text text-anchor="middle" x="109.31" y="-447.5" font-family="sans" font-size="10.00">build_h5n1_final_fasta</text>
</g>
<!-- 4&#45;&gt;3 -->
<g id="edge6" class="edge">
<title>4&#45;&gt;3</title>
<path fill="none" stroke="grey" stroke-width="2" d="M109.31,-431.7C109.31,-423.98 109.31,-414.71 109.31,-406.11"/>
<polygon fill="grey" stroke="grey" stroke-width="2" points="112.81,-406.1 109.31,-396.1 105.81,-406.1 112.81,-406.1"/>
</g>
<!-- 5 -->
<g id="node6" class="node">
<title>5</title>
<path fill="none" stroke="#d89c56" stroke-width="2" d="M152.31,-540C152.31,-540 66.31,-540 66.31,-540 60.31,-540 54.31,-534 54.31,-528 54.31,-528 54.31,-516 54.31,-516 54.31,-510 60.31,-504 66.31,-504 66.31,-504 152.31,-504 152.31,-504 158.31,-504 164.31,-510 164.31,-516 164.31,-516 164.31,-528 164.31,-528 164.31,-534 158.31,-540 152.31,-540"/>
<text text-anchor="middle" x="109.31" y="-519.5" font-family="sans" font-size="10.00">build_h5n1_ec_fasta</text>
</g>
<!-- 5&#45;&gt;4 -->
<g id="edge7" class="edge">
<title>5&#45;&gt;4</title>
<path fill="none" stroke="grey" stroke-width="2" d="M109.31,-503.7C109.31,-495.98 109.31,-486.71 109.31,-478.11"/>
<polygon fill="grey" stroke="grey" stroke-width="2" points="112.81,-478.1 109.31,-468.1 105.81,-478.1 112.81,-478.1"/>
</g>
<!-- 6 -->
<g id="node7" class="node">
<title>6</title>
<path fill="none" stroke="#d87556" stroke-width="2" d="M185.31,-612C185.31,-612 33.31,-612 33.31,-612 27.31,-612 21.31,-606 21.31,-600 21.31,-600 21.31,-588 21.31,-588 21.31,-582 27.31,-576 33.31,-576 33.31,-576 185.31,-576 185.31,-576 191.31,-576 197.31,-582 197.31,-588 197.31,-588 197.31,-600 197.31,-600 197.31,-606 191.31,-612 185.31,-612"/>
<text text-anchor="middle" x="109.31" y="-591.5" font-family="sans" font-size="10.00">build_ecuador_intermediate_input</text>
</g>
<!-- 6&#45;&gt;5 -->
<g id="edge8" class="edge">
<title>6&#45;&gt;5</title>
<path fill="none" stroke="grey" stroke-width="2" d="M109.31,-575.7C109.31,-567.98 109.31,-558.71 109.31,-550.11"/>
<polygon fill="grey" stroke="grey" stroke-width="2" points="112.81,-550.1 109.31,-540.1 105.81,-550.1 112.81,-550.1"/>
</g>
<!-- 7&#45;&gt;1 -->
<g id="edge3" class="edge">
<title>7&#45;&gt;1</title>
<path fill="none" stroke="grey" stroke-width="2" d="M105.31,-143.7C105.31,-135.98 105.31,-126.71 105.31,-118.11"/>
<polygon fill="grey" stroke="grey" stroke-width="2" points="108.81,-118.1 105.31,-108.1 101.81,-118.1 108.81,-118.1"/>
</g>
<!-- 8&#45;&gt;7 -->
<g id="edge10" class="edge">
<title>8&#45;&gt;7</title>
<path fill="none" stroke="grey" stroke-width="2" d="M150.48,-215.7C143.28,-207.3 134.51,-197.07 126.62,-187.86"/>
<polygon fill="grey" stroke="grey" stroke-width="2" points="129.14,-185.42 119.97,-180.1 123.82,-189.97 129.14,-185.42"/>
</g>
<!-- 9&#45;&gt;1 -->
<g id="edge4" class="edge">
<title>9&#45;&gt;1</title>
<path fill="none" stroke="grey" stroke-width="2" d="M257.4,-143.97C229.31,-134.19 193.85,-121.84 164.24,-111.52"/>
<polygon fill="grey" stroke="grey" stroke-width="2" points="165.04,-108.09 154.44,-108.11 162.73,-114.71 165.04,-108.09"/>
</g>
</g>
</svg>
