<?xml version="1.0" encoding="UTF-8" standalone="no"?>
<!DOCTYPE svg PUBLIC "-//W3C//DTD SVG 1.1//EN"
 "http://www.w3.org/Graphics/SVG/1.1/DTD/svg11.dtd">
<!-- Generated by graphviz version 2.43.0 (0)
 -->
<!-- Title: snakemake_dag Pages: 1 -->
<svg width="1115pt" height="2348pt"
 viewBox="0.00 0.00 1115.00 2348.00" xmlns="http://www.w3.org/2000/svg" xmlns:xlink="http://www.w3.org/1999/xlink">
<g id="graph0" class="graph" transform="scale(1 1) rotate(0) translate(4 2344)">
<title>snakemake_dag</title>
<polygon fill="white" stroke="transparent" points="-4,4 -4,-2344 1111,-2344 1111,4 -4,4"/>
<!-- 0 -->
<g id="node1" class="node">
<title>0</title>
<text text-anchor="start" x="325.5" y="-1347.6" font-family="sans" font-weight="bold" font-size="18.00">split_h5n1_final_by_segment</text>
<text text-anchor="start" x="325.5" y="-1323.8" font-family="sans" font-size="10.00"> </text>
<text text-anchor="start" x="328.5" y="-1323.8" font-family="sans" font-weight="bold" font-size="14.00">↪ input</text>
<text text-anchor="start" x="383.5" y="-1323.8" font-family="sans" font-size="10.00"> </text>
<text text-anchor="start" x="325.5" y="-1304" font-family="monospace" font-size="10.00">data/final/H5N1_final.fasta</text>
<text text-anchor="start" x="510.5" y="-1283.8" font-family="sans" font-size="10.00"> </text>
<text text-anchor="start" x="513.5" y="-1283.8" font-family="sans" font-weight="bold" font-size="14.00">output →</text>
<text text-anchor="start" x="577.5" y="-1283.8" font-family="sans" font-size="10.00"> </text>
<text text-anchor="start" x="325.5" y="-1264" font-family="monospace" font-size="10.00">data/phylogeny/by_segment/H5N1_HA.fasta</text>
<text text-anchor="start" x="325.5" y="-1246" font-family="monospace" font-size="10.00">data/phylogeny/by_segment/H5N1_MP.fasta</text>
<text text-anchor="start" x="325.5" y="-1228" font-family="monospace" font-size="10.00">data/phylogeny/by_segment/H5N1_NA.fasta</text>
<text text-anchor="start" x="325.5" y="-1210" font-family="monospace" font-size="10.00">data/phylogeny/by_segment/H5N1_NP.fasta</text>
<text text-anchor="start" x="325.5" y="-1192" font-family="monospace" font-size="10.00">data/phylogeny/by_segment/H5N1_NS.fasta</text>
<text text-anchor="start" x="325.5" y="-1174" font-family="monospace" font-size="10.00">data/phylogeny/by_segment/H5N1_PA.fasta</text>
<text text-anchor="start" x="325.5" y="-1156" font-family="monospace" font-size="10.00">data/phylogeny/by_segment/H5N1_PB1.fasta</text>
<text text-anchor="start" x="325.5" y="-1138" font-family="monospace" font-size="10.00">data/phylogeny/by_segment/H5N1_PB2.fasta</text>
<text text-anchor="start" x="325.5" y="-1120" font-family="monospace" font-size="10.00">data/phylogeny/by_segment_summary.csv</text>
<polygon fill="#57d0d9" stroke="#57d0d9" points="319.5,-1338 319.5,-1338 587.5,-1338 587.5,-1338 319.5,-1338"/>
<polygon fill="#57d0d9" stroke="#57d0d9" points="319.5,-1298 319.5,-1298 587.5,-1298 587.5,-1298 319.5,-1298"/>
<polygon fill="none" stroke="#57d0d9" stroke-width="2" points="319,-1111 319,-1367 586,-1367 586,-1111 319,-1111"/>
</g>
<!-- 5 -->
<g id="node6" class="node">
<title>5</title>
<text text-anchor="start" x="340" y="-1053.6" font-family="sans" font-weight="bold" font-size="18.00">mafft_align_per_segment</text>
<text text-anchor="start" x="314.5" y="-1029.8" font-family="sans" font-size="10.00"> </text>
<text text-anchor="start" x="317.5" y="-1029.8" font-family="sans" font-weight="bold" font-size="14.00">↪ input</text>
<text text-anchor="start" x="372.5" y="-1029.8" font-family="sans" font-size="10.00"> </text>
<text text-anchor="start" x="314.5" y="-1010" font-family="monospace" font-size="10.00">data/phylogeny/by_segment/H5N1_{segment}.fasta</text>
<text text-anchor="start" x="521.5" y="-989.8" font-family="sans" font-size="10.00"> </text>
<text text-anchor="start" x="524.5" y="-989.8" font-family="sans" font-weight="bold" font-size="14.00">output →</text>
<text text-anchor="start" x="588.5" y="-989.8" font-family="sans" font-size="10.00"> </text>
<text text-anchor="start" x="314.5" y="-970" font-family="monospace" font-size="10.00">data/phylogeny/aligned/H5N1_{segment}.mafft</text>
<polygon fill="#bfd957" stroke="#bfd957" points="308.5,-1044 308.5,-1044 598.5,-1044 598.5,-1044 308.5,-1044"/>
<polygon fill="#bfd957" stroke="#bfd957" points="308.5,-1004 308.5,-1004 598.5,-1004 598.5,-1004 308.5,-1004"/>
<polygon fill="none" stroke="#bfd957" stroke-width="2" points="308,-961 308,-1073 597,-1073 597,-961 308,-961"/>
</g>
<!-- 0&#45;&gt;5 -->
<g id="edge6" class="edge">
<title>0&#45;&gt;5</title>
<path fill="none" stroke="grey" stroke-width="2" d="M452.5,-1109.71C452.5,-1101.02 452.5,-1092.5 452.5,-1084.35"/>
<polygon fill="grey" stroke="grey" stroke-width="2" points="456,-1084.25 452.5,-1074.25 449,-1084.25 456,-1084.25"/>
</g>
<!-- 1 -->
<g id="node2" class="node">
<title>1</title>
<text text-anchor="start" x="354" y="-1551.6" font-family="sans" font-weight="bold" font-size="18.00">build_h5n1_final_fasta</text>
<text text-anchor="start" x="305.5" y="-1527.8" font-family="sans" font-size="10.00"> </text>
<text text-anchor="start" x="308.5" y="-1527.8" font-family="sans" font-weight="bold" font-size="14.00">↪ input</text>
<text text-anchor="start" x="363.5" y="-1527.8" font-family="sans" font-size="10.00"> </text>
<text text-anchor="start" x="305.5" y="-1508" font-family="monospace" font-size="10.00">config/final_metadata_50_per_country_isolates.tsv</text>
<text text-anchor="start" x="305.5" y="-1490" font-family="monospace" font-size="10.00">data/input/H5N1_EC.fasta</text>
<text text-anchor="start" x="530.5" y="-1469.8" font-family="sans" font-size="10.00"> </text>
<text text-anchor="start" x="533.5" y="-1469.8" font-family="sans" font-weight="bold" font-size="14.00">output →</text>
<text text-anchor="start" x="597.5" y="-1469.8" font-family="sans" font-size="10.00"> </text>
<text text-anchor="start" x="305.5" y="-1450" font-family="monospace" font-size="10.00">data/final/H5N1_final.fasta</text>
<text text-anchor="start" x="305.5" y="-1432" font-family="monospace" font-size="10.00">data/input/H5N1_context.fasta</text>
<text text-anchor="start" x="305.5" y="-1414" font-family="monospace" font-size="10.00">data/input/H5N1_context_summary.csv</text>
<polygon fill="#d9ad57" stroke="#d9ad57" points="299.5,-1542 299.5,-1542 607.5,-1542 607.5,-1542 299.5,-1542"/>
<polygon fill="#d9ad57" stroke="#d9ad57" points="299.5,-1484 299.5,-1484 607.5,-1484 607.5,-1484 299.5,-1484"/>
<polygon fill="none" stroke="#d9ad57" stroke-width="2" points="299,-1405 299,-1571 606,-1571 606,-1405 299,-1405"/>
</g>
<!-- 1&#45;&gt;0 -->
<g id="edge1" class="edge">
<title>1&#45;&gt;0</title>
<path fill="none" stroke="grey" stroke-width="2" d="M452.5,-1403.72C452.5,-1395.47 452.5,-1386.94 452.5,-1378.32"/>
<polygon fill="grey" stroke="grey" stroke-width="2" points="456,-1378.17 452.5,-1368.17 449,-1378.17 456,-1378.17"/>
</g>
<!-- 2 -->
<g id="node3" class="node">
<title>2</title>
<text text-anchor="start" x="364.5" y="-1755.6" font-family="sans" font-weight="bold" font-size="18.00">build_h5n1_ec_fasta</text>
<text text-anchor="start" x="314.5" y="-1731.8" font-family="sans" font-size="10.00"> </text>
<text text-anchor="start" x="317.5" y="-1731.8" font-family="sans" font-weight="bold" font-size="14.00">↪ input</text>
<text text-anchor="start" x="372.5" y="-1731.8" font-family="sans" font-size="10.00"> </text>
<text text-anchor="start" x="314.5" y="-1712" font-family="monospace" font-size="10.00">config/flu_filtrado.csv</text>
<text text-anchor="start" x="314.5" y="-1694" font-family="monospace" font-size="10.00">data/assembled/ecuador_intermediate_audit.csv</text>
<text text-anchor="start" x="314.5" y="-1676" font-family="monospace" font-size="10.00">data/assembled/ecuador_intermediate_per_sample</text>
<text text-anchor="start" x="521.5" y="-1655.8" font-family="sans" font-size="10.00"> </text>
<text text-anchor="start" x="524.5" y="-1655.8" font-family="sans" font-weight="bold" font-size="14.00">output →</text>
<text text-anchor="start" x="588.5" y="-1655.8" font-family="sans" font-size="10.00"> </text>
<text text-anchor="start" x="314.5" y="-1636" font-family="monospace" font-size="10.00">data/input/H5N1_EC.fasta</text>
<text text-anchor="start" x="314.5" y="-1618" font-family="monospace" font-size="10.00">data/input/H5N1_EC_summary.csv</text>
<polygon fill="#d99c57" stroke="#d99c57" points="308.5,-1746 308.5,-1746 598.5,-1746 598.5,-1746 308.5,-1746"/>
<polygon fill="#d99c57" stroke="#d99c57" points="308.5,-1670 308.5,-1670 598.5,-1670 598.5,-1670 308.5,-1670"/>
<polygon fill="none" stroke="#d99c57" stroke-width="2" points="308,-1609 308,-1775 597,-1775 597,-1609 308,-1609"/>
</g>
<!-- 2&#45;&gt;1 -->
<g id="edge2" class="edge">
<title>2&#45;&gt;1</title>
<path fill="none" stroke="grey" stroke-width="2" d="M452.5,-1607.96C452.5,-1599.44 452.5,-1590.74 452.5,-1582.11"/>
<polygon fill="grey" stroke="grey" stroke-width="2" points="456,-1582.04 452.5,-1572.04 449,-1582.04 456,-1582.04"/>
</g>
<!-- 3 -->
<g id="node4" class="node">
<title>3</title>
<text text-anchor="start" x="300" y="-2319.6" font-family="sans" font-weight="bold" font-size="18.00">build_ecuador_intermediate_input</text>
<text text-anchor="start" x="284.5" y="-2295.8" font-family="sans" font-size="10.00"> </text>
<text text-anchor="start" x="287.5" y="-2295.8" font-family="sans" font-weight="bold" font-size="14.00">↪ input</text>
<text text-anchor="start" x="342.5" y="-2295.8" font-family="sans" font-size="10.00"> </text>
<text text-anchor="start" x="284.5" y="-2276" font-family="monospace" font-size="10.00">../run1/amended_consensus.fasta</text>
<text text-anchor="start" x="284.5" y="-2258" font-family="monospace" font-size="10.00">../run10/amended_consensus.fasta</text>
<text text-anchor="start" x="284.5" y="-2240" font-family="monospace" font-size="10.00">../run12/amended_consensus.fasta</text>
<text text-anchor="start" x="284.5" y="-2222" font-family="monospace" font-size="10.00">../run17/amended_consensus.fasta</text>
<text text-anchor="start" x="284.5" y="-2204" font-family="monospace" font-size="10.00">../run2/amended_consensus.fasta</text>
<text text-anchor="start" x="284.5" y="-2186" font-family="monospace" font-size="10.00">../run20/amended_consensus.fasta</text>
<text text-anchor="start" x="284.5" y="-2168" font-family="monospace" font-size="10.00">../run21/amended_consensus.fasta</text>
<text text-anchor="start" x="284.5" y="-2150" font-family="monospace" font-size="10.00">../run22/amended_consensus.fasta</text>
<text text-anchor="start" x="284.5" y="-2132" font-family="monospace" font-size="10.00">../run23/amended_consensus.fasta</text>
<text text-anchor="start" x="284.5" y="-2114" font-family="monospace" font-size="10.00">../run24/amended_consensus.fasta</text>
<text text-anchor="start" x="284.5" y="-2096" font-family="monospace" font-size="10.00">../run25/amended_consensus.fasta</text>
<text text-anchor="start" x="284.5" y="-2078" font-family="monospace" font-size="10.00">../run26/amended_consensus.fasta</text>
<text text-anchor="start" x="284.5" y="-2060" font-family="monospace" font-size="10.00">../run3/amended_consensus.fasta</text>
<text text-anchor="start" x="284.5" y="-2042" font-family="monospace" font-size="10.00">../run8/amended_consensus.fasta</text>
<text text-anchor="start" x="284.5" y="-2024" font-family="monospace" font-size="10.00">../run9/amended_consensus.fasta</text>
<text text-anchor="start" x="284.5" y="-2006" font-family="monospace" font-size="10.00">../run_agro/amended_consensus.fasta</text>
<text text-anchor="start" x="284.5" y="-1988" font-family="monospace" font-size="10.00">config/flu_filtrado.csv</text>
<text text-anchor="start" x="551.5" y="-1967.8" font-family="sans" font-size="10.00"> </text>
<text text-anchor="start" x="554.5" y="-1967.8" font-family="sans" font-weight="bold" font-size="14.00">output →</text>
<text text-anchor="start" x="618.5" y="-1967.8" font-family="sans" font-size="10.00"> </text>
<text text-anchor="start" x="284.5" y="-1948" font-family="monospace" font-size="10.00">data/all_amended_fasta</text>
<text text-anchor="start" x="284.5" y="-1930" font-family="monospace" font-size="10.00">data/assembled/ecuador_intermediate_audit.csv</text>
<text text-anchor="start" x="284.5" y="-1912" font-family="monospace" font-size="10.00">data/assembled/ecuador_intermediate_expected_lengths.csv</text>
<text text-anchor="start" x="284.5" y="-1894" font-family="monospace" font-size="10.00">data/assembled/ecuador_intermediate_issues.csv</text>
<text text-anchor="start" x="284.5" y="-1876" font-family="monospace" font-size="10.00">data/assembled/ecuador_intermediate_per_sample</text>
<text text-anchor="start" x="284.5" y="-1858" font-family="monospace" font-size="10.00">data/assembled/ecuador_intermediate_raw_segments.csv</text>
<text text-anchor="start" x="284.5" y="-1840" font-family="monospace" font-size="10.00">data/assembled/ecuador_intermediate_sequences.fasta</text>
<text text-anchor="start" x="284.5" y="-1822" font-family="monospace" font-size="10.00">data/assembled/ecuador_intermediate_summary.csv</text>
<polygon fill="#d97957" stroke="#d97957" points="278.5,-2310 278.5,-2310 628.5,-2310 628.5,-2310 278.5,-2310"/>
<polygon fill="#d97957" stroke="#d97957" points="278.5,-1982 278.5,-1982 628.5,-1982 628.5,-1982 278.5,-1982"/>
<polygon fill="none" stroke="#d97957" stroke-width="2" points="278,-1813 278,-2339 627,-2339 627,-1813 278,-1813"/>
</g>
<!-- 3&#45;&gt;2 -->
<g id="edge3" class="edge">
<title>3&#45;&gt;2</title>
<path fill="none" stroke="grey" stroke-width="2" d="M452.5,-1811.77C452.5,-1803.05 452.5,-1794.56 452.5,-1786.4"/>
<polygon fill="grey" stroke="grey" stroke-width="2" points="456,-1786.24 452.5,-1776.24 449,-1786.24 456,-1786.24"/>
</g>
<!-- 4 -->
<g id="node5" class="node">
<title>4</title>
<text text-anchor="start" x="127.5" y="-753.6" font-family="sans" font-weight="bold" font-size="18.00">raxml_ng_tree_per_segment_codon</text>
<text text-anchor="start" x="7.5" y="-729.8" font-family="sans" font-size="10.00"> </text>
<text text-anchor="start" x="10.5" y="-729.8" font-family="sans" font-weight="bold" font-size="14.00">↪ input</text>
<text text-anchor="start" x="65.5" y="-729.8" font-family="sans" font-size="10.00"> </text>
<text text-anchor="start" x="7.5" y="-710" font-family="monospace" font-size="10.00">data/phylogeny/aligned/H5N1_{segment}.mafft</text>
<text text-anchor="start" x="7.5" y="-692" font-family="monospace" font-size="10.00">data/phylogeny/codon_partitions/H5N1_{segment}.codon.partitions</text>
<text text-anchor="start" x="490.5" y="-671.8" font-family="sans" font-size="10.00"> </text>
<text text-anchor="start" x="493.5" y="-671.8" font-family="sans" font-weight="bold" font-size="14.00">output →</text>
<text text-anchor="start" x="557.5" y="-671.8" font-family="sans" font-size="10.00"> </text>
<text text-anchor="start" x="7.5" y="-652" font-family="monospace" font-size="10.00">results/phylogeny/raxml/{segment,PB2|PB1|PA|HA|NP|NA}/H5N1_{segment}.raxml.bestTreeCollapsed</text>
<text text-anchor="start" x="7.5" y="-634" font-family="monospace" font-size="10.00">results/phylogeny/raxml/{segment,PB2|PB1|PA|HA|NP|NA}/H5N1_{segment}.raxml.supportTBE</text>
<polygon fill="#79d957" stroke="#79d957" points="1.5,-744 1.5,-744 567.5,-744 567.5,-744 1.5,-744"/>
<polygon fill="#79d957" stroke="#79d957" points="1.5,-686 1.5,-686 567.5,-686 567.5,-686 1.5,-686"/>
<polygon fill="none" stroke="#79d957" stroke-width="2" points="1,-625 1,-773 566,-773 566,-625 1,-625"/>
</g>
<!-- 8 -->
<g id="node9" class="node">
<title>8</title>
<text text-anchor="start" x="409.5" y="-567.6" font-family="sans" font-weight="bold" font-size="18.00">concat_aligned_segments_with_partitions</text>
<text text-anchor="start" x="409.5" y="-543.8" font-family="sans" font-size="10.00"> </text>
<text text-anchor="start" x="412.5" y="-543.8" font-family="sans" font-weight="bold" font-size="14.00">↪ input</text>
<text text-anchor="start" x="467.5" y="-543.8" font-family="sans" font-size="10.00"> </text>
<text text-anchor="start" x="409.5" y="-524" font-family="monospace" font-size="10.00">data/phylogeny/aligned/H5N1_HA.mafft</text>
<text text-anchor="start" x="409.5" y="-506" font-family="monospace" font-size="10.00">data/phylogeny/aligned/H5N1_MP.mafft</text>
<text text-anchor="start" x="409.5" y="-488" font-family="monospace" font-size="10.00">data/phylogeny/aligned/H5N1_NA.mafft</text>
<text text-anchor="start" x="409.5" y="-470" font-family="monospace" font-size="10.00">data/phylogeny/aligned/H5N1_NP.mafft</text>
<text text-anchor="start" x="409.5" y="-452" font-family="monospace" font-size="10.00">data/phylogeny/aligned/H5N1_NS.mafft</text>
<text text-anchor="start" x="409.5" y="-434" font-family="monospace" font-size="10.00">data/phylogeny/aligned/H5N1_PA.mafft</text>
<text text-anchor="start" x="409.5" y="-416" font-family="monospace" font-size="10.00">data/phylogeny/aligned/H5N1_PB1.mafft</text>
<text text-anchor="start" x="409.5" y="-398" font-family="monospace" font-size="10.00">data/phylogeny/aligned/H5N1_PB2.mafft</text>
<text text-anchor="start" x="409.5" y="-380" font-family="monospace" font-size="10.00">results/phylogeny/raxml/HA/H5N1_HA.raxml.supportTBE</text>
<text text-anchor="start" x="409.5" y="-362" font-family="monospace" font-size="10.00">results/phylogeny/raxml/MP/H5N1_MP.raxml.supportTBE</text>
<text text-anchor="start" x="409.5" y="-344" font-family="monospace" font-size="10.00">results/phylogeny/raxml/NA/H5N1_NA.raxml.supportTBE</text>
<text text-anchor="start" x="409.5" y="-326" font-family="monospace" font-size="10.00">results/phylogeny/raxml/NP/H5N1_NP.raxml.supportTBE</text>
<text text-anchor="start" x="409.5" y="-308" font-family="monospace" font-size="10.00">results/phylogeny/raxml/NS/H5N1_NS.raxml.supportTBE</text>
<text text-anchor="start" x="409.5" y="-290" font-family="monospace" font-size="10.00">results/phylogeny/raxml/PA/H5N1_PA.raxml.supportTBE</text>
<text text-anchor="start" x="409.5" y="-272" font-family="monospace" font-size="10.00">results/phylogeny/raxml/PB1/H5N1_PB1.raxml.supportTBE</text>
<text text-anchor="start" x="409.5" y="-254" font-family="monospace" font-size="10.00">results/phylogeny/raxml/PB2/H5N1_PB2.raxml.supportTBE</text>
<text text-anchor="start" x="711.5" y="-233.8" font-family="sans" font-size="10.00"> </text>
<text text-anchor="start" x="714.5" y="-233.8" font-family="sans" font-weight="bold" font-size="14.00">output →</text>
<text text-anchor="start" x="778.5" y="-233.8" font-family="sans" font-size="10.00"> </text>
<text text-anchor="start" x="409.5" y="-214" font-family="monospace" font-size="10.00">data/phylogeny/H5N1_full_concat_beast.partitions</text>
<text text-anchor="start" x="409.5" y="-196" font-family="monospace" font-size="10.00">data/phylogeny/aligned/H5N1_full_concat_beast.mafft</text>
<polygon fill="#d9d057" stroke="#d9d057" points="403.5,-558 403.5,-558 788.5,-558 788.5,-558 403.5,-558"/>
<polygon fill="#d9d057" stroke="#d9d057" points="403.5,-248 403.5,-248 788.5,-248 788.5,-248 403.5,-248"/>
<polygon fill="none" stroke="#d9d057" stroke-width="2" points="403.5,-187 403.5,-587 787.5,-587 787.5,-187 403.5,-187"/>
</g>
<!-- 4&#45;&gt;8 -->
<g id="edge11" class="edge">
<title>4&#45;&gt;8</title>
<path fill="none" stroke="grey" stroke-width="2" d="M358.23,-623.75C369.87,-612.19 382.34,-599.79 395.26,-586.96"/>
<polygon fill="grey" stroke="grey" stroke-width="2" points="397.85,-589.32 402.47,-579.79 392.91,-584.35 397.85,-589.32"/>
</g>
<!-- 5&#45;&gt;4 -->
<g id="edge5" class="edge">
<title>5&#45;&gt;4</title>
<path fill="none" stroke="grey" stroke-width="2" d="M306.91,-1002.23C203.47,-989.09 77.32,-965.04 44.5,-924 12.86,-884.43 17.17,-852.66 44.5,-810 51.35,-799.3 59.54,-789.63 68.69,-780.89"/>
<polygon fill="grey" stroke="grey" stroke-width="2" points="71.15,-783.38 76.22,-774.07 66.46,-778.19 71.15,-783.38"/>
</g>
<!-- 6 -->
<g id="node7" class="node">
<title>6</title>
<text text-anchor="start" x="166.5" y="-903.6" font-family="sans" font-weight="bold" font-size="18.00">build_segment_codon_partitions</text>
<text text-anchor="start" x="61.5" y="-879.8" font-family="sans" font-size="10.00"> </text>
<text text-anchor="start" x="64.5" y="-879.8" font-family="sans" font-weight="bold" font-size="14.00">↪ input</text>
<text text-anchor="start" x="119.5" y="-879.8" font-family="sans" font-size="10.00"> </text>
<text text-anchor="start" x="61.5" y="-860" font-family="monospace" font-size="10.00">data/phylogeny/aligned/H5N1_{segment}.mafft</text>
<text text-anchor="start" x="490.5" y="-839.8" font-family="sans" font-size="10.00"> </text>
<text text-anchor="start" x="493.5" y="-839.8" font-family="sans" font-weight="bold" font-size="14.00">output →</text>
<text text-anchor="start" x="557.5" y="-839.8" font-family="sans" font-size="10.00"> </text>
<text text-anchor="start" x="61.5" y="-820" font-family="monospace" font-size="10.00">data/phylogeny/codon_partitions/H5N1_{segment,PB2|PB1|PA|HA|NP|NA}.codon.partitions</text>
<polygon fill="#d9bf57" stroke="#d9bf57" points="55.5,-894 55.5,-894 567.5,-894 567.5,-894 55.5,-894"/>
<polygon fill="#d9bf57" stroke="#d9bf57" points="55.5,-854 55.5,-854 567.5,-854 567.5,-854 55.5,-854"/>
<polygon fill="none" stroke="#d9bf57" stroke-width="2" points="55,-811 55,-923 566,-923 566,-811 55,-811"/>
</g>
<!-- 5&#45;&gt;6 -->
<g id="edge7" class="edge">
<title>5&#45;&gt;6</title>
<path fill="none" stroke="grey" stroke-width="2" d="M398.41,-959.63C389.63,-950.47 380.48,-940.94 371.55,-931.63"/>
<polygon fill="grey" stroke="grey" stroke-width="2" points="373.89,-929.01 364.44,-924.22 368.84,-933.86 373.89,-929.01"/>
</g>
<!-- 5&#45;&gt;8 -->
<g id="edge10" class="edge">
<title>5&#45;&gt;8</title>
<path fill="none" stroke="grey" stroke-width="2" d="M547.42,-959.78C558.6,-949.28 568.5,-937.34 575.5,-924 604.58,-868.55 608.62,-723.44 605.91,-598.17"/>
<polygon fill="grey" stroke="grey" stroke-width="2" points="609.41,-597.96 605.68,-588.04 602.41,-598.12 609.41,-597.96"/>
</g>
<!-- 9 -->
<g id="node10" class="node">
<title>9</title>
<text text-anchor="start" x="707.5" y="-744.6" font-family="sans" font-weight="bold" font-size="18.00">raxml_ng_tree_per_segment_simple</text>
<text text-anchor="start" x="631.5" y="-720.8" font-family="sans" font-size="10.00"> </text>
<text text-anchor="start" x="634.5" y="-720.8" font-family="sans" font-weight="bold" font-size="14.00">↪ input</text>
<text text-anchor="start" x="689.5" y="-720.8" font-family="sans" font-size="10.00"> </text>
<text text-anchor="start" x="631.5" y="-701" font-family="monospace" font-size="10.00">data/phylogeny/aligned/H5N1_{segment}.mafft</text>
<text text-anchor="start" x="1030.5" y="-680.8" font-family="sans" font-size="10.00"> </text>
<text text-anchor="start" x="1033.5" y="-680.8" font-family="sans" font-weight="bold" font-size="14.00">output →</text>
<text text-anchor="start" x="1097.5" y="-680.8" font-family="sans" font-size="10.00"> </text>
<text text-anchor="start" x="631.5" y="-661" font-family="monospace" font-size="10.00">results/phylogeny/raxml/{segment,NS|MP}/H5N1_{segment}.raxml.bestTreeCollapsed</text>
<text text-anchor="start" x="631.5" y="-643" font-family="monospace" font-size="10.00">results/phylogeny/raxml/{segment,NS|MP}/H5N1_{segment}.raxml.supportTBE</text>
<polygon fill="#57d957" stroke="#57d957" points="625.5,-735 625.5,-735 1107.5,-735 1107.5,-735 625.5,-735"/>
<polygon fill="#57d957" stroke="#57d957" points="625.5,-695 625.5,-695 1107.5,-695 1107.5,-695 625.5,-695"/>
<polygon fill="none" stroke="#57d957" stroke-width="2" points="625,-634 625,-764 1106,-764 1106,-634 625,-634"/>
</g>
<!-- 5&#45;&gt;9 -->
<g id="edge12" class="edge">
<title>5&#45;&gt;9</title>
<path fill="none" stroke="grey" stroke-width="2" d="M554.79,-959.84C573.39,-948.57 592.33,-936.37 609.5,-924 673.98,-877.53 741.43,-818.01 790.89,-772"/>
<polygon fill="grey" stroke="grey" stroke-width="2" points="793.44,-774.41 798.36,-765.03 788.66,-769.29 793.44,-774.41"/>
</g>
<!-- 6&#45;&gt;4 -->
<g id="edge4" class="edge">
<title>6&#45;&gt;4</title>
<path fill="none" stroke="grey" stroke-width="2" d="M301.36,-809.8C300,-801.46 298.58,-792.72 297.16,-783.97"/>
<polygon fill="grey" stroke="grey" stroke-width="2" points="300.61,-783.4 295.55,-774.09 293.7,-784.53 300.61,-783.4"/>
</g>
<!-- 7 -->
<g id="node8" class="node">
<title>7</title>
<text text-anchor="start" x="481" y="-129.6" font-family="sans" font-weight="bold" font-size="18.00">raxml_ng_tree_full_concat</text>
<text text-anchor="start" x="349.5" y="-105.8" font-family="sans" font-size="10.00"> </text>
<text text-anchor="start" x="352.5" y="-105.8" font-family="sans" font-weight="bold" font-size="14.00">↪ input</text>
<text text-anchor="start" x="407.5" y="-105.8" font-family="sans" font-size="10.00"> </text>
<text text-anchor="start" x="349.5" y="-86" font-family="monospace" font-size="10.00">data/phylogeny/H5N1_full_concat_beast.partitions</text>
<text text-anchor="start" x="349.5" y="-68" font-family="monospace" font-size="10.00">data/phylogeny/aligned/H5N1_full_concat_beast.mafft</text>
<text text-anchor="start" x="772.5" y="-47.8" font-family="sans" font-size="10.00"> </text>
<text text-anchor="start" x="775.5" y="-47.8" font-family="sans" font-weight="bold" font-size="14.00">output →</text>
<text text-anchor="start" x="839.5" y="-47.8" font-family="sans" font-size="10.00"> </text>
<text text-anchor="start" x="349.5" y="-28" font-family="monospace" font-size="10.00">results/phylogeny/raxml/full_concat/H5N1_full_concat_beast.raxml.bestTreeCollapsed</text>
<text text-anchor="start" x="349.5" y="-10" font-family="monospace" font-size="10.00">results/phylogeny/raxml/full_concat/H5N1_full_concat_beast.raxml.supportTBE</text>
<polygon fill="#add957" stroke="#add957" points="343.5,-120 343.5,-120 849.5,-120 849.5,-120 343.5,-120"/>
<polygon fill="#add957" stroke="#add957" points="343.5,-62 343.5,-62 849.5,-62 849.5,-62 343.5,-62"/>
<polygon fill="none" stroke="#add957" stroke-width="2" points="343,-1 343,-149 848,-149 848,-1 343,-1"/>
</g>
<!-- 8&#45;&gt;7 -->
<g id="edge8" class="edge">
<title>8&#45;&gt;7</title>
<path fill="none" stroke="grey" stroke-width="2" d="M595.5,-185.73C595.5,-177.03 595.5,-168.53 595.5,-160.37"/>
<polygon fill="grey" stroke="grey" stroke-width="2" points="599,-160.22 595.5,-150.22 592,-160.22 599,-160.22"/>
</g>
<!-- 9&#45;&gt;8 -->
<g id="edge9" class="edge">
<title>9&#45;&gt;8</title>
<path fill="none" stroke="grey" stroke-width="2" d="M808.57,-632.64C798.61,-621.2 787.79,-608.78 776.48,-595.79"/>
<polygon fill="grey" stroke="grey" stroke-width="2" points="778.97,-593.32 769.76,-588.08 773.69,-597.92 778.97,-593.32"/>
</g>
</g>
</svg>
